<svg width="22" height="22" fill="none" xmlns="http://www.w3.org/2000/svg"><g clip-path="url(#clip0)" fill="#fff"><path d="M20.035 19.642a1.88 1.88 0 001.288-.486l-6.233-6.233c-.15.107-.295.21-.431.31a28.79 28.79 0 01-1.136.804c-.29.192-.678.389-1.16.59-.483.2-.933.3-1.35.3h-.025c-.418 0-.868-.1-1.35-.3a6.98 6.98 0 01-1.161-.59c-.29-.192-.67-.46-1.136-.804-.13-.096-.274-.2-.43-.312L.677 19.156a1.88 1.88 0 001.287.486h18.072zM1.24 8.999A6.509 6.509 0 010 7.93v9.483l5.494-5.494A424.647 424.647 0 001.24 9zm19.532 0a361.193 361.193 0 00-4.263 2.923L22 17.415V7.931a6.776 6.776 0 01-1.228 1.068z"/><path d="M20.036 2.356H1.965c-.63 0-1.115.213-1.455.639C.17 3.42 0 3.952 0 4.59c0 .515.226 1.074.676 1.676.45.601.929 1.074 1.436 1.417.278.197 1.117.78 2.517 1.75a824.569 824.569 0 013.217 2.24l.183.131.338.244c.266.192.487.348.663.467.176.118.39.251.639.399.25.147.485.258.706.331.22.074.425.11.614.11h.024c.188 0 .393-.036.614-.11.22-.074.456-.184.706-.331.25-.148.462-.28.638-.4.176-.118.397-.274.663-.466a86.676 86.676 0 01.522-.374l1.242-.864 4.504-3.127a5.839 5.839 0 001.497-1.51c.4-.589.602-1.207.602-1.853 0-.54-.195-1.003-.584-1.388a1.899 1.899 0 00-1.38-.577z"/></g><defs><clipPath id="clip0"><path fill="#fff" d="M0 0h22v22H0z"/></clipPath></defs></svg>