<svg width="24" height="24" fill="none" xmlns="http://www.w3.org/2000/svg"><path d="M22.203 4.138H1.797C.805 4.138 0 4.942 0 5.935v12.13c0 .992.805 1.797 1.797 1.797h20.406c.992 0 1.797-.805 1.797-1.797V5.934c0-.993-.805-1.797-1.797-1.797z" fill="#82C3D2"/><path d="M2.79 6.02c-.038-.158-.047-.217.024-.288a.089.089 0 10-.125-.126c-.144.145-.11.294-.073.452-.113-.037-.231-.01-.294.07-.031.04-.092.151.021.33a.089.089 0 10.15-.095c-.042-.068-.044-.11-.032-.124.014-.018.058-.028.104-.012.029.01.098.046.098.153 0 .085-.04.163-.109.214a.271.271 0 01-.244.039c-.106-.032-.18-.144-.18-.272a.66.66 0 01.055-.265c.006-.012.142-.293.177-.398.069-.207-.001-.312-.05-.355a.222.222 0 00-.238-.038c-.012.006-.023.014-.033.02a.263.263 0 00-.033-.02.222.222 0 00-.239.038c-.048.043-.118.148-.049.355.035.105.17.386.175.395a.663.663 0 01.057.268c0 .128-.074.24-.18.272a.271.271 0 01-.245-.039.264.264 0 01-.108-.214c0-.107.069-.142.098-.153.046-.016.09-.006.103.012.012.015.011.056-.031.123a.089.089 0 10.15.095c.113-.178.052-.289.02-.329-.062-.08-.18-.107-.294-.07.038-.158.072-.307-.072-.451a.089.089 0 10-.126.125c.072.071.062.13.025.288a1.47 1.47 0 00-.05.36c0 .097.033.19.091.266H1.33a.089.089 0 100 .178h.003a.444.444 0 00-.092.266c0 .146.028.265.05.36.038.159.048.217-.024.288a.089.089 0 10.126.126c.144-.144.11-.294.072-.452.114.037.232.01.295-.07.031-.04.092-.151-.022-.329a.089.089 0 00-.15.095c.043.067.044.109.032.124-.014.017-.057.027-.103.01-.03-.01-.098-.045-.098-.152 0-.085.04-.163.108-.214a.27.27 0 01.245-.039c.106.033.18.145.18.272 0 .092-.02.184-.057.268l-.582 1.309a.831.831 0 00-.072.34c0 .15.07.29.178.374a.475.475 0 00-.178.374c0 .118.025.232.072.34l.582 1.308a.663.663 0 01.057.268c0 .128-.074.24-.18.272a.27.27 0 01-.245-.038.264.264 0 01-.108-.215c0-.107.069-.142.098-.152.046-.016.09-.007.103.01.012.016.01.057-.032.124a.089.089 0 10.15.095c.114-.177.053-.289.022-.329-.063-.08-.181-.107-.295-.07.038-.158.072-.307-.072-.451a.089.089 0 10-.126.125c.071.071.062.13.025.288a1.49 1.49 0 00-.05.36c0 .097.033.19.091.266H1.33a.089.089 0 100 .178h.003a.444.444 0 00-.092.267c0 .146.028.264.05.36.038.158.047.216-.024.287a.089.089 0 10.126.126c.144-.144.11-.294.072-.452.114.037.232.01.295-.07.031-.04.092-.151-.022-.329a.089.089 0 00-.15.095c.043.068.044.109.032.124-.014.018-.057.027-.103.011-.03-.01-.098-.046-.098-.152 0-.086.04-.164.108-.215a.27.27 0 01.245-.039c.106.033.18.145.18.273 0 .091-.02.184-.057.267l-.582 1.31a.831.831 0 00-.072.339c0 .151.07.29.178.374a.475.475 0 00-.178.375.85.85 0 00.072.34l.582 1.308a.663.663 0 01.057.267c0 .128-.074.24-.18.273a.27.27 0 01-.245-.04.264.264 0 01-.108-.213c0-.107.069-.143.098-.153.046-.016.09-.007.103.011.012.015.01.056-.032.123a.089.089 0 10.15.096c.114-.178.053-.29.022-.33-.063-.079-.181-.106-.295-.07.038-.157.072-.307-.072-.45a.089.089 0 10-.126.125c.071.07.062.13.025.288a1.49 1.49 0 00-.05.36c0 .138.066.271.178.355a.446.446 0 00-.179.355c0 .146.028.265.05.36.038.158.047.217-.024.288a.089.089 0 10.126.125c.144-.144.11-.293.072-.452.114.037.232.01.295-.07.031-.04.092-.15-.022-.328a.089.089 0 10-.15.095c.043.067.044.108.032.123-.014.018-.057.027-.103.011-.03-.01-.098-.045-.098-.152 0-.086.04-.164.108-.215a.271.271 0 01.245-.038c.106.032.18.144.18.272a.66.66 0 01-.056.265c-.005.012-.141.293-.176.398-.07.207.001.311.049.355a.22.22 0 00.239.037c.012-.005.022-.013.033-.02.01.007.02.015.033.02a.22.22 0 00.239-.038c.048-.043.118-.147.049-.354a5.583 5.583 0 00-.176-.396.663.663 0 01-.056-.267c0-.128.074-.24.18-.272a.271.271 0 01.244.038c.07.051.109.13.109.215 0 .107-.069.142-.098.152-.046.016-.09.007-.104-.01-.012-.016-.01-.057.032-.124a.089.089 0 10-.15-.096c-.113.178-.052.29-.021.33.063.079.18.106.294.07-.037.158-.071.307.073.451a.089.089 0 10.125-.125c-.07-.071-.062-.13-.024-.288.022-.096.05-.214.05-.36a.446.446 0 00-.178-.355.446.446 0 00.178-.356 1.49 1.49 0 00-.05-.36c-.038-.158-.047-.216.024-.288a.089.089 0 10-.125-.125c-.144.144-.11.293-.073.452-.113-.037-.231-.01-.294.07-.031.04-.092.15.021.329a.089.089 0 10.15-.095c-.042-.068-.044-.109-.032-.124.014-.018.058-.027.104-.011.029.01.098.045.098.152 0 .086-.04.164-.109.215a.27.27 0 01-.244.038c-.106-.032-.18-.144-.18-.272a.68.68 0 01.056-.267l.582-1.309a.831.831 0 00.072-.34.475.475 0 00-.177-.374.475.475 0 00.177-.374.831.831 0 00-.072-.34l-.582-1.309a.663.663 0 01-.056-.267c0-.128.074-.24.18-.273a.271.271 0 01.244.04c.07.05.109.128.109.214 0 .107-.069.142-.098.152-.046.016-.09.007-.104-.011-.012-.015-.01-.056.032-.123a.089.089 0 10-.15-.096c-.113.178-.052.29-.021.33.063.079.18.106.294.07-.037.157-.071.307.073.451a.089.089 0 10.125-.126c-.07-.07-.062-.13-.024-.288.022-.095.05-.213.05-.36a.444.444 0 00-.091-.266h.002a.089.089 0 100-.178H2.75a.444.444 0 00.091-.266 1.49 1.49 0 00-.05-.36c-.038-.158-.047-.217.024-.288a.089.089 0 10-.125-.125c-.144.144-.11.293-.073.451-.113-.037-.231-.01-.294.07-.031.04-.092.152.022.33a.089.089 0 10.15-.095c-.043-.068-.045-.11-.033-.124.014-.018.058-.027.104-.011.03.01.098.045.098.152 0 .085-.04.164-.109.215a.271.271 0 01-.244.038c-.106-.032-.18-.144-.18-.272 0-.091.02-.184.057-.268l.581-1.308a.832.832 0 00.072-.34.475.475 0 00-.177-.374.475.475 0 00.177-.375.832.832 0 00-.072-.34l-.581-1.308a.663.663 0 01-.057-.268c0-.127.074-.24.18-.272a.271.271 0 01.244.039.26.26 0 01.109.214c0 .107-.069.143-.098.153-.046.016-.09.006-.104-.011-.012-.015-.01-.057.032-.124a.089.089 0 10-.15-.095c-.113.178-.052.29-.021.329.063.08.18.107.294.07-.037.158-.071.308.073.452a.089.089 0 00.125 0 .089.089 0 000-.126c-.07-.071-.062-.13-.024-.288a1.49 1.49 0 00.05-.36.444.444 0 00-.091-.266h.003a.089.089 0 100-.178H2.75a.444.444 0 00.091-.266c0-.146-.028-.265-.05-.36zm-.902-.378c-.031-.095-.02-.149 0-.168.014-.013.035-.012.048-.006.016.007.016.018.016.024a.089.089 0 10.178 0c0-.006 0-.017.016-.024a.045.045 0 01.047.006c.02.019.032.073 0 .168a4.77 4.77 0 01-.152.344 4.72 4.72 0 01-.153-.344zm.153 3.665a.44.44 0 00.09.093.44.44 0 00-.09.093.44.44 0 00-.09-.093.442.442 0 00.09-.093zm0 5.329a.44.44 0 00.09.093.442.442 0 00-.09.093.44.44 0 00-.09-.093.437.437 0 00.09-.093zm.152 3.851c.032.095.02.149 0 .168a.046.046 0 01-.047.006c-.016-.007-.016-.018-.016-.024a.089.089 0 10-.178 0c0 .006 0 .017-.016.024-.013.006-.034.006-.047-.006-.021-.02-.032-.073 0-.168a4.21 4.21 0 01.152-.344c.045.094.129.275.152.344zm-.064-1.093a.44.44 0 00-.088.093.44.44 0 00-.089-.093.442.442 0 00.089-.093.439.439 0 00.088.093zm.477-2.023l-.565 1.27-.565-1.27a.663.663 0 01-.057-.268c0-.127.074-.24.18-.272a.271.271 0 01.245.039c.068.05.108.129.108.214 0 .107-.069.143-.098.153-.046.016-.09.007-.103-.011-.012-.015-.011-.057.031-.124a.089.089 0 10-.15-.095c-.113.178-.052.29-.02.329.064.081.185.109.3.069a.307.307 0 00.04-.017v.224a.089.089 0 00-.178.005c0 .058.04.159.178.19v.165a.089.089 0 10.178 0v-.165c.137-.031.177-.132.177-.19 0-.049-.04-.092-.088-.092a.086.086 0 00-.089.086v-.223a.322.322 0 00.04.017c.115.04.236.012.3-.069.032-.04.092-.151-.021-.329a.089.089 0 10-.15.095c.043.067.044.109.032.124-.014.018-.058.027-.103.01-.03-.01-.098-.045-.098-.152 0-.085.04-.163.108-.214a.27.27 0 01.244-.039c.106.033.18.145.18.273 0 .09-.02.183-.056.267zm0-1.284a.663.663 0 01.056.268c0 .128-.074.24-.18.272a.27.27 0 01-.244-.039.264.264 0 01-.108-.214c0-.107.068-.143.098-.153.045-.016.089-.007.103.011.012.016.01.057-.032.124a.089.089 0 10.15.095c.113-.178.053-.29.021-.329-.064-.081-.185-.109-.3-.069a.338.338 0 00-.04.017v-.224a.089.089 0 00.177-.005c0-.058-.04-.159-.177-.19v-.165a.089.089 0 10-.178 0v.165c-.137.031-.178.132-.178.19 0 .049.04.092.089.092a.086.086 0 00.088-.086v.223a.307.307 0 00-.039-.017c-.116-.04-.237-.012-.3.07-.032.039-.093.15.02.328a.089.089 0 10.15-.095c-.042-.067-.043-.109-.031-.124.013-.018.057-.027.103-.01.03.01.098.045.098.152 0 .085-.04.163-.108.214a.27.27 0 01-.245.039c-.106-.033-.18-.145-.18-.272 0-.092.02-.184.057-.268l.565-1.27.565 1.27zm-.477-2.023a.442.442 0 00-.088.093.44.44 0 00-.089-.093.441.441 0 00.089-.092.44.44 0 00.088.092zm.477-2.022l-.565 1.27-.565-1.27a.664.664 0 01-.057-.268c0-.128.074-.24.18-.272a.271.271 0 01.245.039c.068.05.108.129.108.214 0 .107-.069.142-.098.153-.046.016-.09.006-.103-.012-.012-.015-.011-.056.031-.123a.089.089 0 10-.15-.095c-.113.178-.052.289-.02.329.064.08.185.109.3.068a.307.307 0 00.04-.017v.225a.089.089 0 00-.178.005c0 .058.04.158.178.19v.165a.089.089 0 00.178 0v-.166c.137-.03.177-.131.177-.19a.09.09 0 00-.088-.09.086.086 0 00-.089.085v-.224a.307.307 0 00.04.017c.115.04.236.013.3-.068.032-.04.092-.152-.021-.33a.089.089 0 10-.15.096c.043.067.044.108.032.123-.014.018-.058.028-.103.012-.03-.01-.098-.046-.098-.153 0-.085.04-.164.108-.214a.271.271 0 01.244-.04c.106.033.18.145.18.273 0 .092-.02.184-.056.268zm0-1.284a.663.663 0 01.056.267c0 .128-.074.24-.18.273a.27.27 0 01-.244-.04.264.264 0 01-.108-.214c0-.106.068-.142.098-.152.045-.016.089-.007.103.011.012.015.01.056-.032.123a.089.089 0 10.15.096c.113-.178.053-.29.021-.33-.064-.08-.185-.108-.3-.068a.314.314 0 00-.04.017v-.225a.089.089 0 00.177-.005c0-.057-.04-.158-.177-.19v-.165a.089.089 0 10-.178 0v.166c-.137.031-.178.132-.178.19 0 .049.04.091.089.091a.086.086 0 00.088-.086v.224a.311.311 0 00-.039-.017c-.116-.04-.237-.012-.3.069-.032.04-.093.15.02.329a.089.089 0 10.15-.095c-.042-.068-.043-.109-.031-.124.013-.018.057-.027.103-.011.03.01.098.045.098.152 0 .086-.04.164-.108.215a.27.27 0 01-.245.038c-.106-.032-.18-.144-.18-.272 0-.091.02-.184.057-.267l.565-1.271.565 1.27zm-.654-2.023a.441.441 0 00.089-.093.44.44 0 00.088.093.44.44 0 00-.088.093.433.433 0 00-.089-.093zm10.738 6.418a2.138 2.138 0 10.001-4.275 2.138 2.138 0 000 4.275zm.162-4.863a.16.16 0 01-.321 0c0-.088.16-.48.16-.48s.16.392.16.48zm-.322 5.452a.16.16 0 11.322 0c0 .089-.16.481-.16.481s-.161-.392-.161-.48zm2.887-2.565a.16.16 0 110-.32c.089 0 .481.16.481.16s-.392.16-.48.16zm-5.452-.321a.16.16 0 010 .321c-.088 0-.48-.16-.48-.16s.392-.16.48-.16zm4.767-1.653a.16.16 0 01-.227-.227c.063-.063.454-.227.454-.227s-.164.391-.227.454zM10.65 12.83a.16.16 0 11.227.227c-.062.063-.453.227-.453.227s.164-.391.226-.454zm3.855.227a.16.16 0 01.227-.227c.063.063.227.454.227.454s-.391-.164-.454-.227zm-3.628-4.081a.16.16 0 11-.227.227c-.062-.063-.226-.454-.226-.454s.39.164.453.227zm.919-.539a.16.16 0 11-.296.123c-.034-.082-.036-.506-.036-.506s.298.301.332.383zm1.79 5.16a.16.16 0 11.297-.123c.034.082.036.506.036.506s-.299-.301-.333-.383zm1.685-3.476a.16.16 0 11-.123-.296c.082-.034.506-.036.506-.036s-.301.298-.383.332zm-5.16 1.791a.16.16 0 11.123.296c-.082.034-.506.036-.506.036s.302-.298.383-.332zm3.772-3.352a.16.16 0 01-.297-.123c.034-.082.332-.383.332-.383s-.002.424-.035.505zM11.5 13.473a.16.16 0 11.296.123c-.034.082-.332.383-.332.383s.002-.424.036-.506zm3.648-1.265a.16.16 0 11.123-.296c.082.033.383.332.383.332s-.424-.002-.506-.036zm-4.914-2.383a.16.16 0 01-.123.296c-.081-.034-.383-.332-.383-.332s.424.002.506.036zm2.083-1.513a.16.16 0 11-.315.062c-.017-.087.064-.503.064-.503s.233.354.25.44zm.749 5.41a.16.16 0 11.314-.063c.018.087-.063.503-.063.503s-.234-.353-.251-.44zm2.33-3.08a.16.16 0 11-.063-.314c.087-.018.504.063.504.063s-.354.234-.441.251zm-5.41.748a.16.16 0 11.063.315c-.087.018-.503-.063-.503-.063s.354-.234.44-.251zm4.353-2.551a.16.16 0 01-.267-.179c.05-.073.4-.31.4-.31s-.084.415-.133.489zm-3.296 4.355a.16.16 0 01.267.178c-.05.074-.4.311-.4.311s.084-.415.133-.489zm3.826-.529a.16.16 0 01.178-.267c.073.05.31.4.31.4s-.415-.084-.488-.133zm-4.355-3.297a.16.16 0 01-.178.267c-.074-.05-.311-.4-.311-.4s.415.084.489.133zm.796-.708a.16.16 0 01-.267.179c-.049-.074-.133-.49-.133-.49s.35.238.4.311zm2.762 4.711a.16.16 0 01.267-.178c.05.074.134.49.134.49s-.352-.238-.4-.312zm.975-3.736a.16.16 0 01-.178-.267c.073-.049.489-.134.489-.134s-.238.352-.311.4zm-4.711 2.762a.16.16 0 01.178.267c-.074.049-.49.134-.49.134s.238-.352.312-.4zm3.044-4.023a.16.16 0 11-.314-.062c.017-.087.25-.44.25-.44s.082.415.064.502zm-1.378 5.286a.16.16 0 11.315.062c-.018.087-.251.44-.251.44s-.081-.416-.064-.503zm3.331-1.955a.16.16 0 01.063-.314c.087.017.44.25.44.25s-.416.082-.503.064zm-5.284-1.378a.16.16 0 01-.063.314c-.086-.017-.44-.25-.44-.25s.416-.082.503-.064z" fill="#FFE15A"/><path d="M17.72 11.579a.123.123 0 00-.16.066l-.007.017c-.093.216-.285.532-.478.83.18-.58.345-1.2.356-1.244a.123.123 0 00-.236-.064c-.085.301-.257.698-.415 1.034.029-.375.034-.722.035-.747a.123.123 0 00-.118-.124c-.062.002-.122.047-.127.114-.157 2.16-2.235 3.125-2.438 3.214a5.03 5.03 0 00-1.046.221c-.05.018-.094.036-.137.053a.123.123 0 00-.051-.008c-1.374.1-2.469-.464-3.256-1.671a5.9 5.9 0 01-.783-1.88.122.122 0 10-.24.045c.004.028.086.446.311.996a5.151 5.151 0 01-.585-1.353l-.008-.016c-.003-.009-.006-.018-.011-.025l-.013-.013c-.007-.007-.013-.014-.021-.02l-.015-.007c-.01-.004-.018-.008-.028-.01h-.022c-.007 0-.014-.002-.021-.001l-.005.002h-.005c-.006.001-.011.005-.017.008a.112.112 0 00-.022.01.096.096 0 00-.018.017l-.015.017c-.004.006-.007.014-.01.021l-.008.022v.024c0 .007-.002.013-.001.02l.002.008v.003c.076.447.257.91.42 1.263-.26-.294-.476-.634-.553-.835-.002-.006-.007-.01-.01-.015-.004-.008-.008-.016-.014-.023l-.015-.012c-.008-.006-.015-.012-.023-.016-.006-.003-.012-.004-.018-.005-.009-.003-.017-.006-.027-.007-.008 0-.015.002-.023.003-.007 0-.014 0-.02.002l-.004.002h-.004c-.007.003-.012.008-.018.012-.007.004-.014.007-.02.012-.006.006-.01.013-.015.02a.05.05 0 00-.013.018c-.004.007-.005.015-.007.022-.002.008-.005.015-.005.023l.002.024c.001.007 0 .014.002.02.134.43.455.943.706 1.303a2.836 2.836 0 01-.408-.388l-.014-.018a.123.123 0 00-.19.155 7.424 7.424 0 00.593.628l-.25-.106a.122.122 0 00-.12.211c.023.018.463.347.844.54a.978.978 0 01-.125-.003.123.123 0 00-.056.236c.01.003.125.051.269.102a.122.122 0 00-.015.22c.012.007.186.106.4.194a.123.123 0 00.033.168c.038.026.87.591 1.843.591.064 0 .128-.002.193-.008a.123.123 0 10-.02-.244c-.61.05-1.199-.18-1.55-.355a.6.6 0 00.08-.024.123.123 0 00-.043-.236c-.142-.003-.34-.072-.509-.147.064-.032.102-.063.105-.065a.123.123 0 00-.059-.215 1.566 1.566 0 01-.185-.046.257.257 0 00.105-.102.123.123 0 00-.083-.175.723.723 0 01-.108-.033.123.123 0 00-.011-.184 7.183 7.183 0 01-.242-.201.123.123 0 00.053-.191 8.653 8.653 0 01-.23-.305c.044.033.087.068.13.095a.122.122 0 00.175-.047c.075.08.153.152.235.214.01.008.023.008.035.012.035.058.071.116.11.175.744 1.145 1.794 1.759 3.053 1.796a2.6 2.6 0 01-.441.22 2.996 2.996 0 00-.12.051.117.117 0 00-.052.022c-.348.162-.491.32-.55.432-.058.11-.008.224.063.283a.124.124 0 00.135.014.126.126 0 00.07-.115c.006-.006.027-.023.094-.026.048-.004.151.007.27.017.114.01.25.02.396.027l-.196.229a.122.122 0 00.097.203l.206-.007a.2.2 0 00.114.077c.084.021.168-.012.231-.052a.3.3 0 00.134.054.388.388 0 00.222-.041.3.3 0 00.162.048h.002c.096 0 .18-.047.239-.092a.302.302 0 00.14.043.364.364 0 00.21-.062.485.485 0 00.42-.137.219.219 0 00.121.031.284.284 0 00.197-.104c.196.024.337-.012.418-.109a.292.292 0 00.067-.165c.544-.003.593-.3.597-.337a.122.122 0 00-.115-.135l-1.424-.086a.121.121 0 00-.127.094s-.025.091-.1.164c-.103.097-.268.149-.447.176a.122.122 0 00-.166-.12c-.294.115-.77.1-1.143.075.057-.047.126-.093.18-.123a.123.123 0 00.062-.13c-.007-.039-.034-.065-.067-.082.103-.052.188-.103.269-.152a2.33 2.33 0 01.513-.25c.464-.161 1.002-.21 1.007-.211a.122.122 0 00.036-.009c.019-.008 1.535-.643 2.25-2.109a1.37 1.37 0 01-.03.12.122.122 0 00.2.127 1.86 1.86 0 01-.12.268.123.123 0 00.078.183 3.872 3.872 0 01-.167.228.123.123 0 00.004.157 2.95 2.95 0 01-.246.236.123.123 0 00-.037.14.825.825 0 01-.149.072.122.122 0 00-.036.217 3.49 3.49 0 01-.246.057.123.123 0 00-.037.227c.004.002.046.026.11.053-.237.096-.66.22-1.355.289a.123.123 0 00-.11.134.124.124 0 00.134.11c1.32-.13 1.726-.46 1.743-.475a.123.123 0 00-.022-.202c.421-.133.602-.28.611-.288a.123.123 0 00-.122-.208.483.483 0 01-.073.018 15.53 15.53 0 00.779-.577.122.122 0 00-.155-.19l-.06.047a3.341 3.341 0 01-.224.15c.321-.365.644-.76.737-.874l.025-.03a.122.122 0 00-.191-.155l-.03.038a6.648 6.648 0 01-.3.339 14.34 14.34 0 00.611-1.262l.004-.01a.122.122 0 00-.066-.16zm-5.746 4.132l.033.005a.58.58 0 00-.101.126 4.747 4.747 0 00-.152-.011 1.82 1.82 0 01.22-.12z" fill="#FFE15A"/></svg>