<svg width="57" height="57" fill="none" xmlns="http://www.w3.org/2000/svg"><path d="M54.716 12.225a1.36 1.36 0 00-.13-.58 1.268 1.268 0 00-.887-.7L31.405.13a1.322 1.322 0 00-1.149 0L7.744 11.043A1.318 1.318 0 007 12.18v27.438c0 .503.285.963.744 1.182l22.512 10.91c.011 0 .011 0 .022.011.033.01.066.022.099.044.01 0 .021.01.043.01l.099.033c.01 0 .022.012.033.012.033.01.076.01.11.021h.032c.044 0 .099.011.142.011.044 0 .099 0 .143-.01h.032a.39.39 0 00.11-.023c.01 0 .022-.01.033-.01l.098-.033c.011 0 .022-.011.044-.011a.392.392 0 00.099-.044c.01 0 .01 0 .021-.011l22.578-10.944c.449-.219.744-.679.744-1.182V12.257c-.022-.01-.022-.021-.022-.032zm-23.89-9.456l19.524 9.466-7.19 3.492L23.634 6.26l7.19-3.491zm0 18.933L11.3 12.235l9.324-4.52 19.525 9.467-9.325 4.52zm-21.2-7.354l19.886 9.641v24.439L9.627 38.786V14.348zm22.513 34.08V23.99l9.335-4.531v6.391c0 .722.591 1.313 1.313 1.313.723 0 1.314-.59 1.314-1.313v-7.672l7.989-3.874v24.438l-19.951 9.686z" fill="#FFE165"/></svg>