<svg width="53" height="53" fill="none" xmlns="http://www.w3.org/2000/svg"><g clip-path="url(#clip0)"><path d="M16.148 38.301a1.035 1.035 0 10.001 2.071 1.035 1.035 0 000-2.07z" fill="#000"/><path d="M46.597 19.669l6.1-6.1a1.035 1.035 0 00-.427-1.721L37.415 7.263a10.33 10.33 0 00-9.88-7.262c-4.24 0-8.033 2.584-9.602 6.483L.727 11.849a1.035 1.035 0 00-.424 1.72l6.26 6.26-3.948 6.581a1.035 1.035 0 00.56 1.515l5.727 1.909v15.92c0 .432.268.818.672.97 3.501 1.313 16.512 6.193 16.582 6.217.205.073.436.082.662.01l.009-.003 18.633-6.211c.422-.141.708-.537.708-.982V29.408l6.107-1.92a1.035 1.035 0 00.422-1.72l-6.1-6.1zM19.7 7.659a8.284 8.284 0 017.834-5.588 8.264 8.264 0 018.281 8.281 8.181 8.181 0 01-1.845 5.213 8.252 8.252 0 01-6.436 3.069 8.289 8.289 0 01-6.805-3.562 8.22 8.22 0 01-1.476-4.72c0-.924.15-1.83.447-2.694zM2.977 13.315L17.294 8.85a10.289 10.289 0 001.037 6.239L8.147 18.485l-5.17-5.17zm2.077 13.053l3.273-5.456 16.621 5.54-3.273 5.456-16.62-5.54zm20.41 24.103l-14.492-5.434V30.524c11.403 3.78 10.846 3.665 11.163 3.665.356 0 .697-.184.888-.502l2.442-4.07v20.855zM26.5 24.79l-15.36-5.12 8.364-2.788a10.358 10.358 0 008.03 3.823c2.893 0 5.612-1.19 7.567-3.288l6.758 2.253-15.36 5.12z" fill="#fff"/><path d="M46.597 19.669l6.1-6.1a1.035 1.035 0 00-.427-1.721L37.415 7.263a10.33 10.33 0 00-9.88-7.262c-4.24 0-8.033 2.584-9.602 6.483L.727 11.849a1.035 1.035 0 00-.424 1.72l6.26 6.26-3.948 6.581a1.035 1.035 0 00.56 1.515l5.727 1.909v15.92c0 .432.268.818.672.97 3.501 1.313 16.512 6.193 16.582 6.217.205.073.436.082.662.01l.009-.003 18.633-6.211c.422-.141.708-.537.708-.982V29.408l6.107-1.92a1.035 1.035 0 00.422-1.72l-6.1-6.1zm-8.71-9.317c0-.263-.012-.525-.031-.786l12.162 3.753-5.165 5.165-8.44-2.812a10.381 10.381 0 001.473-5.32zM19.7 7.658a8.284 8.284 0 017.834-5.587 8.264 8.264 0 018.281 8.281 8.181 8.181 0 01-1.845 5.213 8.252 8.252 0 01-6.436 3.069 8.289 8.289 0 01-6.805-3.562 8.22 8.22 0 01-1.476-4.72c0-.924.15-1.83.447-2.694zM2.977 13.315l14.317-4.464a10.289 10.289 0 001.037 6.239L8.147 18.485l-5.17-5.17zM5.054 26.37l3.273-5.456 16.621 5.54-3.273 5.456-16.62-5.54zm20.41 24.103l-14.492-5.434V30.524c11.403 3.78 10.846 3.665 11.163 3.665.356 0 .697-.184.888-.502l2.442-4.07v20.855zM26.5 24.79l-15.36-5.12 8.364-2.788a10.358 10.358 0 008.03 3.823c2.893 0 5.612-1.19 7.567-3.288l6.758 2.253-15.36 5.12zm17.597 20.22l-16.562 5.52V28.831l3.67 4.586c.267.334.711.47 1.118.341l11.774-3.7v14.95zM32.38 31.57l-4.143-5.179 16.617-5.539 5.172 5.172L32.38 31.57z" fill="#000"/><path d="M22.723 40.598l-2.302-.863a1.035 1.035 0 00-.727 1.939l2.302.863a1.035 1.035 0 10.727-1.939zm0 4.422l-6.211-2.328a1.035 1.035 0 00-.727 1.938l6.21 2.33a1.034 1.034 0 001.333-.607 1.034 1.034 0 00-.605-1.332zm10.72-38.506a1.035 1.035 0 00-1.464 0l-5.48 5.48-1.337-1.34a1.035 1.035 0 00-1.464 1.465l2.07 2.07c.404.404 1.06.404 1.464 0l6.21-6.21a1.035 1.035 0 000-1.465z" fill="#000"/></g><defs><clipPath id="clip0"><path fill="#fff" d="M0 0h53v53H0z"/></clipPath></defs></svg>