<svg width="48" height="48" fill="none" xmlns="http://www.w3.org/2000/svg"><path d="M39.242 31.565c-1.172 0-2.287.46-3.127 1.29-.84.841-1.31 1.936-1.31 3.109a4.33 4.33 0 001.31 3.108 4.45 4.45 0 003.127 1.29c2.405 0 4.36-1.974 4.36-4.398 0-2.424-1.955-4.399-4.36-4.399zm1.134-14.65a.949.949 0 00-.655-.255h-5.014a.98.98 0 00-.977.977v8.015c0 .538.44.977.977.977h7.956a.98.98 0 00.978-.977v-5.366a.978.978 0 00-.323-.723l-2.942-2.649zm-25.002 14.65c-1.172 0-2.287.46-3.127 1.29-.84.841-1.31 1.936-1.31 3.109a4.33 4.33 0 001.31 3.108 4.45 4.45 0 003.127 1.29c2.405 0 4.36-1.974 4.36-4.398 0-2.424-1.955-4.399-4.36-4.399zm-6.519 1.203H6.891v-2.6a.98.98 0 00-.978-.978.98.98 0 00-.977.978v3.577c0 .538.44.977.977.977h2.942a.98.98 0 00.978-.977.98.98 0 00-.978-.977zm4.956-5.327a.98.98 0 00-.978-.978H.977a.98.98 0 00-.977.978c0 .537.44.977.977.977h11.856c.538 0 .978-.43.978-.977zM2.96 23.912l11.856.069c.538 0 .978-.43.988-.968a.968.968 0 00-.968-.987L2.98 21.957h-.01a.972.972 0 00-.977.968c-.01.547.43.987.968.987zm1.994-4.437H16.81a.98.98 0 00.978-.977.98.98 0 00-.978-.978H4.955a.98.98 0 00-.977.978c0 .537.44.977.977.977zm42.683-1.32L40.64 12.36a.963.963 0 00-.625-.224h-8.23v-3.52a.98.98 0 00-.977-.977H5.913a.98.98 0 00-.977.977v7.155c0 .537.44.977.977.977a.98.98 0 00.978-.977V9.593H29.84v23.175h-8.015a.98.98 0 00-.977.977c0 .538.44.977.977.977H33.76a.98.98 0 00.978-.977.98.98 0 00-.978-.977h-1.964V14.09h7.878l6.372 5.277-.068 13.381H44.96a.98.98 0 00-.977.977c0 .538.44.978.977.978h1.984c.538 0 .978-.43.978-.968L48 18.918a1.032 1.032 0 00-.362-.762z" fill="#fff"/><path d="M39.242 31.565c-1.172 0-2.287.46-3.127 1.29-.84.841-1.31 1.936-1.31 3.109a4.33 4.33 0 001.31 3.108 4.45 4.45 0 003.127 1.29c2.405 0 4.36-1.974 4.36-4.398 0-2.424-1.955-4.399-4.36-4.399zm0 6.842c-1.348 0-2.482-1.114-2.482-2.443 0-1.33 1.134-2.444 2.483-2.444 1.329 0 2.404 1.095 2.404 2.444s-1.075 2.443-2.404 2.443zm1.134-21.493a.949.949 0 00-.655-.254h-5.014a.98.98 0 00-.977.977v8.015c0 .538.44.977.977.977h7.956a.98.98 0 00.978-.977v-5.366a.978.978 0 00-.323-.723l-2.942-2.649zm1.31 7.76h-6.001v-6.069h3.655l2.346 2.111v3.959zm-26.312 6.891c-1.172 0-2.287.46-3.127 1.29-.84.841-1.31 1.936-1.31 3.109a4.33 4.33 0 001.31 3.108 4.45 4.45 0 003.127 1.29c2.405 0 4.36-1.974 4.36-4.398 0-2.424-1.955-4.399-4.36-4.399zm0 6.842c-1.348 0-2.482-1.114-2.482-2.443 0-1.33 1.134-2.444 2.482-2.444 1.33 0 2.405 1.095 2.405 2.444s-1.075 2.443-2.405 2.443zm-6.519-5.64H6.891v-2.6a.98.98 0 00-.978-.977.98.98 0 00-.977.978v3.577c0 .538.44.977.977.977h2.942a.98.98 0 00.978-.977.98.98 0 00-.978-.977zm4.956-5.326a.98.98 0 00-.978-.978H.977a.98.98 0 00-.977.978c0 .537.44.977.977.977h11.856c.538 0 .978-.43.978-.977zM2.96 23.912l11.856.069c.538 0 .978-.43.988-.968a.968.968 0 00-.968-.987L2.98 21.957h-.01a.972.972 0 00-.977.968c-.01.547.43.987.968.987zm1.994-4.437H16.81a.98.98 0 00.978-.977.98.98 0 00-.978-.978H4.955a.98.98 0 00-.977.978c0 .537.44.977.977.977zm42.683-1.32L40.64 12.36a.963.963 0 00-.625-.224h-8.23v-3.52a.98.98 0 00-.977-.977H5.913a.98.98 0 00-.977.977v7.155c0 .537.44.977.977.977a.98.98 0 00.978-.977V9.593H29.84v23.175h-8.015a.98.98 0 00-.977.977c0 .538.44.977.977.977H33.76a.98.98 0 00.978-.977.98.98 0 00-.978-.977h-1.964V14.09h7.878l6.372 5.277-.068 13.381H44.96a.98.98 0 00-.977.977c0 .538.44.978.977.978h1.984c.538 0 .978-.43.978-.968L48 18.918a1.032 1.032 0 00-.362-.762z" fill="#000"/></svg>