<svg width="42" height="42" fill="none" xmlns="http://www.w3.org/2000/svg"><path d="M18.29 31.161v3.387H4.742v1.355h32.516v-1.355H23.709v-3.387h16.259c1.12 0 2.032-.912 2.032-2.032V2.032C42 .912 41.088 0 39.968 0H2.032C.912 0 0 .912 0 2.032V29.13c0 1.12.912 2.032 2.032 2.032H18.29zm4.065 3.387h-2.71v-3.387h2.71v3.387zm-21-5.419V2.032c0-.373.304-.677.677-.677h37.936c.373 0 .677.304.677.677V29.13a.678.678 0 01-.677.677H2.032a.678.678 0 01-.677-.677z" fill="#000"/><path d="M39.29 5.419H2.71V25.74h36.58V5.42z" fill="#fff"/><path d="M39.29 5.419H2.71V25.74h36.58V5.42zm-1.355 18.968H4.065V6.774h33.87v17.613zm-14.903 2.71h-4.064v1.354h4.064v-1.354z" fill="#000"/><path d="M27.212 13.941H16.846l-4.185 3.415h16.644l-2.093-3.415zm-9.86 2.049l.838-.683h7.212l.418.683h-8.467zm-7.191-7.861H6.097v1.355h4.064V8.129zm0 2.71H6.097v1.355h4.064v-1.355zm-2.709 3.387H6.097v1.354h1.355v-1.354zm4.742 7.451H6.096v1.355h6.096v-1.355zM35.903 8.129h-4.742v1.355h4.742V8.129zm0 2.71h-4.742v1.355h4.742v-1.355zm0 10.838h-4.742v1.355h4.742v-1.355zm-15.58 0h-1.355v1.355h1.355v-1.355zm2.709 0h-1.355v1.355h1.355v-1.355zm-15.58-4.741H6.097v1.354h1.355v-1.354zM37.258 36.58a4.747 4.747 0 00-4.742 4.742V42H42v-.678a4.748 4.748 0 00-4.742-4.741zm-3.319 4.065a3.393 3.393 0 013.319-2.71 3.393 3.393 0 013.319 2.71h-6.638zM.677 38.612H2.71v2.033H.677V42h30.484v-4.742H.677v1.354zm27.097 0h2.032v2.033h-2.032v-2.033zm-3.387 0h2.032v2.033h-2.032v-2.033zm-3.387 0h2.032v2.033H21v-2.033zm-3.387 0h2.032v2.033h-2.032v-2.033zm-3.387 0h2.032v2.033h-2.032v-2.033zm-3.387 0h2.032v2.033h-2.032v-2.033zm-3.387 0h2.032v2.033H7.452v-2.033zm-3.388 0h2.033v2.033H4.064v-2.033zM20.323 2.71h-1.355v1.355h1.355V2.71zm2.709 0h-1.355v1.355h1.355V2.71z" fill="#000"/></svg>