<svg width="95" height="99" fill="none" xmlns="http://www.w3.org/2000/svg"><ellipse cx="47.5" cy="49.5" rx="47.5" ry="49.5" fill="#FDBF00"/><circle cx="47.5" cy="47.5" r="47.5" fill="#FFE165"/><g clip-path="url(#clip0)"><path d="M32.55 60.5a1.95 1.95 0 100 3.9 1.95 1.95 0 000-3.9zm0 2.6a.65.65 0 110-1.3.65.65 0 010 1.3z" fill="#000"/><path d="M66.552 55.525A3.14 3.14 0 0063.86 54h-.137c-.515 0-1.023.127-1.477.37l-4.995 2.664V48.15h2.275a3.575 3.575 0 100-7.15H45.55a3.25 3.25 0 010-6.5h2.275l3.705 4.94a.65.65 0 00.52.26h14.3a.65.65 0 00.65-.65v-10.4a.65.65 0 00-.65-.65h-14.3a.65.65 0 00-.52.26l-3.705 4.94H45.55a4.55 4.55 0 100 9.1h13.975a2.275 2.275 0 010 4.55h-2.276v-2.6a.65.65 0 00-.65-.65H38.4a.65.65 0 00-.65.65V54a9.675 9.675 0 00-1.46.65H28v1.3h7.8v9.75H28V67h24.63a3.25 3.25 0 001.672-.463l11.173-6.704a3.14 3.14 0 001.077-4.308zM52.05 33.851a.65.65 0 111.3 0 .65.65 0 01-1.3 0zM46.2 44.9h2.6v2.6h-2.6v-2.6zm-7.15 0h5.85v3.25c0 .358.29.65.65.65h3.9a.65.65 0 00.65-.65V44.9h5.85v12.826l-1.065.567a2.925 2.925 0 00-2.835-3.644h-6.33a9.864 9.864 0 00-6.67-1.008V44.9z" fill="#fff"/><path d="M66.552 55.525A3.14 3.14 0 0063.86 54h-.137c-.515 0-1.023.127-1.477.37l-4.995 2.664V48.15h2.275a3.575 3.575 0 100-7.15H45.55a3.25 3.25 0 010-6.5h2.275l3.705 4.94a.65.65 0 00.52.26h14.3a.65.65 0 00.65-.65v-10.4a.65.65 0 00-.65-.65h-14.3a.65.65 0 00-.52.26l-3.705 4.94H45.55a4.55 4.55 0 100 9.1h13.975a2.275 2.275 0 010 4.55h-2.276v-2.6a.65.65 0 00-.65-.65H38.4a.65.65 0 00-.65.65V54a9.675 9.675 0 00-1.46.65H28v1.3h7.8v9.75H28V67h24.63a3.25 3.25 0 001.672-.463l11.173-6.704a3.14 3.14 0 001.077-4.308zM53.358 35.69a1.95 1.95 0 10-2.489-2.488h-1.42l2.926-3.9h13.324v9.1H52.375l-2.925-3.9h1.42a1.95 1.95 0 002.488 1.188zm-1.308-1.838a.65.65 0 111.3 0 .65.65 0 01-1.3 0zM46.2 44.9h2.6v2.6h-2.6v-2.6zm-7.15 0h5.85v3.25c0 .358.29.65.65.65h3.9a.65.65 0 00.65-.65V44.9h5.85v12.826l-1.065.567a2.925 2.925 0 00-2.835-3.644h-6.33a9.864 9.864 0 00-6.67-1.008V44.9zm25.756 13.818l-11.173 6.703a1.95 1.95 0 01-1.004.278H37.1V55.69a8.56 8.56 0 018.126.178.646.646 0 00.325.082h6.5a1.625 1.625 0 110 3.25H46.2a.65.65 0 100 1.3h7.15a.65.65 0 00.306-.076l9.2-4.907c.267-.142.564-.216.866-.217h.137a1.84 1.84 0 01.947 3.419z" fill="#000"/></g><defs><clipPath id="clip0"><path fill="#fff" d="M28 28h39v39H28z"/></clipPath></defs></svg>