<svg width="95" height="99" fill="none" xmlns="http://www.w3.org/2000/svg"><ellipse cx="47.5" cy="49.5" rx="47.5" ry="49.5" fill="#FDBF00"/><circle cx="47.5" cy="47.5" r="47.5" fill="#FFE165"/><g clip-path="url(#clip0)"><path d="M57.51 39.818a.762.762 0 10.763.761.761.761 0 00-.764-.761zm-13.868 13.84a.762.762 0 10-.002 1.524.762.762 0 00.002-1.524z" fill="#000"/><path d="M69.165 32.686a.763.763 0 00-.714.205l-3.164 3.183H63.77l-1.67-1.726v-1.535l3.119-3.16a.76.76 0 00-.3-1.256A7.627 7.627 0 0062.48 28a7.552 7.552 0 00-6.196 3.174c-1.358 1.888-1.777 4.202-1.177 6.417l-5.622 5.61-9.366-9.368v-1.84a.761.761 0 00-.37-.652l-5.397-3.232a.764.764 0 00-.932.114l-2.159 2.154a.761.761 0 00-.114.93l3.237 5.387c.138.23.386.37.654.37h1.842l9.367 9.37-5.6 5.589c-2.22-.599-4.539-.18-6.432 1.177a7.526 7.526 0 00-3.178 6.182c0 .832.134 1.65.398 2.432a.762.762 0 001.265.294l3.164-3.183h1.525l1.738 1.735v1.522l-3.189 3.157a.76.76 0 00.294 1.263 7.625 7.625 0 002.437.397 7.55 7.55 0 006.194-3.172c1.36-1.89 1.78-4.204 1.18-6.419l4.498-4.489 1.03 1.117-.473.472a.76.76 0 000 1.077.765.765 0 001.08 0l.428-.427 9.667 10.48.022.023a4.585 4.585 0 006.477 0 4.571 4.571 0 000-6.464l-.024-.023-10.517-9.63.423-.422a.76.76 0 000-1.077.764.764 0 00-1.08 0l-.47.469-1.12-1.027 4.52-4.511a7.66 7.66 0 001.976.258c4.209 0 7.632-3.417 7.632-7.617 0-.832-.134-1.65-.398-2.432a.762.762 0 00-.55-.499zm-31.427 3.078a.756.756 0 00-.54-.216h-1.726l-2.709-4.514 1.316-1.313 4.515 2.704v1.723c0 .202.08.395.223.538l9.59 9.593-1.08 1.077-9.589-9.592zm18.288 13.828l-3.374 3.366-1.03-1.117 3.282-3.276 1.121 1.027z" fill="#fff"/><path d="M69.165 32.686a.763.763 0 00-.714.205l-3.164 3.183H63.77l-1.67-1.726v-1.535l3.119-3.16a.76.76 0 00-.3-1.256A7.627 7.627 0 0062.48 28a7.552 7.552 0 00-6.196 3.174c-1.358 1.888-1.777 4.202-1.177 6.417l-5.622 5.61-9.366-9.368v-1.84a.761.761 0 00-.37-.652l-5.397-3.232a.764.764 0 00-.932.114l-2.159 2.154a.761.761 0 00-.114.93l3.237 5.387c.138.23.386.37.654.37h1.842l9.367 9.37-5.6 5.589c-2.22-.599-4.539-.18-6.432 1.177a7.526 7.526 0 00-3.178 6.182c0 .832.134 1.65.398 2.432a.762.762 0 001.265.294l3.164-3.183h1.525l1.738 1.735v1.522l-3.189 3.157a.76.76 0 00.294 1.263 7.625 7.625 0 002.437.397 7.55 7.55 0 006.194-3.172c1.36-1.89 1.78-4.204 1.18-6.419l4.498-4.489 1.03 1.117-.473.472a.76.76 0 000 1.077.765.765 0 001.08 0l.428-.427 9.667 10.48.022.023a4.585 4.585 0 006.477 0 4.571 4.571 0 000-6.464l-.024-.023-10.517-9.63.423-.422a.76.76 0 000-1.077.764.764 0 00-1.08 0l-.47.469-1.12-1.027 4.52-4.511a7.66 7.66 0 001.976.258c4.209 0 7.632-3.417 7.632-7.617 0-.832-.134-1.65-.398-2.432a.762.762 0 00-.55-.499zm-31.427 3.078a.756.756 0 00-.54-.216h-1.726l-2.709-4.514 1.316-1.313 4.515 2.704v1.723c0 .202.08.395.223.538l9.59 9.593-1.08 1.077-9.589-9.592zm19.413 14.859l10.553 9.662a3.048 3.048 0 01-.01 4.299 3.057 3.057 0 01-4.308.01L53.687 54.08l3.464-3.457zm-1.126-1.031l-3.373 3.366-1.03-1.117 3.282-3.276 1.121 1.027zm6.456-7.881a6.112 6.112 0 01-1.95-.318.765.765 0 00-.783.184L44.64 56.653a.76.76 0 00-.183.782 6.022 6.022 0 01-.834 5.503 6.04 6.04 0 01-4.954 2.538c-.223 0-.446-.013-.666-.036l2.425-2.4a.76.76 0 00.225-.541v-2.155a.761.761 0 00-.223-.539l-2.185-2.18a.764.764 0 00-.54-.224h-2.159a.765.765 0 00-.542.226l-2.405 2.42a6.164 6.164 0 01-.036-.665 6.02 6.02 0 012.543-4.945 6.053 6.053 0 015.514-.831.764.764 0 00.783-.184L56.51 38.345a.76.76 0 00.184-.781 6.019 6.019 0 01.831-5.501 6.04 6.04 0 014.956-2.54c.23 0 .459.013.686.038l-2.374 2.405a.76.76 0 00-.22.534v2.155a.76.76 0 00.215.529l2.108 2.18a.763.763 0 00.55.233h2.158a.764.764 0 00.542-.225l2.405-2.419c.024.22.036.441.036.664 0 3.36-2.74 6.094-6.106 6.094z" fill="#000"/><path d="M54.811 42.195l-9.55 9.532a.761.761 0 000 1.077.764.764 0 001.08 0l9.55-9.532a.76.76 0 000-1.077.764.764 0 00-1.08 0zm9.645 20.235a.764.764 0 001.08-.002.76.76 0 00-.002-1.077l-6.88-6.844a.764.764 0 00-1.08.002.76.76 0 00.002 1.077l6.88 6.844z" fill="#000"/></g><defs><clipPath id="clip0"><path fill="#fff" d="M31 28h39v39H31z"/></clipPath></defs></svg>