<svg width="95" height="99" fill="none" xmlns="http://www.w3.org/2000/svg"><ellipse cx="47.5" cy="49.5" rx="47.5" ry="49.5" fill="#FDBF00"/><circle cx="47.5" cy="47.5" r="47.5" fill="#FFE165"/><g clip-path="url(#clip0)"><path d="M53.285 49.602l-6.389-4.15L43.074 30h20.422l-3.768 15.452-6.443 4.15zm-5.46-4.86l5.46 3.55 5.46-3.55 3.33-13.65H44.44l3.386 13.65z" fill="#292F33"/><path fill-rule="evenodd" clip-rule="evenodd" d="M48.753 33.658c.032.267.03.521 0 .758-.098.758-.498 1.333-1.064 1.55a1.438 1.438 0 01-.52.095l1.857 10.21 4.204 2.73 4.205-2.73 1.91-10.265c-.189 0-.367-.034-.531-.099-.56-.22-.954-.787-1.052-1.517a2.854 2.854 0 010-.732h-9.01zm.937.956c-.07.47-.232.91-.483 1.288-.24.36-.56.655-.94.851l1.625 8.942 3.338 2.167 3.34-2.169 1.675-8.996a2.538 2.538 0 01-.933-.837 3.096 3.096 0 01-.482-1.246h-7.14z" fill="#292F33"/><path d="M53.285 47.09c-1.584 0-3.003-1.092-3.167-2.511-.218-1.638 1.201-3.167 3.167-3.167 1.966 0 3.385 1.529 3.167 3.167-.164 1.42-1.584 2.511-3.167 2.511zm0-8.627c-.546 0-.983-.491-.983-1.092 0-.655.437-1.201.983-1.201s1.037.546.983 1.201c0 .6-.492 1.092-.983 1.092zM39.798 62.325h-8.682V43.868h8.682v18.456zm-7.59-1.093h6.498V44.961h-6.498v16.271z" fill="#292F33"/><path d="M61.475 49.33s1.747-.765 1.857-2.622c.109-1.802-2.075-3.057-2.894-3.003-.546 0-12.777-.273-13.269-.218l-.764-2.075a4.379 4.379 0 00-2.348 2.84c-.218.709-.764 1.31-1.529 1.473-1.037.273-2.075.383-3.167.437h-.163v14.524s3.876.164 6.388 1.966c2.512 1.747 8.9 1.747 8.9 1.747s2.457 0 2.949-.054c.491-.055 1.638-.71 2.075-1.693.436-.983-.273-2.73-.874-3.112 0 0 2.184.273 3.276-1.748 0 0 .655-2.184-.928-3.166 0 0 2.293-.546 2.238-2.567 0-2.02-1.747-2.73-1.747-2.73z" fill="#FDF7DD"/><path d="M54.486 64.945c-.273 0-6.607 0-9.173-1.91-2.348-1.693-6.06-1.857-6.06-1.857-.274 0-.547-.273-.547-.546v-14.47c0-.273.218-.546.546-.546h.164c1.037 0 2.02-.164 3.003-.437a1.402 1.402 0 001.092-1.092c.382-1.365 1.365-2.566 2.621-3.167a.603.603 0 01.437 0 .492.492 0 01.327.328l.656 1.747c1.146 0 4.696.055 7.808.164 2.402.055 4.477.11 4.969.11h.054c.765 0 1.857.545 2.566 1.31.656.655.983 1.474.929 2.293-.055 1.256-.82 2.075-1.42 2.566.6.492 1.31 1.365 1.31 2.73 0 1.42-.928 2.294-1.801 2.73.983 1.256.437 3.004.437 3.113 0 .054 0 .054-.055.11-.71 1.31-1.857 1.801-2.676 1.965.437.873.71 2.02.328 2.894-.546 1.146-1.802 1.91-2.512 2.02-.491-.055-2.73-.055-3.003-.055zM39.798 60.14c1.201.11 4.095.546 6.17 2.02 2.293 1.639 8.463 1.693 8.518 1.693.928 0 2.512 0 2.894-.054.328-.055 1.31-.6 1.638-1.365.328-.71-.273-2.184-.71-2.457-.218-.164-.273-.383-.218-.656.11-.218.327-.382.6-.327h.219c.491 0 1.747-.164 2.512-1.42.054-.328.382-1.802-.71-2.512a.672.672 0 01-.273-.546.593.593 0 01.437-.436c.054 0 1.856-.492 1.856-2.02-.055-1.584-1.365-2.185-1.42-2.24-.218-.109-.327-.272-.327-.49 0-.22.109-.438.327-.492.055 0 1.475-.71 1.53-2.13.054-.655-.328-1.146-.601-1.474-.601-.6-1.365-.928-1.693-.928h-.11c-.49 0-2.62-.055-5.023-.11-3.166-.054-6.716-.163-7.808-.163h-.273c-.218 0-.491-.11-.546-.328l-.546-1.474c-.764.546-1.31 1.31-1.529 2.184-.273.928-.983 1.638-1.91 1.857-.929.218-1.912.382-2.895.436V60.14h-.109zm-3.822-12.449h-1.092v1.092h1.092v-1.092zm0 4.587h-1.092v1.092h1.092v-1.092zm0 4.641h-1.092v1.092h1.092v-1.092z" fill="#292F33"/></g><defs><clipPath id="clip0"><path fill="#fff" d="M30 30h35v35H30z"/></clipPath></defs></svg>