<svg width="45" height="46" fill="none" xmlns="http://www.w3.org/2000/svg"><path d="M35.583 27.916c-.922-.96-2.035-1.474-3.215-1.474-1.17 0-2.292.504-3.253 1.465l-3.005 2.996c-.247-.133-.495-.257-.732-.38a12.358 12.358 0 01-.942-.505c-2.816-1.788-5.374-4.118-7.828-7.133-1.189-1.503-1.988-2.768-2.568-4.052.78-.713 1.503-1.455 2.207-2.169.266-.266.532-.542.799-.808 1.997-1.998 1.997-4.585 0-6.582l-2.597-2.597c-.295-.295-.6-.599-.885-.903-.57-.59-1.17-1.199-1.788-1.77-.922-.912-2.026-1.398-3.186-1.398-1.16 0-2.283.486-3.234 1.399l-.019.019-3.234 3.262A6.959 6.959 0 00.04 11.71c-.228 2.777.59 5.364 1.218 7.057 1.54 4.157 3.842 8.009 7.276 12.137 4.166 4.974 9.178 8.903 14.904 11.67 2.188 1.037 5.108 2.264 8.37 2.473.2.01.41.02.6.02 2.197 0 4.042-.79 5.487-2.36.01-.019.029-.028.038-.047.495-.6 1.066-1.142 1.665-1.722.409-.39.828-.799 1.236-1.227.942-.98 1.437-2.12 1.437-3.29 0-1.18-.504-2.312-1.465-3.263l-5.222-5.24z" fill="#fff"/><path d="M35.583 27.916c-.922-.96-2.035-1.474-3.215-1.474-1.17 0-2.292.504-3.253 1.465l-3.005 2.996c-.247-.133-.495-.257-.732-.38a12.358 12.358 0 01-.942-.505c-2.816-1.788-5.374-4.118-7.828-7.133-1.189-1.503-1.988-2.768-2.568-4.052.78-.713 1.503-1.455 2.207-2.169.266-.266.532-.542.799-.808 1.997-1.998 1.997-4.585 0-6.582l-2.597-2.597c-.295-.295-.6-.599-.885-.903-.57-.59-1.17-1.199-1.788-1.77-.922-.912-2.026-1.398-3.186-1.398-1.16 0-2.283.486-3.234 1.399l-.019.019-3.234 3.262A6.959 6.959 0 00.04 11.71c-.228 2.777.59 5.364 1.218 7.057 1.54 4.157 3.842 8.009 7.276 12.137 4.166 4.974 9.178 8.903 14.904 11.67 2.188 1.037 5.108 2.264 8.37 2.473.2.01.41.02.6.02 2.197 0 4.042-.79 5.487-2.36.01-.019.029-.028.038-.047.495-.6 1.066-1.142 1.665-1.722.409-.39.828-.799 1.236-1.227.942-.98 1.437-2.12 1.437-3.29 0-1.18-.504-2.312-1.465-3.263l-5.222-5.24zm3.405 10.016c-.01 0-.01.01 0 0-.37.4-.751.76-1.16 1.16-.618.59-1.246 1.208-1.836 1.902-.96 1.028-2.092 1.513-3.576 1.513-.143 0-.295 0-.438-.01-2.825-.18-5.45-1.284-7.419-2.225-5.383-2.607-10.11-6.306-14.038-10.996-3.244-3.909-5.412-7.523-6.849-11.404-.884-2.368-1.207-4.213-1.065-5.954A4.366 4.366 0 013.92 9.093L7.163 5.85c.466-.438.96-.675 1.446-.675.6 0 1.084.36 1.389.665l.028.029a48.02 48.02 0 011.712 1.702c.295.305.6.61.904.923l2.596 2.597c1.009 1.008 1.009 1.94 0 2.948-.275.276-.542.552-.818.818a49.61 49.61 0 01-2.387 2.32c-.019.02-.038.03-.048.048-.817.818-.665 1.617-.494 2.16l.028.085c.676 1.636 1.627 3.177 3.073 5.013l.01.01c2.624 3.233 5.392 5.754 8.445 7.684.39.248.79.447 1.17.638.343.17.666.333.942.504.038.019.076.047.114.066.323.162.628.238.942.238.789 0 1.284-.494 1.445-.656l3.253-3.253c.323-.323.837-.713 1.436-.713.59 0 1.075.37 1.37.694l.019.019 5.24 5.24c.98.97.98 1.97.01 2.978zM24.322 10.72c2.492.419 4.755 1.598 6.563 3.405a12.125 12.125 0 013.405 6.563 1.276 1.276 0 001.265 1.065c.076 0 .142-.01.218-.019a1.285 1.285 0 001.056-1.484 14.67 14.67 0 00-4.118-7.941 14.67 14.67 0 00-7.942-4.119 1.29 1.29 0 00-1.484 1.046 1.27 1.27 0 001.037 1.484zm20.658 9.16c-.846-4.966-3.186-9.483-6.781-13.079C34.603 3.206 30.086.866 25.12.02a1.28 1.28 0 00-1.475 1.046 1.29 1.29 0 001.056 1.484c4.432.751 8.475 2.853 11.69 6.058 3.214 3.215 5.307 7.258 6.058 11.69a1.276 1.276 0 001.265 1.065c.076 0 .143-.01.22-.019a1.26 1.26 0 001.045-1.465z" fill="#292F33"/></svg>