<svg width="42" height="43" fill="none" xmlns="http://www.w3.org/2000/svg"><g clip-path="url(#clip0)"><path d="M28.549 12.752a.821.821 0 10-.001 1.643.821.821 0 000-1.643zM13.615 27.686a.822.822 0 100 1.643.822.822 0 000-1.643z" fill="#000"/><path d="M41.1 5.056a.821.821 0 00-.769.222l-3.407 3.434h-1.633L33.492 6.85V5.193l3.359-3.409A.821.821 0 0036.528.43 8.198 8.198 0 0033.903 0a8.128 8.128 0 00-6.672 3.425c-1.464 2.037-1.915 4.534-1.269 6.924l-6.054 6.054L9.822 6.293V4.31a.822.822 0 00-.4-.704L3.612.117a.821.821 0 00-1.004.124L.283 2.565a.823.823 0 00-.124 1.004l3.487 5.812a.822.822 0 00.704.399h1.984L16.42 19.89l-6.031 6.031c-2.39-.646-4.888-.194-6.926 1.27A8.125 8.125 0 00.04 33.862c0 .898.144 1.781.429 2.625a.821.821 0 001.362.316l3.407-3.434h1.643l1.871 1.872v1.642L5.32 40.29a.822.822 0 00.317 1.363 8.198 8.198 0 002.624.428 8.126 8.126 0 006.671-3.423c1.464-2.038 1.916-4.536 1.27-6.925l4.844-4.844 1.11 1.205-.51.509a.822.822 0 001.163 1.162l.46-.46L33.68 40.612l.023.024a4.93 4.93 0 006.975 0 4.939 4.939 0 00-.025-6.999l-11.327-10.39.456-.457a.822.822 0 10-1.162-1.162l-.506.506-1.207-1.108 4.867-4.868a8.232 8.232 0 002.13.28c4.531 0 8.218-3.688 8.218-8.22a8.2 8.2 0 00-.429-2.624.821.821 0 00-.592-.539zM7.257 8.378a.813.813 0 00-.581-.233h-1.86L1.9 3.273l1.417-1.417 4.862 2.918v1.859c0 .218.086.426.24.58l10.328 10.352-1.163 1.162L7.256 8.378zm19.695 14.92l-3.633 3.632-1.11-1.205 3.535-3.535 1.208 1.108z" fill="#fff"/><path d="M41.1 5.056a.821.821 0 00-.769.222l-3.407 3.434h-1.633L33.492 6.85V5.193l3.359-3.409A.821.821 0 0036.528.43 8.198 8.198 0 0033.903 0a8.128 8.128 0 00-6.672 3.425c-1.464 2.037-1.915 4.534-1.269 6.924l-6.054 6.054L9.822 6.293V4.31a.822.822 0 00-.4-.704L3.612.117a.821.821 0 00-1.004.124L.283 2.565a.823.823 0 00-.124 1.004l3.487 5.812a.822.822 0 00.704.399h1.984L16.42 19.89l-6.031 6.031c-2.39-.646-4.888-.194-6.926 1.27A8.125 8.125 0 00.04 33.862c0 .898.144 1.781.429 2.625a.821.821 0 001.362.316l3.407-3.434h1.643l1.871 1.872v1.642L5.32 40.29a.822.822 0 00.317 1.363 8.198 8.198 0 002.624.428 8.126 8.126 0 006.671-3.423c1.464-2.038 1.916-4.536 1.27-6.925l4.844-4.844 1.11 1.205-.51.509a.822.822 0 001.163 1.162l.46-.46L33.68 40.612l.023.024a4.93 4.93 0 006.975 0 4.939 4.939 0 00-.025-6.999l-11.327-10.39.456-.457a.822.822 0 10-1.162-1.162l-.506.506-1.207-1.108 4.867-4.868a8.232 8.232 0 002.13.28c4.531 0 8.218-3.688 8.218-8.22a8.2 8.2 0 00-.429-2.624.821.821 0 00-.592-.539zM7.257 8.378a.813.813 0 00-.581-.233h-1.86L1.9 3.273l1.417-1.417 4.862 2.918v1.859c0 .218.086.426.24.58l10.328 10.352-1.163 1.162L7.256 8.378zm20.907 16.033l11.365 10.425a3.288 3.288 0 01-4.65 4.65L24.43 28.141l3.73-3.73zm-1.212-1.113l-3.633 3.632-1.11-1.205 3.535-3.535 1.208 1.108zm6.952-8.504a6.57 6.57 0 01-2.1-.342.823.823 0 00-.844.197L14.691 30.918a.822.822 0 00-.198.844 6.509 6.509 0 01-.897 5.938 6.5 6.5 0 01-5.336 2.737c-.24 0-.48-.013-.717-.038l2.61-2.59a.822.822 0 00.244-.584V34.9a.822.822 0 00-.24-.581l-2.354-2.353a.822.822 0 00-.581-.24H4.897c-.22 0-.43.087-.584.242l-2.59 2.61a6.65 6.65 0 01-.038-.716c0-2.141.997-4.086 2.738-5.336a6.508 6.508 0 015.938-.897c.295.1.622.023.843-.197l16.269-16.269a.822.822 0 00.197-.843 6.505 6.505 0 01.895-5.936 6.501 6.501 0 015.338-2.74c.248 0 .494.014.738.04L32.085 4.28a.821.821 0 00-.237.577V7.18a.82.82 0 00.23.57l2.272 2.354a.82.82 0 00.591.25h2.325a.821.821 0 00.584-.242l2.59-2.61a6.583 6.583 0 01-6.536 7.292z" fill="#000"/><path d="M25.643 15.317L15.358 25.602a.822.822 0 001.162 1.162L26.805 16.48a.821.821 0 10-1.162-1.162zM36.03 37.15a.822.822 0 001.16-1.163l-7.409-7.385a.822.822 0 00-1.16 1.164l7.408 7.385z" fill="#000"/></g><defs><clipPath id="clip0"><path fill="#fff" d="M0 0h42v42.082H0z"/></clipPath></defs></svg>