<svg width="59" height="59" fill="none" xmlns="http://www.w3.org/2000/svg"><path d="M53.1 34.417h-6.883V.983A.983.983 0 0045.233 0H13.767a.983.983 0 00-.984.983v33.434H5.9a.983.983 0 00-.68 1.693l23.6 22.617a.984.984 0 001.36 0l23.6-22.617a.983.983 0 00-.68-1.693zM29.5 56.655L8.347 36.383h5.42c.543 0 .983-.44.983-.983V1.967h29.5V35.4c0 .543.44.983.983.983h5.42L29.5 56.655z" fill="#FFE165"/><path d="M53.1 34.417h-6.883V.983A.983.983 0 0045.233 0H13.767a.983.983 0 00-.984.983v33.434H5.9a.983.983 0 00-.68 1.693l23.6 22.617a.984.984 0 001.36 0l23.6-22.617a.983.983 0 00-.68-1.693zM29.5 56.655L8.347 36.383h5.42c.543 0 .983-.44.983-.983V1.967h29.5V35.4c0 .543.44.983.983.983h5.42L29.5 56.655z" fill="#FFE165"/><path d="M18.683 3.933h-1.966V5.9h1.966V3.933zm3.934 0H20.65V5.9h1.967V3.933zm3.933 0h-1.967V5.9h1.967V3.933zm3.933 0h-1.966V5.9h1.966V3.933zm3.934 0H32.45V5.9h1.967V3.933zm3.933 0h-1.967V5.9h1.967V3.933zm3.933 0h-1.966V5.9h1.966V3.933zm-11.111 31.77h-5.75V41h-1.906v-5.297h-3.188v-1.64h3.188v-2.329h-3.188V30.11h3.188V18.25h7.75c2.395 0 4.265.61 5.609 1.828 1.354 1.209 2.031 2.854 2.031 4.938 0 2.125-.656 3.776-1.968 4.953-1.313 1.166-3.188 1.755-5.626 1.765h-5.89v2.328h5.75v1.641zm-5.75-5.594h5.844c1.812 0 3.218-.437 4.218-1.312 1-.886 1.5-2.136 1.5-3.75 0-1.563-.49-2.802-1.468-3.719-.97-.916-2.308-1.396-4.016-1.437h-6.078v10.218z" fill="#FFE165"/></svg>