<svg width="19" height="19" fill="none" xmlns="http://www.w3.org/2000/svg"><g clip-path="url(#clip0)" fill="#999"><path d="M14.445 12.569c-.62-.613-1.396-.613-2.012 0-.47.466-.941.933-1.404 1.407-.127.13-.233.159-.387.072-.305-.166-.629-.3-.922-.483-1.364-.858-2.506-1.96-3.518-3.202-.503-.617-.95-1.277-1.262-2.02-.063-.15-.051-.25.071-.372.471-.455.93-.922 1.392-1.388.645-.648.645-1.408-.004-2.06-.367-.372-.735-.735-1.103-1.107-.38-.38-.755-.763-1.139-1.139-.62-.605-1.395-.605-2.012.004-.474.467-.93.945-1.411 1.404-.447.423-.673.94-.72 1.546-.075.984.166 1.913.506 2.819.696 1.874 1.756 3.538 3.04 5.064a18.815 18.815 0 006.232 4.875c1.09.53 2.222.938 3.451 1.005.846.047 1.582-.166 2.17-.827.404-.45.859-.862 1.286-1.293.632-.64.636-1.415.008-2.047-.752-.756-1.507-1.507-2.262-2.258zm-.755-3.151l1.459-.25a6.52 6.52 0 00-1.823-3.518A6.486 6.486 0 009.61 3.796l-.206 1.466a5.032 5.032 0 012.878 1.436 5.031 5.031 0 011.408 2.72zm2.281-6.342A10.757 10.757 0 009.803 0l-.205 1.467a9.328 9.328 0 015.33 2.657 9.32 9.32 0 012.613 5.04L19 8.917a10.836 10.836 0 00-3.029-5.84z"/></g><defs><clipPath id="clip0"><path fill="#fff" d="M0 0h19v19H0z"/></clipPath></defs></svg>