<svg width="58" height="58" fill="none" xmlns="http://www.w3.org/2000/svg"><path d="M46.304 0H18.176c-3.487 0-6.3 2.813-6.357 6.3C8.444 6.47 5.8 9.283 5.8 12.659v38.985C5.8 55.131 8.67 58 12.157 58h28.128c3.488 0 6.3-2.813 6.357-6.3 3.375-.17 6.02-2.982 6.02-6.358V6.413C52.717 2.87 49.848 0 46.303 0zM44.56 51.643a4.274 4.274 0 01-4.275 4.276H12.157a4.213 4.213 0 01-4.22-4.22V12.658a4.214 4.214 0 014.22-4.22h22.727v9.789c0 .563.45 1.069 1.07 1.069h8.606v32.347zm-7.538-34.485v-7.032l6.245 7.032h-6.245zm9.676 32.46V18.227c0-.113-.056-.281-.056-.394 0-.056-.056-.112-.056-.112-.057-.057-.057-.113-.113-.17L36.741 6.639a1.228 1.228 0 00-.281-.169c-.057 0-.057-.056-.113-.056a1.06 1.06 0 00-.45-.112h-21.94c.056-2.307 1.913-4.163 4.22-4.163h28.127a4.214 4.214 0 014.22 4.219V45.4h.056c0 2.194-1.744 4.05-3.882 4.219z" fill="#FFE165"/><path d="M13.45 19.296h9.396a1.068 1.068 0 100-2.138H13.45c-.563 0-1.07.45-1.07 1.07 0 .618.451 1.068 1.07 1.068zm9.34 25.822h-9.34a1.068 1.068 0 100 2.138h9.396c.562 0 1.068-.45 1.068-1.07-.056-.562-.506-1.068-1.125-1.068zM12.382 25.315c0 .563.45 1.069 1.069 1.069h25.09c.563 0 1.069-.45 1.069-1.069 0-.563-.506-1.069-1.069-1.069h-25.09c-.563 0-1.07.45-1.07 1.069zm26.159 4.163h-25.09a1.068 1.068 0 100 2.138h25.09c.563 0 1.069-.45 1.069-1.07 0-.562-.506-1.068-1.069-1.068zm0 5.288h-25.09a1.068 1.068 0 100 2.138h25.09a1.068 1.068 0 100-2.138zm0 5.232h-25.09a1.068 1.068 0 100 2.138h25.09a1.068 1.068 0 100-2.138z" fill="#FFE165"/></svg>