<svg width="54" height="55" fill="none" xmlns="http://www.w3.org/2000/svg"><path d="M50.854 19.044l-7.77-2.59m6.475 3.885l-7.77-2.59m6.475 3.885l-7.77-2.59m.616 1.636l5.69-5.69 2.694 2.693-5.457 5.925 1.171 1.17-2.542 2.543.82.82-2.543 2.542-.82-.82-2.664 2.664-.702-.703L24.04 44.776l-1.07-.1-6.638 5.467-.351-.35-.352-.352-.35-.351 5.467-6.64-.1-1.069 12.482-13.185-.937-.936 2.664-2.664-.82-.82 2.543-2.542.82.82 2.542-2.543 1.17 1.17z" stroke="#FFE165" stroke-width="2"/><path fill-rule="evenodd" clip-rule="evenodd" d="M12.5 0c3.339 0 6.478 1.3 8.839 3.661A12.418 12.418 0 0125 12.5c0 3.339-1.3 6.478-3.661 8.839A12.418 12.418 0 0112.5 25c-3.339 0-6.478-1.3-8.839-3.661A12.418 12.418 0 010 12.5c0-3.339 1.3-6.478 3.661-8.839A12.422 12.422 0 0112.5 0zM1.465 12.5c0 6.085 4.95 11.035 11.035 11.035s11.035-4.95 11.035-11.035S18.585 1.465 12.5 1.465 1.465 6.415 1.465 12.5zm15.971-4.01a.733.733 0 011.036 1.035l-6.986 6.986a.73.73 0 01-1.035 0l-3.923-3.923a.732.732 0 011.036-1.035l3.405 3.404 6.467-6.468z" fill="#FFE165"/></svg>