<svg width="96" height="56" fill="none" xmlns="http://www.w3.org/2000/svg"><path fill-rule="evenodd" clip-rule="evenodd" d="M48.154 9.06c3.39 0 6.753-.414 10.005-1.238l.41-.103.307.288a15.729 15.729 0 014.632 8.089l.092.412-.298.308a41.02 41.02 0 00-9.957 17.369l-.114.413-.412.125c-1.511.465-3.083.7-4.664.7-1.575 0-3.148-.241-4.678-.723l-.4-.126-.111-.4a41.164 41.164 0 00-9.983-17.358l-.296-.308.092-.414a15.845 15.845 0 014.674-8.11l.307-.288.413.104a41.016 41.016 0 009.979 1.26" fill="#112C5C"/><path fill-rule="evenodd" clip-rule="evenodd" d="M34.558 19.6a13.614 13.614 0 011.026-5.23 13.567 13.567 0 012.954-4.428 13.494 13.494 0 014.403-2.965 13.446 13.446 0 015.201-1.034 13.453 13.453 0 015.207 1.032c1.65.687 3.15 1.695 4.41 2.967a13.567 13.567 0 012.954 4.429 13.615 13.615 0 011.027 5.23c0 7.514-6.102 13.645-13.598 13.645a13.443 13.443 0 01-5.2-1.033 13.492 13.492 0 01-4.404-2.966 13.558 13.558 0 01-2.952-4.423 13.606 13.606 0 01-1.028-5.224z" fill="#112C5C"/><path d="M38.103 9.032a14.71 14.71 0 00-2.562 3.273 14.462 14.462 0 00-1.528 3.832 42.583 42.583 0 016.096 8.157 41.84 41.84 0 013.947 9.317c.623.182 1.27.33 1.934.433.704.109 1.427.167 2.164.167a14.9 14.9 0 002.195-.162c.64-.095 1.272-.234 1.893-.416a42.159 42.159 0 0110.03-17.496 14.594 14.594 0 00-4.046-7.082 42.18 42.18 0 01-10.072 1.228 40.57 40.57 0 01-5.24-.342 43.301 43.301 0 01-4.813-.909h.002zm-3.306 2.84a15.54 15.54 0 012.89-3.63l.17-.162.226.057a42.45 42.45 0 004.939.948 39.76 39.76 0 005.132.333A41.07 41.07 0 0058.249 8.16l.225-.056.17.158a15.447 15.447 0 014.518 7.91l.052.226-.161.167a41.523 41.523 0 00-6.113 8.153 41.266 41.266 0 00-3.934 9.375l-.063.226-.225.07a15.286 15.286 0 01-4.564.684c-.778 0-1.544-.062-2.291-.176a15.868 15.868 0 01-2.285-.53l-.223-.07-.064-.226a40.982 40.982 0 00-3.927-9.348 41.759 41.759 0 00-6.13-8.158l-.162-.167.051-.226c.338-1.51.903-2.96 1.675-4.3z" fill="#DEDDDE"/><path d="M34.902 19.6c0-3.676 1.482-7.001 3.877-9.41a13.195 13.195 0 014.295-2.888 13.147 13.147 0 015.07-1.01 13.18 13.18 0 019.37 3.895 13.272 13.272 0 012.876 4.318 13.32 13.32 0 011.005 5.095 13.306 13.306 0 01-1.007 5.092 13.258 13.258 0 01-2.877 4.312 13.21 13.21 0 01-4.298 2.885 13.165 13.165 0 01-5.07 1.009c-1.74.002-3.462-.34-5.068-1.009a13.198 13.198 0 01-4.294-2.885 13.259 13.259 0 01-2.873-4.313 13.305 13.305 0 01-1.004-5.09h-.002zm4.488-8.802a12.414 12.414 0 00-2.688 4.039 12.457 12.457 0 00-.938 4.765 12.42 12.42 0 003.626 8.789 12.341 12.341 0 004.014 2.698c1.502.625 3.113.946 4.738.944 3.424 0 6.522-1.392 8.766-3.64a12.394 12.394 0 002.687-4.033c.622-1.509.941-3.127.939-4.76a12.43 12.43 0 00-3.628-8.8 12.35 12.35 0 00-4.02-2.701 12.306 12.306 0 00-4.744-.944 12.303 12.303 0 00-8.752 3.644z" fill="#DEDDDE"/><path d="M43.644 18.942a2.298 2.298 0 011.23.083 1.9 1.9 0 01.925.716l.21.493-.487-.18c-.727-.395-1.457-.175-2.173.037-.914.273-1.807.54-2.742-.252a1.79 1.79 0 01-.468-.545 4.306 4.306 0 01-.27-.55l-.301-.726.627.47c.004.002 1.3 1.003 3.435.456l.014-.002z" fill="#DEDDDE"/><path fill-rule="evenodd" clip-rule="evenodd" d="M47.858 15.36c-.912 0-1.757.173-2.087.644 0 0-.365.342-.434.64 0 0-2.338-1.592-3.068 1.867 0 0 1.414-1.02 2.223-.354 0 0 .412.584 1.165.78 1.026.274.912.48.957.697 0 0-.137.32-1.026.884-.879.572-1.38.297-2.192.034 0 0-.056 1.202 1.555 1.18 0 0 .262.022.58-.012 0 0-1.929.813-1.198 2.807 0 0 .66-.803 1.391-.986 0 0-2.086 2.384.675 4.709 0 0 0-2.132.786-2.784 0 0 .433 1.696.296 2.624 0 0-.034.813-.285 1.238 0 0 3.274-.07 2.338-4.022 0 0 1.311.447 1.04 2.246 0 0 2.942-1.479 1.003-4.515 0 0 1.105 0 1.448 1.33 0 0 1.573-2.442-1.026-4.767 0 0 .981-.24 1.517.574 0 0-.07-1.857-1.815-2.761-.399-.219.228-.86.07-1.216l-3.913-.837z" fill="#CE0F3E"/><path fill-rule="evenodd" clip-rule="evenodd" d="M49.89 16.782s1.058-1.352 2.644-1.168c0 0-.443 1.994-2.19 2.359l-.454-1.19z" fill="#CE0F3E"/><path fill-rule="evenodd" clip-rule="evenodd" d="M50.401 16.976s.605-.594 1.335-.72c0 0-.365.86-1.198 1.03l-.137-.31zm-3.124 1.925c-.195-.138-.446-.194-.652-.09.628.022.73.915 1.416.733a1.17 1.17 0 00.341-.162c-.444.184-.809-.228-1.105-.482zm3.568 2.558a2.022 2.022 0 00-.38-.867c-.225-.282-.538-.465-.942-.614.09.395.198.79.2 1.197.012.343-.073.683-.245.98a1.5 1.5 0 01-.424.44 1.78 1.78 0 00.105-.954c-.084-.476-.355-.726-.663-1.055-.013.293-.007.594-.082.88a1.229 1.229 0 01-.459.719 1.352 1.352 0 00-.064-.993l-.387.207c.007.018.18.37-.015.77-.131.27-.394.477-.6.686.783-.047 1.495-.132 1.862-1.012.036.59-.324 1.06-.642 1.516.7-.141 1.292-.284 1.723-.963.27-.42.367-.93.307-1.535.404.545.354 1.256.354 1.901.532-.649.929-1.26.923-2.169-.005-.605-.223-1.309-.912-2.001l-.148.459c.777.991.686 1.866.489 2.408z" fill="#DEDDDE"/><path d="M44.634 19.401a1.913 1.913 0 00-.9-.038c-1.422.363-2.516.09-3.157-.18.076.119.173.223.285.308l.01.008.007.005c.759.65 1.545.414 2.347.175.462-.139.929-.278 1.408-.28" fill="#CE0F3E"/><path fill-rule="evenodd" clip-rule="evenodd" d="M48.597 14.171c.276.458.721 1.065 1.28 1.065.57 0 .912-.252 1.187-.711a.661.661 0 01-.365-.023c-.356-.126-.524-.481-.457-.94a.73.73 0 01.526-.518.724.724 0 01.706.21.8.8 0 01-.069-.584c.114-.402.58-.722.993-.654L50.8 15.968h-5.269L43.923 12.2c.398-.07.867.252.981.653a.599.599 0 01-.07.504c.081-.092.207-.263.332-.31.388-.113.832.229.946.62.07.457-.079.743-.433.87-.159.033-.296.01-.457-.012a1.377 1.377 0 001.255.711c.56 0 .97-.607 1.244-1.067a.723.723 0 01-.433.138.728.728 0 01-.678-.46.737.737 0 01-.052-.285.74.74 0 01.73-.754c.126 0 .263.033.366.101a.773.773 0 01-.229-.538c0-.414.33-.745.73-.745.41 0 .74.333.74.745a.81.81 0 01-.24.55.725.725 0 01.377-.113.74.74 0 01.73.754.737.737 0 01-.448.688.727.727 0 01-.282.057 1.345 1.345 0 01-.433-.138" fill="#E2AD25"/><path d="M46.86 16.954a1.5 1.5 0 00-.235 0 .392.392 0 01-.399.378.401.401 0 01-.399-.307 1.229 1.229 0 01-.217-.043c.05.237.182.515.519.58 0 0 .474.1.676-.482v-.002c.016-.043.034-.084.054-.124zm-.761-.984a.755.755 0 00-.154.158l-.01.017-.016.015s-.198.188-.309.38c.11.06.337.128.738.028l.015-.004c.524-.088.854.028 1.011.113.221.07.41.284.41.284l-.308.282s-.205-.23-.278-.024c-.324.927-1.144.754-1.146.752-.732-.137-.867-.84-.888-1.181-.309-.182-1.867-.973-2.558 1.272.53-.271 1.405-.578 2.023-.072l.024.019.013.019c.002.004.37.525 1.043.698 1.044.282 1.075.541 1.105.803l.012.062.013.066-.026.062s-.163.384-1.111.98c-.832.542-1.349.402-2.03.173.108.282.415.655 1.273.643h.017s.253.021.547-.01l1.412-.151-1.305.564c-.004.002-1.517.64-1.18 2.188.275-.268.738-.65 1.236-.774l.655-.163-.44.513c-.004.006-1.768 2.019.317 4.1.05-.697.226-1.97.843-2.484l.262-.214.084.327c0 .006.438 1.721.304 2.694a4.49 4.49 0 01-.16.963c.764-.15 2.476-.809 1.789-3.713l-.094-.386.375.132c.004.002 1.253.429 1.217 2.035.675-.489 1.963-1.802.572-3.982l-.216-.339.4.006c.001 0 .973 0 1.471.999.298-.764.622-2.433-1.195-4.058l-.309-.276.403-.095c0-.001.654-.161 1.238.177a3.143 3.143 0 00-1.584-1.963L51.6 17.6l-.013-.008c-.317.27-.71.49-1.199.593l-.088-.424c.974-.203 1.789-1.37 1.952-1.948-1.323-.01-2.194 1.1-2.197 1.104l-.334-.271c.004-.004 1.133-1.445 2.838-1.25l.241.03-.056.236c0 .004-.197.884-.839 1.614 1.755.982 1.826 2.88 1.826 2.886l.04.788-.435-.658a1.12 1.12 0 00-.831-.5c2.219 2.336.706 4.681.702 4.689l-.264.421-.126-.483c-.163-.634-.515-.922-.803-1.054 1.524 2.937-1.336 4.374-1.343 4.378l-.375.194.064-.418c.15-.982-.21-1.512-.517-1.776.618 3.73-2.63 3.8-2.64 3.8l-.394.013.202-.338c.225-.377.255-1.135.255-1.137v-.01l.004-.014c.088-.606-.081-1.57-.197-2.118-.459.79-.459 2.306-.459 2.312l-.004.459-.35-.296c-2.008-1.69-1.594-3.414-1.133-4.336-.365.267-.63.585-.63.587l-.237.282-.13-.348c-.49-1.34.113-2.195.656-2.654-1.667-.06-1.603-1.4-1.603-1.403l.011-.284.27.086.253.085c.614.21 1.058.361 1.755-.094h.001c.637-.403.853-.65.918-.743l-.002-.013c-.015-.115-.028-.232-.786-.435-.5-.137-.943-.43-1.267-.837-.687-.525-1.94.378-1.944.38l-.447.316.112-.536c.418-1.975 1.33-2.434 2.101-2.42.379.006.744.125 1.081.289.075-.132.165-.253.263-.367h.599" fill="#DEDDDE"/><path fill-rule="evenodd" clip-rule="evenodd" d="M82.296 39.316h-6.902l-3.615 8.972.011-8.983h-4.645v12.053h8.123l.73-1.833h5.796l.831 1.833h4.53l-4.86-12.041zm-20.59 6.473l-4.905-6.484h-5.887v8.949l-3.695-8.936h-6.81l-2.85 7.16h-4.256c-.354 1.501-1.163 2.163-2.635 2.163-1.688 0-2.828-1.26-2.828-3.137 0-2.44.957-3.7 2.794-3.7 1.506 0 2.36.677 2.622 2.084h4.827l.01-.183c0-2.91-2.93-4.823-7.392-4.823-4.766 0-7.025 1.868-7.413 6.151-.685-.745-1.803-1.328-2.646-1.397l-1.802-.16-2.66-.045c-1.14-.023-1.79-.426-1.79-1.1 0-.768.663-1.192 1.873-1.192 1.39 0 1.948.516 1.948 1.787h5.075v-.161c0-2.487-2.393-3.862-6.74-3.862-4.825 0-7.185 1.33-7.185 4.022 0 2.302 1.732 3.54 5.053 3.63l1.972.047c1.45.045 2.098.4 2.098 1.168 0 .653-.91 1.272-1.858 1.272-1.654 0-2.521-.572-2.521-1.65h-5.26v.113c0 2.615 2.625 4.044 7.393 4.044 4.597 0 6.855-1.006 7.586-3.4 1.472 2.52 3.388 3.436 7.117 3.436 2.373 0 3.606-.333 5.145-1.454l-.49 1.225h4.483l.82-1.88h5.887l.787 1.857h7.688v-7.137l5.464 7.16h5.44v-12.04h-4.459v6.473zm15.537.712l1.584-3.988 1.802 3.965-3.386.023zm-35.111 0l1.596-4.113 1.826 4.113h-3.422z" fill="#112C5C"/></svg>