<svg width="30" height="30" fill="none" xmlns="http://www.w3.org/2000/svg"><circle cx="15" cy="15" r="15" fill="#8E24AA"/><g clip-path="url(#clip0)" fill="#fff"><path d="M23.34 16.854c.56-4.71-.269-7.682-1.763-9.026l.001-.001C19.168 5.53 11.025 5.19 8.141 7.93c-1.296 1.34-1.752 3.306-1.802 5.74-.05 2.436-.11 6.998 4.141 8.235h.004l-.004 1.89s-.029.765.46.92c.56.18.813-.175 2.553-2.253 2.91.252 5.144-.326 5.398-.41.587-.197 3.911-.637 4.449-5.198zm-9.56 4.278s-1.842 2.296-2.414 2.893c-.188.193-.393.175-.39-.209 0-.252.014-3.137.014-3.137-3.604-1.033-3.392-4.918-3.353-6.95.04-2.032.411-3.697 1.508-4.818 2.53-2.373 9.669-1.843 11.488-.133 2.223 1.97 1.432 7.54 1.437 7.73-.457 3.807-3.151 4.049-3.647 4.213-.211.07-2.176.576-4.643.411z"/><path d="M14.798 9.356c-.3 0-.3.47 0 .473 2.334.018 4.256 1.645 4.277 4.628 0 .315.46.311.457-.004-.026-3.214-2.124-5.079-4.734-5.097z"/><path d="M17.868 13.963c-.007.31.453.325.457.01.038-1.772-1.055-3.232-3.109-3.386-.3-.022-.332.45-.032.472 1.782.136 2.72 1.351 2.684 2.904zm-.492 2.017c-.386-.224-.78-.085-.942.135l-.34.44c-.172.223-.495.193-.495.193-2.354-.622-2.984-3.086-2.984-3.086s-.03-.334.187-.513l.425-.351c.212-.17.346-.575.13-.975-.578-1.044-.966-1.404-1.164-1.68-.208-.261-.52-.32-.845-.144h-.007c-.676.395-1.416 1.135-1.18 1.897.405.803 1.147 3.363 3.512 5.298 1.112.915 2.871 1.852 3.618 2.068l.007.011c.736.246 1.452-.523 1.834-1.22v-.005c.17-.336.113-.655-.134-.864-.44-.428-1.102-.9-1.622-1.204z"/><path d="M15.538 12.33c.751.044 1.115.437 1.154 1.242.014.315.471.293.457-.022-.05-1.052-.598-1.637-1.586-1.692-.3-.018-.329.455-.025.473z"/></g><defs><clipPath id="clip0"><path fill="#fff" d="M5.25 6H24v18.75H5.25z"/></clipPath></defs></svg>