<svg width="62" height="17" fill="none" xmlns="http://www.w3.org/2000/svg"><g clip-path="url(#clip0)" fill="#FF4E00"><path d="M21.208 0h19.274v16.305h-5.346V4.057H26.55v12.248h-5.343V0h.001zm35.373 7.009V5.165s.01-.223-.076-.407a1.132 1.132 0 00-.472-.534 1.213 1.213 0 00-.611-.167h-7.433v12.248h-5.34V0h15.636l-1.007 3.062 4.644.596v5.318l-4.76-.824 1.121 4.02H47.99V8.116h7.431c.64 0 1.16-.495 1.16-1.106z"/><path d="M56.581 8.115v4.058h1.866c.924 0 1.81-.35 2.462-.973a3.243 3.243 0 001.02-2.346v-.739h-5.347zm0-4.058V0h1.866c.924 0 1.81.35 2.463.973a3.243 3.243 0 011.02 2.347v.737h-5.348zM6.504 12.173h6.272c.294-.001.576-.108.79-.3.214-.191.344-.453.364-.732h.002v-.517h5.341v1.623l-3.096 1.697-.697 2.36H3.53l-.55-1.954L0 13.058V3.606L3.531 0h12.48v2.692l3.262.517V5.68h-5.34v-.515c0-.611-.52-1.108-1.162-1.108H6.537v.001h-.035a1.202 1.202 0 00-.855.358 1.097 1.097 0 00-.244.39 1.058 1.058 0 00-.058.452l-.005.005v5.806c.001.293.124.573.341.78.218.208.513.324.82.324h.003z"/><path d="M5.348 4.057V0H3.483c-.924 0-1.81.35-2.463.972A3.243 3.243 0 000 3.32v.737h5.348zm0 8.19v4.058H3.483a3.57 3.57 0 01-2.463-.973A3.243 3.243 0 010 12.985v-.738h5.348zm8.584 0v4.058h1.866c.924 0 1.81-.35 2.462-.973a3.243 3.243 0 001.02-2.347v-.738h-5.348zm0-8.19V0h1.866c.924 0 1.81.35 2.462.973a3.243 3.243 0 011.02 2.347v.737h-5.348z"/></g><defs><clipPath id="clip0"><path fill="#fff" d="M0 0h62v17H0z"/></clipPath></defs></svg>