<svg width="30" height="30" fill="none" xmlns="http://www.w3.org/2000/svg"><circle cx="15" cy="15" r="15" fill="#436EAB"/><g clip-path="url(#clip0)"><path d="M22.934 17.692c.73.712 1.5 1.383 2.155 2.167.289.348.563.708.772 1.113.297.575.028 1.207-.488 1.242l-3.205-.002c-.826.069-1.486-.264-2.04-.83-.444-.451-.855-.932-1.282-1.4a3.032 3.032 0 00-.576-.512c-.438-.284-.818-.197-1.068.26-.254.463-.312.977-.337 1.494-.034.755-.263.954-1.02.988-1.62.076-3.158-.169-4.587-.986-1.26-.72-2.236-1.738-3.086-2.89-1.655-2.241-2.922-4.705-4.06-7.238-.257-.57-.07-.877.56-.888a87.06 87.06 0 013.138-.002c.425.007.706.25.87.652.566 1.39 1.258 2.714 2.127 3.94.231.327.467.654.803.884.372.254.655.17.83-.244.11-.263.16-.545.184-.826.083-.968.094-1.934-.051-2.898-.09-.601-.428-.99-1.029-1.104-.306-.059-.26-.172-.112-.347.257-.302.5-.49.983-.49h3.622c.57.113.697.37.775.943l.003 4.023c-.006.222.11.882.51 1.029.321.104.532-.152.724-.355.868-.92 1.487-2.008 2.04-3.134.245-.496.456-1.01.66-1.524.152-.381.39-.57.82-.56l3.485.002c.104 0 .208.002.309.019.587.1.748.353.566.926-.285.9-.842 1.65-1.385 2.404-.582.804-1.204 1.581-1.78 2.39-.53.74-.488 1.112.17 1.754z" fill="#fff"/></g><defs><clipPath id="clip0"><path fill="#fff" d="M4 5h22v22H4z"/></clipPath></defs></svg>