<svg width="100" height="25" fill="none" xmlns="http://www.w3.org/2000/svg"><path fill-rule="evenodd" clip-rule="evenodd" d="M30.423 12.257h-2.115V7.87h2.115V1.597h4.646V7.87h3.59v4.387h-3.59v5.85c0 1.56.61 2.179 2.051 2.179.257 0 .673-.034 1.219-.13v4.29c-.642.161-1.411.227-2.34.227-3.717 0-5.576-1.95-5.576-5.85v-6.566zM41.875 24.25h4.775V7.87h-4.775v16.38zM44.245.979c1.507 0 2.724 1.203 2.724 2.763a2.714 2.714 0 01-2.724 2.73 2.713 2.713 0 01-2.723-2.73c0-1.56 1.217-2.763 2.723-2.763zm5.47 6.891h4.838v9.36c0 2.08 1.187 3.023 2.949 3.023 1.762 0 2.947-.942 2.947-3.022V7.87h4.84v9.782c0 2.275-.737 4.031-2.244 5.233-1.474 1.203-3.333 1.82-5.543 1.82s-4.07-.617-5.576-1.82c-1.474-1.202-2.21-2.958-2.21-5.233V7.87zm21.264 16.384V7.874h4.775v2.242c.736-1.658 2.467-2.6 4.678-2.6.32 0 .737.033 1.25.098v4.55A8.107 8.107 0 0080.078 12c-2.723 0-4.325 1.56-4.325 4.258v7.995h-4.775zM83.924 7.873h4.838v9.36c0 2.08 1.186 3.023 2.948 3.023 1.763 0 2.948-.942 2.948-3.023v-9.36h4.84v9.782c0 2.275-.738 4.031-2.244 5.233-1.474 1.203-3.333 1.82-5.544 1.82-2.21 0-4.069-.617-5.575-1.82-1.474-1.202-2.21-2.958-2.21-5.233V7.873zM66.261 21.305c.795-.79 2-.79 2.77 0a1.96 1.96 0 010 2.815c-.77.79-1.975.79-2.77 0a2.003 2.003 0 010-2.815zM0 24.5h23.662V.5H0v24zM5.423 19h12.816V6H5.423v13z" fill="#292F33"/></svg>