<svg width="30" height="30" fill="none" xmlns="http://www.w3.org/2000/svg"><circle cx="15" cy="15" r="15" fill="#7AD06D"/><g clip-path="url(#clip0)" fill="#fff"><path d="M14.92 5.26c-4.951.237-8.86 4.36-8.844 9.318a9.259 9.259 0 001.012 4.194l-.987 4.793a.362.362 0 00.438.425l4.696-1.113a9.255 9.255 0 003.995.97c5.062.078 9.282-3.941 9.44-9a9.3 9.3 0 00-9.75-9.586zm5.604 14.438a7.234 7.234 0 01-5.149 2.133 7.204 7.204 0 01-3.24-.76l-.655-.326-2.879.682.606-2.941-.322-.631a7.2 7.2 0 01-.791-3.306c0-1.945.757-3.773 2.132-5.148a7.294 7.294 0 015.15-2.133c1.944 0 3.772.757 5.148 2.132a7.233 7.233 0 012.132 5.15c0 1.927-.77 3.785-2.132 5.148z"/><path d="M19.888 16.566l-1.801-.518a.671.671 0 00-.665.175l-.44.45a.656.656 0 01-.713.15c-.852-.345-2.645-1.939-3.103-2.736a.656.656 0 01.052-.727l.385-.498a.671.671 0 00.083-.682l-.758-1.714a.672.672 0 00-1.049-.24c-.503.425-1.1 1.071-1.172 1.787-.128 1.262.414 2.853 2.46 4.763 2.365 2.207 4.258 2.499 5.491 2.2.7-.17 1.258-.848 1.611-1.404a.672.672 0 00-.38-1.006z"/></g><defs><clipPath id="clip0"><path fill="#fff" d="M6 5.25h18.75V24H6z"/></clipPath></defs></svg>