<svg width="99" height="22" fill="none" xmlns="http://www.w3.org/2000/svg"><path d="M.93 1.063h8.71c2.204 0 3.887.663 5.046 1.989 1.001 1.145 1.503 2.621 1.503 4.425 0 1.82-.5 3.301-1.5 4.448-1.159 1.324-2.84 1.99-5.042 1.99h-4.55v7.193H.93V1.063zm4.168 9.431h3.177c1.174 0 2.046-.196 2.618-.588.694-.473 1.042-1.28 1.042-2.419 0-1.177-.366-1.994-1.095-2.451-.558-.356-1.413-.534-2.565-.534H5.098v5.992zM20.21 14.82c0 2.418 1.161 3.626 3.48 3.626.623 0 1.232-.163 1.826-.485.66-.36 1.07-.812 1.236-1.365h3.543c-1.088 3.228-3.337 4.843-6.744 4.843-2.233 0-4.02-.695-5.354-2.093-1.336-1.398-2.003-3.225-2.003-5.484 0-2.237.641-4.068 1.922-5.494 1.381-1.542 3.194-2.313 5.435-2.313 2.275 0 4.044.87 5.304 2.61 1.125 1.545 1.687 3.596 1.687 6.154H20.21zm6.305-2.515c-.373-2.047-1.396-3.07-3.072-3.07-1.074 0-1.918.376-2.535 1.129a2.99 2.99 0 00-.697 1.941h6.304zm5.861-5.931h3.629V8.84h.042c.646-1.105 1.297-1.837 1.956-2.196.632-.347 1.594-.532 2.89-.553.256 0 .525.047.804.14v3.673c-.344-.086-.788-.13-1.331-.13-2.778 0-4.17 1.608-4.17 4.824v6.507h-3.82V6.374zM57.3 21.116c-.186-.022-.666-.032-1.435-.032-.77 0-1.836.007-3.19.023l-4.447-6.715-1.244 1.247v5.468h-3.728V1.06h3.728V11.5l4.913-5.192h4.62l-5.424 5.498 6.207 9.309zm.898-18.256c0-.616.21-1.137.632-1.565a2.084 2.084 0 011.543-.64 2.07 2.07 0 011.54.64c.423.428.633.949.633 1.564 0 .617-.21 1.137-.632 1.561a2.085 2.085 0 01-1.541.635c-.607 0-1.12-.211-1.543-.635a2.129 2.129 0 01-.632-1.56zm.162 18.247h3.95V6.314h-3.95v14.793zM64.312 6.32h3.704v2.4h.097c.564-.952 1.174-1.61 1.825-1.974.782-.436 1.557-.654 2.332-.654 2.074 0 3.518.547 4.337 1.641.693.921 1.041 2.425 1.041 4.513v8.86h-3.904V12.99c0-1.056-.136-1.853-.41-2.39-.388-.774-1.155-1.162-2.306-1.162-1.09 0-1.869.434-2.337 1.303-.335.61-.504 1.55-.504 2.826v7.54h-3.876V6.32zM82.89 16.369c0 .695.352 1.309 1.053 1.837.521.397 1.21.595 2.061.595 1.814 0 2.717-.613 2.717-1.844 0-.651-.73-1.197-2.19-1.638-.48-.145-1.256-.34-2.33-.586-1.14-.26-1.913-.481-2.319-.663-1.519-.679-2.278-1.74-2.278-3.18 0-3.077 2.073-4.614 6.218-4.614 4.217 0 6.324 1.52 6.324 4.562H88.53c0-1.288-.936-1.934-2.804-1.934-1.403 0-2.104.446-2.104 1.335 0 .774.742 1.333 2.222 1.671 1.109.239 1.87.398 2.276.478.795.174 1.503.403 2.127.686 1.497.693 2.244 1.803 2.244 3.33 0 1.802-.672 3.13-2.018 3.983-1.103.703-2.596 1.052-4.478 1.052-1.912 0-3.445-.355-4.597-1.062-1.403-.866-2.104-2.202-2.104-4.008h3.597zM96.01 6.314c.372 0 .739.098 1.099.292.356.194.636.473.837.837a2.294 2.294 0 01.003 2.26 2.08 2.08 0 01-.828.838 2.236 2.236 0 01-1.11.298c-.39 0-.76-.1-1.115-.298a2.1 2.1 0 01-.828-.839 2.29 2.29 0 01.005-2.26c.2-.363.479-.642.838-.836a2.266 2.266 0 011.1-.292zm0 .37a1.88 1.88 0 00-.92.246c-.3.164-.53.396-.7.7a1.93 1.93 0 00-.25.948c0 .327.08.64.246.939.165.299.396.532.695.7.294.167.603.251.93.251.321 0 .631-.084.928-.252.297-.167.526-.4.692-.7a1.913 1.913 0 00-.006-1.887 1.725 1.725 0 00-.698-.699 1.89 1.89 0 00-.917-.245zm-.98 3.148v-2.44h.826c.282 0 .485.023.611.069a.583.583 0 01.302.236.652.652 0 01-.076.825.735.735 0 01-.5.222.65.65 0 01.205.13c.095.095.215.256.355.481l.294.477h-.472l-.214-.384c-.168-.302-.304-.49-.405-.566a.51.51 0 00-.314-.084h-.228v1.034h-.384zm.384-1.37h.475c.228 0 .384-.034.467-.103a.342.342 0 00.124-.273.336.336 0 00-.06-.196.367.367 0 00-.166-.129c-.072-.027-.202-.042-.394-.042h-.446v.742z" fill="#004A93"/></svg>