<svg width="57" height="57" fill="none" xmlns="http://www.w3.org/2000/svg"><path fill-rule="evenodd" clip-rule="evenodd" d="M28.633 0c1.341 0 2.267 1.055 3.183 2.1.543.62 1.081 1.234 1.41 1.293.338.062 1.062-.34 1.782-.739 1.19-.66 2.375-1.317 3.588-.866 1.226.456 1.685 1.738 2.143 3.017.27.757.54 1.51.798 1.662.259.15 1.053.012 1.846-.127 1.332-.232 2.661-.464 3.649.367.982.827.976 2.177.97 3.527-.004.797-.008 1.595.185 1.823.194.229.98.36 1.768.493 1.336.225 2.675.45 3.33 1.565.653 1.113.202 2.382-.25 3.656-.272.764-.544 1.53-.434 1.825.11.294.806.698 1.507 1.105 1.187.689 2.38 1.381 2.617 2.682.233 1.279-.614 2.342-1.468 3.415-.524.659-1.052 1.323-1.052 1.702 0 .38.528 1.044 1.052 1.702.854 1.073 1.7 2.136 1.468 3.415-.236 1.3-1.43 1.994-2.617 2.683-.7.406-1.397.81-1.507 1.104-.11.294.162 1.061.434 1.825.452 1.274.903 2.543.25 3.656-.655 1.116-1.994 1.34-3.33 1.565-.788.133-1.575.265-1.768.493-.193.229-.189 1.026-.185 1.823.006 1.35.012 2.7-.97 3.528-.987.83-2.317.599-3.649.366-.793-.138-1.587-.277-1.846-.126-.258.15-.527.905-.798 1.662-.458 1.278-.917 2.56-2.143 3.017-1.213.45-2.397-.206-3.588-.867-.72-.399-1.444-.8-1.781-.739-.33.06-.868.673-1.41 1.292C30.898 55.945 29.973 57 28.632 57c-1.34 0-2.266-1.055-3.183-2.1-.543-.62-1.081-1.234-1.411-1.293-.337-.062-1.061.34-1.781.739-1.191.66-2.375 1.317-3.588.866-1.226-.456-1.685-1.738-2.143-3.017-.27-.756-.54-1.51-.799-1.662-.258-.15-1.052-.012-1.845.127-1.332.232-2.662.464-3.65-.367-.981-.827-.975-2.177-.969-3.527.004-.797.007-1.595-.186-1.823-.193-.229-.98-.36-1.767-.493-1.336-.225-2.675-.45-3.33-1.565-.652-1.113-.202-2.382.25-3.656.272-.764.544-1.53.434-1.825-.11-.294-.806-.698-1.507-1.105C1.971 35.61.777 34.917.54 33.617c-.233-1.279.614-2.342 1.468-3.415.524-.659 1.052-1.323 1.052-1.702 0-.38-.528-1.044-1.052-1.702-.854-1.073-1.7-2.136-1.468-3.415.236-1.3 1.43-1.994 2.617-2.682.7-.407 1.398-.811 1.507-1.105.11-.294-.162-1.061-.434-1.825-.452-1.274-.903-2.543-.25-3.656.655-1.116 1.994-1.34 3.33-1.565.788-.133 1.574-.265 1.767-.493.193-.229.19-1.026.186-1.823-.006-1.35-.012-2.701.97-3.527.987-.831 2.317-.6 3.649-.367.793.138 1.588.277 1.845.126.258-.15.528-.905.8-1.662.457-1.278.916-2.56 2.142-3.017 1.213-.45 2.397.206 3.588.867.72.399 1.444.8 1.781.739.33-.06.868-.673 1.41-1.292C26.367 1.055 27.293 0 28.634 0zm13.823 14.38a1.114 1.114 0 00-.852 1.833l.004.004A17.766 17.766 0 0146.516 28.5a17.77 17.77 0 01-5.238 12.62 17.843 17.843 0 01-12.645 5.228 17.878 17.878 0 01-6.129-1.075l-.002-.002a1.115 1.115 0 10-.642 2.133 20.113 20.113 0 006.773 1.168 20.068 20.068 0 0014.22-5.88 19.989 19.989 0 005.89-14.192 19.98 19.98 0 00-5.427-13.715 1.115 1.115 0 00-.86-.404zm-3.367-2.825c-.615 0-1.115.498-1.115 1.113a1.115 1.115 0 002.23 0c0-.615-.498-1.113-1.114-1.113zm-3.62-1.937a20.11 20.11 0 00-6.836-1.19 20.067 20.067 0 00-14.22 5.88A19.99 19.99 0 008.521 28.5a19.98 19.98 0 005.406 13.692 1.115 1.115 0 101.71-1.43l-.005-.005A17.767 17.767 0 0110.75 28.5c0-4.929 2.003-9.391 5.239-12.62a17.843 17.843 0 0112.645-5.228c2.134 0 4.18.373 6.078 1.058a1.114 1.114 0 10.757-2.091zm-17.293 33.6a1.115 1.115 0 101.115 1.113c0-.614-.499-1.113-1.115-1.113zm3.963-25.66a4.621 4.621 0 00-3.275 1.354 4.605 4.605 0 00-1.357 3.269c0 1.276.519 2.432 1.357 3.268a4.621 4.621 0 003.275 1.354 4.621 4.621 0 003.275-1.354 4.604 4.604 0 001.356-3.268 4.604 4.604 0 00-1.356-3.269 4.62 4.62 0 00-3.275-1.354zm1.7 2.926a2.399 2.399 0 00-1.7-.702 2.4 2.4 0 100 4.798 2.398 2.398 0 001.7-4.096zM34.2 18.062l-12.989 19.66a1.106 1.106 0 00.318 1.533 1.11 1.11 0 001.536-.317l12.988-19.66a1.105 1.105 0 00-.318-1.533 1.11 1.11 0 00-1.535.317zm.926 12.135a4.622 4.622 0 00-3.275 1.354 4.606 4.606 0 00-1.356 3.268c0 1.276.519 2.432 1.357 3.269a4.623 4.623 0 003.274 1.353 4.62 4.62 0 003.275-1.353 4.603 4.603 0 001.357-3.269 4.603 4.603 0 00-1.357-3.268 4.62 4.62 0 00-3.275-1.354zm1.7 2.926a2.4 2.4 0 00-1.7-.703 2.399 2.399 0 100 4.798 2.397 2.397 0 002.404-2.399 2.39 2.39 0 00-.704-1.696zM30.146 3.56c-.584-.665-1.172-1.336-1.513-1.336-.34 0-.93.671-1.512 1.336-.8.911-1.591 1.814-2.69 2.013-1.116.203-2.187-.391-3.252-.982-.743-.412-1.481-.822-1.734-.728-.25.093-.535.892-.82 1.689-.406 1.132-.81 2.262-1.774 2.825-.97.568-2.161.36-3.35.152-.822-.143-1.643-.287-1.83-.129-.195.164-.191.995-.187 1.826.005 1.206.01 2.413-.709 3.264-.716.849-1.907 1.049-3.098 1.249-.825.138-1.652.277-1.78.497-.129.218.15 1.006.432 1.797.404 1.139.81 2.281.416 3.336-.389 1.042-1.428 1.645-2.473 2.252-.745.432-1.495.867-1.547 1.153-.052.29.484.963 1.024 1.643.767.963 1.54 1.935 1.54 3.083 0 1.148-.773 2.12-1.54 3.083-.54.68-1.076 1.353-1.024 1.643.052.286.802.721 1.547 1.154 1.045.606 2.084 1.21 2.473 2.25.394 1.056-.012 2.199-.416 3.338-.281.79-.56 1.578-.433 1.797.129.219.955.358 1.78.496 1.193.2 2.383.4 3.1 1.25.719.85.713 2.057.708 3.264-.004.83-.008 1.661.187 1.825.187.158 1.008.015 1.83-.129 1.189-.207 2.38-.415 3.35.152.964.563 1.369 1.693 1.774 2.825.285.797.57 1.596.82 1.689.253.093.991-.316 1.734-.727 1.065-.591 2.136-1.185 3.252-.983 1.1.199 1.89 1.102 2.69 2.013.583.666 1.172 1.337 1.512 1.337.34 0 .93-.672 1.513-1.337.798-.911 1.59-1.814 2.689-2.013 1.115-.202 2.187.392 3.252.983.743.411 1.481.82 1.734.727.25-.093.536-.892.82-1.689.406-1.133.81-2.261 1.773-2.825.971-.567 2.162-.36 3.352-.152.822.144 1.642.287 1.83.129.194-.164.19-.995.187-1.825-.006-1.207-.011-2.414.708-3.265.717-.849 1.906-1.048 3.098-1.249.825-.138 1.652-.277 1.781-.496.128-.219-.152-1.007-.433-1.797-.404-1.14-.81-2.282-.416-3.337.388-1.042 1.428-1.645 2.472-2.251.746-.433 1.495-.868 1.548-1.154.053-.29-.483-.963-1.024-1.643-.767-.963-1.54-1.934-1.54-3.083 0-1.148.773-2.12 1.54-3.083.54-.68 1.076-1.353 1.024-1.643-.052-.286-.802-.721-1.547-1.154-1.045-.606-2.085-1.21-2.473-2.25-.394-1.056.012-2.198.416-3.337.281-.79.561-1.58.433-1.797-.129-.22-.956-.359-1.78-.497-1.193-.2-2.383-.4-3.1-1.249-.718-.85-.713-2.058-.707-3.264.004-.831.007-1.662-.187-1.826-.188-.158-1.008-.014-1.83.129-1.19.208-2.38.416-3.351-.152-.964-.563-1.368-1.693-1.773-2.825-.285-.797-.572-1.596-.82-1.689-.254-.094-.992.316-1.735.728-1.066.59-2.137 1.185-3.252.982-1.099-.199-1.89-1.102-2.69-2.013z" fill="#FFE165"/></svg>