<svg width="51" height="51" fill="none" xmlns="http://www.w3.org/2000/svg"><g filter="url(#filter0_d)"><circle cx="25.5" cy="21.5" r="21.5" fill="#fff"/></g><path d="M25.746 5.47l2.067-.782a.697.697 0 01.682.108l1.724 1.382c.133.106.3.16.47.152l2.206-.104a.697.697 0 01.615.314l1.213 1.846a.697.697 0 00.399.29l2.13.583c.239.065.424.25.49.488l.582 2.131a.697.697 0 00.29.399l1.846 1.213a.696.696 0 01.314.615l-.104 2.207a.697.697 0 00.152.468l1.381 1.725a.697.697 0 01.108.682l-.78 2.066a.697.697 0 000 .493l.78 2.067c.088.23.047.49-.108.682l-1.38 1.724a.697.697 0 00-.153.469l.104 2.207a.697.697 0 01-.314.615l-1.846 1.213a.696.696 0 00-.29.399l-.583 2.13a.697.697 0 01-.488.49l-2.131.582a.697.697 0 00-.399.29L33.51 36.46a.697.697 0 01-.615.314l-2.207-.104a.697.697 0 00-.469.152l-1.724 1.381a.697.697 0 01-.682.108l-2.067-.78a.697.697 0 00-.492 0l-2.067.78a.697.697 0 01-.682-.108l-1.724-1.381a.697.697 0 00-.469-.152l-2.207.104a.697.697 0 01-.615-.314l-1.213-1.846a.696.696 0 00-.399-.29l-2.13-.583a.697.697 0 01-.49-.488l-.582-2.131a.697.697 0 00-.29-.399L10.54 29.51a.697.697 0 01-.314-.615l.104-2.207a.697.697 0 00-.152-.469l-1.381-1.724a.697.697 0 01-.108-.682l.78-2.067a.697.697 0 000-.493l-.78-2.066a.697.697 0 01.108-.683l1.381-1.724a.697.697 0 00.152-.469l-.104-2.206a.697.697 0 01.314-.616l1.846-1.213a.696.696 0 00.29-.398l.583-2.131a.697.697 0 01.488-.489l2.131-.583a.697.697 0 00.399-.29L17.49 6.54a.697.697 0 01.615-.313l2.207.104a.697.697 0 00.469-.153l1.724-1.38a.697.697 0 01.682-.109l2.067.781c.158.06.334.06.492 0z" fill="#FFC850"/><path d="M30.761 33.776c-9.685 0-17.536-7.852-17.536-17.537 0-2.594.567-5.054 1.578-7.269l-1.056.289a.697.697 0 00-.488.488l-.583 2.131a.697.697 0 01-.29.399L10.54 13.49a.697.697 0 00-.314.615l.104 2.207a.697.697 0 01-.152.469l-1.381 1.724a.697.697 0 00-.108.682l.78 2.067c.06.159.06.334 0 .492l-.78 2.067a.697.697 0 00.108.682l1.381 1.724c.106.133.16.3.152.47l-.104 2.206a.697.697 0 00.314.615l1.846 1.213a.697.697 0 01.29.399l.583 2.131c.065.238.25.423.488.489l2.131.582a.697.697 0 01.399.29l1.213 1.847c.135.206.37.325.615.313l2.207-.104a.697.697 0 01.469.152l1.724 1.382a.697.697 0 00.682.108l2.067-.781a.697.697 0 01.492 0l2.067.78c.23.088.49.047.682-.107l1.724-1.382c.133-.106.3-.16.47-.152l2.206.104a.697.697 0 00.615-.313l1.213-1.847a.697.697 0 01.399-.29l2.13-.582a.697.697 0 00.49-.489l.288-1.056a17.465 17.465 0 01-7.269 1.579z" fill="#E1A546"/><path d="M25.5 34.944c7.425 0 13.445-6.019 13.445-13.444 0-7.425-6.02-13.445-13.445-13.445-7.425 0-13.445 6.02-13.445 13.445 0 7.425 6.02 13.444 13.445 13.444z" fill="#FFDC64"/><path d="M31.006 31.065a.603.603 0 00-.459-.287c-6.775-.693-12.062-6.412-12.062-13.37 0-1.763.341-3.446.96-4.988.157-.393-.284-.75-.631-.507a11.678 11.678 0 00-4.927 10.959c.6 5.262 4.806 9.52 10.057 10.215 2.483.33 4.82-.145 6.83-1.173a.605.605 0 00.232-.849z" fill="#FFC850"/><path d="M34.271 19.454a1.46 1.46 0 00-1.461-1.461h-5.06c1.361-1.102 2.285-2.58 2.419-3.795.099-.902-.524-1.757-1.43-1.766a1.455 1.455 0 00-1.476 1.454c0 .526-1.142 2.088-3.282 2.783a2.139 2.139 0 00-.89.587c-.182.193-.667.783-1.142 1.105a.583.583 0 00-.54-.368H17.9a.585.585 0 00-.585.584v9.353c0 .323.262.585.585.585h3.507a.585.585 0 00.585-.585h9.355a1.17 1.17 0 000-2.338h.585a1.169 1.169 0 000-2.338h.584a1.17 1.17 0 000-2.338h.293c.807 0 1.461-.655 1.461-1.462z" fill="#fff"/><path d="M30.761 24.423a.585.585 0 000 1.169h1.109c.583 0 1.123-.398 1.216-.973.011-.067.01-.131.01-.196h-2.335zm0-2.339a.585.585 0 000 1.17h1.694c.582 0 1.122-.398 1.216-.973.01-.067.01-.132.01-.197h-2.92zm0-2.337a.585.585 0 000 1.169h2.049c.706 0 1.287-.504 1.424-1.17h-3.473z" fill="#FFFAB4"/><path d="M23.746 26.176v-7.16c0-.254.164-.477.406-.556 1.178-.386 4.535-1.827 4.823-5.774l-.248-.254a1.455 1.455 0 00-1.463 1.454c0 .526-1.143 2.088-3.284 2.783a2.139 2.139 0 00-.889.587c-.176.187-.637.745-1.098 1.072v8.433h-1.754a1.17 1.17 0 01-1.17-1.17v-7.598h-1.168a.585.585 0 00-.585.584v9.353c0 .323.262.585.585.585h3.507a.585.585 0 00.585-.585h9.355a1.17 1.17 0 001.17-1.17H24.33a.584.584 0 01-.585-.584z" fill="#FFFAB4"/><path d="M34.82 19.454c0-1.108-.902-2.01-2.01-2.01h-3.693c.897-1.008 1.483-2.156 1.597-3.186a2.216 2.216 0 00-.534-1.714 1.926 1.926 0 00-1.437-.66h-.019c-.535 0-1.038.206-1.417.582a1.98 1.98 0 00-.591 1.41c-.02.118-.226.521-.73 1a5.709 5.709 0 01-2.175 1.272c-.412.134-.789.38-1.12.733a7.25 7.25 0 01-.755.696 1.125 1.125 0 00-.528-.132h-3.507c-.625 0-1.133.508-1.133 1.133v9.352c0 .625.508 1.133 1.133 1.133h3.507c.426 0 .797-.236.99-.585h8.95a1.719 1.719 0 001.479-2.59 1.718 1.718 0 00.584-2.338 1.718 1.718 0 00.525-2.432 2.01 2.01 0 00.883-1.664zm-2.01.914h-.293a.548.548 0 000 1.096.622.622 0 010 1.242h-.584a.548.548 0 100 1.096.622.622 0 010 1.242h-.585a.548.548 0 000 1.096.622.622 0 010 1.243h-8.807v-5.298a.548.548 0 10-1.096 0v5.845c0 .02-.017.037-.037.037h-3.507a.037.037 0 01-.037-.037v-9.352c0-.02.017-.037.037-.037h3.507c.02 0 .037.016.037.037v1.169a.548.548 0 001.096 0v-1.17c0-.026-.003-.052-.004-.078.41-.318.74-.64.954-.868.202-.216.424-.364.659-.44a6.77 6.77 0 002.659-1.585c.628-.617 1.002-1.26 1.002-1.72 0-.243.095-.47.267-.641a.919.919 0 01.655-.265c.307.003.51.16.627.292.2.225.299.549.264.866-.12 1.089-.99 2.435-2.218 3.43a.548.548 0 00.344.973h5.06a.914.914 0 010 1.827z" fill="#000"/><path d="M19.654 25.623a.553.553 0 00-.55.55c0 .303.248.551.55.551a.552.552 0 00.551-.55.553.553 0 00-.55-.551z" fill="#000"/><path d="M42.023 21.5l.941-2.49a.548.548 0 00-.085-.537l-1.665-2.079.126-2.66a.548.548 0 00-.247-.484l-2.226-1.462-.702-2.569a.548.548 0 00-.384-.384l-2.57-.702-1.461-2.226a.549.549 0 00-.484-.247l-2.66.126-2.079-1.665a.548.548 0 00-.536-.085l-2.491.941-2.491-.941a.548.548 0 00-.537.085l-2.078 1.665-2.66-.125a.547.547 0 00-.484.246l-1.462 2.226-2.57.703a.548.548 0 00-.383.384l-.703 2.568-2.226 1.463a.548.548 0 00-.246.483l.125 2.66-1.665 2.079a.548.548 0 00-.085.536l.942 2.491-.942 2.492a.548.548 0 00.085.536l1.665 2.078-.125 2.66a.548.548 0 00.246.485l2.226 1.462.703 2.568a.548.548 0 00.384.384l2.569.703 1.462 2.226a.55.55 0 00.483.246l2.66-.125 2.08 1.665a.548.548 0 00.536.085l2.49-.941 2.492.941a.549.549 0 00.536-.085l2.079-1.665 2.66.125a.549.549 0 00.484-.246l1.462-2.226 2.569-.703a.548.548 0 00.384-.384l.702-2.568 2.226-1.463a.548.548 0 00.247-.483l-.126-2.66 1.665-2.079a.548.548 0 00.085-.536l-.941-2.492zm-1.099.194l.904 2.393-1.599 1.996a.548.548 0 00-.12.368l.121 2.555-2.138 1.404a.548.548 0 00-.227.314l-.675 2.467-2.467.674a.549.549 0 00-.314.228l-1.404 2.138-2.555-.12a.548.548 0 00-.368.12l-1.996 1.598-2.393-.904a.548.548 0 00-.387 0l-2.393.904-1.996-1.599a.549.549 0 00-.368-.12l-2.555.12-1.404-2.137a.548.548 0 00-.314-.228l-2.467-.674-.674-2.467a.548.548 0 00-.228-.314l-2.138-1.404.12-2.555a.548.548 0 00-.119-.368l-1.6-1.996.905-2.393a.548.548 0 000-.387l-.904-2.393 1.599-1.996a.548.548 0 00.12-.368l-.12-2.555 2.137-1.404a.548.548 0 00.228-.314l.674-2.467 2.467-.675a.549.549 0 00.314-.227l1.404-2.138 2.555.12a.548.548 0 00.368-.12l1.996-1.598 2.393.904a.547.547 0 00.387 0l2.393-.904 1.996 1.599a.548.548 0 00.368.12l2.555-.121 1.404 2.138a.548.548 0 00.314.227l2.467.675.675 2.467c.035.129.116.24.227.314l2.138 1.404-.12 2.555a.548.548 0 00.12.368l1.598 1.996-.904 2.393a.548.548 0 000 .387z" fill="#000"/><path d="M34.602 12.374c.131.131.262.268.388.405a.546.546 0 00.774.033.548.548 0 00.033-.774 14.387 14.387 0 00-.86-.86.548.548 0 00-.74.807c.136.126.273.257.405.389zm-18.239-.001a12.923 12.923 0 017.782-3.708c2.89-.3 5.823.39 8.258 1.942a.548.548 0 10.589-.924 14.045 14.045 0 00-8.96-2.108 14.026 14.026 0 00-8.444 4.023 13.951 13.951 0 00-4.087 9.325 13.947 13.947 0 003.264 9.567.546.546 0 00.772.067.548.548 0 00.067-.772 12.853 12.853 0 01-3.008-8.817 12.857 12.857 0 013.767-8.595zm20.173 1.442a.548.548 0 00-.168.757 12.944 12.944 0 011.942 8.257 12.924 12.924 0 01-3.708 7.783 12.858 12.858 0 01-8.594 3.767 12.851 12.851 0 01-8.817-3.008.548.548 0 00-.706.839 13.938 13.938 0 009.567 3.264 13.951 13.951 0 009.325-4.087 14.022 14.022 0 004.023-8.445 14.044 14.044 0 00-2.107-8.959.548.548 0 00-.757-.168z" fill="#000"/><defs><filter id="filter0_d" x="0" y="0" width="51" height="51" filterUnits="userSpaceOnUse" color-interpolation-filters="sRGB"><feFlood flood-opacity="0" result="BackgroundImageFix"/><feColorMatrix in="SourceAlpha" values="0 0 0 0 0 0 0 0 0 0 0 0 0 0 0 0 0 0 127 0"/><feOffset dy="4"/><feGaussianBlur stdDeviation="2"/><feColorMatrix values="0 0 0 0 0 0 0 0 0 0 0 0 0 0 0 0 0 0 0.25 0"/><feBlend in2="BackgroundImageFix" result="effect1_dropShadow"/><feBlend in="SourceGraphic" in2="effect1_dropShadow" result="shape"/></filter></defs></svg>