<svg width="25" height="25" fill="none" xmlns="http://www.w3.org/2000/svg"><path d="M19.915 16.525a4.21 4.21 0 00-3.574 1.966l-7.322-4.445a4.208 4.208 0 00.303-1.565c0-.553-.11-1.08-.303-1.565l7.324-4.41a4.233 4.233 0 003.572 1.969 4.243 4.243 0 004.238-4.238A4.243 4.243 0 0019.915 0a4.242 4.242 0 00-4.237 4.237c0 .532.103 1.04.283 1.51l-7.333 4.416a4.235 4.235 0 00-3.543-1.919 4.242 4.242 0 00-4.238 4.237 4.243 4.243 0 004.238 4.238c1.48 0 2.784-.765 3.542-1.92l7.332 4.451A4.232 4.232 0 0019.915 25a4.21 4.21 0 002.996-1.241c.8-.8 1.241-1.864 1.241-2.996s-.44-2.197-1.24-2.997a4.21 4.21 0 00-2.997-1.24z" fill="#fff"/></svg>