<svg width="29" height="28" fill="none" xmlns="http://www.w3.org/2000/svg"><path d="M4.547 7.371l9.953 3.167 9.953-3.167-9.42-2.997v4.594a.532.532 0 01-1.065 0V4.374L4.547 7.37zm21.131 16.128v-9.954l-7.292 2.317a.525.525 0 01-.56-.156l-2.794-3.194v4.972a.532.532 0 11-1.064 0v-4.97l-2.794 3.193a.532.532 0 01-.56.155l-7.292-2.317V23.5l10.646 3.87v-4.562a.532.532 0 111.064 0v4.562l10.646-3.87zM14.5 21.21a.532.532 0 01-.532-.532v-1.065a.532.532 0 111.064 0v1.065a.532.532 0 01-.532.532zM29 3.374L18.397 0l-2.961 3.385 10.603 3.374L29 3.374z" fill="#FFE165"/><path d="M26.039 7.984l-10.603 3.374 2.96 3.385L29 11.369l-2.961-3.385zm-12.475 3.374L2.961 7.984 0 11.369l10.603 3.374 2.961-3.385zM0 3.374l2.961 3.385 10.603-3.374L10.604 0 0 3.374z" fill="#FFE165"/></svg>