<svg width="28" height="27" fill="none" xmlns="http://www.w3.org/2000/svg"><path fill-rule="evenodd" clip-rule="evenodd" d="M11.386 4.256L.733 14.839a2.24 2.24 0 00.01 3.193l8.47 8.311a2.289 2.289 0 001.613.657h.007a2.289 2.289 0 001.616-.667L23.102 15.75a2.25 2.25 0 00.654-1.37.752.752 0 00.004-.078l-.006-8.454c0-.315-.066-.62-.19-.901l3.643-3.597a.784.784 0 000-1.119.81.81 0 00-1.135.001L22.45 3.809a2.303 2.303 0 00-.983-.218h-.002l-8.304.006h-.305a.783.783 0 00-.082.004 2.307 2.307 0 00-1.387.655zm5.795 2.296a2.551 2.551 0 011.803-.737c1.407 0 2.55 1.128 2.55 2.516 0 1.387-1.143 2.516-2.55 2.516-1.406 0-2.55-1.129-2.55-2.516 0-.672.265-1.304.747-1.78zm-5.62 3.325l5.74 5.668c.314.31.314.81 0 1.119a.805.805 0 01-.567.231.805.805 0 01-.567-.232l-5.741-5.668a.783.783 0 010-1.119.81.81 0 011.134 0zm-2.249 2.22l5.741 5.668a.783.783 0 010 1.119.804.804 0 01-.567.231.805.805 0 01-.567-.232l-5.742-5.668a.784.784 0 010-1.12.81.81 0 011.135.001zm9.673-2.832a.941.941 0 00.947-.934.941.941 0 00-.947-.934.946.946 0 00-.668.274.921.921 0 00-.278.66c0 .515.425.934.946.934z" fill="#FFE165"/></svg>