<svg width="41" height="41" fill="none" xmlns="http://www.w3.org/2000/svg"><path fill-rule="evenodd" clip-rule="evenodd" d="M19.95 5.678a.451.451 0 00-.32.553l1.577 5.883a.452.452 0 01.553.067l3.192 3.193 3.45-3.45L26.39 4.42a.451.451 0 00-.553-.32L19.95 5.679zM18.168 17.05a.452.452 0 010-.639l3.113-3.113a.452.452 0 01.638 0l3.113 3.114 8.142-8.142a.452.452 0 01.639 0l3.113 3.113a.452.452 0 010 .638l-8.142 8.142 3.113 3.113a.452.452 0 010 .639l-3.113 3.113a.452.452 0 01-.639 0l-1.08-1.08a.45.45 0 01-.117.202l-5.747 5.747a.451.451 0 01-.639 0L13.3 24.633a.451.451 0 010-.639l5.747-5.747a.45.45 0 01.202-.116l-1.08-1.08zm-8.142 12.612a.451.451 0 000 .638l1.038 1.038-2.235 2.235a.564.564 0 000 .798l2.075 2.075c.22.22.578.22.798 0l2.235-2.234 1.038 1.037a.452.452 0 00.639 0l3.512-3.512-5.588-5.587-3.512 3.512z" fill="#FFE165"/></svg>