<svg width="38" height="20" fill="none" xmlns="http://www.w3.org/2000/svg"><path fill-rule="evenodd" clip-rule="evenodd" d="M27.571 0c.38 0 .634.25.634.625V10H6.661V.625c0-.375.254-.625.634-.625H27.57zm-8.364 8.75c1.141 0 2.028-.875 2.028-2V5.625h-1.267V6.75c0 .438-.317.75-.76.75h-3.549c-.444 0-.76-.313-.76-.75v-3.5c0-.438.316-.75.76-.75h1.774V1.25H15.66c-1.14 0-2.028.875-2.028 2v3.5c0 1.125.887 2 2.028 2h3.548zm-3.485-3.937L17.433 6.5l4.246-4.187-.888-.876-3.358 3.313-.823-.813-.888.876zm17.869-.438L37.71 9v1h-8.238V4.375h4.119zm-19.643 10c-1.584 0-2.851 1.25-2.851 2.813 0 1.562 1.267 2.812 2.851 2.812s2.851-1.25 2.851-2.813c0-1.562-1.267-2.812-2.85-2.812zm-.507 4.188l-.887-.876 1.9-1.875.888.876-1.9 1.875zm14.13-1.375c0-1.563 1.268-2.813 2.852-2.813 1.584 0 2.851 1.25 2.851 2.813 0 1.562-1.267 2.812-2.851 2.812s-2.852-1.25-2.852-2.813zm3.359-1.376l-1.901 1.875.887.876 1.9-1.875-.886-.876zm6.78-4.562H6.66v4.375c0 .375.254.625.634.625h2.661a4.047 4.047 0 014.943-3c1.52.375 2.724 1.5 3.04 3h8.492a4.047 4.047 0 014.942-3c1.52.375 2.725 1.5 3.042 3h2.661c.38 0 .634-.25.634-.625V11.25zM4.127 3.125H2.226v1.25h1.9v-1.25zM1.592 5h2.535v1.25H1.592V5zm2.535 1.875H.958v1.25h3.169v-1.25z" fill="#FFE165"/></svg>