<svg width="23" height="28" fill="none" xmlns="http://www.w3.org/2000/svg"><path fill-rule="evenodd" clip-rule="evenodd" d="M11.31.062l10.766 5.607c.174.091.283.27.283.463v7.18c0 6.094-3.74 11.594-9.488 13.954l-1.637.691a.546.546 0 01-.427 0l-1.453-.62C3.711 24.925.062 19.477.055 13.457V6.132c0-.192.107-.368.278-.46L10.801.065a.546.546 0 01.51-.003zm4.53 8.315a1.345 1.345 0 011.87 0l1.04 1.043a1.345 1.345 0 010 1.869L12 18.009a1.25 1.25 0 01-.15.18l-1.04 1.041a1.345 1.345 0 01-1.869 0l-4.564-4.6a1.345 1.345 0 010-1.869L5.42 11.72a1.345 1.345 0 011.869 0l2.582 2.602 5.97-5.944z" fill="#FFE165"/></svg>