<svg width="27" height="27" fill="none" xmlns="http://www.w3.org/2000/svg"><path d="M17.719 1.688h-1.833A2.534 2.534 0 0013.5 0c-1.1 0-2.039.705-2.388 1.688h-1.83a.844.844 0 00-.845.843v3.375c0 .466.379.844.844.844h8.438a.844.844 0 00.843-.844V2.531a.844.844 0 00-.843-.844z" fill="#FFE165"/><path d="M21.938 3.375H20.25v2.531a2.534 2.534 0 01-2.531 2.532H9.28a2.534 2.534 0 01-2.53-2.533v-2.53H5.062a1.69 1.69 0 00-1.687 1.688v20.25c0 .946.74 1.687 1.688 1.687h16.875c.946 0 1.687-.74 1.687-1.688V5.063c0-.946-.74-1.687-1.688-1.687zm-8.684 14.941l-3.375 3.375a.847.847 0 01-1.195 0l-1.688-1.687A.844.844 0 018.19 18.81l1.092 1.09 2.778-2.778a.844.844 0 011.195 1.193zm0-6.75l-3.375 3.375a.847.847 0 01-1.195 0l-1.688-1.687A.844.844 0 018.19 12.06l1.092 1.09 2.778-2.778a.844.844 0 011.195 1.193zm6.152 8.684h-3.375a.844.844 0 010-1.688h3.375a.844.844 0 010 1.688zm0-6.75h-3.375a.844.844 0 010-1.688h3.375a.844.844 0 010 1.688z" fill="#FFE165"/></svg>