<svg width="26" height="30" fill="none" xmlns="http://www.w3.org/2000/svg"><path d="M24.526 15.56l-9.9-9.9c-.829-.83-2.17-1.3-3.335-1.17l-3.712.412.548-3.758a1.001 1.001 0 00-1.98-.289L5.524 5.13l-1.794.2C2.344 5.483 1.016 6.81.86 8.2l-.839 7.56c-.13 1.166.34 2.507 1.17 3.337l9.9 9.9a3.004 3.004 0 004.241 0l9.192-9.192a3.004 3.004 0 00.002-4.244zM5.643 11.245a.997.997 0 001.134-.845l.248-1.703c.06.047.122.09.177.145A2 2 0 115.048 8.4l-.25 1.713a1 1 0 00.845 1.133zm8.437 10.162l-1.012 1.011-2.079-9.803 1.02-1.02 2.071 9.812zm-.34-4.81c-.017-.566.205-1.078.664-1.536.441-.442.915-.656 1.421-.643.505.015.995.26 1.472.733.488.49.74 1.015.758 1.578.017.562-.203 1.073-.658 1.53-.423.421-.897.628-1.424.617-.525-.01-1.017-.24-1.47-.693-.494-.494-.75-1.023-.764-1.587zm-2.394.825c.015.562-.207 1.07-.662 1.524-.423.423-.897.63-1.424.62-.526-.01-1.016-.24-1.469-.694-.494-.494-.749-1.023-.765-1.589-.015-.564.207-1.076.665-1.535.44-.438.914-.65 1.424-.636.51.015 1.002.26 1.477.735.49.49.74 1.014.754 1.575zm12.473 1.673l-9.192 9.191c-.779.78-2.048.78-2.828 0L1.9 18.388c-.606-.607-.979-1.666-.883-2.52l.838-7.556c.054-.47.292-.939.672-1.319.38-.38.85-.618 1.316-.67l1.533-.17-.149 1.023-1.273.14c-.547.061-1.044.558-1.104 1.105l-.839 7.56c-.062.546.207 1.311.596 1.7l9.9 9.898a1 1 0 001.412 0l9.192-9.19a1 1 0 000-1.415l-9.898-9.899c-.389-.389-1.154-.658-1.7-.596l-4.23.468.148-1.02 3.972-.442c.852-.095 1.911.276 2.518.883l9.9 9.9a2.004 2.004 0 01-.002 2.827z" fill="#FFE165"/><path d="M16.716 17.48c.393-.394.312-.865-.24-1.418-.257-.257-.509-.403-.754-.439a.697.697 0 00-.626.203c-.4.4-.32.881.24 1.442.53.532.99.601 1.38.211zm-8.32-.978c-.403.403-.325.886.236 1.446.53.53.987.604 1.372.22.392-.392.312-.864-.24-1.417-.54-.539-.995-.622-1.368-.249z" fill="#FFE165"/></svg>