<svg width="29" height="28" fill="none" xmlns="http://www.w3.org/2000/svg"><path d="M14.221 0c7.826 0 14.194 6.28 14.194 14S22.047 28 14.22 28C6.395 28 .028 21.72.028 14S6.395 0 14.22 0zM4.76 14.583v-1.166H3.606A10.37 10.37 0 016.3 7.01l.813.802.837-.825-.813-.802a10.658 10.658 0 015.311-2.528v1.009h1.183V3.53c.197-.011.391-.03.591-.03.2 0 .395.019.592.03v1.137h1.182V3.658a10.658 10.658 0 015.312 2.528l-.813.802.836.825.813-.802a10.37 10.37 0 012.693 6.406h-1.152v1.166h1.152a10.37 10.37 0 01-2.693 6.406l-.813-.802-.836.825.813.802a10.66 10.66 0 01-5.312 2.528v-1.009h-1.182v1.137c-.197.011-.392.03-.592.03-.198 0-.395-.01-.591-.02v-1.147h-1.183v1.012a10.764 10.764 0 01-5.315-2.528l.817-.805-.837-.825-.821.81a10.426 10.426 0 01-1.715-2.55l-1.072.494c1.94 4.086 6.146 6.726 10.717 6.726 6.522 0 11.828-5.234 11.828-11.667S20.743 2.333 14.221 2.333C7.7 2.333 2.393 7.567 2.393 14c0 1.25.2 2.48.592 3.655l1.123-.366a10.323 10.323 0 01-.51-2.706h1.16zm7.861.171l.837.825.764-.754.765.754.836-.825-.765-.754 4.313-4.254-.836-.825-4.313 4.254-5.496-5.42-.836.824L13.385 14l-.765.754z" fill="#FFE165"/></svg>