<svg width="18" height="18" fill="none" xmlns="http://www.w3.org/2000/svg"><g clip-path="url(#clip0)"><path d="M17.961 13.947c-.05-.154-.374-.38-.971-.678a30.324 30.324 0 00-.69-.383c-.298-.162-.57-.311-.812-.448a27.31 27.31 0 01-.684-.396c-.034-.025-.14-.1-.32-.224a3.58 3.58 0 00-.454-.275.836.836 0 00-.364-.09c-.17 0-.383.122-.639.365a6.22 6.22 0 00-.703.793c-.213.286-.439.55-.677.792-.239.243-.435.365-.588.365a.87.87 0 01-.288-.064 2.992 2.992 0 01-.262-.108 4.76 4.76 0 01-.307-.18 7.848 7.848 0 00-.243-.147c-1.167-.648-2.169-1.39-3.004-2.224-.835-.835-1.577-1.837-2.224-3.004a7.408 7.408 0 00-.147-.243 4.613 4.613 0 01-.18-.307 2.77 2.77 0 01-.108-.262.865.865 0 01-.064-.288c0-.153.122-.35.365-.588a7.7 7.7 0 01.792-.677c.286-.213.55-.448.793-.703.243-.256.364-.469.364-.64 0-.119-.03-.24-.09-.364a3.553 3.553 0 00-.274-.454 16.801 16.801 0 00-.224-.32 24.06 24.06 0 01-.396-.683 64.487 64.487 0 01-.448-.812c-.162-.298-.29-.528-.383-.69-.298-.597-.524-.92-.678-.972A.716.716 0 003.785 0c-.23 0-.53.043-.901.128s-.663.174-.876.268c-.426.18-.878.7-1.355 1.56C.218 2.756 0 3.549 0 4.333c0 .23.015.454.044.672.03.217.084.462.16.735.077.272.139.475.186.607.046.132.134.368.262.71.127.34.204.549.23.626.298.835.652 1.58 1.06 2.237.674 1.09 1.592 2.218 2.755 3.382 1.164 1.163 2.29 2.081 3.382 2.754.656.41 1.402.763 2.237 1.061.077.026.285.102.626.23s.578.216.71.263c.132.047.334.108.607.185.273.077.518.13.735.16a4.9 4.9 0 00.671.045c.784 0 1.577-.217 2.378-.652.86-.477 1.38-.929 1.56-1.355.093-.213.183-.505.268-.876.085-.37.128-.67.128-.901a.714.714 0 00-.039-.27z" fill="#333"/></g><defs><clipPath id="clip0"><path fill="#fff" d="M0 0h18v18H0z"/></clipPath></defs></svg>