<?xml version="1.0" encoding="UTF-8"?>
<svg width="130px" height="35px" viewBox="0 0 130 35" version="1.1" xmlns="http://www.w3.org/2000/svg" xmlns:xlink="http://www.w3.org/1999/xlink">
    <!-- Generator: sketchtool 41 (35326) - http://www.bohemiancoding.com/sketch -->
    <title>DC50DA82-6342-44FF-BF91-158A54BAD8E8</title>
    <desc>Created with sketchtool.</desc>
    <defs>
        <linearGradient x1="0%" y1="0%" x2="100%" y2="100%" id="linearGradient-1">
            <stop stop-color="#FFFFFF" offset="0%"></stop>
            <stop stop-color="#FFFFFF" stop-opacity="0.7" offset="100%"></stop>
        </linearGradient>
    </defs>
    <g id="logo" stroke="none" stroke-width="1" fill="none" fill-rule="evenodd">
        <g id="logo-black" transform="translate(-447.000000, -1158.000000)">
            <g id="deal" transform="translate(447.000000, 1157.735844)">
                <g id="Group-10" transform="translate(39.200000, 1.641850)" fill="#FFFFFF">
                    <path d="M17.04381,24.93687 C18.22611,23.79937 18.81831,22.43437 18.81831,20.84047 C18.81831,19.24937 18.22611,17.88437 17.04381,16.79097 C15.90631,15.65347 14.49511,15.10887 12.81231,15.10887 C11.17361,15.10887 9.80931,15.65347 8.67181,16.79097 C7.53361,17.88437 6.98831,19.24937 6.98831,20.84047 C6.98831,22.43437 7.53361,23.79937 8.67181,24.93687 C9.80931,26.02957 11.17361,26.57487 12.81231,26.57487 C14.49511,26.57487 15.90631,26.02957 17.04381,24.93687 Z M18.40881,12.37887 L18.40881,0.59367 L25.18901,0.59367 L25.18901,32.30717 L18.40881,32.30717 L18.40881,29.30417 C17.72631,31.30757 15.04181,32.71667 11.58381,32.71667 C8.35331,32.71667 5.62331,31.57917 3.43791,29.30417 C1.30011,26.98437 0.20811,24.16407 0.20811,20.84047 C0.20811,17.51897 1.30011,14.69937 3.43791,12.42367 C5.62331,10.10387 8.35331,8.96637 11.58381,8.96637 C15.04181,8.96637 17.72631,10.37547 18.40881,12.37887 Z" id="Fill-1"></path>
                    <path d="M45.26732,18.24795 C45.26732,16.19975 43.17432,14.47075 40.48982,14.47075 C39.07932,14.47075 37.84942,14.83545 36.80432,15.56345 C35.75782,16.29075 35.21182,17.20145 35.16492,18.24795 L45.26732,18.24795 Z M28.33992,20.79665 C28.33992,17.20145 29.47742,14.33425 31.75242,12.15095 C34.07432,9.92075 36.98632,8.82945 40.48982,8.82945 C43.90232,8.82945 46.72332,9.96695 48.86252,12.19575 C50.99962,14.42595 52.09302,17.15525 52.09302,20.43125 C52.09302,21.20615 52.04752,21.97965 51.95652,22.66215 L35.12082,22.66215 C35.25662,25.39215 37.57782,27.12115 41.17162,27.12115 C44.44832,27.12115 47.17762,26.39315 49.31682,24.89095 L49.31682,30.80595 C47.13282,32.21715 44.31182,32.90035 40.80832,32.90035 C37.07732,32.90035 34.07432,31.80695 31.75242,29.66845 C29.47742,27.48445 28.33992,24.61865 28.33992,21.02415 L28.33992,20.79665 Z" id="Fill-3"></path>
                    <path d="M70.89796,24.93687 C72.07956,23.79937 72.67246,22.43437 72.67246,20.84047 C72.67246,19.24937 72.07956,17.88437 70.89796,16.79097 C69.76046,15.65347 68.34856,15.10887 66.66576,15.10887 C65.02776,15.10887 63.66276,15.65347 62.52526,16.79097 C61.38776,17.88437 60.84176,19.24937 60.84176,20.84047 C60.84176,22.43437 61.38776,23.79937 62.52526,24.93687 C63.66276,26.02957 65.02776,26.57487 66.66576,26.57487 C68.34856,26.57487 69.76046,26.02957 70.89796,24.93687 M72.26296,12.37887 L72.26296,9.37587 L79.04246,9.37587 L79.04246,32.30717 L72.26296,32.30717 L72.26296,29.30417 C71.58046,31.30757 68.89596,32.71667 65.43726,32.71667 C62.20676,32.71667 59.47746,31.57917 57.29206,29.30417 C55.15426,26.98437 54.06226,24.16407 54.06226,20.84047 C54.06226,17.51897 55.15426,14.69937 57.29206,12.42367 C59.47746,10.10387 62.20676,8.96637 65.43726,8.96637 C68.89596,8.96637 71.58046,10.37547 72.26296,12.37887" id="Fill-6"></path>
                    <polygon id="Fill-8" points="83.5457 32.3085 90.3259 32.3085 90.3259 0.5936 83.5457 0.5936"></polygon>
                </g>
                <path d="M0,34.29965 L33.6,34.29965 L33.6,0.69965 L0,0.69965 L0,34.29965 Z M7.7,26.59965 L25.9,26.59965 L25.9,8.39965 L7.7,8.39965 L7.7,26.59965 Z" id="Fill-11" fill="url(#linearGradient-1)"></path>
            </g>
        </g>
    </g>
</svg>