<svg width="22" height="22" viewBox="0 0 22 22" fill="none" xmlns="http://www.w3.org/2000/svg">
<g clip-path="url(#clip0)">
<path d="M20.0355 19.6415C20.5301 19.6415 20.9586 19.4782 21.3228 19.1558L15.0899 12.9226C14.9404 13.0297 14.7954 13.1338 14.6585 13.2328C14.192 13.5765 13.8135 13.8446 13.5228 14.0368C13.2321 14.2294 12.8454 14.4257 12.3626 14.6262C11.8796 14.8268 11.4295 14.9268 11.0121 14.9268H10.9998H10.9876C10.5701 14.9268 10.1201 14.8269 9.63706 14.6262C9.15404 14.4257 8.76732 14.2294 8.47693 14.0368C8.18628 13.8446 7.8079 13.5765 7.34122 13.2328C7.21116 13.1375 7.06693 13.0329 6.911 12.9209L0.676849 19.1558C1.04108 19.4782 1.46986 19.6415 1.96435 19.6415H20.0355Z" fill="white"/>
<path d="M1.24009 8.99888C0.773682 8.68793 0.36008 8.3318 0 7.93066V17.414L5.4937 11.9203C4.39465 11.153 2.97857 10.1803 1.24009 8.99888Z" fill="white"/>
<path d="M20.7723 8.99888C19.1002 10.1307 17.6789 11.105 16.5085 11.9225L22 17.4142V7.93066C21.6479 8.32374 21.2387 8.67962 20.7723 8.99888Z" fill="white"/>
<path d="M20.0361 2.35645H1.96496C1.33451 2.35645 0.849807 2.56934 0.510257 2.99468C0.170428 3.42023 0.000793457 3.95242 0.000793457 4.59066C0.000793457 5.10619 0.225908 5.66478 0.675938 6.2666C1.12597 6.86817 1.60484 7.34068 2.1123 7.68439C2.3905 7.88094 3.22945 8.46418 4.62915 9.4339C5.38473 9.9575 6.04182 10.4139 6.60649 10.8077C7.08779 11.1431 7.50287 11.4335 7.84558 11.6745C7.88492 11.7021 7.94679 11.7464 8.02891 11.8051C8.11739 11.8686 8.22934 11.9493 8.36747 12.049C8.63344 12.2414 8.8544 12.3969 9.03039 12.5156C9.20613 12.6345 9.41907 12.7672 9.66886 12.9146C9.91846 13.0618 10.1539 13.1725 10.3748 13.2461C10.5958 13.3196 10.8004 13.3566 10.9886 13.3566H11.0009H11.0131C11.2012 13.3566 11.4059 13.3196 11.6269 13.2461C11.8478 13.1725 12.0831 13.062 12.3329 12.9146C12.5824 12.7672 12.7951 12.6342 12.9714 12.5156C13.1474 12.3969 13.3683 12.2414 13.6343 12.049C13.7722 11.9493 13.8841 11.8686 13.9726 11.8053C14.0548 11.7463 14.1166 11.7023 14.1562 11.6745C14.4232 11.4887 14.8392 11.1995 15.3985 10.8111C16.4164 10.1039 17.9153 9.06307 19.9017 7.68439C20.4991 7.26711 20.9983 6.76356 21.3994 6.17445C21.7998 5.58534 22.0006 4.96739 22.0006 4.32081C22.0006 3.78059 21.8059 3.31834 21.4175 2.93333C21.0286 2.54881 20.5681 2.35645 20.0361 2.35645Z" fill="white"/>
</g>
<defs>
<clipPath id="clip0">
<rect width="22" height="22" fill="white"/>
</clipPath>
</defs>
</svg>
