<svg width="24" height="24" viewBox="0 0 24 24" fill="none" xmlns="http://www.w3.org/2000/svg">
<path d="M22.2026 4.1377H1.79742C0.804703 4.1377 0 4.9424 0 5.93512V18.0645C0 19.0572 0.804703 19.8619 1.79742 19.8619H22.2026C23.1952 19.8619 24 19.0572 24 18.0645V5.93512C24 4.9424 23.1953 4.1377 22.2026 4.1377Z" fill="#82C3D2"/>
<path d="M2.78979 6.02021C2.75233 5.86168 2.74301 5.80318 2.81416 5.73207C2.84885 5.69738 2.84885 5.64118 2.81416 5.60649C2.77948 5.5718 2.72327 5.5718 2.68858 5.60649C2.54458 5.75054 2.57894 5.90002 2.61621 6.05827C2.50268 6.02119 2.38493 6.04871 2.32183 6.1283C2.29052 6.16801 2.22996 6.27938 2.34344 6.45722C2.36983 6.49852 2.4244 6.51066 2.46607 6.4845C2.50746 6.45811 2.51951 6.40313 2.49312 6.36188C2.45055 6.2949 2.44929 6.2536 2.46119 6.2385C2.47526 6.22065 2.51885 6.21122 2.56451 6.2274C2.59399 6.23761 2.66252 6.273 2.66252 6.37988C2.66252 6.46524 2.62305 6.54347 2.55424 6.59433C2.48529 6.64533 2.39604 6.65972 2.31002 6.633C2.2038 6.60057 2.1296 6.48868 2.1296 6.36085C2.1296 6.2694 2.14919 6.17696 2.18519 6.09596C2.19091 6.084 2.32666 5.8028 2.36163 5.69799C2.43077 5.49066 2.36051 5.38641 2.31255 5.34286C2.24838 5.28441 2.15458 5.26983 2.07387 5.30522C2.06158 5.31066 2.05146 5.31854 2.04082 5.32585C2.03018 5.31849 2.02001 5.31066 2.00777 5.30522C1.9271 5.26983 1.83335 5.28436 1.76908 5.34286C1.72113 5.38641 1.65087 5.49071 1.72001 5.69799C1.75498 5.8028 1.89068 6.084 1.89523 6.09338C1.9324 6.177 1.95204 6.26944 1.95204 6.3609C1.95204 6.48877 1.87788 6.60061 1.77162 6.63305C1.68527 6.65972 1.5963 6.64552 1.5274 6.59438C1.45858 6.54352 1.41912 6.46533 1.41912 6.37993C1.41912 6.27305 1.48765 6.23771 1.51713 6.22744C1.56293 6.21132 1.60629 6.22065 1.62044 6.23855C1.63235 6.25365 1.63108 6.29494 1.58852 6.36193C1.56213 6.40322 1.57418 6.45825 1.61557 6.48455C1.65729 6.51094 1.71204 6.49861 1.73819 6.45727C1.85168 6.27943 1.79112 6.1681 1.7598 6.12835C1.69666 6.04875 1.57896 6.02119 1.46543 6.05832C1.50274 5.90011 1.53705 5.75054 1.39305 5.60654C1.35837 5.57185 1.30216 5.57185 1.26748 5.60654C1.23279 5.64122 1.23279 5.69743 1.26748 5.73211C1.33858 5.80322 1.32935 5.86168 1.29185 6.02025C1.2693 6.11527 1.24137 6.23377 1.24137 6.37983C1.24137 6.47705 1.27549 6.56996 1.33301 6.64632H1.33015C1.28107 6.64632 1.24132 6.68602 1.24132 6.73515C1.24132 6.78427 1.28102 6.82397 1.33015 6.82397H1.33301C1.27549 6.90029 1.24137 6.99324 1.24137 7.09041C1.24137 7.23647 1.2693 7.35497 1.29176 7.45004C1.32921 7.60861 1.33854 7.66707 1.26738 7.73818C1.23269 7.77286 1.23269 7.82907 1.26738 7.86375C1.28473 7.8811 1.30746 7.88977 1.33019 7.88977C1.35288 7.88977 1.37566 7.8811 1.39301 7.86375C1.53701 7.71971 1.50265 7.57018 1.46538 7.41197C1.57891 7.44891 1.69666 7.42154 1.75976 7.34194C1.79107 7.30224 1.85163 7.19086 1.73815 7.01302C1.71185 6.97172 1.65696 6.95944 1.61552 6.98574C1.57413 7.01213 1.56208 7.06711 1.58848 7.10836C1.63104 7.17535 1.6323 7.21665 1.6204 7.23174C1.60629 7.24941 1.56288 7.25879 1.51708 7.24285C1.4876 7.23263 1.41907 7.19724 1.41907 7.09036C1.41907 7.005 1.45854 6.92677 1.52735 6.87596C1.5963 6.82496 1.68546 6.81038 1.77157 6.83729C1.87779 6.86972 1.95199 6.98161 1.95199 7.10944C1.95199 7.2009 1.9324 7.29333 1.89518 7.37696L1.31341 8.68571C1.2656 8.79329 1.24132 8.90761 1.24132 9.02536C1.24132 9.17691 1.31023 9.31529 1.41869 9.39976C1.31027 9.48422 1.24132 9.6226 1.24132 9.77415C1.24132 9.89194 1.26565 10.0063 1.31341 10.1138L1.89508 11.4225C1.93226 11.5061 1.9519 11.5986 1.9519 11.69C1.9519 11.8179 1.87774 11.9297 1.77148 11.9622C1.68513 11.9891 1.59616 11.9747 1.52726 11.9235C1.45844 11.8726 1.41898 11.7945 1.41898 11.7091C1.41898 11.6022 1.48751 11.5669 1.51699 11.5566C1.56279 11.5406 1.60615 11.5498 1.6203 11.5677C1.63221 11.5828 1.63094 11.6241 1.58838 11.6911C1.56199 11.7324 1.57404 11.7873 1.61543 11.8137C1.65715 11.8401 1.7119 11.8279 1.73805 11.7864C1.85154 11.6086 1.79098 11.4973 1.75966 11.4575C1.69652 11.3779 1.57882 11.3505 1.46529 11.3875C1.5026 11.2293 1.53691 11.0797 1.39291 10.9357C1.35823 10.901 1.30202 10.901 1.26733 10.9357C1.23265 10.9704 1.23265 11.0266 1.26733 11.0613C1.33844 11.1324 1.32921 11.1908 1.29171 11.3494C1.26926 11.4444 1.24132 11.5629 1.24132 11.709C1.24132 11.8061 1.27544 11.8991 1.33296 11.9754H1.3301C1.28102 11.9754 1.24127 12.0151 1.24127 12.0643C1.24127 12.1133 1.28098 12.1531 1.3301 12.1531H1.33296C1.27544 12.2295 1.24132 12.3224 1.24132 12.4196C1.24132 12.5656 1.26926 12.6841 1.29171 12.7792C1.32916 12.9378 1.33849 12.9962 1.26733 13.0673C1.23265 13.102 1.23265 13.1582 1.26733 13.1929C1.28468 13.2103 1.30741 13.2189 1.33015 13.2189C1.35283 13.2189 1.37562 13.2103 1.39296 13.1929C1.53696 13.0489 1.5026 12.8993 1.46533 12.7411C1.57887 12.7781 1.69662 12.7507 1.75971 12.6711C1.79102 12.6314 1.85158 12.52 1.7381 12.3422C1.7118 12.3009 1.65691 12.2886 1.61548 12.3149C1.57408 12.3413 1.56204 12.3963 1.58843 12.4375C1.63099 12.5045 1.63226 12.5458 1.62035 12.5609C1.60624 12.5788 1.56283 12.5881 1.51704 12.572C1.48755 12.5618 1.41902 12.5264 1.41902 12.4195C1.41902 12.3342 1.45849 12.2559 1.5273 12.2051C1.59626 12.1541 1.68541 12.1396 1.77152 12.1665C1.87774 12.1989 1.95194 12.3108 1.95194 12.4386C1.95194 12.5301 1.93235 12.6225 1.89513 12.7061L1.31341 14.0151C1.2656 14.1226 1.24132 14.237 1.24132 14.3547C1.24132 14.5063 1.31023 14.6446 1.41869 14.7291C1.31027 14.8135 1.24132 14.952 1.24132 15.1035C1.24132 15.2213 1.26565 15.3356 1.31341 15.4432L1.89508 16.7519C1.93226 16.8355 1.9519 16.9279 1.9519 17.0194C1.9519 17.1473 1.87774 17.2591 1.77148 17.2915C1.68513 17.3184 1.59616 17.3039 1.52726 17.2529C1.45844 17.202 1.41898 17.1238 1.41898 17.0385C1.41898 16.9316 1.48751 16.8962 1.51699 16.886C1.56279 16.87 1.60615 16.8792 1.6203 16.8971C1.63221 16.9122 1.63094 16.9535 1.58838 17.0205C1.56199 17.0618 1.57404 17.1167 1.61543 17.1431C1.65715 17.1695 1.7119 17.1573 1.73805 17.1158C1.85154 16.938 1.79098 16.8266 1.75966 16.7869C1.69652 16.7071 1.57882 16.6798 1.46529 16.7168C1.5026 16.5586 1.53691 16.4091 1.39291 16.2651C1.35823 16.2304 1.30202 16.2304 1.26733 16.2651C1.23265 16.2998 1.23265 16.356 1.26733 16.3906C1.33844 16.4618 1.32921 16.5202 1.29171 16.6788C1.26926 16.7738 1.24132 16.8922 1.24132 17.0383C1.24132 17.1774 1.30802 17.3101 1.41954 17.3936C1.30802 17.4771 1.24132 17.6097 1.24132 17.7489C1.24132 17.895 1.26926 18.0135 1.29171 18.1085C1.32916 18.2671 1.33849 18.3256 1.26733 18.3967C1.23265 18.4313 1.23265 18.4876 1.26733 18.5222C1.28468 18.5396 1.30741 18.5483 1.33015 18.5483C1.35283 18.5483 1.37562 18.5396 1.39296 18.5222C1.53696 18.3782 1.5026 18.2287 1.46533 18.0704C1.57887 18.1073 1.69662 18.08 1.75971 18.0004C1.79102 17.9607 1.85158 17.8493 1.7381 17.6715C1.7118 17.6302 1.65691 17.618 1.61548 17.6442C1.57408 17.6706 1.56204 17.7256 1.58843 17.7668C1.63099 17.8338 1.63226 17.8751 1.62035 17.8902C1.60624 17.908 1.56283 17.9172 1.51704 17.9013C1.48755 17.8911 1.41902 17.8557 1.41902 17.7488C1.41902 17.6634 1.45849 17.5852 1.5273 17.5343C1.59626 17.4833 1.68541 17.469 1.77152 17.4957C1.87774 17.5281 1.95194 17.64 1.95194 17.7678C1.95194 17.8593 1.93235 17.9517 1.89635 18.0327C1.89063 18.0447 1.75488 18.3259 1.71991 18.4307C1.65077 18.638 1.72104 18.7423 1.76899 18.7858C1.81001 18.8231 1.86283 18.8427 1.91683 18.8427C1.94744 18.8427 1.97848 18.8363 2.00773 18.8235C2.02001 18.8181 2.03013 18.8102 2.04077 18.8029C2.05141 18.8102 2.06158 18.8181 2.07382 18.8235C2.10302 18.8363 2.13415 18.8427 2.16471 18.8427C2.21857 18.8427 2.27149 18.8231 2.31255 18.7858C2.36051 18.7423 2.43077 18.638 2.36163 18.4307C2.32666 18.3259 2.19096 18.0447 2.18641 18.0353C2.14924 17.9517 2.1296 17.8592 2.1296 17.7678C2.1296 17.6399 2.20376 17.5281 2.31002 17.4956C2.39641 17.4689 2.48533 17.4833 2.55424 17.5343C2.62305 17.5852 2.66252 17.6633 2.66252 17.7488C2.66252 17.8556 2.59399 17.891 2.56451 17.9012C2.5189 17.9172 2.47521 17.908 2.46119 17.8901C2.44929 17.875 2.45055 17.8337 2.49312 17.7668C2.51951 17.7255 2.50746 17.6705 2.46607 17.6441C2.42458 17.6181 2.36988 17.6303 2.34344 17.6714C2.22996 17.8493 2.29052 17.9606 2.32183 18.0003C2.38498 18.0799 2.50268 18.1073 2.61621 18.0704C2.5789 18.2286 2.54458 18.3781 2.68858 18.5222C2.70593 18.5395 2.72866 18.5482 2.7514 18.5482C2.77413 18.5482 2.79687 18.5395 2.81421 18.5222C2.8489 18.4875 2.8489 18.4313 2.81421 18.3966C2.7431 18.3255 2.75233 18.2671 2.78983 18.1085C2.81229 18.0134 2.84023 17.8949 2.84023 17.7488C2.84023 17.6096 2.77352 17.4771 2.66205 17.3935C2.77352 17.31 2.84023 17.1775 2.84023 17.0382C2.84023 16.8922 2.81229 16.7737 2.78983 16.6786C2.75238 16.5201 2.74305 16.4616 2.81421 16.3905C2.8489 16.3558 2.8489 16.2996 2.81421 16.2649C2.77952 16.2302 2.72332 16.2302 2.68863 16.2649C2.54463 16.4089 2.57899 16.5584 2.61626 16.7167C2.50273 16.6796 2.38498 16.7069 2.32188 16.7867C2.29057 16.8264 2.23001 16.9378 2.34349 17.1156C2.36988 17.1569 2.42444 17.1691 2.46612 17.1429C2.50751 17.1165 2.51955 17.0615 2.49316 17.0203C2.4506 16.9533 2.44933 16.912 2.46124 16.8969C2.4753 16.879 2.5189 16.8698 2.56455 16.8858C2.59404 16.896 2.66257 16.9314 2.66257 17.0383C2.66257 17.1236 2.6231 17.2019 2.55429 17.2527C2.48533 17.3037 2.39608 17.3183 2.31007 17.2913C2.20385 17.2589 2.12965 17.147 2.12965 17.0192C2.12965 16.9278 2.14924 16.8353 2.18646 16.7517L2.76813 15.443C2.81594 15.3354 2.84023 15.2211 2.84023 15.1033C2.84023 14.9518 2.77132 14.8134 2.66285 14.7289C2.77132 14.6445 2.84023 14.5061 2.84023 14.3545C2.84023 14.2367 2.8159 14.1224 2.76813 14.0149L2.18646 12.7062C2.14929 12.6226 2.12965 12.5301 2.12965 12.4387C2.12965 12.3108 2.2038 12.1989 2.31007 12.1665C2.39646 12.1398 2.48538 12.1542 2.55429 12.2052C2.6231 12.256 2.66257 12.3342 2.66257 12.4196C2.66257 12.5265 2.59404 12.5618 2.56455 12.5721C2.51894 12.5882 2.47526 12.5789 2.46124 12.561C2.44933 12.5459 2.4506 12.5046 2.49316 12.4376C2.51955 12.3963 2.50751 12.3413 2.46612 12.315C2.42463 12.2889 2.36993 12.3011 2.34349 12.3422C2.23001 12.5201 2.29057 12.6314 2.32188 12.6712C2.38502 12.7508 2.50273 12.7782 2.61626 12.7412C2.57894 12.8994 2.54463 13.049 2.68863 13.193C2.70598 13.2103 2.72871 13.219 2.75144 13.219C2.77418 13.219 2.79691 13.2103 2.81426 13.193C2.84894 13.1583 2.84894 13.102 2.81426 13.0674C2.74315 12.9963 2.75238 12.9378 2.78988 12.7793C2.81233 12.6842 2.84027 12.5657 2.84027 12.4196C2.84027 12.3224 2.80615 12.2295 2.74863 12.1531H2.75149C2.80057 12.1531 2.84032 12.1134 2.84032 12.0643C2.84032 12.0152 2.80062 11.9755 2.75149 11.9755H2.74863C2.80615 11.8991 2.84027 11.8063 2.84027 11.709C2.84027 11.5629 2.81233 11.4444 2.78988 11.3494C2.75243 11.1908 2.7431 11.1323 2.81426 11.0612C2.84894 11.0266 2.84894 10.9703 2.81426 10.9357C2.77957 10.901 2.72337 10.901 2.68868 10.9357C2.54468 11.0797 2.57904 11.2292 2.6163 11.3874C2.50277 11.3505 2.38502 11.3779 2.32193 11.4575C2.29062 11.4972 2.23005 11.6086 2.34354 11.7864C2.36993 11.8277 2.42449 11.8397 2.46616 11.8137C2.50755 11.7873 2.5196 11.7323 2.49321 11.6911C2.45065 11.6241 2.44938 11.5828 2.46129 11.5677C2.47535 11.5498 2.51894 11.5406 2.5646 11.5566C2.59408 11.5668 2.66262 11.6022 2.66262 11.7091C2.66262 11.7944 2.62315 11.8726 2.55433 11.9235C2.48538 11.9745 2.39613 11.9888 2.31012 11.9621C2.2039 11.9297 2.12969 11.8178 2.12969 11.69C2.12969 11.5985 2.14929 11.5061 2.18651 11.4225L2.76818 10.1138C2.81599 10.0062 2.84027 9.89185 2.84027 9.7741C2.84027 9.62255 2.77137 9.48418 2.6629 9.39971C2.77137 9.31529 2.84027 9.17686 2.84027 9.02532C2.84027 8.90752 2.81594 8.79319 2.76818 8.68566L2.18651 7.37696C2.14933 7.29333 2.12969 7.2009 2.12969 7.10944C2.12969 6.98157 2.20385 6.86972 2.31012 6.83729C2.39651 6.81061 2.48543 6.82496 2.55433 6.87596C2.62315 6.92682 2.66262 7.005 2.66262 7.09036C2.66262 7.19724 2.59408 7.23258 2.5646 7.24285C2.51899 7.25883 2.4753 7.24946 2.46129 7.23174C2.44938 7.21665 2.45065 7.17535 2.49321 7.10836C2.5196 7.06707 2.50755 7.01208 2.46616 6.98574C2.42468 6.95972 2.36997 6.97168 2.34354 7.01297C2.23005 7.19082 2.29062 7.30215 2.32193 7.3419C2.38507 7.42149 2.50277 7.44891 2.6163 7.41193C2.57899 7.57013 2.54468 7.71971 2.68868 7.86371C2.70602 7.88105 2.72876 7.88972 2.75149 7.88972C2.77418 7.88972 2.79696 7.88105 2.8143 7.86371C2.84899 7.82902 2.84899 7.77282 2.8143 7.73813C2.74319 7.66702 2.75243 7.60857 2.78993 7.44999C2.81238 7.35493 2.84032 7.23643 2.84032 7.09036C2.84032 6.99315 2.80619 6.90024 2.74868 6.82388H2.75154C2.80062 6.82388 2.84037 6.78418 2.84037 6.73505C2.84037 6.68593 2.80066 6.64622 2.75154 6.64622H2.74868C2.80619 6.56986 2.84032 6.477 2.84032 6.37974C2.84013 6.23377 2.81219 6.11527 2.78979 6.02021ZM1.88838 5.64165C1.85683 5.54696 1.86785 5.493 1.88866 5.47407C1.90226 5.46122 1.92288 5.46174 1.93596 5.46765C1.95199 5.47472 1.95199 5.48602 1.95199 5.4916C1.95199 5.54068 1.99169 5.58043 2.04082 5.58043C2.0899 5.58043 2.12965 5.54072 2.12965 5.4916C2.12965 5.48607 2.12965 5.47477 2.14568 5.46765C2.15852 5.46174 2.17901 5.46122 2.19298 5.47407C2.21383 5.493 2.22485 5.54696 2.19326 5.64165C2.17029 5.71032 2.08718 5.8891 2.04087 5.98613C1.99549 5.89135 1.91149 5.71079 1.88838 5.64165ZM2.04077 9.30661C2.06627 9.34126 2.0951 9.37351 2.13016 9.39976C2.0951 9.42605 2.06627 9.45826 2.04077 9.4929C2.01527 9.45826 1.98644 9.42601 1.95138 9.39976C1.98644 9.37341 2.01527 9.34126 2.04077 9.30661ZM2.04077 14.6358C2.06627 14.6705 2.0951 14.7027 2.13016 14.729C2.0951 14.7553 2.06627 14.7875 2.04077 14.8221C2.01527 14.7875 1.98644 14.7552 1.95138 14.729C1.98644 14.7027 2.01527 14.6706 2.04077 14.6358ZM2.19316 18.4872C2.22471 18.5819 2.21369 18.6358 2.19288 18.6548C2.17891 18.6674 2.15843 18.6669 2.14558 18.6612C2.12955 18.6541 2.12955 18.6428 2.12955 18.6372C2.12955 18.5881 2.08985 18.5484 2.04073 18.5484C1.9916 18.5484 1.9519 18.5881 1.9519 18.6372C1.9519 18.6428 1.9519 18.6541 1.93587 18.6612C1.92283 18.6669 1.90221 18.6675 1.88857 18.6548C1.86771 18.6358 1.85674 18.5819 1.88829 18.4872C1.91126 18.4185 1.99437 18.2397 2.04068 18.1427C2.08601 18.2374 2.17001 18.418 2.19316 18.4872ZM2.12932 17.3937C2.09571 17.4198 2.0659 17.4511 2.04077 17.4865C2.01569 17.4511 1.98583 17.4199 1.95222 17.3937C1.98583 17.3675 2.01565 17.3362 2.04077 17.3008C2.06585 17.3362 2.09562 17.3675 2.12932 17.3937ZM2.60566 15.3709L2.04073 16.6419L1.47579 15.3709C1.43862 15.2873 1.41898 15.1948 1.41898 15.1034C1.41898 14.9755 1.49313 14.8636 1.5994 14.8312C1.68569 14.8045 1.7748 14.8189 1.84362 14.8699C1.91243 14.9207 1.9519 14.9989 1.9519 15.0843C1.9519 15.1912 1.88337 15.2266 1.85388 15.2368C1.80808 15.2528 1.76454 15.2436 1.75057 15.2257C1.73866 15.2106 1.73993 15.1693 1.78249 15.1023C1.80888 15.061 1.79683 15.0061 1.75544 14.9797C1.71396 14.9537 1.65926 14.9658 1.63282 15.007C1.51938 15.1848 1.5799 15.2962 1.61121 15.3359C1.67552 15.4171 1.79651 15.445 1.91219 15.4046C1.92537 15.4 1.93873 15.3944 1.9519 15.3876V15.6122C1.9519 15.6122 1.95176 15.6121 1.95176 15.6121C1.94908 15.5653 1.91037 15.5284 1.86312 15.5284C1.81404 15.5284 1.77429 15.5681 1.77429 15.6173C1.77429 15.6752 1.81479 15.7757 1.95194 15.8068V15.9725C1.95194 16.0216 1.99165 16.0613 2.04077 16.0613C2.08985 16.0613 2.1296 16.0216 2.1296 15.9725V15.8068C2.26671 15.7757 2.30726 15.6752 2.30726 15.6173C2.30726 15.5682 2.26765 15.5255 2.21862 15.5255C2.16954 15.5255 2.12997 15.5623 2.12997 15.6114C2.12993 15.6115 2.12965 15.6118 2.1296 15.6119V15.3877C2.14277 15.3944 2.15613 15.4001 2.1693 15.4047C2.28499 15.4451 2.40593 15.4171 2.47029 15.336C2.5016 15.2963 2.56216 15.1849 2.44868 15.0071C2.42229 14.9658 2.36749 14.9536 2.32605 14.9798C2.28466 15.0062 2.27262 15.0612 2.29901 15.1024C2.34157 15.1694 2.34283 15.2107 2.33093 15.2258C2.31687 15.2437 2.27337 15.2528 2.22762 15.2369C2.19813 15.2267 2.1296 15.1913 2.1296 15.0844C2.1296 14.9991 2.16907 14.9208 2.23788 14.87C2.30683 14.819 2.39608 14.8044 2.4821 14.8313C2.58832 14.8637 2.66252 14.9756 2.66252 15.1035C2.66252 15.1948 2.64293 15.2873 2.60566 15.3709ZM2.60566 14.0872C2.64283 14.1708 2.66248 14.2632 2.66248 14.3547C2.66248 14.4826 2.58832 14.5944 2.48205 14.6268C2.39585 14.6537 2.30665 14.6392 2.23783 14.5882C2.16902 14.5373 2.12955 14.4591 2.12955 14.3738C2.12955 14.2669 2.19808 14.2315 2.22757 14.2213C2.27327 14.2053 2.31687 14.2145 2.33088 14.2324C2.34279 14.2475 2.34152 14.2888 2.29896 14.3558C2.27257 14.3971 2.28462 14.452 2.32601 14.4784C2.36773 14.5048 2.42248 14.4926 2.44863 14.4511C2.56212 14.2733 2.50155 14.1619 2.47024 14.1222C2.40588 14.041 2.28494 14.0134 2.16926 14.0535C2.15608 14.0581 2.14273 14.0638 2.12955 14.0704V13.8458L2.12969 13.846C2.13237 13.8927 2.17108 13.9297 2.21833 13.9297C2.26741 13.9297 2.30716 13.89 2.30716 13.8408C2.30716 13.7829 2.26666 13.6824 2.12951 13.6513V13.4856C2.12951 13.4365 2.0898 13.3967 2.04068 13.3967C1.9916 13.3967 1.95185 13.4364 1.95185 13.4856V13.6513C1.81474 13.6824 1.77419 13.7829 1.77419 13.8408C1.77419 13.8899 1.8138 13.9326 1.86283 13.9326C1.91191 13.9326 1.95148 13.8958 1.95148 13.8467C1.95152 13.8466 1.9518 13.8463 1.9518 13.8463L1.95185 14.0704C1.93868 14.0637 1.92532 14.058 1.91215 14.0535C1.79646 14.0134 1.67548 14.0409 1.61116 14.1221C1.57985 14.1618 1.51929 14.2732 1.63277 14.4511C1.65916 14.4923 1.71396 14.5043 1.7554 14.4783C1.79679 14.4519 1.80883 14.397 1.78244 14.3557C1.73988 14.2887 1.73862 14.2474 1.75052 14.2323C1.76449 14.2145 1.80804 14.2053 1.85383 14.2212C1.88332 14.2314 1.95185 14.2668 1.95185 14.3737C1.95185 14.4591 1.91238 14.5373 1.84357 14.5881C1.77462 14.6391 1.68555 14.6537 1.59935 14.6268C1.49313 14.5943 1.41893 14.4825 1.41893 14.3546C1.41893 14.2632 1.43852 14.1707 1.47574 14.0871L2.04068 12.8161L2.60566 14.0872ZM2.12932 12.0644C2.09571 12.0906 2.0659 12.1219 2.04077 12.1573C2.01569 12.1219 1.98583 12.0906 1.95222 12.0644C1.98583 12.0383 2.01565 12.0069 2.04077 11.9716C2.06585 12.0069 2.09562 12.0382 2.12932 12.0644ZM2.60566 10.0417L2.04073 11.3127L1.47579 10.0417C1.43862 9.95804 1.41898 9.8656 1.41898 9.77415C1.41898 9.64627 1.49313 9.53443 1.5994 9.50199C1.68569 9.47527 1.7748 9.48966 1.84362 9.54066C1.91243 9.59152 1.9519 9.66971 1.9519 9.75511C1.9519 9.86199 1.88337 9.89733 1.85388 9.9076C1.80808 9.92372 1.76454 9.9144 1.75057 9.89649C1.73866 9.8814 1.73993 9.8401 1.78249 9.77311C1.80888 9.73182 1.79683 9.67688 1.75544 9.65049C1.71396 9.62429 1.65926 9.63643 1.63282 9.67768C1.51938 9.85552 1.5799 9.96685 1.61121 10.0066C1.67552 10.0878 1.79651 10.1155 1.91219 10.0753C1.92537 10.0707 1.93873 10.0651 1.9519 10.0583V10.283L1.95176 10.2827C1.94908 10.2361 1.91037 10.1991 1.86312 10.1991C1.81404 10.1991 1.77429 10.2388 1.77429 10.2879C1.77429 10.3458 1.81479 10.4463 1.95194 10.4775V10.6432C1.95194 10.6922 1.99165 10.732 2.04077 10.732C2.08985 10.732 2.1296 10.6923 2.1296 10.6432V10.4775C2.26671 10.4463 2.30726 10.3458 2.30726 10.2879C2.30726 10.2388 2.26765 10.1961 2.21862 10.1961C2.16954 10.1961 2.12997 10.2329 2.12997 10.282C2.12993 10.2821 2.12965 10.2824 2.12965 10.2824L2.1296 10.0583C2.14277 10.065 2.15613 10.0707 2.1693 10.0752C2.28499 10.1154 2.40593 10.0877 2.47029 10.0066C2.5016 9.96685 2.56216 9.85547 2.44868 9.67763C2.42229 9.63615 2.36749 9.62405 2.32605 9.65044C2.28466 9.67683 2.27262 9.73182 2.29901 9.77307C2.34157 9.84005 2.34283 9.88135 2.33093 9.89644C2.31687 9.9143 2.27337 9.92372 2.22762 9.90755C2.19813 9.89733 2.1296 9.86194 2.1296 9.75507C2.1296 9.66971 2.16907 9.59147 2.23788 9.54061C2.30683 9.48961 2.39608 9.47522 2.4821 9.50194C2.58832 9.53438 2.66252 9.64627 2.66252 9.7741C2.66252 9.86555 2.64293 9.95799 2.60566 10.0417ZM2.60566 8.75785C2.64283 8.84147 2.66248 8.93391 2.66248 9.02536C2.66248 9.15324 2.58832 9.26508 2.48205 9.29752C2.39585 9.32443 2.30665 9.30985 2.23783 9.25885C2.16902 9.20799 2.12955 9.1298 2.12955 9.0444C2.12955 8.93752 2.19808 8.90218 2.22757 8.89191C2.27327 8.87593 2.31687 8.88511 2.33088 8.90302C2.34279 8.91811 2.34152 8.95941 2.29896 9.0264C2.27257 9.06769 2.28462 9.12268 2.32601 9.14902C2.36773 9.17522 2.42248 9.16322 2.44863 9.12179C2.56212 8.94394 2.50155 8.83261 2.47024 8.79286C2.40588 8.71168 2.28494 8.68393 2.16926 8.72419C2.15608 8.72874 2.14273 8.73441 2.12955 8.74111V8.51649C2.12955 8.51654 2.12969 8.51663 2.12969 8.51663C2.13237 8.56341 2.17108 8.6003 2.21833 8.6003C2.26741 8.6003 2.30716 8.5606 2.30716 8.51147C2.30716 8.45354 2.26666 8.35304 2.12951 8.32191V8.15621C2.12951 8.10713 2.0898 8.06738 2.04068 8.06738C1.9916 8.06738 1.95185 8.10708 1.95185 8.15621V8.32191C1.81474 8.35304 1.77419 8.45354 1.77419 8.51147C1.77419 8.56055 1.8138 8.60326 1.86283 8.60326C1.91191 8.60326 1.95148 8.56646 1.95148 8.51738C1.95152 8.51724 1.9518 8.517 1.95185 8.51686V8.74107C1.93868 8.73436 1.92532 8.72869 1.91215 8.72415C1.79646 8.68393 1.67548 8.71163 1.61116 8.79282C1.57985 8.83252 1.51929 8.9439 1.63277 9.12174C1.65916 9.16304 1.71396 9.17504 1.7554 9.14897C1.79679 9.12258 1.80883 9.0676 1.78244 9.02635C1.73988 8.95936 1.73862 8.91807 1.75052 8.90297C1.76449 8.88511 1.80804 8.87593 1.85383 8.89186C1.88332 8.90208 1.95185 8.93747 1.95185 9.04435C1.95185 9.12971 1.91238 9.20794 1.84357 9.2588C1.77462 9.3098 1.68555 9.32438 1.59935 9.29747C1.49313 9.26504 1.41893 9.15315 1.41893 9.02532C1.41893 8.93386 1.43852 8.84143 1.47574 8.7578L2.04068 7.48674L2.60566 8.75785ZM1.95218 6.73515C1.98579 6.70899 2.0156 6.67768 2.04073 6.64229C2.0658 6.67768 2.09562 6.70894 2.12927 6.73515C2.09566 6.7613 2.06585 6.79261 2.04073 6.828C2.01565 6.79252 1.98588 6.76121 1.95218 6.73515Z" fill="#FFE15A"/>
<path d="M12.6909 13.1535C13.8716 13.1535 14.8287 12.1964 14.8287 11.0157C14.8287 9.83505 13.8716 8.87793 12.6909 8.87793C11.5102 8.87793 10.5531 9.83505 10.5531 11.0157C10.5531 12.1964 11.5102 13.1535 12.6909 13.1535Z" fill="#FFE15A"/>
<path d="M12.8516 8.2906C12.8516 8.37915 12.7798 8.45096 12.6912 8.45096C12.6027 8.45096 12.5309 8.37915 12.5309 8.2906C12.5309 8.20206 12.6912 7.80957 12.6912 7.80957C12.6912 7.80957 12.8516 8.20206 12.8516 8.2906Z" fill="#FFE15A"/>
<path d="M12.5309 13.7424C12.5309 13.6538 12.6027 13.582 12.6912 13.582C12.7798 13.582 12.8516 13.6538 12.8516 13.7424C12.8516 13.8309 12.6912 14.2234 12.6912 14.2234C12.6912 14.2234 12.5309 13.831 12.5309 13.7424Z" fill="#FFE15A"/>
<path d="M15.4171 11.1772C15.3285 11.1772 15.2567 11.1054 15.2567 11.0168C15.2567 10.9283 15.3285 10.8564 15.4171 10.8564C15.5056 10.8564 15.8981 11.0168 15.8981 11.0168C15.8981 11.0168 15.5056 11.1772 15.4171 11.1772Z" fill="#FFE15A"/>
<path d="M9.96538 10.8564C10.0539 10.8564 10.1257 10.9283 10.1257 11.0168C10.1257 11.1054 10.0539 11.1772 9.96538 11.1772C9.87683 11.1772 9.48434 11.0168 9.48434 11.0168C9.48434 11.0168 9.87683 10.8564 9.96538 10.8564Z" fill="#FFE15A"/>
<path d="M14.7321 9.20259C14.6695 9.26521 14.5679 9.26521 14.5053 9.20259C14.4427 9.13996 14.4427 9.03843 14.5053 8.97581C14.5679 8.91323 14.9588 8.74902 14.9588 8.74902C14.9588 8.74902 14.7948 9.13996 14.7321 9.20259Z" fill="#FFE15A"/>
<path d="M10.6504 12.8302C10.713 12.7675 10.8145 12.7675 10.8772 12.8302C10.9399 12.8928 10.9398 12.9943 10.8772 13.0569C10.8146 13.1196 10.4237 13.2837 10.4237 13.2837C10.4237 13.2837 10.5878 12.8928 10.6504 12.8302Z" fill="#FFE15A"/>
<path d="M14.5053 13.057C14.4427 12.9943 14.4427 12.8929 14.5053 12.8302C14.568 12.7675 14.6694 12.7676 14.7321 12.8302C14.7948 12.8928 14.9589 13.2837 14.9589 13.2837C14.9589 13.2837 14.5679 13.1196 14.5053 13.057Z" fill="#FFE15A"/>
<path d="M10.8771 8.97575C10.9398 9.03838 10.9398 9.13986 10.8771 9.20253C10.8145 9.2652 10.713 9.26516 10.6504 9.20253C10.5877 9.13991 10.4236 8.74902 10.4236 8.74902C10.4236 8.74902 10.8145 8.91318 10.8771 8.97575Z" fill="#FFE15A"/>
<path d="M11.7963 8.43682C11.8302 8.51867 11.7913 8.61242 11.7095 8.64631C11.6276 8.6802 11.5339 8.64134 11.5 8.5595C11.4661 8.47765 11.464 8.05371 11.464 8.05371C11.464 8.05371 11.7624 8.35498 11.7963 8.43682Z" fill="#FFE15A"/>
<path d="M13.5863 13.5967C13.5524 13.5149 13.5913 13.4211 13.6731 13.3872C13.7549 13.3534 13.8487 13.3922 13.8826 13.4741C13.9165 13.5559 13.9185 13.9798 13.9185 13.9798C13.9185 13.9798 13.6201 13.6786 13.5863 13.5967Z" fill="#FFE15A"/>
<path d="M15.271 10.1213C15.1891 10.1552 15.0954 10.1163 15.0615 10.0345C15.0276 9.95265 15.0664 9.8589 15.1483 9.82501C15.2301 9.79112 15.654 9.78906 15.654 9.78906C15.654 9.78906 15.3528 10.0874 15.271 10.1213Z" fill="#FFE15A"/>
<path d="M10.1115 11.9117C10.1934 11.8778 10.2871 11.9166 10.321 11.9985C10.3549 12.0803 10.3161 12.1741 10.2342 12.208C10.1524 12.2419 9.72842 12.2439 9.72842 12.2439C9.72842 12.2439 10.0297 11.9456 10.1115 11.9117Z" fill="#FFE15A"/>
<path d="M13.8825 8.55945C13.8486 8.64129 13.7548 8.6801 13.673 8.64626C13.5912 8.61237 13.5524 8.51857 13.5862 8.43677C13.6201 8.35493 13.9184 8.05371 13.9184 8.05371C13.9184 8.05371 13.9164 8.47765 13.8825 8.55945Z" fill="#FFE15A"/>
<path d="M11.5 13.4731C11.5338 13.3912 11.6276 13.3524 11.7094 13.3863C11.7912 13.4201 11.8301 13.5139 11.7963 13.5957C11.7624 13.6776 11.4641 13.9788 11.4641 13.9788C11.4641 13.9788 11.4661 13.5548 11.5 13.4731Z" fill="#FFE15A"/>
<path d="M15.1482 12.2079C15.0664 12.174 15.0275 12.0803 15.0614 11.9985C15.0953 11.9166 15.1891 11.8778 15.2709 11.9116C15.3527 11.9455 15.6539 12.2438 15.6539 12.2438C15.6539 12.2438 15.23 12.2419 15.1482 12.2079Z" fill="#FFE15A"/>
<path d="M10.2342 9.82497C10.316 9.85886 10.3548 9.95266 10.321 10.0345C10.2871 10.1163 10.1933 10.1551 10.1115 10.1213C10.0297 10.0874 9.72845 9.78906 9.72845 9.78906C9.72845 9.78906 10.1524 9.79103 10.2342 9.82497Z" fill="#FFE15A"/>
<path d="M12.3167 8.31162C12.334 8.39848 12.2776 8.4829 12.1907 8.50015C12.1039 8.51745 12.0195 8.46101 12.0022 8.37415C11.9849 8.28729 12.0656 7.87109 12.0656 7.87109C12.0656 7.87109 12.2994 8.22476 12.3167 8.31162Z" fill="#FFE15A"/>
<path d="M13.0658 13.7219C13.0485 13.6351 13.1049 13.5506 13.1918 13.5334C13.2786 13.5161 13.3631 13.5725 13.3803 13.6594C13.3976 13.7462 13.3169 14.1624 13.3169 14.1624C13.3169 14.1624 13.083 13.8088 13.0658 13.7219Z" fill="#FFE15A"/>
<path d="M15.396 10.6422C15.3092 10.6594 15.2247 10.6031 15.2075 10.5162C15.1902 10.4293 15.2466 10.3449 15.3335 10.3276C15.4204 10.3103 15.8366 10.391 15.8366 10.391C15.8366 10.391 15.4829 10.6249 15.396 10.6422Z" fill="#FFE15A"/>
<path d="M9.98643 11.3908C10.0733 11.3735 10.1577 11.4299 10.175 11.5168C10.1923 11.6037 10.1358 11.6881 10.049 11.7053C9.9621 11.7226 9.5459 11.6419 9.5459 11.6419C9.5459 11.6419 9.89957 11.4081 9.98643 11.3908Z" fill="#FFE15A"/>
<path d="M14.339 8.83871C14.2898 8.91235 14.1902 8.93213 14.1165 8.88291C14.0429 8.83374 14.0231 8.73413 14.0723 8.66049C14.1215 8.58689 14.4729 8.34961 14.4729 8.34961C14.4729 8.34961 14.3882 8.76502 14.339 8.83871Z" fill="#FFE15A"/>
<path d="M11.0435 13.1943C11.0926 13.1207 11.1923 13.1009 11.2659 13.1501C11.3395 13.1993 11.3593 13.2989 11.3101 13.3725C11.2609 13.4461 10.9095 13.6834 10.9095 13.6834C10.9095 13.6834 10.9943 13.268 11.0435 13.1943Z" fill="#FFE15A"/>
<path d="M14.8686 12.6648C14.795 12.6156 14.7752 12.516 14.8244 12.4423C14.8736 12.3688 14.9732 12.3489 15.0468 12.3981C15.1205 12.4473 15.3577 12.7987 15.3577 12.7987C15.3577 12.7987 14.9423 12.7139 14.8686 12.6648Z" fill="#FFE15A"/>
<path d="M10.5139 9.3683C10.5875 9.41747 10.6073 9.51708 10.5581 9.59072C10.5089 9.66436 10.4093 9.68415 10.3357 9.63493C10.262 9.58571 10.0248 9.23438 10.0248 9.23438C10.0248 9.23438 10.4403 9.31913 10.5139 9.3683Z" fill="#FFE15A"/>
<path d="M11.3101 8.66044C11.3593 8.73408 11.3395 8.83365 11.2659 8.88287C11.1923 8.93204 11.0927 8.91226 11.0435 8.83866C10.9943 8.76502 10.9095 8.34961 10.9095 8.34961C10.9095 8.34961 11.2609 8.58689 11.3101 8.66044Z" fill="#FFE15A"/>
<path d="M14.0723 13.3715C14.0231 13.2979 14.0429 13.1983 14.1165 13.1491C14.1902 13.0999 14.2897 13.1197 14.3389 13.1933C14.3881 13.2669 14.4729 13.6823 14.4729 13.6823C14.4729 13.6823 14.1215 13.4452 14.0723 13.3715Z" fill="#FFE15A"/>
<path d="M15.0468 9.63493C14.9732 9.6841 14.8736 9.66432 14.8244 9.59072C14.7752 9.51708 14.795 9.41752 14.8686 9.3683C14.9422 9.31913 15.3576 9.23438 15.3576 9.23438C15.3576 9.23438 15.1205 9.58576 15.0468 9.63493Z" fill="#FFE15A"/>
<path d="M10.3357 12.3971C10.4093 12.348 10.5089 12.3678 10.5581 12.4413C10.6073 12.515 10.5875 12.6146 10.5139 12.6638C10.4403 12.7129 10.0248 12.7977 10.0248 12.7977C10.0248 12.7977 10.262 12.4464 10.3357 12.3971Z" fill="#FFE15A"/>
<path d="M13.3803 8.37411C13.363 8.46097 13.2786 8.5174 13.1918 8.50011C13.1049 8.48281 13.0485 8.39843 13.0658 8.31158C13.0831 8.22472 13.3169 7.87109 13.3169 7.87109C13.3169 7.87109 13.3975 8.2872 13.3803 8.37411Z" fill="#FFE15A"/>
<path d="M12.0022 13.6594C12.0195 13.5725 12.1038 13.5161 12.1907 13.5334C12.2776 13.5507 12.334 13.6351 12.3167 13.7219C12.2994 13.8088 12.0656 14.1624 12.0656 14.1624C12.0656 14.1624 11.9849 13.7463 12.0022 13.6594Z" fill="#FFE15A"/>
<path d="M15.3334 11.7054C15.2466 11.6881 15.1901 11.6037 15.2074 11.5168C15.2247 11.43 15.3091 11.3735 15.396 11.3908C15.4828 11.4081 15.8365 11.6419 15.8365 11.6419C15.8365 11.6419 15.4203 11.7226 15.3334 11.7054Z" fill="#FFE15A"/>
<path d="M10.049 10.3266C10.1359 10.3439 10.1923 10.4283 10.175 10.5152C10.1577 10.602 10.0733 10.6585 9.98649 10.6412C9.89963 10.6239 9.54596 10.3901 9.54596 10.3901C9.54596 10.3901 9.96216 10.3094 10.049 10.3266Z" fill="#FFE15A"/>
<path d="M17.72 11.5785C17.6574 11.5522 17.5858 11.5823 17.5597 11.6446C17.5597 11.6449 17.5597 11.6449 17.5597 11.6449C17.5592 11.6461 17.5568 11.6518 17.5526 11.6617C17.4599 11.8781 17.2682 12.1945 17.0746 12.4921C17.2549 11.9116 17.4198 11.2917 17.4313 11.2481C17.4485 11.183 17.41 11.1161 17.3449 11.0985C17.2798 11.081 17.2129 11.1188 17.1947 11.1837C17.1105 11.4852 16.9384 11.882 16.7797 12.2179C16.8088 11.8433 16.8143 11.4964 16.8146 11.4713C16.8156 11.4049 16.7636 11.3501 16.6973 11.3469C16.6349 11.3489 16.5747 11.3944 16.5698 11.4607C16.4128 13.6201 14.3349 14.5861 14.1325 14.675C14.0267 14.6855 13.5336 14.7411 13.0861 14.8965C13.0353 14.9141 12.9921 14.9318 12.9491 14.9493C12.9331 14.9433 12.916 14.9399 12.8979 14.941C11.5244 15.0404 10.4292 14.4769 9.64208 13.2698C9.04738 12.3577 8.86086 11.4003 8.85903 11.3908C8.84647 11.3242 8.78272 11.2813 8.71588 11.2931C8.64931 11.3057 8.60558 11.3697 8.61819 11.4362C8.62316 11.4627 8.705 11.8806 8.93038 12.4305C8.62883 11.9545 8.41869 11.3779 8.34472 11.0776C8.34322 11.0716 8.33938 11.067 8.33713 11.0615C8.3337 11.053 8.33075 11.0445 8.32564 11.0371C8.32203 11.0319 8.3173 11.0281 8.31303 11.0236C8.30633 11.0165 8.29991 11.0095 8.29171 11.0042C8.28702 11.0012 8.28177 10.9997 8.27666 10.9973C8.26761 10.9931 8.25875 10.9889 8.24867 10.9871C8.24169 10.9857 8.23456 10.9866 8.2273 10.9865C8.21994 10.9864 8.213 10.9845 8.2055 10.9858C8.20386 10.9861 8.2026 10.9872 8.20095 10.9876C8.19936 10.9879 8.19786 10.9874 8.19627 10.9877C8.18971 10.9893 8.18469 10.9935 8.17869 10.996C8.17105 10.9994 8.16322 11.0018 8.15652 11.0065C8.14991 11.011 8.14499 11.0169 8.1395 11.0226C8.13402 11.0282 8.1283 11.0332 8.12399 11.0397C8.11963 11.0463 8.11728 11.0538 8.11419 11.0611C8.11124 11.0683 8.10781 11.0751 8.10627 11.0828C8.10467 11.0907 8.10538 11.0989 8.10542 11.1072C8.10542 11.1138 8.1036 11.1201 8.10477 11.1269C8.10524 11.1297 8.10617 11.1327 8.10669 11.1355V11.136C8.10683 11.1365 8.10702 11.1372 8.10716 11.1377C8.183 11.5846 8.36375 12.0478 8.5272 12.4011C8.26766 12.1066 8.05077 11.7672 7.97389 11.5663C7.97169 11.5604 7.96724 11.5563 7.96424 11.5511C7.95969 11.543 7.95571 11.5347 7.94957 11.528C7.94521 11.5232 7.93991 11.5201 7.93494 11.5161C7.92749 11.5101 7.92041 11.5041 7.91178 11.4999C7.90625 11.4973 7.90025 11.4965 7.89439 11.4946C7.88535 11.4919 7.87658 11.4889 7.86697 11.4883C7.85942 11.4878 7.85192 11.4897 7.84428 11.4907C7.83721 11.4916 7.83022 11.4907 7.82319 11.4929C7.82183 11.4933 7.82089 11.4944 7.81963 11.4949C7.81832 11.4953 7.817 11.495 7.81569 11.4955C7.80903 11.4981 7.8043 11.503 7.79835 11.5065C7.79136 11.5106 7.78391 11.5141 7.77796 11.5194C7.77186 11.5249 7.76764 11.5317 7.76286 11.5382C7.75832 11.5443 7.75325 11.5498 7.74988 11.5567C7.74636 11.5638 7.74505 11.5716 7.74303 11.5793C7.74102 11.5869 7.73835 11.5939 7.73783 11.6018C7.73727 11.6098 7.73924 11.6177 7.74027 11.6257C7.74116 11.6326 7.74022 11.6395 7.74238 11.6464C7.87578 12.0767 8.1966 12.5887 8.44794 12.9493C8.2385 12.7879 8.08456 12.6134 8.03989 12.5607C8.03507 12.555 8.03033 12.5492 8.0255 12.5435C7.98228 12.4915 7.90588 12.4841 7.85357 12.5265C7.80139 12.5691 7.79319 12.6458 7.83538 12.6981C7.83767 12.701 7.84686 12.7125 7.86219 12.7305C8.04613 12.9494 8.24652 13.1536 8.42806 13.326L8.17972 13.2202C8.1231 13.1957 8.05653 13.2178 8.0255 13.2716C7.99452 13.3255 8.00849 13.3937 8.05817 13.4311C8.08231 13.449 8.52214 13.7776 8.90286 13.9718C8.86695 13.9739 8.82481 13.9713 8.77766 13.9677C8.7201 13.9621 8.66347 14.0033 8.64945 14.0618C8.63567 14.1204 8.66633 14.1803 8.72202 14.2033C8.73139 14.2071 8.84741 14.255 8.99066 14.306C8.95724 14.3196 8.93066 14.3476 8.91964 14.384C8.90314 14.4384 8.92634 14.4973 8.97566 14.5255C8.9885 14.533 9.16184 14.6324 9.37625 14.7204C9.37053 14.7293 9.36584 14.7389 9.36238 14.7494C9.34559 14.8009 9.36477 14.8574 9.40944 14.8883C9.44666 14.9139 10.2794 15.479 11.252 15.479C11.3158 15.479 11.3803 15.4766 11.4452 15.4714C11.5126 15.4661 11.563 15.407 11.5576 15.3394C11.5522 15.2719 11.4937 15.2209 11.4256 15.2271C10.8146 15.2769 10.226 15.0475 9.87594 14.8722C9.92216 14.8609 9.94873 14.8507 9.95534 14.848C10.0093 14.826 10.0405 14.7692 10.0299 14.712C10.0194 14.6547 9.97006 14.6129 9.91175 14.6116C9.76962 14.6087 9.5728 14.5396 9.40325 14.4653C9.46728 14.4332 9.50469 14.4025 9.50797 14.3999C9.54486 14.369 9.56042 14.3197 9.54786 14.2733C9.5352 14.2271 9.49658 14.1923 9.44923 14.1847C9.39716 14.176 9.33228 14.1593 9.26427 14.1387C9.33036 14.1006 9.35848 14.0587 9.36927 14.0374C9.38628 14.0034 9.38666 13.9636 9.37034 13.9294C9.35394 13.8952 9.32272 13.8705 9.28555 13.8625C9.25348 13.8556 9.21716 13.8439 9.17792 13.8286C9.18509 13.8214 9.1917 13.8132 9.19705 13.8039C9.22827 13.751 9.21538 13.683 9.16691 13.6449C9.16438 13.643 9.06922 13.5683 8.92513 13.444C8.948 13.4356 8.9682 13.42 8.98283 13.399C9.01372 13.3545 9.01152 13.2948 8.97767 13.2526C8.97495 13.2493 8.87966 13.1295 8.74831 12.9475C8.79167 12.9811 8.83499 13.0156 8.8783 13.0434C8.89869 13.0563 8.92175 13.0628 8.94463 13.0628C8.97566 13.0628 9.00627 13.0511 9.02984 13.0283C9.03955 13.0189 9.04714 13.0081 9.05314 12.9967C9.12753 13.0761 9.20567 13.1483 9.28775 13.2098C9.29844 13.2178 9.31142 13.2177 9.32342 13.2217C9.3582 13.28 9.39439 13.3384 9.43236 13.3968C10.1769 14.5424 11.2266 15.156 12.4857 15.1928C12.3698 15.2632 12.2439 15.336 12.0447 15.4136C12.0012 15.4306 11.9627 15.4475 11.9241 15.4645C11.9054 15.4682 11.8879 15.4749 11.8733 15.4865C11.5255 15.6475 11.3815 15.8066 11.3231 15.9179C11.2647 16.0285 11.315 16.142 11.3862 16.2009C11.4084 16.2191 11.4365 16.2285 11.4648 16.2285C11.4842 16.2285 11.5036 16.2241 11.5212 16.2153C11.5646 16.1937 11.5935 16.148 11.5916 16.0999C11.5966 16.0943 11.6179 16.0767 11.6847 16.0745C11.7334 16.0704 11.836 16.0814 11.9556 16.091C12.0694 16.1004 12.2059 16.111 12.351 16.1185C12.2602 16.2243 12.1547 16.347 12.1547 16.347C12.123 16.3839 12.116 16.4361 12.1371 16.4799C12.1583 16.524 12.204 16.5513 12.2518 16.5496C12.3487 16.5462 12.4145 16.5443 12.4578 16.5434C12.4954 16.5927 12.5417 16.6123 12.5715 16.62C12.6558 16.6415 12.7398 16.6078 12.8031 16.5678C12.851 16.6023 12.8989 16.6169 12.9369 16.6223C13.0225 16.6341 13.1018 16.6092 13.1591 16.5809C13.2185 16.6193 13.2767 16.6291 13.321 16.6291C13.3216 16.6291 13.3224 16.6291 13.323 16.6291C13.4187 16.6286 13.5024 16.5824 13.5616 16.5371C13.614 16.5682 13.664 16.5782 13.7027 16.58C13.7905 16.5831 13.8632 16.5493 13.9116 16.5177C14.0844 16.5524 14.2333 16.471 14.3317 16.3812C14.3766 16.4073 14.4193 16.4138 14.4534 16.4121C14.5409 16.409 14.6075 16.3558 14.6503 16.3081C14.8462 16.3318 14.9868 16.2957 15.068 16.1992C15.1124 16.1468 15.1303 16.0876 15.1352 16.0337C15.6787 16.0306 15.7279 15.7339 15.7318 15.6973C15.7354 15.664 15.7253 15.6307 15.7036 15.6051C15.6821 15.5795 15.6508 15.5637 15.6174 15.5618L14.1926 15.4761C14.133 15.4718 14.0798 15.5117 14.0659 15.57C14.0657 15.5709 14.0414 15.6614 13.9654 15.7338C13.8632 15.8314 13.6984 15.883 13.5193 15.9103C13.52 15.8939 13.5177 15.8772 13.5114 15.8609C13.487 15.7977 13.4159 15.767 13.3529 15.7907C13.0587 15.9049 12.5825 15.8905 12.2099 15.8646C12.2671 15.8179 12.3359 15.7717 12.3909 15.7415C12.4373 15.7159 12.4623 15.6634 12.4524 15.6112C12.4453 15.5733 12.4179 15.5469 12.3848 15.5299C12.4884 15.4776 12.5734 15.4271 12.6539 15.378C12.7938 15.2923 12.9259 15.2116 13.1666 15.128C13.6311 14.9666 14.1687 14.9175 14.1741 14.917C14.1863 14.9161 14.1983 14.9129 14.2097 14.9084C14.2288 14.9004 15.7452 14.2652 16.4597 12.7994C16.4503 12.8437 16.4403 12.8842 16.4293 12.9196C16.4107 12.98 16.4408 13.0444 16.499 13.0688C16.544 13.0877 16.5951 13.0778 16.6298 13.0458C16.5846 13.1648 16.5438 13.2584 16.5105 13.3137C16.4765 13.37 16.4929 13.4431 16.5476 13.4794C16.5604 13.4878 16.5742 13.4935 16.5883 13.4969C16.533 13.5779 16.4769 13.6545 16.421 13.7247C16.3838 13.7714 16.3859 13.838 16.4248 13.882C16.3288 13.9826 16.2437 14.0655 16.179 14.1181C16.1367 14.1524 16.123 14.2096 16.1424 14.2585C16.08 14.2942 16.0288 14.3193 15.9933 14.3301C15.9336 14.348 15.897 14.4081 15.9083 14.4694C15.9141 14.5018 15.9323 14.5291 15.9574 14.547C15.8825 14.5671 15.8005 14.5865 15.7114 14.6042C15.6612 14.6142 15.6226 14.6542 15.6143 14.7047C15.6062 14.7553 15.6302 14.8056 15.6745 14.8309C15.6784 14.8331 15.7202 14.8568 15.7843 14.8841C15.5472 14.9796 15.1237 15.1044 14.4288 15.1729C14.3614 15.1796 14.3121 15.2397 14.3188 15.307C14.3254 15.3743 14.3836 15.421 14.4529 15.4171C15.7721 15.2866 16.1794 14.9565 16.196 14.9423C16.2341 14.9104 16.2492 14.8584 16.2341 14.811C16.2241 14.7796 16.202 14.7543 16.1737 14.7397C16.5952 14.607 16.7761 14.4602 16.7855 14.4523C16.8317 14.414 16.8434 14.3477 16.813 14.2957C16.7823 14.2437 16.7185 14.2212 16.6628 14.2437C16.6472 14.2497 16.6221 14.2559 16.5905 14.2621C16.8733 14.0685 17.1736 13.8378 17.3056 13.7348C17.3288 13.7176 17.35 13.7011 17.3685 13.6855C17.4198 13.6424 17.4269 13.5663 17.3846 13.5143C17.3426 13.4626 17.2661 13.4539 17.2137 13.4954C17.1946 13.5105 17.1746 13.526 17.1541 13.5421C17.0931 13.5873 17.0152 13.6386 16.9301 13.6912C17.2511 13.3268 17.5743 12.9316 17.6666 12.8182C17.675 12.8078 17.6832 12.7976 17.6916 12.7873C17.734 12.7346 17.7258 12.6575 17.6731 12.6151C17.6202 12.572 17.543 12.5809 17.5008 12.6333L17.5005 12.6335L17.5004 12.6338C17.4981 12.6364 17.4877 12.6494 17.4702 12.6709C17.3735 12.789 17.2717 12.9032 17.1713 13.01C17.4983 12.4173 17.7459 11.834 17.7821 11.7475C17.7835 11.7444 17.7847 11.7413 17.786 11.7382C17.8121 11.6762 17.7825 11.6044 17.72 11.5785ZM11.9736 15.7114L12.0071 15.7157C11.966 15.7541 11.9326 15.7972 11.906 15.8416C11.8478 15.8369 11.795 15.8329 11.7536 15.831C11.8107 15.7936 11.8841 15.7532 11.9736 15.7114Z" fill="#FFE15A"/>
</svg>
