<svg width="42" height="43" viewBox="0 0 42 43" fill="none" xmlns="http://www.w3.org/2000/svg">
<g clip-path="url(#clip0)">
<path d="M28.5485 12.752C28.0948 12.752 27.7266 13.1192 27.7266 13.5735C27.7266 14.0275 28.0948 14.3955 28.5485 14.3955C29.0031 14.3955 29.3704 14.0275 29.3704 13.5735C29.3704 13.1192 29.0031 12.752 28.5485 12.752Z" fill="black"/>
<path d="M13.6146 27.6855C13.16 27.6855 12.7927 28.0538 12.7927 28.5075C12.7927 28.9621 13.16 29.3294 13.6146 29.3294C14.0683 29.3294 14.4365 28.9621 14.4365 28.5075C14.4365 28.0538 14.0683 27.6855 13.6146 27.6855Z" fill="black"/>
<path d="M41.1007 5.05648C40.8233 4.99194 40.5318 5.07574 40.3314 5.27801L36.924 8.71241H35.2905L33.4922 6.84929V5.19293L36.8508 1.78422C37.0495 1.58259 37.1305 1.29267 37.0646 1.01688C36.9991 0.741409 36.7962 0.519235 36.5278 0.428695C35.6841 0.144235 34.8012 7.79808e-05 33.9031 7.79808e-05C31.2261 7.79808e-05 28.7941 1.24837 27.2305 3.42484C25.7671 5.4623 25.316 7.9592 25.9623 10.3489L19.9081 16.4031L9.82159 6.29353V4.30937C9.82159 4.02073 9.67005 3.75297 9.42251 3.60464L3.61098 0.117265C3.28735 -0.0769768 2.8735 -0.025928 2.60702 0.240874L0.28253 2.56504C0.0160491 2.83184 -0.0349997 3.24569 0.158922 3.56932L3.64565 9.38086C3.79398 9.62839 4.06143 9.77961 4.35006 9.77994L6.33358 9.78058L16.421 19.8902L10.3899 25.9213C8.00021 25.2753 5.50203 25.7271 3.46361 27.1914C1.28842 28.754 0.0410919 31.1854 0.0410919 33.8624C0.0410919 34.7601 0.185249 35.6434 0.469709 36.4868C0.56057 36.7568 0.784992 36.9607 1.06239 37.0249C1.34011 37.0894 1.63131 37.0056 1.83197 36.8034L5.23908 33.3693H6.88163L8.7531 35.2408V36.8833L5.31902 40.2904C5.11676 40.4911 5.03296 40.7823 5.09749 41.06C5.1617 41.3374 5.36558 41.5618 5.63559 41.6527C6.47902 41.9371 7.36226 42.0813 8.25995 42.0813C10.937 42.0813 13.368 40.8337 14.931 38.6585C16.3953 36.62 16.8471 34.1222 16.2011 31.7325L21.0449 26.8887L22.1545 28.0939L21.6453 28.6028C21.3243 28.9239 21.3243 29.4443 21.6453 29.7654C21.9664 30.0861 22.4865 30.0861 22.8079 29.7654L23.2689 29.3043L33.6797 40.6128C33.6874 40.6211 33.6954 40.6291 33.7034 40.6372C35.6298 42.5635 38.7509 42.5642 40.6782 40.6368C42.6001 38.714 42.6001 35.5853 40.6782 33.6624C40.6698 33.6541 40.6612 33.646 40.6525 33.638L29.3264 23.2472L29.7823 22.7913C30.1034 22.4705 30.1034 21.9501 29.7823 21.629C29.4613 21.308 28.9411 21.308 28.6198 21.629L28.1141 22.135L26.9066 21.0267L31.7739 16.1594C32.4658 16.3444 33.1798 16.4381 33.9031 16.4381C38.4352 16.4381 42.122 12.751 42.122 8.21926C42.122 7.32125 41.9778 6.43833 41.6934 5.59458C41.6025 5.32456 41.3781 5.12069 41.1007 5.05648ZM7.25631 8.37818C7.1022 8.22375 6.89319 8.14509 6.67487 8.14509L4.81592 8.14445L1.89875 3.27394L3.3156 1.8571L8.17776 4.77491V6.63385C8.17776 6.85153 8.26412 7.06022 8.41791 7.21433L18.7458 17.5657L17.5833 18.7279L7.25631 8.37818ZM26.9506 23.2982L23.3177 26.9304L22.2082 25.7251L25.743 22.1899L26.9506 23.2982Z" fill="white"/>
<path d="M41.1007 5.05648C40.8233 4.99194 40.5318 5.07574 40.3314 5.27801L36.924 8.71241H35.2905L33.4922 6.84929V5.19293L36.8508 1.78422C37.0495 1.58259 37.1305 1.29267 37.0646 1.01688C36.9991 0.741409 36.7962 0.519235 36.5278 0.428695C35.6841 0.144235 34.8012 7.79808e-05 33.9031 7.79808e-05C31.2261 7.79808e-05 28.7941 1.24837 27.2305 3.42484C25.7671 5.4623 25.316 7.9592 25.9623 10.3489L19.9081 16.4031L9.82159 6.29353V4.30937C9.82159 4.02073 9.67005 3.75297 9.42251 3.60464L3.61098 0.117265C3.28735 -0.0769768 2.8735 -0.025928 2.60702 0.240874L0.28253 2.56504C0.0160491 2.83184 -0.0349997 3.24569 0.158922 3.56932L3.64565 9.38086C3.79398 9.62839 4.06143 9.77961 4.35006 9.77994L6.33358 9.78058L16.421 19.8902L10.3899 25.9213C8.00021 25.2753 5.50203 25.7271 3.46361 27.1914C1.28842 28.754 0.0410919 31.1854 0.0410919 33.8624C0.0410919 34.7601 0.185249 35.6434 0.469709 36.4868C0.56057 36.7568 0.784992 36.9607 1.06239 37.0249C1.34011 37.0894 1.63131 37.0056 1.83197 36.8034L5.23908 33.3693H6.88163L8.7531 35.2408V36.8833L5.31902 40.2904C5.11676 40.4911 5.03296 40.7823 5.09749 41.06C5.1617 41.3374 5.36558 41.5618 5.63559 41.6527C6.47902 41.9371 7.36226 42.0813 8.25995 42.0813C10.937 42.0813 13.368 40.8337 14.931 38.6585C16.3953 36.62 16.8471 34.1222 16.2011 31.7325L21.0449 26.8887L22.1545 28.0939L21.6453 28.6028C21.3243 28.9239 21.3243 29.4443 21.6453 29.7654C21.9664 30.0861 22.4865 30.0861 22.8079 29.7654L23.2689 29.3043L33.6797 40.6128C33.6874 40.6211 33.6954 40.6291 33.7034 40.6372C35.6298 42.5635 38.7509 42.5642 40.6782 40.6368C42.6001 38.714 42.6001 35.5853 40.6782 33.6624C40.6698 33.6541 40.6612 33.646 40.6525 33.638L29.3264 23.2472L29.7823 22.7913C30.1034 22.4705 30.1034 21.9501 29.7823 21.629C29.4613 21.308 28.9411 21.308 28.6198 21.629L28.1141 22.135L26.9066 21.0267L31.7739 16.1594C32.4658 16.3444 33.1798 16.4381 33.9031 16.4381C38.4352 16.4381 42.122 12.751 42.122 8.21926C42.122 7.32125 41.9778 6.43833 41.6934 5.59458C41.6025 5.32456 41.3781 5.12069 41.1007 5.05648ZM7.25631 8.37818C7.1022 8.22375 6.89319 8.14509 6.67487 8.14509L4.81592 8.14445L1.89875 3.27394L3.3156 1.8571L8.17776 4.77491V6.63385C8.17776 6.85153 8.26412 7.06022 8.41791 7.21433L18.7458 17.5657L17.5833 18.7279L7.25631 8.37818ZM28.1629 24.4107L39.5275 34.8365C40.797 36.1195 40.7931 38.1968 39.5156 39.4749C38.2352 40.7553 36.1625 40.7592 34.8769 39.4862L24.4321 28.1408L28.1629 24.4107ZM26.9506 23.2982L23.3177 26.9304L22.2082 25.7251L25.743 22.1899L26.9506 23.2982ZM33.9031 14.7943C33.1843 14.7943 32.4773 14.679 31.8024 14.4517C31.5067 14.3525 31.1799 14.4289 30.959 14.6495C26.8385 18.77 17.9599 27.6483 14.6905 30.918C14.4696 31.1389 14.3929 31.4657 14.4927 31.7617C15.1759 33.7905 14.8491 35.9545 13.5957 37.6995C12.3458 39.4393 10.4008 40.4375 8.25995 40.4375C8.01947 40.4375 7.78028 40.4243 7.54334 40.3989L10.1539 37.8086C10.3093 37.6545 10.3969 37.4445 10.3969 37.2252V34.9001C10.3969 34.6821 10.3102 34.4731 10.1561 34.319L7.80308 31.9659C7.64897 31.8118 7.43996 31.7251 7.22196 31.7251H4.89683C4.67754 31.7251 4.46757 31.8128 4.31314 31.9682L1.72313 34.5787C1.69745 34.3418 1.68461 34.1026 1.68461 33.8621C1.68461 31.721 2.68247 29.7763 4.42262 28.5264C6.16727 27.273 8.33155 26.9458 10.3607 27.6294C10.6564 27.7292 10.9832 27.6525 11.2041 27.4316C11.2494 27.3866 27.461 11.1746 27.4726 11.1631C27.6935 10.9422 27.7699 10.6157 27.6704 10.3196C26.9868 8.29085 27.313 6.12754 28.5655 4.38385C29.8164 2.64242 31.7617 1.64391 33.9028 1.64391C34.1507 1.64391 34.3969 1.65772 34.6409 1.68469L32.0847 4.27919C31.9331 4.43298 31.8484 4.64006 31.8484 4.85581V7.18094C31.8484 7.39413 31.9309 7.59864 32.0789 7.75179L34.3497 10.1048C34.5045 10.2654 34.718 10.3559 34.9411 10.3559H37.2663C37.4852 10.3559 37.6952 10.2686 37.8496 10.1129L40.4396 7.50265C40.4653 7.73959 40.4782 7.97878 40.4782 8.21926C40.4782 11.8447 37.5286 14.7943 33.9031 14.7943Z" fill="black"/>
<path d="M25.6429 15.317L15.3577 25.6022C15.0369 25.9229 15.0369 26.4434 15.3577 26.7644C15.6787 27.0855 16.1992 27.0855 16.5202 26.7644L26.8054 16.4792C27.1265 16.1585 27.1265 15.638 26.8054 15.317C26.4844 14.9959 25.9639 14.9959 25.6429 15.317Z" fill="black"/>
<path d="M36.0292 37.1509C36.3503 37.471 36.8707 37.471 37.1918 37.149C37.5122 36.8276 37.5112 36.3072 37.1899 35.9868L29.7814 28.602C29.46 28.2816 28.9392 28.2826 28.6191 28.6039C28.2984 28.9256 28.2993 29.4458 28.6207 29.7662L36.0292 37.1509Z" fill="black"/>
</g>
<defs>
<clipPath id="clip0">
<rect width="42" height="42.0822" fill="white"/>
</clipPath>
</defs>
</svg>
