<svg width="59" height="59" viewBox="0 0 59 59" fill="none" xmlns="http://www.w3.org/2000/svg">
<path d="M53.1 34.4167H46.2167V0.983333C46.2167 0.440287 45.7764 0 45.2333 0H13.7667C13.2236 0 12.7833 0.440287 12.7833 0.983333V34.4167H5.90002C5.63193 34.4167 5.37541 34.5261 5.18993 34.7197C4.81417 35.1118 4.82744 35.7342 5.21955 36.11L28.8195 58.7266C29.0027 58.902 29.2464 59 29.5 59C29.7536 59 29.9975 58.902 30.1805 58.7266L53.7805 36.11C53.9741 35.9245 54.0835 35.668 54.0835 35.3999C54.0834 34.8568 53.6431 34.4167 53.1 34.4167ZM29.5 56.6548L8.34655 36.3833H13.7667C14.3097 36.3833 14.75 35.943 14.75 35.4V1.96667H44.25V35.4C44.25 35.943 44.6903 36.3833 45.2333 36.3833H50.6535L29.5 56.6548Z" fill="#FFE165"/>
<path d="M53.1 34.4167H46.2167V0.983333C46.2167 0.440287 45.7764 0 45.2333 0H13.7667C13.2236 0 12.7833 0.440287 12.7833 0.983333V34.4167H5.90002C5.63193 34.4167 5.37541 34.5261 5.18993 34.7197C4.81417 35.1118 4.82744 35.7342 5.21955 36.11L28.8195 58.7266C29.0027 58.902 29.2464 59 29.5 59C29.7536 59 29.9975 58.902 30.1805 58.7266L53.7805 36.11C53.9741 35.9245 54.0835 35.668 54.0835 35.3999C54.0834 34.8568 53.6431 34.4167 53.1 34.4167ZM29.5 56.6548L8.34655 36.3833H13.7667C14.3097 36.3833 14.75 35.943 14.75 35.4V1.96667H44.25V35.4C44.25 35.943 44.6903 36.3833 45.2333 36.3833H50.6535L29.5 56.6548Z" fill="#FFE165"/>
<path d="M18.6833 3.93311H16.7167V5.89977H18.6833V3.93311Z" fill="#FFE165"/>
<path d="M22.6166 3.93311H20.65V5.89977H22.6166V3.93311Z" fill="#FFE165"/>
<path d="M26.55 3.93311H24.5833V5.89977H26.55V3.93311Z" fill="#FFE165"/>
<path d="M30.4833 3.93311H28.5167V5.89977H30.4833V3.93311Z" fill="#FFE165"/>
<path d="M34.4167 3.93311H32.45V5.89977H34.4167V3.93311Z" fill="#FFE165"/>
<path d="M38.35 3.93311H36.3834V5.89977H38.35V3.93311Z" fill="#FFE165"/>
<path d="M42.2833 3.93311H40.3167V5.89977H42.2833V3.93311Z" fill="#FFE165"/>
<path d="M31.1719 35.7031H25.4219V41H23.5156V35.7031H20.3281V34.0625H23.5156V31.7344H20.3281V30.1094H23.5156V18.25H31.2656C33.6615 18.25 35.5312 18.8594 36.875 20.0781C38.2292 21.2865 38.9062 22.9323 38.9062 25.0156C38.9062 27.1406 38.25 28.7917 36.9375 29.9688C35.625 31.1354 33.75 31.724 31.3125 31.7344H25.4219V34.0625H31.1719V35.7031ZM25.4219 30.1094H31.2656C33.0781 30.1094 34.4844 29.6719 35.4844 28.7969C36.4844 27.9115 36.9844 26.6615 36.9844 25.0469C36.9844 23.4844 36.4948 22.2448 35.5156 21.3281C34.5469 20.4115 33.2083 19.9323 31.5 19.8906H25.4219V30.1094Z" fill="#FFE165"/>
</svg>
