<svg width="95" height="99" viewBox="0 0 95 99" fill="none" xmlns="http://www.w3.org/2000/svg">
<ellipse cx="47.5" cy="49.5" rx="47.5" ry="49.5" fill="#FDBF00"/>
<circle cx="47.5" cy="47.5" r="47.5" fill="#FFE165"/>
<g clip-path="url(#clip0)">
<path d="M57.5093 39.818C57.088 39.818 56.7461 40.1583 56.7461 40.5794C56.7461 41.0001 57.088 41.3411 57.5093 41.3411C57.9315 41.3411 58.2725 41.0001 58.2725 40.5794C58.2725 40.1583 57.9315 39.818 57.5093 39.818Z" fill="black"/>
<path d="M43.6421 53.6577C43.22 53.6577 42.8789 53.999 42.8789 54.4195C42.8789 54.8408 43.22 55.1812 43.6421 55.1812C44.0634 55.1812 44.4054 54.8408 44.4054 54.4195C44.4054 53.999 44.0634 53.6577 43.6421 53.6577Z" fill="black"/>
<path d="M69.1649 32.6861C68.9073 32.6263 68.6366 32.7039 68.4506 32.8914L65.2866 36.0742H63.7697L62.0999 34.3476V32.8125L65.2186 29.6535C65.4031 29.4666 65.4783 29.1979 65.4172 28.9423C65.3563 28.687 65.1679 28.4811 64.9187 28.3972C64.1352 28.1336 63.3153 28 62.4815 28C59.9957 28 57.7374 29.1569 56.2855 31.1739C54.9266 33.0622 54.5077 35.3762 55.1079 37.5908L49.4861 43.2016L40.12 33.8325V31.9937C40.12 31.7262 39.9793 31.478 39.7495 31.3406L34.353 28.1086C34.0525 27.9286 33.6682 27.9759 33.4208 28.2232L31.2623 30.3771C31.0149 30.6244 30.9675 31.0079 31.1476 31.3078L34.3852 36.6937C34.523 36.9231 34.7713 37.0633 35.0393 37.0636L36.8812 37.0642L46.2481 46.4333L40.6477 52.0227C38.4288 51.4241 36.109 51.8427 34.2162 53.1998C32.1964 54.648 31.0381 56.9013 31.0381 59.3822C31.0381 60.2142 31.172 61.0327 31.4361 61.8144C31.5205 62.0646 31.7289 62.2536 31.9865 62.3131C32.2444 62.3729 32.5148 62.2952 32.7011 62.1078L35.8649 58.9252H37.3901L39.1279 60.6596V62.1818L35.9391 65.3394C35.7513 65.5254 35.6735 65.7953 35.7334 66.0526C35.793 66.3097 35.9823 66.5177 36.233 66.6019C37.0162 66.8655 37.8364 66.9991 38.6699 66.9991C41.1557 66.9991 43.4132 65.8429 44.8645 63.827C46.2242 61.9379 46.6437 59.6229 46.0439 57.4083L50.5417 52.9192L51.5721 54.0362L51.0992 54.5078C50.8011 54.8054 50.8011 55.2877 51.0992 55.5852C51.3974 55.8825 51.8803 55.8825 52.1788 55.5852L52.6069 55.158L62.274 65.6381C62.2811 65.6459 62.2886 65.6533 62.296 65.6608C64.0848 67.446 66.9829 67.4466 68.7726 65.6605C70.5572 63.8785 70.5572 60.9789 68.7726 59.1969C68.7648 59.1891 68.7568 59.1817 68.7487 59.1742L58.2317 49.5444L58.655 49.1219C58.9531 48.8247 58.9531 48.3424 58.655 48.0448C58.3569 47.7473 57.8739 47.7473 57.5755 48.0448L57.1059 48.5137L55.9847 47.4866L60.5043 42.9758C61.1468 43.1472 61.8098 43.2341 62.4815 43.2341C66.6899 43.2341 70.1133 39.8171 70.1133 35.6172C70.1133 34.785 69.9794 33.9667 69.7153 33.1847C69.6309 32.9345 69.4225 32.7456 69.1649 32.6861ZM37.738 35.7645C37.5949 35.6214 37.4008 35.5485 37.1981 35.5485L35.4719 35.5479L32.7631 31.0341L34.0788 29.721L38.5936 32.4251V34.1479C38.5936 34.3496 38.6738 34.543 38.8166 34.6859L48.4068 44.2791L47.3273 45.3562L37.738 35.7645ZM56.0255 49.5918L52.6522 52.9579L51.6218 51.8409L54.9042 48.5646L56.0255 49.5918Z" fill="white"/>
<path d="M69.1649 32.6861C68.9073 32.6262 68.6366 32.7039 68.4506 32.8914L65.2866 36.0742H63.7697L62.0999 34.3476V32.8125L65.2186 29.6535C65.4031 29.4666 65.4783 29.1979 65.4172 28.9423C65.3563 28.687 65.1679 28.4811 64.9187 28.3972C64.1352 28.1336 63.3153 28 62.4815 28C59.9957 28 57.7374 29.1569 56.2855 31.1739C54.9266 33.0622 54.5077 35.3762 55.1079 37.5908L49.4861 43.2016L40.12 33.8325V31.9937C40.12 31.7262 39.9793 31.478 39.7495 31.3406L34.353 28.1086C34.0525 27.9286 33.6682 27.9759 33.4208 28.2232L31.2623 30.3771C31.0149 30.6244 30.9675 31.0079 31.1476 31.3078L34.3852 36.6937C34.523 36.9231 34.7713 37.0633 35.0393 37.0636L36.8812 37.0642L46.2481 46.4333L40.6477 52.0227C38.4288 51.4241 36.109 51.8427 34.2162 53.1998C32.1964 54.648 31.0381 56.9013 31.0381 59.3822C31.0381 60.2142 31.172 61.0327 31.4361 61.8144C31.5205 62.0646 31.7289 62.2536 31.9865 62.3131C32.2444 62.3729 32.5148 62.2952 32.7011 62.1078L35.8649 58.9252H37.3901L39.1279 60.6596V62.1818L35.9391 65.3394C35.7513 65.5254 35.6735 65.7953 35.7334 66.0526C35.793 66.3097 35.9823 66.5177 36.233 66.6019C37.0162 66.8655 37.8364 66.9991 38.6699 66.9991C41.1557 66.9991 43.4132 65.8429 44.8645 63.827C46.2242 61.9379 46.6437 59.6229 46.0439 57.4083L50.5417 52.9192L51.5721 54.0362L51.0992 54.5078C50.8011 54.8054 50.8011 55.2877 51.0992 55.5852C51.3974 55.8825 51.8803 55.8825 52.1788 55.5852L52.6069 55.158L62.274 65.6381C62.2811 65.6459 62.2886 65.6533 62.296 65.6608C64.0848 67.446 66.9829 67.4466 68.7726 65.6605C70.5572 63.8785 70.5572 60.9789 68.7726 59.1969C68.7648 59.1891 68.7568 59.1817 68.7487 59.1742L58.2317 49.5444L58.655 49.1219C58.9531 48.8247 58.9531 48.3424 58.655 48.0448C58.3569 47.7473 57.8739 47.7473 57.5755 48.0448L57.1059 48.5137L55.9847 47.4866L60.5043 42.9758C61.1468 43.1472 61.8098 43.2341 62.4815 43.2341C66.6899 43.2341 70.1133 39.8171 70.1133 35.6172C70.1133 34.7849 69.9794 33.9667 69.7153 33.1847C69.6309 32.9345 69.4225 32.7456 69.1649 32.6861ZM37.738 35.7645C37.5949 35.6214 37.4008 35.5485 37.1981 35.5485L35.4719 35.5479L32.7631 31.0341L34.0788 29.721L38.5936 32.4251V34.1479C38.5936 34.3496 38.6738 34.543 38.8166 34.6859L48.4068 44.2791L47.3273 45.3562L37.738 35.7645ZM57.1512 50.6228L67.7041 60.285C68.8829 61.474 68.8793 63.3991 67.6931 64.5836C66.5041 65.7703 64.5794 65.7738 63.3857 64.5941L53.687 54.0797L57.1512 50.6228ZM56.0255 49.5918L52.6522 52.9579L51.6218 51.8409L54.9042 48.5646L56.0255 49.5918ZM62.4815 41.7106C61.814 41.7106 61.1575 41.6038 60.5308 41.3932C60.2563 41.3012 59.9528 41.372 59.7476 41.5765C55.9215 45.3952 47.677 53.6232 44.6412 56.6534C44.4361 56.8581 44.3648 57.161 44.4575 57.4354C45.0919 59.3156 44.7884 61.321 43.6245 62.9382C42.4639 64.5506 40.6579 65.4757 38.6699 65.4757C38.4466 65.4757 38.2245 65.4635 38.0045 65.44L40.4286 63.0394C40.5729 62.8966 40.6543 62.702 40.6543 62.4987V60.3439C40.6543 60.1419 40.5738 59.9482 40.4307 59.8053L38.2457 57.6246C38.1026 57.4818 37.9085 57.4015 37.7061 57.4015H35.547C35.3434 57.4015 35.1484 57.4827 35.005 57.6267L32.6 60.0461C32.5762 59.8265 32.5643 59.6048 32.5643 59.3819C32.5643 57.3976 33.4909 55.5954 35.1067 54.437C36.7267 53.2754 38.7364 52.9722 40.6206 53.6057C40.8952 53.6982 41.1987 53.6271 41.4038 53.4224C41.4458 53.3807 56.4995 38.3561 56.5103 38.3454C56.7154 38.1407 56.7863 37.8381 56.6939 37.5637C56.0592 35.6835 56.3621 33.6787 57.5251 32.0627C58.6866 30.4488 60.493 29.5234 62.4812 29.5234C62.7113 29.5234 62.94 29.5362 63.1666 29.5612L60.7929 31.9657C60.6522 32.1082 60.5735 32.3001 60.5735 32.5001V34.6549C60.5735 34.8525 60.6501 35.042 60.7875 35.184L62.8962 37.3647C63.0399 37.5135 63.2381 37.5974 63.4453 37.5974H65.6044C65.8077 37.5974 66.0027 37.5164 66.1461 37.3721L68.5511 34.9531C68.5749 35.1727 68.5869 35.3943 68.5869 35.6172C68.5869 38.9771 65.8479 41.7106 62.4815 41.7106Z" fill="black"/>
<path d="M54.8112 42.1951L45.2607 51.727C44.9629 52.0242 44.9629 52.5065 45.2607 52.8041C45.5588 53.1016 46.0421 53.1016 46.3402 52.8041L55.8908 43.2722C56.1889 42.9749 56.1889 42.4926 55.8908 42.1951C55.5926 41.8975 55.1094 41.8975 54.8112 42.1951Z" fill="black"/>
<path d="M64.4557 62.4297C64.7538 62.7264 65.2371 62.7264 65.5352 62.4279C65.8328 62.1301 65.8319 61.6478 65.5335 61.3508L58.6541 54.5069C58.3557 54.21 57.8721 54.2109 57.5749 54.5087C57.2771 54.8069 57.278 55.2889 57.5764 55.5858L64.4557 62.4297Z" fill="black"/>
</g>
<defs>
<clipPath id="clip0">
<rect x="31" y="28" width="39" height="39" fill="white"/>
</clipPath>
</defs>
</svg>
