<svg width="42" height="42" viewBox="0 0 42 42" fill="none" xmlns="http://www.w3.org/2000/svg">
<path d="M18.2903 31.1612V34.5484H4.74187V35.9033H37.2578V34.5484H23.7095V31.1612H39.9676C41.088 31.1612 41.9999 30.2494 41.9999 29.129V2.03229C41.9999 0.911871 41.0881 0 39.9676 0H2.03229C0.911871 0 0 0.911871 0 2.03229V29.129C0 30.2494 0.911871 31.1612 2.03229 31.1612H18.2903ZM22.3548 34.5483H19.6451V31.1611H22.3548V34.5483ZM1.35486 29.129V2.03229C1.35486 1.65901 1.65901 1.35486 2.03229 1.35486H39.9677C40.341 1.35486 40.6451 1.65901 40.6451 2.03229V29.129H40.645C40.645 29.503 40.3409 29.8064 39.9676 29.8064H2.03229C1.65901 29.8064 1.35486 29.503 1.35486 29.129Z" fill="black"/>
<path d="M39.2901 5.41895H2.70972V25.7414H39.2901V5.41895Z" fill="white"/>
<path d="M39.2901 5.41895H2.70972V25.7414H39.2901V5.41895ZM37.9353 24.3867H4.06444V6.77381H37.9353V24.3867Z" fill="black"/>
<path d="M23.0321 27.0967H18.9676V28.4515H23.0321V27.0967Z" fill="black"/>
<path d="M27.212 13.9414H16.8457L12.6609 17.3556H29.3051L27.212 13.9414ZM17.3527 15.9899L18.1902 15.3071H25.4022L25.8203 15.9899H17.3527Z" fill="black"/>
<path d="M10.1612 8.12891H6.09674V9.48377H10.1612V8.12891Z" fill="black"/>
<path d="M10.1612 10.8389H6.09674V12.1937H10.1612V10.8389Z" fill="black"/>
<path d="M7.4516 14.2256H6.09674V15.5804H7.4516V14.2256Z" fill="black"/>
<path d="M12.1935 21.6772H6.09674V23.0321H12.1935V21.6772Z" fill="black"/>
<path d="M35.9031 8.12891H31.1613V9.48377H35.9031V8.12891Z" fill="black"/>
<path d="M35.9031 10.8389H31.1613V12.1937H35.9031V10.8389Z" fill="black"/>
<path d="M35.9031 21.6772H31.1613V23.0321H35.9031V21.6772Z" fill="black"/>
<path d="M20.3225 21.6772H18.9676V23.0321H20.3225V21.6772Z" fill="black"/>
<path d="M23.0322 21.6772H21.6774V23.0321H23.0322V21.6772Z" fill="black"/>
<path d="M7.4516 16.9355H6.09674V18.2904H7.4516V16.9355Z" fill="black"/>
<path d="M37.258 36.5806C34.6432 36.5806 32.5161 38.7083 32.5161 41.3224V41.9999H42V41.3224C41.9999 38.7083 39.8728 36.5806 37.258 36.5806ZM33.9393 40.645C34.2536 39.1012 35.6226 37.9353 37.258 37.9353C38.8932 37.9353 40.2623 39.1011 40.5767 40.645H33.9393Z" fill="black"/>
<path d="M0.677429 38.6125H2.70972V40.6448H0.677429V41.9997H31.1613V37.2578H0.677429V38.6125ZM27.7741 38.6124H29.8064V40.6447H27.7741V38.6124ZM24.3871 38.6125H26.4194V40.6448H24.3871V38.6125ZM20.9999 38.6124H23.0322V40.6447H20.9999V38.6124ZM17.6129 38.6124H19.6452V40.6447H19.6451H17.6129V38.6124ZM14.2258 38.6124H16.2581V40.6447H14.2258V38.6124ZM10.8386 38.6124H12.8709V40.6447H10.8386V38.6124ZM7.4516 38.6124H9.48389V40.6447H7.4516V38.6124ZM4.06444 38.6125H6.09673V40.6448H4.06444V38.6125Z" fill="black"/>
<path d="M20.3225 2.70996H18.9676V4.06482H20.3225V2.70996Z" fill="black"/>
<path d="M23.0322 2.70996H21.6774V4.06482H23.0322V2.70996Z" fill="black"/>
</svg>
