<svg width="45" height="46" viewBox="0 0 45 46" fill="none" xmlns="http://www.w3.org/2000/svg">
<path d="M35.5832 27.9162C34.6606 26.9556 33.5477 26.442 32.3683 26.442C31.1984 26.442 30.0761 26.9461 29.1154 27.9067L26.1098 30.9028C25.8625 30.7697 25.6152 30.646 25.3775 30.5224C25.0351 30.3512 24.7117 30.1895 24.4358 30.0183C21.6205 28.2301 19.0619 25.8998 16.608 22.8847C15.419 21.3819 14.6201 20.1169 14.0399 18.8329C14.8198 18.1195 15.5427 17.3776 16.2465 16.6643C16.5129 16.398 16.7792 16.1221 17.0455 15.8558C19.0429 13.8584 19.0429 11.2713 17.0455 9.27393L14.4489 6.67732C14.154 6.38246 13.8497 6.0781 13.5643 5.77374C12.9936 5.18403 12.3944 4.5753 11.7762 4.00462C10.8536 3.09153 9.75026 2.60645 8.58987 2.60645C7.42948 2.60645 6.30714 3.09153 5.356 4.00462C5.34649 4.01413 5.34649 4.01413 5.33698 4.02364L2.10311 7.28605C0.885651 8.5035 0.19132 9.98728 0.0391379 11.7088C-0.189135 14.4862 0.628844 17.0733 1.25659 18.7663C2.79744 22.9228 5.09919 26.7749 8.5328 30.9028C12.6988 35.8773 17.7113 39.8055 23.4371 42.5733C25.6248 43.61 28.5448 44.837 31.8072 45.0462C32.0069 45.0557 32.2161 45.0653 32.4064 45.0653C34.6035 45.0653 36.4487 44.2758 37.8944 42.7064C37.904 42.6874 37.923 42.6779 37.9325 42.6589C38.4271 42.0597 38.9978 41.5175 39.597 40.9373C40.006 40.5474 40.4245 40.1384 40.8335 39.7104C41.7751 38.7307 42.2697 37.5893 42.2697 36.4194C42.2697 35.24 41.7656 34.1081 40.8049 33.157L35.5832 27.9162Z" fill="white"/>
<path d="M35.5832 27.9162C34.6606 26.9556 33.5477 26.442 32.3683 26.442C31.1984 26.442 30.0761 26.9461 29.1154 27.9067L26.1098 30.9028C25.8625 30.7697 25.6152 30.646 25.3775 30.5224C25.0351 30.3512 24.7117 30.1895 24.4358 30.0183C21.6205 28.2301 19.0619 25.8998 16.608 22.8847C15.419 21.3819 14.6201 20.1169 14.0399 18.8329C14.8198 18.1195 15.5427 17.3776 16.2465 16.6643C16.5129 16.398 16.7792 16.1221 17.0455 15.8558C19.0429 13.8584 19.0429 11.2713 17.0455 9.27393L14.4489 6.67732C14.154 6.38246 13.8497 6.0781 13.5643 5.77374C12.9936 5.18403 12.3944 4.5753 11.7762 4.00462C10.8536 3.09153 9.75026 2.60645 8.58987 2.60645C7.42948 2.60645 6.30714 3.09153 5.356 4.00462C5.34649 4.01413 5.34649 4.01413 5.33698 4.02364L2.10311 7.28605C0.885651 8.5035 0.19132 9.98728 0.0391379 11.7088C-0.189135 14.4862 0.628844 17.0733 1.25659 18.7663C2.79744 22.9228 5.09919 26.7749 8.5328 30.9028C12.6988 35.8773 17.7113 39.8055 23.4371 42.5733C25.6248 43.61 28.5448 44.837 31.8072 45.0462C32.0069 45.0557 32.2161 45.0653 32.4064 45.0653C34.6035 45.0653 36.4487 44.2758 37.8944 42.7064C37.904 42.6874 37.923 42.6779 37.9325 42.6589C38.4271 42.0597 38.9978 41.5175 39.597 40.9373C40.006 40.5474 40.4245 40.1384 40.8335 39.7104C41.7751 38.7307 42.2697 37.5893 42.2697 36.4194C42.2697 35.24 41.7656 34.1081 40.8049 33.157L35.5832 27.9162ZM38.9883 37.9317C38.9787 37.9317 38.9787 37.9412 38.9883 37.9317C38.6173 38.3312 38.2369 38.6926 37.8279 39.0921C37.2096 39.6818 36.5819 40.3001 35.9922 40.9944C35.0315 42.0216 33.8997 42.5067 32.4159 42.5067C32.2732 42.5067 32.121 42.5067 31.9784 42.4972C29.1535 42.3165 26.5283 41.2132 24.5595 40.2715C19.176 37.6654 14.4489 33.9655 10.5207 29.2764C7.2773 25.3672 5.10871 21.7529 3.67249 17.8722C2.78793 15.5039 2.46454 13.6587 2.60721 11.9181C2.70233 10.8053 3.13034 9.88265 3.91978 9.09321L7.16316 5.84983C7.62922 5.4123 8.12381 5.17452 8.60889 5.17452C9.20811 5.17452 9.69319 5.53595 9.99756 5.84032C10.0071 5.84983 10.0166 5.85934 10.0261 5.86885C10.6063 6.411 11.1579 6.97217 11.7381 7.57139C12.033 7.87575 12.3374 8.18012 12.6417 8.49399L15.2383 11.0906C16.2465 12.0988 16.2465 13.0309 15.2383 14.0391C14.9625 14.315 14.6962 14.5908 14.4203 14.8571C13.6214 15.6751 12.8605 16.436 12.033 17.1779C12.014 17.1969 11.9949 17.2064 11.9854 17.2254C11.1675 18.0434 11.3196 18.8424 11.4908 19.3845C11.5004 19.4131 11.5099 19.4416 11.5194 19.4701C12.1947 21.1061 13.1458 22.6469 14.5916 24.4826L14.6011 24.4921C17.2262 27.726 19.994 30.2465 23.0472 32.1773C23.4371 32.4246 23.8366 32.6244 24.2171 32.8146C24.5595 32.9858 24.8829 33.1475 25.1587 33.3187C25.1967 33.3377 25.2348 33.3663 25.2728 33.3853C25.5962 33.547 25.9006 33.6231 26.2145 33.6231C27.0039 33.6231 27.4985 33.1285 27.6602 32.9668L30.9131 29.7139C31.2365 29.3905 31.7501 29.0005 32.3493 29.0005C32.939 29.0005 33.4241 29.3715 33.7189 29.6949C33.7285 29.7044 33.7285 29.7044 33.738 29.7139L38.9787 34.9547C39.9584 35.9248 39.9584 36.9235 38.9883 37.9317Z" fill="#292F33"/>
<path d="M24.3217 10.7201C26.8137 11.1386 29.0774 12.318 30.8846 14.1251C32.6917 15.9323 33.8616 18.196 34.2896 20.688C34.3942 21.3158 34.9364 21.7533 35.5546 21.7533C35.6307 21.7533 35.6973 21.7438 35.7734 21.7343C36.4772 21.6201 36.9433 20.9543 36.8292 20.2505C36.3156 17.2354 34.8888 14.4866 32.7107 12.3085C30.5326 10.1304 27.7838 8.70366 24.7687 8.19004C24.0649 8.07591 23.4086 8.54196 23.285 9.23629C23.1613 9.93063 23.6179 10.6059 24.3217 10.7201Z" fill="#292F33"/>
<path d="M44.9804 19.8793C44.1339 14.9144 41.7941 10.3965 38.1988 6.80119C34.6035 3.20589 30.0856 0.866089 25.1207 0.0195758C24.4263 -0.104072 23.77 0.371497 23.6464 1.06583C23.5323 1.76967 23.9983 2.42596 24.7022 2.5496C29.1345 3.301 33.1768 5.40302 36.3916 8.60836C39.6065 11.8232 41.699 15.8655 42.4504 20.2978C42.555 20.9256 43.0972 21.3631 43.7154 21.3631C43.7915 21.3631 43.8581 21.3536 43.9342 21.3441C44.6285 21.2395 45.1041 20.5737 44.9804 19.8793Z" fill="#292F33"/>
</svg>
