<svg width="57" height="57" viewBox="0 0 57 57" fill="none" xmlns="http://www.w3.org/2000/svg">
<path d="M54.7164 12.2246C54.7164 12.0276 54.6726 11.8306 54.5851 11.6446C54.41 11.2725 54.0707 11.0207 53.6986 10.9441L31.4054 0.13133C31.0443 -0.0437765 30.6174 -0.0437765 30.2563 0.13133L7.7442 11.0426C7.30644 11.2506 7.02189 11.6883 7 12.1808V12.1918C7 12.2027 7 12.2136 7 12.2355V39.6177C7 40.1212 7.28455 40.5808 7.7442 40.7997L30.2563 51.711C30.2672 51.711 30.2672 51.711 30.2782 51.722C30.311 51.7329 30.3438 51.7438 30.3767 51.7657C30.3876 51.7657 30.3985 51.7767 30.4204 51.7767C30.4533 51.7876 30.4861 51.7986 30.5189 51.8095C30.5299 51.8095 30.5408 51.8205 30.5518 51.8205C30.5846 51.8314 30.6284 51.8314 30.6612 51.8423C30.6721 51.8423 30.6831 51.8423 30.694 51.8423C30.7378 51.8423 30.7925 51.8533 30.8363 51.8533C30.8801 51.8533 30.9348 51.8533 30.9786 51.8423C30.9895 51.8423 31.0005 51.8423 31.0114 51.8423C31.0443 51.8423 31.088 51.8314 31.1209 51.8205C31.1318 51.8205 31.1427 51.8095 31.1537 51.8095C31.1865 51.7986 31.2194 51.7876 31.2522 51.7767C31.2631 51.7767 31.2741 51.7657 31.296 51.7657C31.3288 51.7548 31.3616 51.7438 31.3945 51.722C31.4054 51.722 31.4054 51.722 31.4163 51.711L53.9941 40.7669C54.4428 40.548 54.7383 40.0883 54.7383 39.5849V12.2574C54.7164 12.2465 54.7164 12.2355 54.7164 12.2246ZM30.8254 2.76886L50.3497 12.2355L43.1594 15.7267L23.6351 6.26004L30.8254 2.76886ZM30.8254 21.7022L11.301 12.2355L20.6254 7.71561L40.1498 17.1823L30.8254 21.7022ZM9.62659 14.3478L29.5121 23.9895V48.4278L9.62659 38.786V14.3478ZM32.1387 48.4278V23.9895L41.474 19.4587V25.85C41.474 26.5723 42.065 27.1633 42.7873 27.1633C43.5096 27.1633 44.1006 26.5723 44.1006 25.85V18.1782L52.0898 14.304V38.7422L32.1387 48.4278Z" fill="#FFE165"/>
</svg>
