<svg width="53" height="53" viewBox="0 0 53 53" fill="none" xmlns="http://www.w3.org/2000/svg">
<g clip-path="url(#clip0)">
<path d="M16.1483 38.3013C15.5769 38.3013 15.1132 38.765 15.1132 39.3364C15.1132 39.9078 15.5769 40.3716 16.1483 40.3716C16.7198 40.3716 17.1835 39.9078 17.1835 39.3364C17.1835 38.765 16.7198 38.3013 16.1483 38.3013Z" fill="black"/>
<path d="M46.5966 19.6688L52.6967 13.5688C52.9533 13.3122 53.0567 12.9399 52.9695 12.5878C52.8822 12.2355 52.6168 11.9548 52.27 11.8477L37.4155 7.26301C36.0765 2.95873 32.0965 0.000976562 27.5349 0.000976562C23.2945 0.000976562 19.5021 2.58524 17.9325 6.48364L0.72672 11.8487C0.380874 11.9565 0.116496 12.2375 0.029853 12.5893C-0.0567895 12.9411 0.0467261 13.3127 0.302927 13.5689L6.56345 19.8294L2.61495 26.4104C2.45336 26.6796 2.42282 27.0077 2.53172 27.3022C2.64062 27.5967 2.87736 27.8258 3.17528 27.925L8.90207 29.8339V45.7548C8.90207 46.1862 9.16976 46.5724 9.57378 46.724C13.0754 48.037 26.0858 52.9165 26.1556 52.9412C26.361 53.0136 26.5924 53.0234 26.8179 52.9505C26.8209 52.9494 26.824 52.9488 26.827 52.9478L45.4598 46.7368C45.8825 46.5959 46.1677 46.2003 46.1677 45.7548V29.4076L52.2749 27.4884C52.6202 27.3799 52.8838 27.099 52.97 26.7474C53.0561 26.3959 52.9525 26.0249 52.6966 25.7689L46.5966 19.6688ZM19.7015 7.65823C20.8507 4.31654 23.9987 2.07129 27.5349 2.07129C31.3443 2.07129 34.6484 4.648 35.5695 8.3373C35.7332 8.99286 35.8161 9.67089 35.8161 10.3525C35.8161 12.2752 35.178 14.0773 33.9706 15.5648C32.3892 17.5152 30.0435 18.6338 27.5349 18.6338C24.8232 18.6338 22.2797 17.3028 20.7305 15.0724C19.7644 13.6847 19.2536 12.0525 19.2536 10.3525C19.2536 9.42804 19.4042 8.52155 19.7015 7.65823ZM2.97736 13.3155L17.2936 8.85146C17.2217 9.34606 17.1833 9.84707 17.1833 10.3524C17.1833 12.0191 17.5781 13.6335 18.3307 15.09L8.14651 18.4845L2.97736 13.3155ZM5.05419 26.369L8.32735 20.9135L24.9481 26.4538L21.6751 31.9093C19.9003 31.3177 6.94914 27.0005 5.05419 26.369ZM25.4646 50.4721L10.9724 45.0375V30.524C22.3746 34.3046 21.8178 34.1892 22.1353 34.1892C22.4912 34.1892 22.832 34.005 23.0231 33.6865L25.4646 29.6172V50.4721ZM26.4997 24.7887L11.1405 19.6691L19.5039 16.8814C21.4614 19.2878 24.4082 20.7041 27.5349 20.7041C30.4273 20.7041 33.1457 19.5138 35.101 17.4165L41.8589 19.6689L26.4997 24.7887Z" fill="white"/>
<path d="M46.5966 19.6688L52.6967 13.5688C52.9533 13.3122 53.0567 12.9399 52.9695 12.5878C52.8822 12.2355 52.6168 11.9548 52.27 11.8477L37.4155 7.26301C36.0765 2.95873 32.0965 0.000976562 27.5349 0.000976562C23.2945 0.000976562 19.5021 2.58524 17.9325 6.48364L0.72672 11.8487C0.380874 11.9565 0.116496 12.2375 0.029853 12.5893C-0.0567895 12.9411 0.0467261 13.3127 0.302927 13.5689L6.56345 19.8294L2.61495 26.4104C2.45336 26.6796 2.42282 27.0077 2.53172 27.3022C2.64062 27.5967 2.87736 27.8258 3.17528 27.925L8.90207 29.8339V45.7548C8.90207 46.1862 9.16976 46.5724 9.57378 46.724C13.0754 48.037 26.0858 52.9165 26.1556 52.9412C26.361 53.0136 26.5924 53.0234 26.8179 52.9505C26.8209 52.9494 26.824 52.9488 26.827 52.9478L45.4598 46.7368C45.8825 46.5959 46.1677 46.2003 46.1677 45.7548V29.4076L52.2749 27.4884C52.6202 27.3799 52.8838 27.099 52.97 26.7474C53.0561 26.3959 52.9525 26.0249 52.6966 25.7689L46.5966 19.6688ZM37.8864 10.3525C37.8864 10.0895 37.8754 9.82709 37.8556 9.56551L50.018 13.3195L44.8529 18.4845L36.4135 15.6717C37.3692 14.0743 37.8864 12.2311 37.8864 10.3525ZM19.7015 7.65823C20.8507 4.31654 23.9987 2.07129 27.5349 2.07129C31.3443 2.07129 34.6484 4.648 35.5695 8.3373C35.7332 8.99286 35.8161 9.67089 35.8161 10.3525C35.8161 12.2752 35.178 14.0773 33.9706 15.5648C32.3892 17.5152 30.0435 18.6338 27.5349 18.6338C24.8232 18.6338 22.2797 17.3028 20.7305 15.0724C19.7644 13.6847 19.2536 12.0525 19.2536 10.3525C19.2536 9.42804 19.4042 8.52155 19.7015 7.65823ZM2.97736 13.3155L17.2936 8.85146C17.2217 9.34606 17.1833 9.84707 17.1833 10.3524C17.1833 12.0191 17.5781 13.6335 18.3307 15.09L8.14651 18.4845L2.97736 13.3155ZM5.05419 26.369L8.32735 20.9135L24.9481 26.4538L21.6751 31.9093C19.9003 31.3177 6.94914 27.0005 5.05419 26.369ZM25.4646 50.4721L10.9724 45.0375V30.524C22.3746 34.3046 21.8178 34.1892 22.1353 34.1892C22.4912 34.1892 22.832 34.005 23.0231 33.6865L25.4646 29.6172V50.4721ZM26.4997 24.7887L11.1405 19.6691L19.5039 16.8814C21.4614 19.2878 24.4082 20.7041 27.5349 20.7041C30.4273 20.7041 33.1457 19.5138 35.101 17.4165L41.8589 19.6689L26.4997 24.7887ZM44.0974 45.0087L27.5349 50.5295V28.8306L31.2046 33.4174C31.4716 33.751 31.916 33.8862 32.3233 33.7582L44.0974 30.0583V45.0087ZM32.3786 31.5709L28.2355 26.3924L44.8529 20.8533L50.025 26.0253L32.3786 31.5709Z" fill="black"/>
<path d="M22.7228 40.5984L20.4206 39.7351C19.8854 39.5345 19.2887 39.8056 19.0879 40.3409C18.8872 40.8762 19.1584 41.4729 19.6937 41.6736L21.9958 42.5369C22.5323 42.738 23.1282 42.4655 23.3286 41.9312C23.5293 41.3959 23.2581 40.7991 22.7228 40.5984Z" fill="black"/>
<path d="M22.7227 45.0208L16.5118 42.6917C15.9765 42.491 15.3798 42.7622 15.179 43.2974C14.9782 43.8327 15.2495 44.4295 15.7848 44.6302L21.9957 46.9593C22.1155 47.0042 22.2383 47.0256 22.3591 47.0256C22.7782 47.0256 23.1726 46.7692 23.3285 46.3535C23.5293 45.8182 23.2581 45.2215 22.7227 45.0208Z" fill="black"/>
<path d="M33.4429 6.51415C33.0387 6.10982 32.3832 6.10992 31.9789 6.51415L26.4999 11.9932L25.1616 10.6549C24.7573 10.2506 24.1019 10.2506 23.6975 10.6549C23.2932 11.0591 23.2933 11.7146 23.6975 12.1189L25.7679 14.1891C26.1722 14.5933 26.8276 14.5933 27.232 14.1891L33.4429 7.97817C33.8471 7.57394 33.8471 6.91848 33.4429 6.51415Z" fill="black"/>
</g>
<defs>
<clipPath id="clip0">
<rect width="53" height="53" fill="white"/>
</clipPath>
</defs>
</svg>
