<svg width="95" height="99" viewBox="0 0 95 99" fill="none" xmlns="http://www.w3.org/2000/svg">
<ellipse cx="47.5" cy="49.5" rx="47.5" ry="49.5" fill="#FDBF00"/>
<circle cx="47.5" cy="47.5" r="47.5" fill="#FFE165"/>
<g clip-path="url(#clip0)">
<path d="M32.5499 60.4998C31.473 60.4998 30.6 61.3728 30.6 62.4498C30.6 63.5267 31.473 64.3997 32.5499 64.3997C33.6269 64.3997 34.4999 63.5267 34.4999 62.4498C34.4999 61.3728 33.6269 60.4998 32.5499 60.4998ZM32.5499 63.0997C32.191 63.0997 31.8999 62.8087 31.8999 62.4498C31.8999 62.0908 32.191 61.7998 32.5499 61.7998C32.9089 61.7998 33.1999 62.0908 33.1999 62.4498C33.1999 62.8087 32.9089 63.0997 32.5499 63.0997Z" fill="black"/>
<path d="M66.5523 55.5254C65.9849 54.5792 64.9625 54.0004 63.8592 54.0004H63.7221C63.2068 54.0007 62.6995 54.1274 62.2447 54.3695L57.2495 57.0338V48.1504H59.5245C61.4989 48.1504 63.0994 46.5499 63.0994 44.5755C63.0994 42.6011 61.4989 41.0006 59.5245 41.0006H45.5497C43.7548 41.0006 42.2998 39.5455 42.2998 37.7506C42.2998 35.9558 43.7548 34.5007 45.5497 34.5007H47.8247L51.5296 39.4406C51.6524 39.6042 51.845 39.7006 52.0496 39.7006H66.3494C66.7083 39.7006 66.9993 39.4096 66.9993 39.0506V28.6508C66.9993 28.2918 66.7083 28.0008 66.3494 28.0008H52.0496C51.845 28.0008 51.6524 28.0971 51.5296 28.2608L47.8247 33.2007H45.5497C43.0368 33.2007 40.9998 35.2378 40.9998 37.7506C40.9998 40.2635 43.0368 42.3005 45.5497 42.3005H59.5245C60.7809 42.3005 61.7994 43.3191 61.7994 44.5755C61.7994 45.8319 60.7809 46.8505 59.5245 46.8505H57.2495V44.2505C57.2495 43.8916 56.9585 43.6005 56.5995 43.6005H38.3998C38.0409 43.6005 37.7498 43.8916 37.7498 44.2505V54.0004C37.2459 54.1763 36.7574 54.3938 36.2893 54.6503H28V55.9503H35.7999V65.7002H28V67.0001H52.6294C53.2186 67.0001 53.7967 66.8399 54.3018 66.5367L65.4745 59.8334C66.9617 58.9413 67.4443 57.0126 66.5523 55.5254ZM52.0496 33.8507C52.0496 33.4917 52.3406 33.2007 52.6996 33.2007C53.0585 33.2007 53.3496 33.4917 53.3496 33.8507C53.3496 34.2096 53.0585 34.5007 52.6996 34.5007C52.3406 34.5007 52.0496 34.2096 52.0496 33.8507ZM46.1997 44.9005H48.7997V47.5005H46.1997V44.9005ZM39.0498 44.9005H44.8997V48.1504C44.8997 48.5094 45.1907 48.8004 45.5497 48.8004H49.4496C49.8086 48.8004 50.0996 48.5094 50.0996 48.1504V44.9005H55.9495V57.7267L54.8848 58.2942C55.2819 56.7284 54.3344 55.1371 52.7685 54.74C52.5335 54.6805 52.292 54.6503 52.0496 54.6503H45.7194C43.6838 53.5407 41.3224 53.1836 39.0498 53.6416V44.9005Z" fill="white"/>
<path d="M66.5523 55.5254C65.9849 54.5792 64.9625 54.0004 63.8592 54.0004H63.7221C63.2068 54.0007 62.6995 54.1274 62.2447 54.3695L57.2495 57.0338V48.1504H59.5245C61.4989 48.1504 63.0994 46.5499 63.0994 44.5755C63.0994 42.6011 61.4989 41.0006 59.5245 41.0006H45.5497C43.7548 41.0006 42.2998 39.5455 42.2998 37.7506C42.2998 35.9558 43.7548 34.5007 45.5497 34.5007H47.8247L51.5296 39.4406C51.6524 39.6042 51.845 39.7006 52.0496 39.7006H66.3494C66.7083 39.7006 66.9993 39.4096 66.9993 39.0506V28.6508C66.9993 28.2918 66.7083 28.0008 66.3494 28.0008H52.0496C51.845 28.0008 51.6524 28.0971 51.5296 28.2608L47.8247 33.2007H45.5497C43.0368 33.2007 40.9998 35.2378 40.9998 37.7506C40.9998 40.2635 43.0368 42.3005 45.5497 42.3005H59.5245C60.7809 42.3005 61.7994 43.3191 61.7994 44.5755C61.7994 45.8319 60.7809 46.8505 59.5245 46.8505H57.2495V44.2505C57.2495 43.8916 56.9585 43.6005 56.5995 43.6005H38.3998C38.0409 43.6005 37.7498 43.8916 37.7498 44.2505V54.0004C37.2459 54.1763 36.7574 54.3938 36.2893 54.6503H28V55.9503H35.7999V65.7002H28V67.0001H52.6294C53.2186 67.0001 53.7967 66.8399 54.3018 66.5367L65.4745 59.8334C66.9617 58.9413 67.4443 57.0126 66.5523 55.5254ZM53.3576 35.6891C54.373 35.3301 54.9051 34.216 54.546 33.2007C54.1871 32.1853 53.0729 31.6532 52.0576 32.0123C51.5023 32.2086 51.0655 32.6454 50.8692 33.2007H49.4496L52.3746 29.3008H65.6994V38.4006H52.3746L49.4496 34.5007H50.8692C51.2282 35.516 52.3423 36.0481 53.3576 35.6891ZM52.0496 33.8507C52.0496 33.4917 52.3406 33.2007 52.6996 33.2007C53.0585 33.2007 53.3496 33.4917 53.3496 33.8507C53.3496 34.2096 53.0585 34.5007 52.6996 34.5007C52.3406 34.5007 52.0496 34.2096 52.0496 33.8507ZM46.1997 44.9005H48.7997V47.5005H46.1997V44.9005ZM39.0498 44.9005H44.8997V48.1504C44.8997 48.5094 45.1908 48.8004 45.5497 48.8004H49.4496C49.8086 48.8004 50.0996 48.5094 50.0996 48.1504V44.9005H55.9495V57.7267L54.8848 58.2942C55.2819 56.7284 54.3344 55.1371 52.7685 54.74C52.5335 54.6805 52.292 54.6503 52.0496 54.6503H45.7194C43.6838 53.5407 41.3224 53.1836 39.0498 53.6416V44.9005ZM64.8056 58.7186L53.633 65.422C53.3298 65.604 52.983 65.7002 52.6294 65.7002H37.0998V55.6903C39.6654 54.3782 42.7189 54.4449 45.2247 55.8678C45.3239 55.9234 45.436 55.9519 45.5497 55.9503H52.0496C52.9471 55.9503 53.6746 56.6778 53.6746 57.5753C53.6746 58.4728 52.9471 59.2003 52.0496 59.2003H46.1997C45.8407 59.2003 45.5497 59.4913 45.5497 59.8503C45.5497 60.2092 45.8407 60.5002 46.1997 60.5002H53.3496C53.4563 60.5004 53.5615 60.4743 53.6557 60.4242L62.8563 55.5168C63.1229 55.3749 63.4202 55.3006 63.7221 55.3003H63.8592C64.8755 55.3002 65.6995 56.124 65.6995 57.1403C65.6995 57.7869 65.3602 58.3861 64.8056 58.7186Z" fill="black"/>
</g>
<defs>
<clipPath id="clip0">
<rect x="28" y="28" width="39" height="39" fill="white"/>
</clipPath>
</defs>
</svg>
