<svg width="95" height="99" viewBox="0 0 95 99" fill="none" xmlns="http://www.w3.org/2000/svg">
<ellipse cx="47.5" cy="49.5" rx="47.5" ry="49.5" fill="#FDBF00"/>
<circle cx="47.5" cy="47.5" r="47.5" fill="#FFE165"/>
<g clip-path="url(#clip0)">
<path d="M53.2849 49.6022L46.8964 45.4524L43.0743 30H63.4955L59.7279 45.4524L53.2849 49.6022ZM47.8247 44.7426L53.2849 48.2917L58.7451 44.7426L62.0758 31.092H44.4393L47.8247 44.7426Z" fill="#292F33"/>
<path fill-rule="evenodd" clip-rule="evenodd" d="M48.7529 33.6583C48.7849 33.9252 48.7836 34.1794 48.7529 34.4159C48.6546 35.1742 48.2551 35.7493 47.6887 35.9664C47.528 36.028 47.3539 36.0608 47.1695 36.0608L49.0259 46.2714L53.2303 49.0015L57.4347 46.2714L59.3457 36.0062C59.1564 36.0062 58.9779 35.9717 58.8137 35.9072C58.2541 35.6874 57.8598 35.1203 57.7623 34.3898C57.7316 34.1602 57.7303 33.9145 57.7623 33.6583H48.7529ZM49.6899 34.6139C49.6191 35.0848 49.4582 35.5242 49.2067 35.9015C48.9669 36.2612 48.6469 36.5569 48.2666 36.7532L49.8923 45.6947L53.2303 47.8622L56.5703 45.6934L58.2451 36.6974C57.8682 36.5029 57.5509 36.2117 57.3124 35.8596C57.0646 35.4938 56.9033 35.0685 56.8296 34.6139H49.6899Z" fill="#292F33"/>
<path d="M53.2849 47.0905C51.7014 47.0905 50.2818 45.9984 50.118 44.5788C49.8996 42.9407 51.3192 41.4118 53.2849 41.4118C55.2506 41.4118 56.6702 42.9407 56.4518 44.5788C56.288 45.9984 54.8684 47.0905 53.2849 47.0905Z" fill="#292F33"/>
<path d="M53.2849 38.4633C52.7389 38.4633 52.3021 37.9719 52.3021 37.3713C52.3021 36.7161 52.7389 36.17 53.2849 36.17C53.8309 36.17 54.3223 36.7161 54.2677 37.3713C54.2677 37.9719 53.7763 38.4633 53.2849 38.4633Z" fill="#292F33"/>
<path d="M39.7982 62.3245H31.1164V43.8689H39.7982V62.3245ZM32.2085 61.2324H38.7061V44.961H32.2085V61.2324Z" fill="#292F33"/>
<path d="M61.4752 49.3292C61.4752 49.3292 63.2225 48.5648 63.3317 46.7083C63.4409 44.9064 61.2568 43.6506 60.4378 43.7052C59.8918 43.7052 47.6609 43.4321 47.1695 43.4867L46.405 41.4119C45.2584 41.9579 44.3847 42.9953 44.0571 44.2512C43.8387 44.961 43.2927 45.5616 42.5283 45.7254C41.4908 45.9984 40.4534 46.1077 39.3613 46.1623H39.1975V60.6864C39.1975 60.6864 43.0743 60.8502 45.586 62.6521C48.0977 64.3994 54.4862 64.3994 54.4862 64.3994C54.4862 64.3994 56.9433 64.3994 57.4347 64.3448C57.9261 64.2902 59.0727 63.635 59.5096 62.6521C59.9464 61.6693 59.2365 59.922 58.6359 59.5398C58.6359 59.5398 60.82 59.8128 61.9121 57.7925C61.9121 57.7925 62.5673 55.6084 60.9838 54.6256C60.9838 54.6256 63.2771 54.0796 63.2225 52.0593C63.2225 50.039 61.4752 49.3292 61.4752 49.3292Z" fill="#FDF7DD"/>
<path d="M54.4861 64.9454C54.2131 64.9454 47.8793 64.9454 45.313 63.0343C42.9651 61.3417 39.2521 61.1779 39.2521 61.1779C38.9791 61.1779 38.7061 60.9048 38.7061 60.6318V46.1623C38.7061 45.8892 38.9245 45.6162 39.2521 45.6162H39.4159C40.4534 45.6162 41.4362 45.4524 42.4191 45.1794C42.9651 45.0702 43.4019 44.6334 43.5111 44.0874C43.8933 42.7223 44.8762 41.5211 46.132 40.9204C46.2958 40.8658 46.405 40.8658 46.5688 40.9204C46.7326 40.975 46.8418 41.0843 46.8964 41.2481L47.5517 42.9953C48.6983 42.9953 52.2475 43.0499 55.3598 43.1591C57.7623 43.2137 59.8372 43.2683 60.3286 43.2683H60.3832C61.1476 43.2683 62.2397 43.8144 62.9495 44.5788C63.6047 45.234 63.9323 46.0531 63.8777 46.8721C63.8231 48.1279 63.0587 48.947 62.4581 49.4384C63.0587 49.9298 63.7685 50.8034 63.7685 52.1685C63.7685 53.5882 62.8403 54.4618 61.9666 54.8986C62.9495 56.1545 62.4035 57.9017 62.4035 58.0109C62.4035 58.0655 62.4035 58.0655 62.3489 58.1201C61.639 59.4306 60.4924 59.922 59.6734 60.0858C60.1102 60.9594 60.3832 62.1061 60.001 62.9797C59.4549 64.1264 58.1991 64.8908 57.4893 65C56.9978 64.9454 54.7592 64.9454 54.4861 64.9454ZM39.7982 60.1404C40.9994 60.2496 43.8933 60.6864 45.9682 62.1607C48.2615 63.7988 54.4315 63.8534 54.4861 63.8534C55.4144 63.8534 56.9978 63.8534 57.3801 63.7988C57.7077 63.7442 58.6905 63.1981 59.0181 62.4337C59.3457 61.7239 58.7451 60.2496 58.3083 59.9766C58.0899 59.8128 58.0353 59.5944 58.0899 59.3214C58.1991 59.103 58.4175 58.9392 58.6905 58.9938C58.6905 58.9938 58.7997 58.9938 58.9089 58.9938C59.4003 58.9938 60.6562 58.83 61.4206 57.5741C61.4752 57.2465 61.8028 55.7722 60.7108 55.0624C60.547 54.9532 60.4378 54.7348 60.4378 54.5164C60.4924 54.298 60.6562 54.1342 60.8746 54.0796C60.9292 54.0796 62.7311 53.5882 62.7311 52.0593C62.6765 50.4758 61.366 49.8752 61.3114 49.8206C61.093 49.7114 60.9838 49.5476 60.9838 49.3292C60.9838 49.1108 61.093 48.8924 61.3114 48.8378C61.366 48.8378 62.7857 48.1279 62.8403 46.7083C62.8949 46.0531 62.5127 45.5616 62.2397 45.234C61.639 44.6334 60.8746 44.3058 60.547 44.3058H60.4378C59.9464 44.3058 57.8169 44.2512 55.4144 44.1966C52.2475 44.142 48.6983 44.0328 47.6063 44.0328C47.4425 44.0328 47.3879 44.0328 47.3333 44.0328C47.1149 44.0328 46.8418 43.9236 46.7872 43.7052L46.2412 42.2309C45.4768 42.7769 44.9308 43.5414 44.7124 44.415C44.4393 45.3432 43.7295 46.0531 42.8013 46.2715C41.873 46.4899 40.8902 46.6537 39.9074 46.7083V60.1404H39.7982Z" fill="#292F33"/>
<path d="M35.976 47.6911H34.884V48.7831H35.976V47.6911Z" fill="#292F33"/>
<path d="M35.976 52.2777H34.884V53.3697H35.976V52.2777Z" fill="#292F33"/>
<path d="M35.976 56.9189H34.884V58.0109H35.976V56.9189Z" fill="#292F33"/>
</g>
<defs>
<clipPath id="clip0">
<rect x="30" y="30" width="35" height="35" fill="white"/>
</clipPath>
</defs>
</svg>
