<svg width="48" height="48" viewBox="0 0 48 48" fill="none" xmlns="http://www.w3.org/2000/svg">
<path d="M39.2425 31.5654C38.0696 31.5654 36.9554 32.0247 36.1148 32.8555C35.2743 33.6961 34.8051 34.7908 34.8051 35.9637C34.8051 37.1365 35.2645 38.2312 36.1148 39.0718C36.9652 39.9026 38.0696 40.3619 39.2425 40.3619C41.6469 40.3619 43.6017 38.3876 43.6017 35.9637C43.6017 33.5397 41.6469 31.5654 39.2425 31.5654ZM40.3763 16.9142C40.2004 16.748 39.9658 16.6601 39.7214 16.6601H34.7074C34.1698 16.6601 33.73 17.0999 33.73 17.6374V25.6521C33.73 26.1897 34.1698 26.6295 34.7074 26.6295H42.6634C43.201 26.6295 43.6408 26.1897 43.6408 25.6521V20.2862C43.6408 20.0125 43.5235 19.7486 43.3183 19.5629L40.3763 16.9142ZM15.3745 31.5654C14.2016 31.5654 13.0874 32.0247 12.2468 32.8555C11.4062 33.6961 10.9371 34.7908 10.9371 35.9637C10.9371 37.1365 11.3965 38.2312 12.2468 39.0718C13.0971 39.9026 14.2016 40.3619 15.3745 40.3619C17.7789 40.3619 19.7337 38.3876 19.7337 35.9637C19.7337 33.5397 17.7789 31.5654 15.3745 31.5654ZM8.85522 32.7676H6.89065V30.1677C6.89065 29.6301 6.45082 29.1903 5.91326 29.1903C5.37569 29.1903 4.93586 29.6301 4.93586 30.1677V33.745C4.93586 34.2825 5.37569 34.7224 5.91326 34.7224H8.85522C9.39279 34.7224 9.83262 34.2825 9.83262 33.745C9.83262 33.2074 9.39279 32.7676 8.85522 32.7676ZM13.8106 27.4407C13.8106 26.9032 13.3708 26.4634 12.8332 26.4634H0.977398C0.439829 26.4634 0 26.9032 0 27.4407C0 27.9783 0.439829 28.4181 0.977398 28.4181H12.8332C13.3708 28.4181 13.8106 27.9881 13.8106 27.4407ZM2.96151 23.9123L14.8173 23.9808C15.3549 23.9808 15.7947 23.5507 15.8045 23.0131C15.8143 22.4658 15.3745 22.026 14.8369 22.026L2.98106 21.9575C2.97129 21.9575 2.97129 21.9575 2.97129 21.9575C2.43372 21.9575 1.99389 22.3876 1.99389 22.9252C1.98412 23.4725 2.42395 23.9123 2.96151 23.9123ZM4.95541 19.475H16.8112C17.3488 19.475 17.7886 19.0351 17.7886 18.4976C17.7886 17.96 17.3488 17.5202 16.8112 17.5202H4.95541C4.41784 17.5202 3.97801 17.96 3.97801 18.4976C3.97801 19.0351 4.41784 19.475 4.95541 19.475ZM47.6384 18.1555L40.6402 12.3595C40.4643 12.2129 40.2492 12.1347 40.0147 12.1347H31.785V8.61607C31.785 8.0785 31.3451 7.63867 30.8076 7.63867H5.91326C5.37569 7.63867 4.93586 8.0785 4.93586 8.61607V15.7706C4.93586 16.3082 5.37569 16.748 5.91326 16.748C6.45082 16.748 6.89065 16.3082 6.89065 15.7706V9.59347H29.8399V32.7676H21.8253C21.2877 32.7676 20.8479 33.2074 20.8479 33.745C20.8479 34.2825 21.2877 34.7224 21.8253 34.7224H33.7593C34.2969 34.7224 34.7367 34.2825 34.7367 33.745C34.7367 33.2074 34.2969 32.7676 33.7593 32.7676H31.7947V14.0895H39.6726L46.0452 19.3674L45.9768 32.748H44.9603C44.4227 32.748 43.9829 33.1878 43.9829 33.7254C43.9829 34.263 44.4227 34.7028 44.9603 34.7028H46.9444C47.482 34.7028 47.9218 34.2728 47.9218 33.7352L48 18.9178C47.9902 18.6246 47.8632 18.3412 47.6384 18.1555Z" fill="white"/>
<path d="M39.2425 31.5654C38.0696 31.5654 36.9554 32.0247 36.1148 32.8555C35.2743 33.6961 34.8051 34.7908 34.8051 35.9637C34.8051 37.1365 35.2645 38.2312 36.1148 39.0718C36.9652 39.9026 38.0696 40.3619 39.2425 40.3619C41.6469 40.3619 43.6017 38.3876 43.6017 35.9637C43.6017 33.5397 41.6469 31.5654 39.2425 31.5654ZM39.2425 38.4072C37.8937 38.4072 36.7599 37.2929 36.7599 35.9637C36.7599 34.6344 37.8937 33.5202 39.2425 33.5202C40.5718 33.5202 41.6469 34.6148 41.6469 35.9637C41.6469 37.3125 40.5718 38.4072 39.2425 38.4072ZM40.3763 16.9142C40.2004 16.748 39.9658 16.6601 39.7214 16.6601H34.7074C34.1698 16.6601 33.73 17.0999 33.73 17.6374V25.6521C33.73 26.1897 34.1698 26.6295 34.7074 26.6295H42.6634C43.201 26.6295 43.6408 26.1897 43.6408 25.6521V20.2862C43.6408 20.0125 43.5235 19.7486 43.3183 19.5629L40.3763 16.9142ZM41.686 24.6747H35.6848V18.6051H39.3403L41.686 20.7163V24.6747ZM15.3745 31.5654C14.2016 31.5654 13.0874 32.0247 12.2468 32.8555C11.4062 33.6961 10.9371 34.7908 10.9371 35.9637C10.9371 37.1365 11.3965 38.2312 12.2468 39.0718C13.0971 39.9026 14.2016 40.3619 15.3745 40.3619C17.7789 40.3619 19.7337 38.3876 19.7337 35.9637C19.7337 33.5397 17.7789 31.5654 15.3745 31.5654ZM15.3745 38.4072C14.0257 38.4072 12.8919 37.2929 12.8919 35.9637C12.8919 34.6344 14.0257 33.5202 15.3745 33.5202C16.7037 33.5202 17.7789 34.6148 17.7789 35.9637C17.7789 37.3125 16.7037 38.4072 15.3745 38.4072ZM8.85522 32.7676H6.89065V30.1677C6.89065 29.6301 6.45082 29.1903 5.91326 29.1903C5.37569 29.1903 4.93586 29.6301 4.93586 30.1677V33.745C4.93586 34.2825 5.37569 34.7224 5.91326 34.7224H8.85522C9.39279 34.7224 9.83262 34.2825 9.83262 33.745C9.83262 33.2074 9.39279 32.7676 8.85522 32.7676ZM13.8106 27.4407C13.8106 26.9032 13.3708 26.4634 12.8332 26.4634H0.977398C0.439829 26.4634 0 26.9032 0 27.4407C0 27.9783 0.439829 28.4181 0.977398 28.4181H12.8332C13.3708 28.4181 13.8106 27.9881 13.8106 27.4407ZM2.96151 23.9123L14.8173 23.9808C15.3549 23.9808 15.7947 23.5507 15.8045 23.0131C15.8143 22.4658 15.3745 22.026 14.8369 22.026L2.98106 21.9575C2.97129 21.9575 2.97129 21.9575 2.97129 21.9575C2.43372 21.9575 1.99389 22.3876 1.99389 22.9252C1.98412 23.4725 2.42395 23.9123 2.96151 23.9123ZM4.95541 19.475H16.8112C17.3488 19.475 17.7886 19.0351 17.7886 18.4976C17.7886 17.96 17.3488 17.5202 16.8112 17.5202H4.95541C4.41784 17.5202 3.97801 17.96 3.97801 18.4976C3.97801 19.0351 4.41784 19.475 4.95541 19.475ZM47.6384 18.1555L40.6402 12.3595C40.4643 12.2129 40.2492 12.1347 40.0147 12.1347H31.785V8.61607C31.785 8.0785 31.3451 7.63867 30.8076 7.63867H5.91326C5.37569 7.63867 4.93586 8.0785 4.93586 8.61607V15.7706C4.93586 16.3082 5.37569 16.748 5.91326 16.748C6.45082 16.748 6.89065 16.3082 6.89065 15.7706V9.59347H29.8399V32.7676H21.8253C21.2877 32.7676 20.8479 33.2074 20.8479 33.745C20.8479 34.2825 21.2877 34.7224 21.8253 34.7224H33.7593C34.2969 34.7224 34.7367 34.2825 34.7367 33.745C34.7367 33.2074 34.2969 32.7676 33.7593 32.7676H31.7947V14.0895H39.6726L46.0452 19.3674L45.9768 32.748H44.9603C44.4227 32.748 43.9829 33.1878 43.9829 33.7254C43.9829 34.263 44.4227 34.7028 44.9603 34.7028H46.9444C47.482 34.7028 47.9218 34.2728 47.9218 33.7352L48 18.9178C47.9902 18.6246 47.8632 18.3412 47.6384 18.1555Z" fill="black"/>
</svg>
