<svg width="19" height="19" viewBox="0 0 19 19" fill="none" xmlns="http://www.w3.org/2000/svg">
<g clip-path="url(#clip0)">
<path d="M14.4451 12.5689C13.8243 11.9561 13.0494 11.9561 12.4326 12.5689C11.9621 13.0354 11.4916 13.502 11.0291 13.9764C10.9025 14.1069 10.7958 14.1346 10.6416 14.0476C10.3372 13.8815 10.013 13.7471 9.72038 13.5652C8.35635 12.7073 7.21372 11.6042 6.20157 10.3627C5.69945 9.74593 5.25268 9.08566 4.94033 8.34236C4.87707 8.19212 4.88894 8.09327 5.0115 7.97071C5.48199 7.51603 5.94063 7.04949 6.40321 6.58295C7.04767 5.93454 7.04767 5.17543 6.39926 4.52307C6.03156 4.15142 5.66386 3.78767 5.29617 3.41602C4.91661 3.03647 4.54101 2.65296 4.1575 2.27735C3.53676 1.67243 2.76183 1.67244 2.14505 2.28131C1.67061 2.74785 1.21593 3.22625 0.733575 3.68488C0.286805 4.10792 0.0614429 4.62586 0.0139982 5.23078C-0.0611225 6.21526 0.180054 7.14438 0.520074 8.04978C1.21593 9.92384 2.27553 11.5884 3.56049 13.1145C5.29617 15.1783 7.36792 16.8112 9.79155 17.9894C10.8828 18.5192 12.0135 18.9265 13.2431 18.9937C14.0892 19.0411 14.8246 18.8276 15.4137 18.1673C15.817 17.7166 16.2717 17.3054 16.6987 16.8745C17.3313 16.234 17.3352 15.459 16.7066 14.8265C15.9554 14.0713 15.2002 13.3201 14.4451 12.5689Z" fill="#999999"/>
<path d="M13.6899 9.41778L15.1488 9.1687C14.9195 7.82839 14.2869 6.6146 13.3262 5.64989C12.3101 4.63378 11.0251 3.99328 9.60968 3.79559L9.40408 5.26242C10.4993 5.41662 11.4956 5.91083 12.2824 6.69762C13.0257 7.44092 13.512 8.38191 13.6899 9.41778Z" fill="#999999"/>
<path d="M15.9712 3.07599C14.2869 1.39171 12.1559 0.328159 9.80342 0L9.59782 1.46683C11.63 1.7515 13.4725 2.67272 14.9274 4.12373C16.3073 5.50358 17.2127 7.24717 17.5408 9.16472L18.9998 8.91564C18.6163 6.69365 17.5685 4.67725 15.9712 3.07599Z" fill="#999999"/>
</g>
<defs>
<clipPath id="clip0">
<rect width="19" height="19" fill="white"/>
</clipPath>
</defs>
</svg>
