<svg width="99" height="22" viewBox="0 0 99 22" fill="none" xmlns="http://www.w3.org/2000/svg">
<path d="M0.930145 1.06299H9.63926C11.8437 1.06299 13.5271 1.72581 14.6862 3.05203C15.6872 4.19704 16.1893 5.67319 16.1893 7.47688C16.1893 9.29607 15.6886 10.7783 14.6889 11.9252C13.5303 13.2495 11.8492 13.9143 9.64719 13.9143H5.09767V21.1078H0.930145V1.06299ZM5.09767 10.4942H8.27533C9.44867 10.4942 10.3212 10.2978 10.8935 9.90633C11.5875 9.433 11.9348 8.62659 11.9348 7.48711C11.9348 6.30973 11.5695 5.49309 10.8399 5.03553C10.2816 4.68005 9.42652 4.5019 8.27533 4.5019H5.09767V10.4942Z" fill="#004A93"/>
<path d="M20.2108 14.8191C20.2108 17.2375 21.3712 18.4462 23.6895 18.4462C24.3127 18.4462 24.9216 18.2829 25.5158 17.9612C26.1756 17.6016 26.5852 17.1487 26.752 16.596H30.2945C29.2067 19.8244 26.9582 21.4394 23.5509 21.4394C21.3177 21.4394 19.5313 20.7439 18.1974 19.3458C16.8608 17.9482 16.1936 16.121 16.1936 13.8617C16.1936 11.6253 16.8354 9.79369 18.1165 8.36789C19.4971 6.82618 21.3103 6.05518 23.5509 6.05518C25.8264 6.05518 27.5945 6.92521 28.8553 8.66472C29.9797 10.2103 30.5419 12.2613 30.5419 14.8194H20.2108V14.8191ZM26.5152 12.305C26.1425 10.2582 25.1185 9.23571 23.4434 9.23571C22.3693 9.23571 21.5247 9.61138 20.9083 10.3636C20.4424 10.9351 20.211 11.5824 20.211 12.305H26.5152Z" fill="#004A93"/>
<path d="M32.3756 6.37383H36.0045V8.83979H36.0474C36.6925 7.73545 37.3435 7.00263 38.0028 6.64355C38.6347 6.29664 39.597 6.11184 40.8925 6.09082C41.1493 6.09082 41.4178 6.13841 41.6967 6.23108V9.9043C41.3535 9.81771 40.9089 9.77345 40.3656 9.77345C37.5882 9.77345 36.1962 11.3821 36.1962 14.5983V21.1054H32.3754V6.37383H32.3756Z" fill="#004A93"/>
<path d="M57.3001 21.116C57.1139 21.0936 56.634 21.0842 55.8654 21.0842C55.0951 21.0842 54.0295 21.0914 52.6748 21.1066L48.2284 14.3915L46.9843 15.6394V21.1069H43.2556V1.06104H46.9843V11.5009L51.8966 6.30889H56.517L51.0927 11.8068L57.3001 21.116Z" fill="#004A93"/>
<path d="M58.1976 2.85915C58.1976 2.24363 58.4084 1.72327 58.8298 1.29531C59.2522 0.867344 59.7655 0.654053 60.3725 0.654053C60.9798 0.654053 61.4947 0.867344 61.9139 1.29531C62.3364 1.72327 62.5458 2.2439 62.5458 2.85915C62.5458 3.47578 62.3364 3.99586 61.9139 4.41995C61.495 4.84376 60.9798 5.05512 60.3725 5.05512C59.7655 5.05512 59.2522 4.84376 58.8298 4.41995C58.4084 3.99586 58.1976 3.47578 58.1976 2.85915ZM58.3603 21.1066H62.3107V6.31355H58.3603V21.1066Z" fill="#004A93"/>
<path d="M64.3117 6.31914H68.016V8.71954H68.1131C68.6769 7.76818 69.287 7.1095 69.938 6.74572C70.7198 6.30973 71.4953 6.09174 72.2702 6.09174C74.3437 6.09174 75.7878 6.63893 76.607 7.73304C77.3004 8.65398 77.6485 10.1578 77.6485 12.2456V21.1066H73.7435V12.9889C73.7435 11.9327 73.6076 11.136 73.3347 10.5996C72.9464 9.82472 72.1786 9.43687 71.0282 9.43687C69.938 9.43687 69.159 9.87092 68.6911 10.7404C68.3559 11.3496 68.1872 12.2904 68.1872 13.5665V21.1066H64.3114V6.31914H64.3117Z" fill="#004A93"/>
<path d="M82.8904 16.3689C82.8904 17.0644 83.2418 17.6777 83.9426 18.2061C84.4643 18.603 85.1534 18.8011 86.0044 18.8011C87.8176 18.8011 88.721 18.1875 88.721 16.9568C88.721 16.3058 87.9904 15.7603 86.5313 15.3188C86.0506 15.1741 85.2751 14.9788 84.2002 14.7331C83.0619 14.4725 82.2878 14.2518 81.882 14.0703C80.3633 13.3911 79.6039 12.3302 79.6039 10.8892C79.6039 7.81271 81.6766 6.2757 85.8217 6.2757C90.0387 6.2757 92.1461 7.79694 92.1461 10.8383H88.5288C88.5288 9.55001 87.5931 8.90405 85.7246 8.90405C84.3219 8.90405 83.6205 9.35027 83.6205 10.2386C83.6205 11.0132 84.3629 11.5717 85.8425 11.9103C86.9516 12.1485 87.7123 12.3078 88.1192 12.3883C88.9143 12.5623 89.6223 12.7906 90.246 13.0736C91.7425 13.7671 92.4901 14.877 92.4901 16.4049C92.4901 18.2061 91.8175 19.5339 90.4721 20.3874C89.3685 21.0895 87.8761 21.4389 85.9943 21.4389C84.0815 21.4389 82.5494 21.0842 81.3972 20.3766C79.9944 19.5112 79.2933 18.1748 79.2933 16.3689H82.8904Z" fill="#004A93"/>
<path d="M96.0101 6.3136C96.3823 6.3136 96.749 6.41153 97.1085 6.60629C97.4654 6.80049 97.7451 7.07878 97.9458 7.44284C98.1449 7.80635 98.2439 8.18451 98.2439 8.57789C98.2439 8.96851 98.1468 9.34308 97.9486 9.70244C97.752 10.0626 97.4782 10.3409 97.1208 10.5407C96.7676 10.7396 96.3957 10.8392 96.0104 10.8392C95.621 10.8392 95.251 10.7396 94.8964 10.5407C94.5415 10.3406 94.265 10.0623 94.0684 9.70244C93.8696 9.3428 93.772 8.96851 93.772 8.57789C93.772 8.18451 93.871 7.80662 94.0725 7.44284C94.2732 7.07878 94.5519 6.80049 94.9112 6.60629C95.2666 6.41181 95.6341 6.3136 96.0101 6.3136ZM96.0101 6.68457C95.6929 6.68457 95.3872 6.76674 95.0908 6.92996C94.7908 7.09373 94.5601 7.3261 94.3894 7.6293C94.2215 7.9325 94.1392 8.24925 94.1392 8.57789C94.1392 8.90488 94.2202 9.21721 94.3862 9.51653C94.5513 9.81558 94.7824 10.0493 95.0807 10.2164C95.3752 10.3844 95.6845 10.4682 96.0101 10.4682C96.3322 10.4682 96.642 10.3844 96.9387 10.2164C97.2357 10.0493 97.4654 9.81558 97.6314 9.51653C97.7965 9.21721 97.8766 8.90488 97.8766 8.57789C97.8766 8.24925 97.7951 7.9325 97.6251 7.6293C97.4591 7.32583 97.2256 7.09345 96.927 6.92996C96.6281 6.76674 96.3235 6.68457 96.0101 6.68457ZM95.0298 9.83163V7.39222H95.8562C96.1378 7.39222 96.3413 7.41546 96.467 7.46082C96.5928 7.50453 96.694 7.58311 96.7689 7.69653C96.8433 7.80884 96.8808 7.92807 96.8808 8.05533C96.8808 8.23293 96.8184 8.39061 96.6926 8.52119C96.5669 8.65453 96.4003 8.72839 96.1928 8.74416C96.277 8.77929 96.3473 8.8241 96.3981 8.87362C96.4933 8.96906 96.6131 9.12952 96.7528 9.35498L97.0473 9.83219H96.5748L96.3607 9.44821C96.1928 9.1464 96.0569 8.95745 95.9557 8.88165C95.8835 8.82605 95.7772 8.79755 95.6421 8.79755H95.4138V9.83191H95.0298V9.83163ZM95.414 8.46143H95.8893C96.1168 8.46143 96.2726 8.42768 96.3558 8.35908C96.4381 8.28936 96.4802 8.19807 96.4802 8.08575C96.4802 8.01245 96.4602 7.94771 96.4206 7.89017C96.379 7.8318 96.3246 7.79003 96.254 7.76126C96.1821 7.73414 96.0525 7.71865 95.8605 7.71865H95.414V8.46143Z" fill="#004A93"/>
</svg>
