<svg width="30" height="30" viewBox="0 0 30 30" fill="none" xmlns="http://www.w3.org/2000/svg">
<circle cx="15" cy="15" r="15" fill="#7AD06D"/>
<g clip-path="url(#clip0)">
<path d="M14.9204 5.26084C9.96852 5.49662 6.06081 9.62056 6.07583 14.578C6.08041 16.0879 6.44493 17.5131 7.08796 18.7724L6.10068 23.5648C6.04727 23.824 6.28108 24.051 6.5386 23.99L11.2346 22.8774C12.4411 23.4784 13.7962 23.8255 15.2304 23.8474C20.2916 23.9247 24.5119 19.9059 24.6696 14.8465C24.8387 9.42321 20.3627 5.00166 14.9204 5.26084ZM20.5237 19.6979C19.1484 21.0732 17.3199 21.8306 15.375 21.8306C14.2362 21.8306 13.1459 21.5751 12.1343 21.0712L11.4804 20.7454L8.60124 21.4275L9.20728 18.4856L8.88509 17.8547C8.35995 16.8262 8.09368 15.7141 8.09368 14.5492C8.09368 12.6043 8.85106 10.7758 10.2263 9.40052C11.5893 8.03755 13.4476 7.26784 15.3752 7.26784C17.32 7.26788 19.1485 8.02526 20.5237 9.40048C21.899 10.7757 22.6564 12.6042 22.6564 14.5491C22.6564 16.4767 21.8867 18.335 20.5237 19.6979Z" fill="white"/>
<path d="M19.8881 16.5655L18.0868 16.0483C17.85 15.9803 17.595 16.0475 17.4225 16.2233L16.982 16.6721C16.7962 16.8613 16.5144 16.9222 16.2686 16.8227C15.4165 16.4779 13.6241 14.8842 13.1663 14.087C13.0343 13.8571 13.0561 13.5696 13.2183 13.3598L13.6028 12.8623C13.7535 12.6673 13.7853 12.4055 13.6856 12.1802L12.9278 10.4662C12.7463 10.0557 12.2217 9.93618 11.879 10.226C11.3762 10.6512 10.7797 11.2974 10.7072 12.0132C10.5794 13.2752 11.1206 14.8661 13.1674 16.7764C15.5319 18.9833 17.4254 19.2748 18.6582 18.9762C19.3575 18.8068 19.9163 18.1278 20.269 17.5719C20.5094 17.1928 20.3196 16.6894 19.8881 16.5655Z" fill="white"/>
</g>
<defs>
<clipPath id="clip0">
<rect x="6" y="5.25" width="18.75" height="18.75" fill="white"/>
</clipPath>
</defs>
</svg>
