<svg width="48" height="64" viewBox="0 0 48 64" fill="none" xmlns="http://www.w3.org/2000/svg">
<path fill-rule="evenodd" clip-rule="evenodd" d="M23.7419 0C36.8342 0 47.4839 10.6507 47.4839 23.7419C47.4839 35.4239 38.9995 45.1562 27.871 47.1174V49.5484H28.9032C29.4743 49.5484 29.9355 50.0111 29.9355 50.5806V53.6774H30.9677C31.5388 53.6774 32 54.1401 32 54.7097V58.8387C32 59.4083 31.5388 59.871 30.9677 59.871H29.9355V62.9677C29.9355 63.5373 29.4743 64 28.9032 64H18.5806C18.0096 64 17.5484 63.5373 17.5484 62.9677V59.871H16.5161C15.9451 59.871 15.4839 59.4083 15.4839 58.8387V54.7097C15.4839 54.1401 15.9451 53.6774 16.5161 53.6774H17.5484V50.5806C17.5484 50.0111 18.0096 49.5484 18.5806 49.5484H19.6129V47.1174C8.48438 45.1562 0 35.4239 0 23.7419C0 10.6507 10.6497 0 23.7419 0ZM23.7419 2.06452C11.7893 2.06452 2.06452 11.7883 2.06452 23.7419C2.06452 35.6956 11.7893 45.4194 23.7419 45.4194C35.6946 45.4194 45.4194 35.6956 45.4194 23.7419C45.4194 11.7883 35.6946 2.06452 23.7419 2.06452ZM19.6129 59.871V61.9355H27.871V59.871H19.6129ZM17.5484 55.7419V57.8064H29.9355V55.7419H17.5484ZM19.6129 51.6129V53.6774H27.871V51.6129H19.6129ZM21.6774 47.3891V49.5484H25.8064V47.3891C25.125 47.4476 24.4375 47.4839 23.7419 47.4839C23.0464 47.4839 22.3589 47.4476 21.6774 47.3891ZM23.7419 4.12891C34.5569 4.12891 43.3548 12.9268 43.3548 23.7418C43.3548 34.5568 34.5569 43.3547 23.7419 43.3547C12.9269 43.3547 4.12903 34.5568 4.12903 23.7418C4.12903 12.9268 12.9269 4.12891 23.7419 4.12891ZM14.1492 34.7942L12.1033 36.8401C15.2051 39.5982 19.2742 41.2902 23.7419 41.2902C28.2097 41.2902 32.2787 39.5982 35.3785 36.8401L33.3327 34.7942L34.7923 33.3346L36.8382 35.3804C37.9335 34.1501 38.8543 32.767 39.5716 31.264L36.6986 29.827L37.6225 27.9802L40.3563 29.3472C40.8463 27.8976 41.1446 26.3648 41.2379 24.7751H38.1935V22.7106H41.2389C41.1457 21.1208 40.8473 19.5881 40.3574 18.1385L37.624 19.5054L36.7001 17.6586L39.5726 16.2216C38.8553 14.7186 37.9345 13.3366 36.8392 12.1052L34.7933 14.1511L33.3337 12.6914L35.3795 10.6455C34.1492 9.55028 32.7661 8.62941 31.2631 7.91217L29.8261 10.7852L27.9793 9.86127L29.3463 7.12739C27.8967 6.63748 26.3639 6.33909 24.7742 6.24584V9.2902H22.7097V6.24584C21.12 6.33909 19.5872 6.63748 18.1386 7.12639L19.5055 9.85975L17.6588 10.7836L16.2218 7.91116C14.7187 8.6284 13.3367 9.54927 12.1053 10.6445L14.1512 12.6904L12.6915 14.1501L10.6457 12.1042C9.5504 13.3346 8.62953 14.7176 7.91229 16.2206L10.7853 17.6576L9.86139 19.5044L7.12751 18.1375C6.63759 19.5871 6.33921 21.1198 6.24596 22.7096H9.29032V24.7741H6.24596C6.33921 26.3638 6.63759 27.8965 7.1255 29.3472L9.85886 27.9802L10.7828 29.827L7.91028 31.264C8.62751 32.767 9.54838 34.1491 10.6436 35.3804L12.6895 33.3346L14.1492 34.7942ZM31.4531 14.6086L23.3891 19.6495C21.2787 19.8319 19.6129 21.587 19.6129 23.7422C19.6129 26.0194 21.4647 27.8712 23.7419 27.8712C25.8982 27.8712 27.6532 26.2039 27.8357 24.094L32.8755 16.031C33.1305 15.6232 33.0696 15.094 32.7298 14.7543C32.3891 14.4146 31.8609 14.3546 31.4531 14.6086ZM23.7419 25.8067C22.6033 25.8067 21.6774 24.8808 21.6774 23.7422C21.6774 22.6036 22.6033 21.6777 23.7419 21.6777C24.8805 21.6777 25.8065 22.6036 25.8065 23.7422C25.8065 24.8808 24.8805 25.8067 23.7419 25.8067ZM27.1069 21.3647C26.8357 20.9821 26.502 20.6484 26.1195 20.3773L28.7545 18.7296L27.1069 21.3647ZM16.5161 30.9678C16.5161 30.3982 16.9773 29.9355 17.5484 29.9355H29.9355C30.5066 29.9355 30.9677 30.3982 30.9677 30.9678V35.0968C30.9677 35.6664 30.5066 36.1291 29.9355 36.1291H17.5484C16.9773 36.1291 16.5161 35.6664 16.5161 35.0968V30.9678ZM18.5806 32.0001V34.0646H28.9032V32.0001H18.5806Z" fill="#FFE165"/>
</svg>
