<svg width="96" height="56" viewBox="0 0 96 56" fill="none" xmlns="http://www.w3.org/2000/svg">
<path fill-rule="evenodd" clip-rule="evenodd" d="M48.1536 9.06023C51.5436 9.06023 54.9075 8.64638 58.1589 7.82245L58.5691 7.71898L58.8763 8.0068C61.2001 10.1698 62.8153 12.9905 63.5081 16.0956L63.5999 16.5076L63.3021 16.8161C58.603 21.6886 55.1817 27.6566 53.3454 34.1846L53.2312 34.5984L52.8191 34.7226C51.3079 35.1877 49.736 35.4235 48.1554 35.4223C46.5803 35.4223 45.007 35.1816 43.4768 34.7L43.0779 34.574L42.9655 34.1733C41.1143 27.6491 37.6848 21.6862 32.9826 16.8161L32.6867 16.5076L32.7785 16.0938C33.4862 12.9787 35.1159 10.1516 37.4534 7.98422L37.7605 7.69641L38.1726 7.79987C41.4352 8.62787 44.7865 9.05114 48.1517 9.06023" fill="#112C5C"/>
<path fill-rule="evenodd" clip-rule="evenodd" d="M34.5578 19.6002C34.5522 17.806 34.9011 16.0286 35.5843 14.3708C36.2675 12.713 37.2714 11.2078 38.5378 9.94246C39.796 8.67116 41.2927 7.66311 42.9413 6.97663C44.5899 6.29016 46.3577 5.9389 48.1424 5.94318C49.9289 5.93782 51.6987 6.28854 53.3493 6.97504C54.9999 7.66153 56.4984 8.67015 57.7582 9.94246C59.025 11.2077 60.0292 12.7128 60.7127 14.3706C61.3962 16.0283 61.7454 17.8059 61.7401 19.6002C61.7401 27.1153 55.638 33.2459 48.1424 33.2459C46.3577 33.2503 44.5898 32.8991 42.9412 32.2126C41.2926 31.5261 39.7959 30.518 38.5378 29.2466C37.2723 27.9829 36.2689 26.4796 35.5857 24.8238C34.9026 23.168 34.5532 21.3925 34.5578 19.6002Z" fill="#112C5C"/>
<path d="M38.1033 9.03205C37.0991 9.99568 36.2364 11.0978 35.5411 12.3052C34.8514 13.5023 34.3366 14.7928 34.0127 16.1371C36.3628 18.6009 38.4096 21.3394 40.1092 24.2936C41.7962 27.2271 43.1214 30.3558 44.0555 33.6109C44.6792 33.7933 45.3254 33.9401 45.9903 34.0435C46.6945 34.1526 47.4175 34.211 48.1536 34.211C48.9046 34.211 49.637 34.1545 50.3487 34.0492C50.9885 33.9537 51.6211 33.8148 52.2423 33.6335C53.1781 30.3682 54.5045 27.229 56.1923 24.2842C57.8857 21.3331 59.927 18.5977 62.272 16.1371C61.6227 13.4374 60.2191 10.9802 58.2264 9.05462C54.9299 9.86801 51.5481 10.2804 48.1536 10.283C46.3818 10.283 44.6362 10.1645 42.9149 9.94064C41.2947 9.72887 39.6876 9.42553 38.1014 9.03205H38.1033ZM34.7975 11.8726C35.5767 10.5181 36.5543 9.29541 37.6875 8.24198L37.8579 8.0802L38.0827 8.13663C39.7047 8.54672 41.351 8.86839 43.0217 9.08472C44.7234 9.30634 46.4376 9.41756 48.1536 9.41768C51.5574 9.41885 54.9483 8.99677 58.2488 8.16109L58.4736 8.10465L58.644 8.26267C60.9089 10.3821 62.4836 13.1392 63.1616 16.1728L63.2141 16.3986L63.053 16.566C60.6893 19.0208 58.636 21.7591 56.9396 24.7188C55.2476 27.6686 53.9265 30.8178 53.0064 34.0943L52.9427 34.3201L52.718 34.3897C51.9875 34.6154 51.2383 34.7885 50.4742 34.9032C49.7175 35.0161 48.9421 35.0744 48.1536 35.0744C47.3763 35.0744 46.6103 35.0123 45.863 34.8976C45.0893 34.7774 44.3256 34.6001 43.5779 34.3671L43.3551 34.2975L43.2914 34.0718C42.3737 30.8043 41.0543 27.6643 39.3638 24.7244C37.6606 21.7632 35.6018 19.0232 33.2336 16.566L33.0725 16.3986L33.1231 16.1728C33.4609 14.6624 34.0255 13.2124 34.7975 11.8726Z" fill="#DEDDDE"/>
<path d="M34.9024 19.6003C34.9024 15.9245 36.3839 12.5987 38.7794 10.1908C40.0074 8.95293 41.467 7.97111 43.0741 7.30187C44.6813 6.63262 46.4044 6.28917 48.1442 6.29127C51.804 6.29127 55.1173 7.77924 57.5146 10.1871C58.7471 11.4219 59.7244 12.8893 60.3904 14.5047C61.0564 16.1201 61.3979 17.8518 61.3954 19.6003C61.397 21.3475 61.0546 23.0778 60.388 24.6917C59.7213 26.3055 58.7436 27.7711 57.5109 29.004C56.2815 30.2406 54.821 31.2212 53.2133 31.8894C51.6056 32.5576 49.8823 32.9004 48.1424 32.898C46.4036 32.9001 44.6815 32.5572 43.075 31.889C41.4686 31.2207 40.0094 30.2403 38.7813 29.004C37.5501 27.7704 36.5737 26.3046 35.9084 24.6907C35.243 23.0769 34.9018 21.347 34.9043 19.6003H34.9024ZM39.39 10.7985C38.2381 11.9537 37.3247 13.3261 36.7025 14.8369C36.0802 16.3478 35.7612 17.9672 35.764 19.6021C35.764 23.0333 37.15 26.1409 39.39 28.3908C40.5382 29.5468 41.9024 30.4637 43.4044 31.0887C44.9064 31.7137 46.5166 32.0345 48.1424 32.0326C51.5661 32.0326 54.664 30.6406 56.9078 28.3927C58.0594 27.2395 58.9726 25.869 59.5949 24.3601C60.2172 22.8511 60.5363 21.2335 60.5339 19.6003C60.5339 16.1634 59.1479 13.0502 56.9059 10.8003C55.7564 9.64266 54.3904 8.72461 52.8865 8.09896C51.3825 7.47331 49.7702 7.15241 48.1424 7.15471C44.7242 7.15471 41.6282 8.54674 39.39 10.7985Z" fill="#DEDDDE"/>
<path d="M43.6435 18.9418C44.0705 18.8591 44.4957 18.8854 44.874 19.0246C45.243 19.16 45.567 19.4008 45.7993 19.7413L46.009 20.2342L45.5221 20.0536C44.7954 19.6585 44.0649 19.8786 43.3494 20.0912C42.4354 20.364 41.542 20.6311 40.6074 19.8391C40.4162 19.691 40.2569 19.5054 40.1392 19.2936C40.0364 19.1172 39.9463 18.9336 39.8695 18.7443L39.5679 18.0182L40.1954 18.4885C40.1991 18.4904 41.4952 19.4911 43.6304 18.9437L43.6435 18.9418Z" fill="#DEDDDE"/>
<path fill-rule="evenodd" clip-rule="evenodd" d="M47.8576 15.3602C46.9455 15.3602 46.1008 15.5333 45.7712 16.0036C45.7712 16.0036 45.4059 16.3459 45.3366 16.6432C45.3366 16.6432 42.9992 15.0517 42.2687 18.5111C42.2687 18.5111 43.6828 17.4916 44.4919 18.1575C44.4919 18.1575 44.904 18.7406 45.6569 18.9363C46.6833 19.2109 46.569 19.4178 46.614 19.6342C46.614 19.6342 46.4773 19.9539 45.5876 20.5183C44.7092 21.0902 44.2072 20.8155 43.3963 20.5521C43.3963 20.5521 43.3401 21.7542 44.9508 21.7316C44.9508 21.7316 45.213 21.7542 45.5314 21.7203C45.5314 21.7203 43.6023 22.533 44.3327 24.527C44.3327 24.527 44.9939 23.7237 45.7243 23.5413C45.7243 23.5413 43.6379 25.9247 46.3986 28.2497C46.3986 28.2497 46.3986 26.1184 47.1853 25.4657C47.1853 25.4657 47.6179 27.1624 47.4812 28.0898C47.4812 28.0898 47.4475 28.9025 47.1965 29.3276C47.1965 29.3276 50.4704 29.258 49.5339 25.3058C49.5339 25.3058 50.845 25.7535 50.5734 27.5518C50.5734 27.5518 53.5159 26.0733 51.5773 23.0371C51.5773 23.0371 52.6824 23.0371 53.0251 24.3671C53.0251 24.3671 54.5984 21.9254 51.9988 19.6003C51.9988 19.6003 52.9802 19.3595 53.5159 20.174C53.5159 20.174 53.4466 18.3174 51.701 17.4125C51.302 17.1943 51.9295 16.5529 51.7703 16.1973L47.8576 15.3602Z" fill="#CE0F3E"/>
<path fill-rule="evenodd" clip-rule="evenodd" d="M49.8899 16.7822C49.8899 16.7822 50.9481 15.4297 52.5344 15.6141C52.5344 15.6141 52.0906 17.6081 50.3431 17.973L49.8899 16.7822Z" fill="#CE0F3E"/>
<path fill-rule="evenodd" clip-rule="evenodd" d="M50.4011 16.9761C50.4011 16.9761 51.0061 16.3817 51.7365 16.2556C51.7365 16.2556 51.3713 17.1153 50.5378 17.2865L50.4011 16.9761ZM47.277 18.9005C47.0822 18.7632 46.8313 18.7067 46.6252 18.8102C47.2527 18.8328 47.3557 19.7263 48.0412 19.5438C48.1628 19.5087 48.2779 19.4541 48.3821 19.3821C47.9382 19.5664 47.573 19.1544 47.277 18.9005ZM50.845 21.4588C50.7886 21.1435 50.6583 20.8463 50.4648 20.5916C50.24 20.3095 49.9273 20.127 49.5227 19.9784C49.6126 20.3734 49.7212 20.7684 49.7231 21.1748C49.7353 21.5182 49.6503 21.8581 49.4778 22.1548C49.3682 22.3292 49.2242 22.479 49.0545 22.595C49.1968 22.2188 49.2043 21.8971 49.1594 21.6413C49.0751 21.1654 48.8035 20.9152 48.4963 20.586C48.4832 20.8794 48.4888 21.1804 48.4139 21.4663C48.3514 21.7533 48.1886 22.0082 47.955 22.1849C48.0609 21.8578 48.0381 21.5025 47.8914 21.1917L47.5037 21.3986C47.5112 21.4174 47.6835 21.7692 47.4887 22.1699C47.3576 22.4389 47.0954 22.6458 46.8893 22.8546C47.6722 22.8076 48.384 22.7229 48.751 21.8426C48.7866 22.4332 48.427 22.9035 48.1086 23.3588C48.8091 23.2177 49.401 23.0747 49.8317 22.3956C50.1015 21.9761 50.1988 21.4663 50.1389 20.8606C50.5435 21.4061 50.4929 22.1172 50.4929 22.7624C51.0248 22.1135 51.4219 21.5021 51.4163 20.5935C51.4106 19.9878 51.1934 19.2842 50.5041 18.592L50.3562 19.051C51.1334 20.0423 51.0417 20.9171 50.845 21.4588Z" fill="#DEDDDE"/>
<path d="M44.6343 19.401C44.3412 19.3168 44.0324 19.3039 43.7334 19.3633C42.3118 19.7264 41.218 19.4536 40.5775 19.1827C40.6532 19.3019 40.7496 19.4064 40.8621 19.4912L40.8715 19.4988L40.879 19.5044C41.6375 20.1534 42.4242 19.9183 43.2258 19.6794C43.6884 19.5402 44.1548 19.401 44.6343 19.3991" fill="#CE0F3E"/>
<path fill-rule="evenodd" clip-rule="evenodd" d="M48.5975 14.1714C48.8728 14.6285 49.3185 15.2361 49.8767 15.2361C50.4479 15.2361 50.7888 14.984 51.0641 14.525C50.9427 14.552 50.8162 14.5442 50.6989 14.5025C50.3431 14.3764 50.1745 14.0209 50.2419 13.5619C50.2756 13.4363 50.3422 13.322 50.4346 13.2309C50.5271 13.1398 50.6421 13.0752 50.7678 13.0437C50.8935 13.0123 51.0253 13.0151 51.1495 13.052C51.2737 13.0888 51.3858 13.1584 51.4743 13.2534C51.3782 13.0749 51.3534 12.8664 51.405 12.6702C51.5193 12.2677 51.9856 11.9479 52.3977 12.0156L50.8001 15.9679H45.5314L43.9225 12.2C44.3215 12.1304 44.7897 12.452 44.904 12.8527C44.9303 12.9367 44.9377 13.0254 44.9258 13.1126C44.9138 13.1998 44.8827 13.2832 44.8347 13.3569C44.9152 13.2647 45.0407 13.0935 45.1662 13.0465C45.5539 12.9336 45.9978 13.276 46.112 13.6672C46.1813 14.1244 46.0334 14.4103 45.6794 14.5363C45.5202 14.5702 45.3835 14.5476 45.2224 14.525C45.3456 14.7486 45.5281 14.9334 45.7496 15.0589C45.9712 15.1845 46.2231 15.2458 46.4773 15.2361C47.0373 15.2361 47.4475 14.6285 47.7209 14.1695C47.595 14.2606 47.4434 14.3087 47.2883 14.3068C47.1914 14.3068 47.0955 14.2875 47.0061 14.2499C46.9167 14.2124 46.8357 14.1573 46.7677 14.088C46.6998 14.0187 46.6462 13.9364 46.6101 13.8461C46.5741 13.7558 46.5563 13.6592 46.5578 13.5619C46.5578 13.1499 46.8762 12.8076 47.2883 12.8076C47.4137 12.8076 47.5505 12.8414 47.6535 12.9092C47.5099 12.7669 47.4279 12.5737 47.425 12.3711C47.425 11.9573 47.7546 11.6262 48.1554 11.6262C48.5656 11.6262 48.8953 11.9592 48.8953 12.3711C48.8884 12.5783 48.8026 12.775 48.6555 12.9204C48.7683 12.8488 48.8986 12.8098 49.032 12.8076C49.444 12.8076 49.7624 13.1499 49.7624 13.5619C49.7639 13.6592 49.7461 13.7558 49.7101 13.8461C49.6741 13.9364 49.6205 14.0187 49.5525 14.088C49.4845 14.1573 49.4035 14.2124 49.3141 14.2499C49.2248 14.2875 49.1289 14.3068 49.032 14.3068C48.8811 14.2859 48.7348 14.2395 48.5993 14.1695" fill="#E2AD25"/>
<path d="M46.8593 16.9536C46.7814 16.9475 46.7032 16.9475 46.6252 16.9536C46.6218 17.0567 46.578 17.1543 46.5032 17.2251C46.4285 17.2959 46.329 17.3342 46.2263 17.3317C46.135 17.3336 46.0459 17.3042 45.9734 17.2485C45.9009 17.1928 45.8494 17.114 45.8273 17.0251C45.7538 17.0172 45.6811 17.0028 45.6101 16.9818C45.6607 17.2188 45.7918 17.4972 46.1289 17.5612C46.1289 17.5612 46.6028 17.6628 46.805 17.0796V17.0777C46.8208 17.0354 46.839 16.9939 46.8593 16.9536ZM46.0989 15.9698C46.0403 16.0146 45.9886 16.0678 45.9453 16.1278L45.9341 16.1447L45.9191 16.1598C45.9191 16.1598 45.7206 16.3479 45.6101 16.5397C45.7206 16.5999 45.9472 16.6677 46.348 16.568L46.363 16.5642C46.8874 16.4758 47.2171 16.5924 47.3744 16.6771C47.5954 16.7467 47.7846 16.9611 47.7846 16.9611L47.4756 17.2433C47.4756 17.2433 47.2714 17.0138 47.1984 17.2188C46.8743 18.1462 46.054 17.9732 46.0521 17.9713C45.3198 17.834 45.1849 17.1304 45.1643 16.7899C44.8553 16.6075 43.297 15.8174 42.6059 18.0616C43.1359 17.7907 44.0106 17.4841 44.6287 17.9901L44.653 18.0089L44.6661 18.0277C44.668 18.0315 45.0351 18.5526 45.7094 18.7256C46.7526 19.0078 46.7844 19.2674 46.8144 19.5289C46.8175 19.5497 46.8212 19.5704 46.8256 19.5909L46.8387 19.6568L46.8125 19.7189C46.8125 19.7189 46.6496 20.1026 45.7019 20.6989C44.8703 21.2407 44.3533 21.1015 43.6716 20.872C43.7802 21.1542 44.0874 21.5266 44.9452 21.5153H44.962C44.962 21.5153 45.2149 21.536 45.5089 21.5059L46.9212 21.3536L45.6157 21.9179C45.612 21.9198 44.0986 22.5575 44.4357 24.1056C44.7111 23.8385 45.1737 23.4567 45.6719 23.3325L46.3274 23.1688L45.8873 23.6824C45.8835 23.688 44.1192 25.7008 46.2038 27.7814C46.2544 27.0854 46.4304 25.8118 47.0466 25.2983L47.3089 25.0838L47.3931 25.4111C47.3931 25.4168 47.8314 27.1324 47.6966 28.1049C47.6787 28.4309 47.6253 28.7538 47.5374 29.0681C48.3015 28.9176 50.0134 28.2592 49.326 25.3547L49.2324 24.9691L49.607 25.1008C49.6107 25.1026 50.86 25.5297 50.8244 27.1361C51.4987 26.6471 52.7873 25.334 51.3957 23.1538L51.1803 22.8152L51.5792 22.8208C51.5811 22.8208 52.5531 22.8208 53.0514 23.8197C53.3492 23.056 53.6732 21.3874 51.8564 19.7621L51.5474 19.4856L51.9501 19.3915C51.9501 19.3897 52.6037 19.2298 53.1881 19.5684C53.074 19.1486 52.8742 18.7572 52.6014 18.4191C52.3286 18.081 51.9888 17.8036 51.6036 17.6045L51.5998 17.6007L51.5867 17.5932C51.2702 17.8622 50.8768 18.0823 50.388 18.1857L50.3 17.7625C51.2739 17.5593 52.0887 16.3911 52.2516 15.8136C50.9293 15.8042 50.0584 16.9141 50.0546 16.9179L49.7212 16.647C49.725 16.6432 50.8544 15.2023 52.5588 15.3979L52.8004 15.4261L52.7442 15.6631C52.7442 15.6669 52.5475 16.5473 51.9051 17.2771C53.6601 18.2591 53.7312 20.1572 53.7312 20.1628L53.7706 20.951L53.336 20.2926C53.2437 20.1519 53.121 20.0338 52.977 19.9472C52.8331 19.8606 52.6716 19.8076 52.5045 19.7922C54.7239 22.1286 53.2106 24.4743 53.2068 24.4819L52.9427 24.9032L52.8172 24.4198C52.6543 23.7859 52.3022 23.498 52.0137 23.3664C53.5383 26.3028 50.6783 27.74 50.6708 27.7438L50.2962 27.9375L50.3599 27.5199C50.5097 26.5379 50.1501 26.0075 49.843 25.7441C50.4611 29.4744 47.2133 29.544 47.2021 29.544L46.8088 29.5572L47.0111 29.2186C47.2358 28.8423 47.2658 28.0842 47.2658 28.0824V28.0729L47.2695 28.0579C47.3576 27.4522 47.189 26.4872 47.0729 25.9397C46.614 26.7298 46.614 28.246 46.614 28.2517L46.6102 28.7107L46.26 28.4153C44.2522 26.7242 44.6661 25.0011 45.1269 24.0793C44.7616 24.3464 44.4975 24.6643 44.4975 24.6662L44.2597 24.9484L44.1304 24.6004C43.6397 23.2591 44.2428 22.4051 44.786 21.9461C43.119 21.8859 43.1827 20.5465 43.1827 20.5428L43.194 20.2587L43.4637 20.3453L43.7165 20.4299C44.3309 20.6406 44.7747 20.7911 45.4715 20.3359H45.4734C46.1102 19.9333 46.3256 19.6869 46.3911 19.5928L46.3892 19.5796C46.3743 19.4649 46.3611 19.3483 45.6026 19.1451C45.103 19.0076 44.6597 18.7146 44.3365 18.308C43.6491 17.7832 42.3961 18.6861 42.3923 18.688L41.9447 19.004L42.0571 18.4679C42.4747 16.4927 43.3869 16.0337 44.1585 16.0488C44.5369 16.0544 44.9021 16.1729 45.2392 16.3366C45.3142 16.2049 45.4041 16.0845 45.5015 15.9698H46.1008" fill="#DEDDDE"/>
<path fill-rule="evenodd" clip-rule="evenodd" d="M82.2958 39.3165H75.3939L71.7791 48.2876L71.7904 39.3052H67.1454V51.3576H75.2684L75.9989 49.5254H81.7938L82.6254 51.3576H87.1542L82.2958 39.3165ZM61.7063 45.7895L56.801 39.3052H50.9143V48.2537L47.219 39.3184H40.4089L37.5583 46.478H33.3029C32.9489 47.9791 32.1398 48.6413 30.6676 48.6413C28.9801 48.6413 27.8395 47.3809 27.8395 45.5035C27.8395 43.0637 28.7965 41.8034 30.6339 41.8034C32.1398 41.8034 32.9938 42.4806 33.2561 43.8876H38.0827L38.0939 43.7052C38.0939 40.7951 35.1627 38.882 30.7013 38.882C25.9347 38.882 23.6759 40.7499 23.2882 45.0333C22.6027 44.2883 21.4845 43.7052 20.6417 43.6356L18.8399 43.4757L16.1803 43.4305C15.0396 43.408 14.3897 43.0054 14.3897 42.3301C14.3897 41.5626 15.0528 41.1393 16.2627 41.1393C17.6524 41.1393 18.2106 41.6547 18.2106 42.9264H23.2863V42.7646C23.2863 40.2778 20.8926 38.9027 16.5455 38.9027C11.7208 38.9027 9.36083 40.2326 9.36083 42.9245C9.36083 45.227 11.0933 46.4648 14.4141 46.5551L16.3863 46.6021C17.836 46.6473 18.484 47.0028 18.484 47.7703C18.484 48.4231 17.5738 49.0419 16.626 49.0419C14.9722 49.0419 14.105 48.4701 14.105 47.3922H8.84576V47.5051C8.84576 50.1198 11.4698 51.5495 16.2383 51.5495C20.8346 51.5495 23.0934 50.5431 23.8238 48.1484C25.296 50.6691 27.212 51.5852 30.9411 51.5852C33.3141 51.5852 34.5465 51.2523 36.0861 50.1311L35.5954 51.3557H40.0793L40.8996 49.4765H46.7863L47.573 51.3332H55.2615V44.1962L60.7249 51.3557H66.1659V39.3165H61.7063V45.7895ZM77.2425 46.5005L78.8271 42.5125L80.6289 46.478L77.2425 46.5005ZM42.132 46.5005L43.7278 42.3884L45.5539 46.5005H42.132Z" fill="#112C5C"/>
</svg>
