<svg width="100" height="25" viewBox="0 0 100 25" fill="none" xmlns="http://www.w3.org/2000/svg">
<path fill-rule="evenodd" clip-rule="evenodd" d="M30.4233 12.2572H28.308V7.87017H30.4233V1.59717H35.0695V7.87017H38.6582V12.2572H35.0695V18.1072C35.0695 19.6672 35.6783 20.2857 37.1202 20.2857C37.3765 20.2857 37.793 20.2522 38.3387 20.1552V24.4457C37.6969 24.6072 36.9279 24.6727 35.9992 24.6727C32.2823 24.6727 30.4233 22.7232 30.4233 18.8227V12.2572Z" fill="#292F33"/>
<path fill-rule="evenodd" clip-rule="evenodd" d="M41.8748 24.25H46.6496V7.86951H41.8748V24.25ZM44.2454 0.978516C45.7519 0.978516 46.9695 2.18152 46.9695 3.74202C46.9695 5.26952 45.7519 6.47252 44.2454 6.47252C42.7394 6.47252 41.5223 5.26952 41.5223 3.74202C41.5223 2.18152 42.7394 0.978516 44.2454 0.978516Z" fill="#292F33"/>
<path fill-rule="evenodd" clip-rule="evenodd" d="M49.7151 7.86963H54.5535V17.2306C54.5535 19.3106 55.74 20.2531 57.5019 20.2531C59.2642 20.2531 60.4493 19.3106 60.4493 17.2306V7.86963H65.2881V17.6521C65.2881 19.9271 64.5517 21.6831 63.0452 22.8851C61.5712 24.0881 59.7123 24.7056 57.5019 24.7056C55.2915 24.7056 53.432 24.0881 51.926 22.8851C50.4521 21.6831 49.7151 19.9271 49.7151 17.6521V7.86963Z" fill="#292F33"/>
<path fill-rule="evenodd" clip-rule="evenodd" d="M70.9787 24.2536V7.87312H75.7535V10.1161C76.4905 8.45813 78.2207 7.51562 80.4317 7.51562C80.7521 7.51562 81.1686 7.54863 81.6813 7.61363V12.1636C81.2007 12.0661 80.656 12.0011 80.0792 12.0011C77.3556 12.0011 75.7535 13.5606 75.7535 16.2586V24.2536H70.9787Z" fill="#292F33"/>
<path fill-rule="evenodd" clip-rule="evenodd" d="M83.9242 7.87305H88.7625V17.2335C88.7625 19.3135 89.9481 20.256 91.7104 20.256C93.4728 20.256 94.6583 19.3135 94.6583 17.2335V7.87305H99.4972V17.6555C99.4972 19.9305 98.7602 21.686 97.2542 22.888C95.7803 24.091 93.9214 24.7085 91.7104 24.7085C89.4995 24.7085 87.6411 24.091 86.1346 22.888C84.6611 21.686 83.9242 19.9305 83.9242 17.6555V7.87305Z" fill="#292F33"/>
<path fill-rule="evenodd" clip-rule="evenodd" d="M66.2615 21.3049C67.0561 20.5149 68.2604 20.5149 69.0309 21.3049C69.8255 22.0954 69.8255 23.3299 69.0309 24.1199C68.2604 24.9099 67.0561 24.9099 66.2615 24.1199C65.491 23.3299 65.491 22.0954 66.2615 21.3049Z" fill="#292F33"/>
<path fill-rule="evenodd" clip-rule="evenodd" d="M0 24.4995H23.662V0.499512H0V24.4995ZM5.42253 18.9995H18.2394V5.99951H5.42253V18.9995Z" fill="#292F33"/>
</svg>
