<svg width="30" height="30" viewBox="0 0 30 30" fill="none" xmlns="http://www.w3.org/2000/svg">
<circle cx="15" cy="15" r="15" fill="#8E24AA"/>
<g clip-path="url(#clip0)">
<path d="M23.3398 16.8535C23.8992 12.1449 23.0711 9.17223 21.5773 7.8277L21.5781 7.82692C19.1672 5.53083 11.025 5.19098 8.14061 7.93005C6.8453 9.26989 6.38905 11.2363 6.33905 13.6707C6.28905 16.1058 6.22967 20.6675 10.4805 21.905H10.4844L10.4805 23.7949C10.4805 23.7949 10.4515 24.5605 10.9406 24.7144C11.5 24.8957 11.7531 24.5402 13.493 22.4621C16.4023 22.7144 18.6367 22.1363 18.8906 22.0519C19.4781 21.855 22.8023 21.4152 23.3398 16.8535ZM13.7797 21.1324C13.7797 21.1324 11.9383 23.4285 11.3656 24.0246C11.1781 24.2183 10.9726 24.2004 10.9758 23.816C10.9758 23.5636 10.9898 20.6785 10.9898 20.6785C7.38592 19.6457 7.59842 15.7613 7.63749 13.7293C7.67655 11.6965 8.04842 10.0316 9.1453 8.91051C11.6758 6.53786 18.814 7.06833 20.6328 8.7777C22.8562 10.7488 22.0648 16.3175 22.0695 16.5074C21.6125 20.3152 18.9187 20.5566 18.4234 20.7215C18.2117 20.7918 16.2469 21.2972 13.7797 21.1324Z" fill="white"/>
<path d="M14.7984 9.35645C14.4977 9.35645 14.4977 9.8252 14.7984 9.8291C17.132 9.84707 19.0539 11.4736 19.075 14.4572C19.075 14.7721 19.5359 14.7682 19.532 14.4533H19.5312C19.5062 11.2385 17.4078 9.37441 14.7984 9.35645Z" fill="white"/>
<path d="M17.868 13.9625C17.8609 14.2734 18.3211 14.2882 18.325 13.9734C18.3633 12.2007 17.2703 10.7406 15.2164 10.5867C14.9156 10.5648 14.8844 11.0375 15.1844 11.0593C16.9656 11.1945 17.9039 12.4101 17.868 13.9625Z" fill="white"/>
<path d="M17.3758 15.9796C16.9898 15.7561 16.5969 15.8952 16.4344 16.1147L16.0945 16.5546C15.9219 16.778 15.5992 16.7483 15.5992 16.7483C13.2445 16.1257 12.6148 13.6616 12.6148 13.6616C12.6148 13.6616 12.5859 13.328 12.8015 13.1491L13.2265 12.7976C13.439 12.6288 13.5734 12.2226 13.357 11.8233C12.7789 10.7788 12.3906 10.4186 12.193 10.1421C11.9851 9.88193 11.6726 9.82334 11.3476 9.99912H11.3406C10.6648 10.3944 9.92498 11.1343 10.1617 11.896C10.5656 12.6991 11.3078 15.2593 13.6734 17.1936C14.7851 18.1085 16.5445 19.046 17.2914 19.2624L17.2984 19.2733C18.0344 19.5186 18.75 18.7499 19.132 18.0538V18.0483C19.3015 17.7116 19.2453 17.3929 18.9976 17.1843C18.5586 16.7561 17.8961 16.2835 17.3758 15.9796Z" fill="white"/>
<path d="M15.5383 12.3306C16.2891 12.3743 16.6531 12.7665 16.6922 13.572C16.7062 13.8868 17.1633 13.865 17.1492 13.5501C17.0992 12.4985 16.5508 11.9126 15.5633 11.8579C15.2625 11.84 15.2344 12.3126 15.5383 12.3306Z" fill="white"/>
</g>
<defs>
<clipPath id="clip0">
<rect x="5.25" y="6" width="18.75" height="18.75" fill="white"/>
</clipPath>
</defs>
</svg>
