<svg width="62" height="17" viewBox="0 0 62 17" fill="none" xmlns="http://www.w3.org/2000/svg">
<g clip-path="url(#clip0)">
<path d="M21.2082 0H40.4818V16.3046H35.1362V4.05733H26.5496V16.3054H21.2074V0H21.2082ZM56.5814 7.00886V5.16476C56.5814 5.16476 56.5916 4.94214 56.5049 4.75838C56.4934 4.73382 56.4812 4.70952 56.4684 4.68552C56.3721 4.49539 56.221 4.33534 56.0327 4.2241C55.9548 4.17334 55.8688 4.13506 55.7779 4.11076C55.6627 4.07532 55.5423 4.05729 55.4212 4.05733H47.9888V16.3046H42.6492V0H58.2851L57.2778 3.06162L61.9219 3.65824V8.976L57.1615 8.15191L58.2834 12.1728H47.9897V8.11548H55.4212C56.0616 8.11548 56.5814 7.62005 56.5814 7.00886Z" fill="#FF4E00"/>
<path d="M56.5814 8.11548V12.1728H58.4473C59.3708 12.1726 60.2564 11.8228 60.9093 11.2004C61.5623 10.5781 61.9293 9.73396 61.9295 8.85376V8.11548H56.5822H56.5814ZM56.5814 4.05733V0H58.4473C59.3709 0.000214665 60.2566 0.350079 60.9096 0.97265C61.5627 1.59522 61.9295 2.43952 61.9295 3.31986V4.05733H56.5822H56.5814ZM6.50405 12.1728H12.7762C13.0698 12.1716 13.3519 12.0645 13.5659 11.873C13.7799 11.6815 13.9099 11.4198 13.9296 11.1407H13.9322V10.6242H19.2735V12.2473L16.1769 13.944L15.4805 16.3046H3.5306L2.98025 14.3496L0 13.0584V3.60643L3.53145 0H16.0113V2.69248L19.2727 3.20895V5.68043H13.9322V5.16476C13.9322 4.55357 13.4124 4.05733 12.7712 4.05733H6.53718V4.05814H6.50151C6.34082 4.05816 6.18188 4.08997 6.03476 4.15156C5.88764 4.21315 5.75553 4.30318 5.6468 4.41595C5.53807 4.52872 5.45508 4.66177 5.40308 4.80669C5.35109 4.95161 5.33122 5.10524 5.34474 5.25786L5.34049 5.26271V11.0686C5.34117 11.3617 5.46379 11.6425 5.68145 11.8495C5.8991 12.0566 6.19403 12.1728 6.50151 12.1728H6.50405Z" fill="#FF4E00"/>
<path d="M5.34814 4.05733V0H3.48304C2.55928 0 1.67336 0.34977 1.02016 0.972364C0.366962 1.59496 0 2.43938 0 3.31986L0 4.05733H5.34814ZM5.34814 12.2473V16.3046H3.48304C2.55928 16.3046 1.67336 15.9549 1.02016 15.3323C0.366962 14.7097 0 13.8652 0 12.9848L0 12.2473H5.34814ZM13.9322 12.2473V16.3046H15.7981C16.7217 16.3044 17.6074 15.9545 18.2604 15.332C18.9135 14.7094 19.2803 13.8651 19.2803 12.9848V12.2473H13.9322ZM13.9322 4.05733V0H15.7981C16.7217 0.000214665 17.6074 0.350079 18.2604 0.97265C18.9135 1.59522 19.2803 2.43952 19.2803 3.31986V4.05733H13.9322Z" fill="#FF4E00"/>
</g>
<defs>
<clipPath id="clip0">
<rect width="62" height="17" fill="white"/>
</clipPath>
</defs>
</svg>
