<svg width="57" height="57" viewBox="0 0 57 57" fill="none" xmlns="http://www.w3.org/2000/svg">
<path fill-rule="evenodd" clip-rule="evenodd" d="M28.6329 0C29.9741 0 30.8995 1.05544 31.8163 2.10088C32.3592 2.72015 32.8974 3.33376 33.2268 3.39333C33.564 3.45465 34.2882 3.05326 35.008 2.65405C36.1989 1.99347 37.3832 1.33724 38.5958 1.78777C39.8219 2.24352 40.2812 3.52641 40.7387 4.80494C41.0097 5.56162 41.2794 6.3157 41.5374 6.4666C41.7958 6.6175 42.5901 6.47878 43.3831 6.34048C44.7147 6.10783 46.0445 5.8756 47.0319 6.70665C48.014 7.53378 48.0079 8.88407 48.0018 10.2344C47.9983 11.0315 47.9944 11.8286 48.1874 12.0569C48.3805 12.2857 49.1674 12.4179 49.9547 12.5501C51.2911 12.7749 52.6297 12.9997 53.2846 14.1152C53.9377 15.228 53.4872 16.4974 53.0349 17.7712C52.7634 18.5353 52.4911 19.3019 52.6009 19.5964C52.7107 19.8899 53.4074 20.2943 54.1076 20.7009C55.2946 21.3898 56.4885 22.0825 56.7251 23.3833C56.9577 24.6618 56.1111 25.7251 55.2571 26.7983C54.7333 27.4567 54.2048 28.1208 54.2048 28.5C54.2048 28.8796 54.7333 29.5437 55.2571 30.2021C56.1111 31.2749 56.9577 32.3382 56.7251 33.6167C56.4885 34.9175 55.2946 35.6106 54.1076 36.2995C53.4074 36.7057 52.7107 37.1101 52.6009 37.4041C52.4911 37.6985 52.7634 38.4652 53.0349 39.2292C53.4872 40.503 53.9377 41.7724 53.2846 42.8848C52.6297 44.0007 51.2911 44.2255 49.9547 44.4499C49.1674 44.5826 48.3805 44.7148 48.1874 44.9431C47.9944 45.1718 47.9983 45.9689 48.0018 46.7661C48.0079 48.1164 48.014 49.4667 47.0319 50.2938C46.0445 51.1248 44.7147 50.8926 43.3831 50.66C42.5901 50.5217 41.7958 50.3829 41.5374 50.5338C41.2794 50.6847 41.0097 51.4388 40.7387 52.1955C40.2812 53.474 39.8219 54.7569 38.5958 55.2127C37.3832 55.6632 36.1989 55.0065 35.008 54.3464C34.2882 53.9472 33.5644 53.5458 33.2268 53.6071C32.8974 53.6667 32.3592 54.2803 31.8163 54.8991C30.8995 55.9446 29.9741 57 28.6329 57C27.2922 57 26.3667 55.9446 25.4495 54.8991C24.907 54.2799 24.3689 53.6662 24.039 53.6067C23.7018 53.5453 22.978 53.9467 22.2578 54.346C21.0669 55.0065 19.8831 55.6628 18.6704 55.2122C17.4439 54.7565 16.9851 53.4736 16.5271 52.1951C16.2565 51.4388 15.9864 50.6843 15.7284 50.5334C15.4705 50.3825 14.6761 50.5212 13.8827 50.66C12.5511 50.8922 11.2213 51.1244 10.2339 50.2934C9.25178 49.4662 9.25788 48.1159 9.26398 46.7656C9.26791 45.9685 9.27139 45.1714 9.07836 44.9431C8.88534 44.7143 8.09885 44.5821 7.31106 44.4499C5.97468 44.2255 4.63613 44.0003 3.98124 42.8848C3.32852 41.772 3.77906 40.5026 4.23134 39.2288C4.5028 38.4647 4.77469 37.6981 4.66489 37.4036C4.55552 37.1101 3.8588 36.7057 3.15815 36.2991C1.97167 35.6102 0.777339 34.9175 0.541176 33.6167C0.308498 32.3382 1.15468 31.2745 2.0087 30.2017C2.53288 29.5433 3.06142 28.8792 3.06142 28.4996C3.06142 28.1204 2.53288 27.4563 2.0087 26.7979C1.15468 25.7246 0.308498 24.6618 0.541176 23.3828C0.777339 22.0821 1.97167 21.3894 3.15815 20.7005C3.8588 20.2939 4.55552 19.8895 4.66489 19.5959C4.77469 19.3015 4.5028 18.5348 4.23134 17.7708C3.77906 16.497 3.32808 15.2276 3.98124 14.1152C4.63613 12.9993 5.97468 12.7745 7.31106 12.5501C8.09885 12.4174 8.88534 12.2852 9.07836 12.0569C9.27139 11.8282 9.26791 11.0311 9.26398 10.2339C9.25788 8.88364 9.25178 7.53291 10.2339 6.70665C11.2213 5.8756 12.5511 6.10739 13.8827 6.34005C14.6761 6.47834 15.4705 6.61707 15.7284 6.46616C15.9864 6.3157 16.2565 5.56119 16.5271 4.8045C16.9846 3.52641 17.4443 2.24309 18.6704 1.78734C19.8831 1.33681 21.0669 1.99347 22.2578 2.65361C22.978 3.05283 23.7018 3.45422 24.039 3.3929C24.3689 3.33332 24.907 2.71971 25.4495 2.10088C26.3667 1.05544 27.2922 0 28.6329 0V0ZM42.4559 14.3809C41.8398 14.3809 41.3404 14.8793 41.3404 15.4942C41.3404 15.7682 41.4398 16.0191 41.6045 16.213V16.2135L41.604 16.213L41.6075 16.2169C41.6302 16.2435 41.6541 16.2687 41.679 16.2926C44.679 19.4846 46.516 23.7781 46.516 28.5C46.516 33.4289 44.5147 37.8907 41.2785 41.1205C38.0424 44.3508 33.5714 46.3482 28.6329 46.3482C26.5188 46.3482 24.4904 45.982 22.6081 45.3097C22.5746 45.2958 22.5397 45.2836 22.5044 45.2727L22.5018 45.2714V45.2718C22.3994 45.241 22.2905 45.224 22.178 45.224C21.5624 45.224 21.0626 45.7224 21.0626 46.3373C21.0626 46.8417 21.399 47.2675 21.8595 47.4045C23.9759 48.1599 26.2564 48.5717 28.6329 48.5717C34.1862 48.5717 39.2141 46.3247 42.8533 42.6926C46.4929 39.0601 48.7439 34.0425 48.7439 28.5C48.7439 23.1963 46.6824 18.3735 43.3164 14.7853C43.1117 14.5383 42.8023 14.3809 42.4559 14.3809ZM39.0895 11.5551C38.4738 11.5551 37.974 12.0534 37.974 12.6684C37.974 13.2828 38.4738 13.7816 39.0895 13.7816C39.7056 13.7816 40.2049 13.2828 40.2049 12.6684C40.2049 12.0534 39.7056 11.5551 39.0895 11.5551ZM35.469 9.61814C33.3348 8.84841 31.0333 8.42832 28.6329 8.42832C23.0796 8.42832 18.0522 10.6749 14.4125 14.3074C10.7733 17.9395 8.52194 22.9575 8.52194 28.5C8.52194 33.7924 10.5746 38.6061 13.928 42.1921C14.1328 42.4365 14.4404 42.5921 14.7846 42.5921C15.4008 42.5921 15.9001 42.0938 15.9001 41.4789C15.9001 41.2058 15.8016 40.9557 15.6378 40.7622V40.7613L15.6334 40.7565C15.6116 40.7309 15.5886 40.7065 15.5646 40.6835C12.5781 37.4937 10.7498 33.2101 10.7498 28.5C10.7498 23.5711 12.7515 19.1089 15.9877 15.8795C19.2238 12.6492 23.6948 10.6518 28.6329 10.6518C30.7671 10.6518 32.8137 11.025 34.7113 11.7095H34.7117C34.8459 11.7664 34.9932 11.7977 35.1483 11.7977C35.7644 11.7977 36.2638 11.2994 36.2638 10.6845C36.2638 10.1809 35.9287 9.75556 35.469 9.61814ZM18.1763 43.2184C17.5607 43.2184 17.0609 43.7167 17.0609 44.3316C17.0609 44.9466 17.5607 45.4449 18.1763 45.4449C18.7924 45.4449 19.2918 44.9466 19.2918 44.3316C19.2918 43.7167 18.7924 43.2184 18.1763 43.2184ZM22.1388 17.5585C20.86 17.5585 19.7022 18.0756 18.8639 18.9123C18.026 19.749 17.5075 20.9045 17.5075 22.1808C17.5075 23.4567 18.026 24.6126 18.8639 25.4489C19.7022 26.2856 20.86 26.8031 22.1388 26.8031C23.4177 26.8031 24.5754 26.2856 25.4137 25.4489C26.2517 24.6126 26.7702 23.4567 26.7702 22.1808C26.7702 20.9045 26.2517 19.749 25.4137 18.9123C24.5754 18.0756 23.4177 17.5585 22.1388 17.5585ZM23.8386 20.4844C23.4037 20.0504 22.8029 19.7816 22.1388 19.7816C21.4752 19.7816 20.8739 20.0504 20.4391 20.4844C20.0042 20.9184 19.7354 21.5181 19.7354 22.1808C19.7354 22.8431 20.0042 23.4433 20.4391 23.8773C20.8739 24.3108 21.4752 24.5796 22.1388 24.5796C22.8029 24.5796 23.4037 24.3113 23.8386 23.8773C24.2735 23.4433 24.5423 22.8431 24.5423 22.1808C24.5423 21.5181 24.2735 20.9184 23.8386 20.4844ZM34.2006 18.0621L21.212 37.722C20.8757 38.2329 21.0177 38.9192 21.5297 39.2549C22.0417 39.5906 22.7292 39.4489 23.0656 38.9379L36.0542 19.278C36.3906 18.7671 36.2485 18.0808 35.7365 17.7451C35.2246 17.4094 34.537 17.5511 34.2006 18.0621ZM35.1274 30.1969C33.8485 30.1969 32.6904 30.7144 31.8525 31.5507C31.0146 32.3874 30.4961 33.5433 30.4961 34.8192C30.4961 36.0955 31.0146 37.251 31.8525 38.0877C32.6908 38.924 33.8485 39.4415 35.1274 39.4415C36.4063 39.4415 37.564 38.924 38.4019 38.0877C39.2402 37.251 39.7587 36.0955 39.7587 34.8192C39.7587 33.5428 39.2402 32.3874 38.4019 31.5507C37.564 30.7144 36.4063 30.1969 35.1274 30.1969ZM36.8267 33.1227C36.3923 32.6892 35.791 32.4204 35.1274 32.4204C34.4634 32.4204 33.8625 32.6887 33.4276 33.1227C32.9928 33.5567 32.7235 34.1569 32.7235 34.8192C32.7235 35.4819 32.9928 36.0816 33.4276 36.5156C33.8625 36.9496 34.4634 37.2179 35.1274 37.2179C35.791 37.2179 36.3923 36.9496 36.8267 36.5156C37.262 36.0816 37.5309 35.4819 37.5309 34.8192C37.5309 34.1569 37.262 33.5572 36.8267 33.1227ZM30.1457 3.56033C29.5623 2.89497 28.9736 2.22352 28.6333 2.22352C28.2926 2.22352 27.7039 2.89497 27.1205 3.56033C26.3218 4.47095 25.5297 5.37419 24.4307 5.57336C23.3153 5.77558 22.2443 5.18154 21.1789 4.59055C20.4364 4.17872 19.6979 3.7695 19.4452 3.86343C19.1959 3.95606 18.9097 4.75536 18.6247 5.55162C18.219 6.68447 17.8151 7.81384 16.8513 8.37701C15.8809 8.94452 14.6897 8.73665 13.5001 8.52878C12.6788 8.3857 11.8579 8.2422 11.6705 8.40049C11.4762 8.564 11.4797 9.39505 11.4836 10.2257C11.4892 11.4324 11.4945 12.6392 10.7755 13.4903C10.0587 14.3387 8.86834 14.5388 7.67663 14.7388C6.8518 14.8775 6.02479 15.0163 5.89625 15.2359C5.76815 15.4537 6.04789 16.2422 6.32893 17.0328C6.73328 18.1717 7.13895 19.3141 6.74505 20.3691C6.35638 21.4107 5.31717 22.0138 4.2723 22.6205C3.52721 23.0527 2.77732 23.4881 2.72547 23.7742C2.67275 24.0643 3.20869 24.7375 3.74943 25.4172C4.51631 26.3804 5.28972 27.3519 5.28972 28.5C5.28972 29.6485 4.51631 30.6196 3.74943 31.5833C3.20869 32.2625 2.67275 32.9357 2.72547 33.2262C2.77732 33.5124 3.52721 33.9473 4.2723 34.38C5.31717 34.9862 6.35638 35.5893 6.74505 36.6309C7.13895 37.6863 6.73328 38.8287 6.32893 39.9677C6.04789 40.7583 5.76815 41.5463 5.89625 41.7646C6.02479 41.9837 6.85137 42.1229 7.67663 42.2612C8.86878 42.4617 10.0587 42.6613 10.7755 43.5102C11.4945 44.3608 11.4892 45.5676 11.4836 46.7748C11.4797 47.6054 11.4762 48.436 11.6705 48.5999C11.8583 48.7578 12.6788 48.6147 13.5001 48.4712C14.6897 48.2638 15.8809 48.0555 16.8513 48.623C17.8151 49.1862 18.2195 50.3155 18.6247 51.4484C18.9097 52.2446 19.1959 53.0444 19.4452 53.1366C19.6979 53.2305 20.4364 52.8213 21.1789 52.4095C22.2443 51.8189 23.3153 51.2249 24.4307 51.4271C25.5301 51.6258 26.3218 52.529 27.1205 53.4401C27.7039 54.1055 28.2926 54.7769 28.6333 54.7769C28.9736 54.7769 29.5623 54.1055 30.1457 53.4401C30.9444 52.529 31.7366 51.6258 32.835 51.4271C33.9505 51.2249 35.022 51.8189 36.0873 52.4095C36.8298 52.8213 37.5683 53.2305 37.8211 53.1366C38.0703 53.0444 38.3566 52.2446 38.6415 51.4484C39.0472 50.3155 39.4511 49.1866 40.4145 48.623C41.3853 48.0555 42.5761 48.2634 43.7657 48.4712C44.5875 48.6147 45.4079 48.7582 45.5962 48.5999C45.7901 48.436 45.7866 47.6054 45.7827 46.7748C45.777 45.568 45.7718 44.3608 46.4907 43.5102C47.2075 42.6613 48.3974 42.4617 49.5892 42.2612C50.4144 42.1229 51.2414 41.9837 51.37 41.7646C51.4981 41.5463 51.2183 40.7583 50.9373 39.9677C50.5329 38.8287 50.1273 37.6863 50.5212 36.6309C50.9094 35.5893 51.9491 34.9862 52.9935 34.38C53.739 33.9473 54.4885 33.5124 54.5408 33.2262C54.5935 32.9357 54.0575 32.2625 53.5168 31.5833C52.7499 30.6196 51.9765 29.6485 51.9765 28.5C51.9765 27.3519 52.7499 26.3804 53.5168 25.4172C54.0575 24.7375 54.5935 24.0643 54.5408 23.7742C54.4885 23.4881 53.739 23.0527 52.9935 22.6205C51.9491 22.0138 50.9094 21.4107 50.5212 20.3691C50.1273 19.3141 50.5329 18.1717 50.9373 17.0328C51.2183 16.2422 51.4981 15.4537 51.37 15.2359C51.2414 15.0163 50.4144 14.8775 49.5892 14.7388C48.3974 14.5388 47.2075 14.3387 46.4907 13.4903C45.7718 12.6392 45.777 11.4324 45.7827 10.2257C45.7866 9.39505 45.7901 8.564 45.5962 8.40049C45.4079 8.2422 44.5875 8.3857 43.7657 8.52878C42.5761 8.73665 41.3853 8.94452 40.4149 8.37701C39.4511 7.81384 39.0468 6.68447 38.6415 5.55162C38.3566 4.75536 38.0703 3.95606 37.8211 3.86343C37.5683 3.7695 36.8298 4.17872 36.0873 4.59055C35.0215 5.18154 33.9505 5.77558 32.835 5.57336C31.7361 5.37419 30.9444 4.47095 30.1457 3.56033Z" fill="#FFE165"/>
</svg>
