<svg width="54" height="55" viewBox="0 0 54 55" fill="none" xmlns="http://www.w3.org/2000/svg">
<path d="M50.8544 19.0439L43.0835 16.4536M49.5593 20.339L41.7884 17.7487M48.2641 21.6342L40.4932 19.0439" stroke="#FFE165" stroke-width="2"/>
<path d="M41.1104 20.6807L46.8008 14.9903L49.4935 17.683L44.0373 23.6076L45.208 24.7783L42.6655 27.3208L43.4851 28.1404L40.9426 30.6829L40.123 29.8633L37.4594 32.5269L36.757 31.8245L24.0404 44.7752L22.9708 44.6741L16.3318 50.1423L15.9806 49.7911L15.6294 49.4398L15.2781 49.0886L20.7463 42.4496L20.6452 41.38L33.1276 28.1951L32.191 27.2585L34.8546 24.5949L34.0351 23.7754L36.5776 21.2329L37.3971 22.0524L39.9396 19.5099L41.1104 20.6807Z" stroke="#FFE165" stroke-width="2"/>
<path fill-rule="evenodd" clip-rule="evenodd" d="M12.5 0C15.8389 0 18.9779 1.30024 21.3388 3.66113C23.6998 6.02212 25 9.16113 25 12.5C25 15.8389 23.6998 18.9779 21.3388 21.3388C18.9779 23.6998 15.8389 25 12.5 25C9.16108 25 6.02207 23.6998 3.66113 21.3388C1.3002 18.9779 0 15.8389 0 12.5C0 9.16113 1.3002 6.02207 3.66113 3.66113C6.02202 1.30024 9.16108 0 12.5 0ZM1.46484 12.5C1.46484 18.5848 6.41519 23.5352 12.5 23.5352C18.5848 23.5352 23.5352 18.5848 23.5352 12.5C23.5352 6.41519 18.5848 1.46484 12.5 1.46484C6.41519 1.46484 1.46484 6.41519 1.46484 12.5ZM17.4362 8.4894C17.7222 8.20341 18.186 8.20341 18.472 8.48935C18.758 8.77538 18.758 9.23915 18.472 9.52514L11.4863 16.5108C11.3433 16.6538 11.1558 16.7253 10.9684 16.7253C10.781 16.7253 10.5936 16.6538 10.4506 16.5108L6.52806 12.5883C6.24203 12.3022 6.24203 11.8385 6.52806 11.5525C6.8141 11.2665 7.27787 11.2665 7.56385 11.5525L10.9685 14.9571L17.4362 8.4894Z" fill="#FFE165"/>
</svg>
