<svg width="58" height="58" viewBox="0 0 58 58" fill="none" xmlns="http://www.w3.org/2000/svg">
<path d="M46.3044 0H18.1763C14.6885 0 11.8757 2.8128 11.8194 6.30068C8.44404 6.46945 5.8 9.28225 5.8 12.6576V51.6431C5.8 55.1309 8.66906 58 12.1569 58H40.285C43.7728 58 46.5857 55.1872 46.6419 51.6993C50.0173 51.5306 52.6613 48.7178 52.6613 45.3424V6.41319C52.7176 2.86906 49.8485 0 46.3044 0ZM44.5604 51.6431C44.5604 54.0058 42.6477 55.9185 40.285 55.9185H12.1569C9.79418 55.9185 7.93773 54.0058 7.93773 51.6993V12.6576C7.93773 10.2949 9.85044 8.43841 12.1569 8.43841H34.8844V18.227C34.8844 18.7895 35.3344 19.2958 35.9533 19.2958H44.5604V51.6431ZM37.0221 17.1581V10.1261L43.2665 17.1581H37.0221ZM46.6982 49.6178V18.227C46.6982 18.1145 46.6419 17.9457 46.6419 17.8332C46.6419 17.7769 46.5856 17.7207 46.5856 17.7207C46.5294 17.6644 46.5294 17.6081 46.4731 17.5519L36.7408 6.63822C36.6846 6.58196 36.5721 6.5257 36.4596 6.46945C36.4033 6.46945 36.4033 6.41319 36.347 6.41319C36.2345 6.35693 36.0658 6.30068 35.897 6.30068H13.9571C14.0134 3.99418 15.8698 2.13773 18.1763 2.13773H46.3044C48.6671 2.13773 50.5236 4.05044 50.5236 6.35694V45.3986H50.5798C50.5798 47.5926 48.8359 49.4491 46.6982 49.6178Z" fill="#FFE165"/>
<path d="M13.4508 19.2959H22.8456C23.4081 19.2959 23.9144 18.8459 23.9144 18.2271C23.9144 17.6645 23.4644 17.1582 22.8456 17.1582H13.4508C12.8882 17.1582 12.3819 17.6083 12.3819 18.2271C12.3819 18.8459 12.832 19.2959 13.4508 19.2959Z" fill="#FFE165"/>
<path d="M22.7893 45.1177H13.4508C12.8882 45.1177 12.3819 45.5677 12.3819 46.1865C12.3819 46.7491 12.832 47.2554 13.4508 47.2554H22.8456C23.4081 47.2554 23.9144 46.8054 23.9144 46.1865C23.8582 45.624 23.4081 45.1177 22.7893 45.1177Z" fill="#FFE165"/>
<path d="M12.3819 25.315C12.3819 25.8775 12.832 26.3838 13.4508 26.3838H38.541C39.1036 26.3838 39.6099 25.9338 39.6099 25.315C39.6099 24.7524 39.1036 24.2461 38.541 24.2461H13.4508C12.8882 24.2461 12.3819 24.6961 12.3819 25.315Z" fill="#FFE165"/>
<path d="M38.541 29.478H13.4508C12.8882 29.478 12.3819 29.9281 12.3819 30.5469C12.3819 31.1095 12.832 31.6158 13.4508 31.6158H38.541C39.1036 31.6158 39.6099 31.1657 39.6099 30.5469C39.6099 29.9843 39.1036 29.478 38.541 29.478Z" fill="#FFE165"/>
<path d="M38.541 34.7661H13.4508C12.8882 34.7661 12.3819 35.2162 12.3819 35.835C12.3819 36.3975 12.832 36.9038 13.4508 36.9038H38.541C39.1036 36.9038 39.6099 36.4538 39.6099 35.835C39.6099 35.2162 39.1036 34.7661 38.541 34.7661Z" fill="#FFE165"/>
<path d="M38.541 39.998H13.4508C12.8882 39.998 12.3819 40.4481 12.3819 41.0669C12.3819 41.6295 12.832 42.1358 13.4508 42.1358H38.541C39.1036 42.1358 39.6099 41.6857 39.6099 41.0669C39.6099 40.4481 39.1036 39.998 38.541 39.998Z" fill="#FFE165"/>
</svg>
