<svg width="30" height="30" viewBox="0 0 30 30" fill="none" xmlns="http://www.w3.org/2000/svg">
<circle cx="15" cy="15" r="15" fill="#436EAB"/>
<g clip-path="url(#clip0)">
<path d="M22.9341 17.6917C23.6639 18.4042 24.4341 19.0745 25.0887 19.8589C25.3778 20.2074 25.6515 20.5671 25.8609 20.9716C26.1577 21.5466 25.8889 22.1793 25.3733 22.2137L22.1683 22.2122C21.3417 22.2808 20.6822 21.948 20.1278 21.3828C19.684 20.9308 19.2731 20.4498 18.8464 19.9826C18.6715 19.7916 18.4884 19.6119 18.2697 19.4699C17.8321 19.1859 17.4523 19.2728 17.2023 19.7291C16.9477 20.1933 16.8899 20.7072 16.8649 21.2244C16.8305 21.9791 16.6024 22.1776 15.8443 22.2121C14.2242 22.2885 12.6866 22.0434 11.2582 21.2261C9.99886 20.5056 9.02235 19.4884 8.17234 18.3369C6.51749 16.0947 5.25012 13.6308 4.11111 11.0978C3.85471 10.5272 4.04223 10.2208 4.67189 10.21C5.71745 10.1897 6.76288 10.1911 7.80969 10.2085C8.23465 10.2147 8.51596 10.4585 8.68006 10.8599C9.24575 12.2509 9.93793 13.5742 10.8068 14.8008C11.0381 15.1274 11.2741 15.454 11.61 15.6838C11.9817 15.9383 12.2647 15.854 12.4395 15.44C12.5505 15.1774 12.5991 14.8946 12.6241 14.6135C12.7069 13.6461 12.7178 12.6804 12.5726 11.7165C12.4834 11.1149 12.1445 10.7254 11.5442 10.6116C11.2379 10.5535 11.2835 10.4395 11.4318 10.2647C11.6894 9.96312 11.9317 9.77539 12.4147 9.77539H16.0369C16.6071 9.88793 16.7337 10.1441 16.8118 10.7179L16.8149 14.7413C16.8087 14.9634 16.9259 15.6226 17.3259 15.7696C17.6461 15.8743 17.8572 15.6181 18.0494 15.4151C18.9166 14.4946 19.5356 13.4068 20.0885 12.2805C20.3339 11.7852 20.5449 11.2708 20.7494 10.7569C20.9009 10.3755 21.1387 10.1879 21.5682 10.1962L25.0544 10.1993C25.1578 10.1993 25.2623 10.2008 25.3625 10.2179C25.9499 10.318 26.1109 10.5707 25.9294 11.1444C25.6436 12.0444 25.0873 12.7944 24.5435 13.5478C23.9621 14.3522 23.3403 15.1292 22.7638 15.9383C22.2341 16.6774 22.2761 17.0499 22.9341 17.6917Z" fill="white"/>
</g>
<defs>
<clipPath id="clip0">
<rect x="4" y="5" width="22" height="22" fill="white"/>
</clipPath>
</defs>
</svg>
