<svg width="30" height="27" viewBox="0 0 30 27" fill="none" xmlns="http://www.w3.org/2000/svg">
<path d="M14.557 0C8.64722 0 3.83868 4.45924 3.83868 9.94031C3.83868 11.37 4.15423 12.735 4.77608 13.9978C7.45596 19.436 12.594 25.1777 14.1053 26.8077C14.2185 26.9295 14.3836 26.9997 14.5573 26.9997C14.731 26.9997 14.8961 26.9295 15.0093 26.8077C16.52 25.1779 21.6581 19.4366 24.3389 13.9978C24.961 12.735 25.2762 11.37 25.2762 9.94031C25.2757 4.45924 20.4671 0 14.557 0ZM14.557 15.1033C11.4871 15.1033 8.98928 12.787 8.98928 9.94004C8.98928 7.09284 11.4871 4.77646 14.557 4.77646C17.6269 4.77646 20.1248 7.09284 20.1248 9.94004C20.1251 12.787 17.6272 15.1033 14.557 15.1033Z" fill="white"/>
</svg>
