<svg width="51" height="51" viewBox="0 0 51 51" fill="none" xmlns="http://www.w3.org/2000/svg">
<g filter="url(#filter0_d)">
<circle cx="25.5" cy="21.5" r="21.5" fill="white"/>
</g>
<path d="M25.7464 5.46927L27.813 4.68833C28.0435 4.60124 28.3029 4.64233 28.4952 4.79641L30.2194 6.17775C30.3519 6.28391 30.5185 6.33805 30.6881 6.33005L32.8949 6.22594C33.1411 6.21432 33.3751 6.33354 33.5103 6.53957L34.7232 8.3861C34.8164 8.52801 34.9581 8.63096 35.1219 8.67574L37.2529 9.25864C37.4906 9.32365 37.6762 9.50931 37.7412 9.747L38.3241 11.878C38.3689 12.0417 38.4719 12.1835 38.6138 12.2766L40.4603 13.4895C40.6663 13.6249 40.7856 13.8588 40.7739 14.105L40.6698 16.3118C40.6618 16.4814 40.716 16.648 40.8221 16.7805L42.2035 18.5047C42.3575 18.6969 42.3986 18.9564 42.3115 19.1869L41.5306 21.2535C41.4706 21.4122 41.4706 21.5875 41.5306 21.7463L42.3115 23.8128C42.3986 24.0433 42.3575 24.3028 42.2035 24.4951L40.8221 26.2192C40.716 26.3517 40.6618 26.5184 40.6698 26.6879L40.7739 28.8947C40.7856 29.1409 40.6663 29.3749 40.4603 29.5102L38.6138 30.7231C38.4719 30.8162 38.3689 30.9579 38.3241 31.1217L37.7412 33.2527C37.6762 33.4904 37.4906 33.6761 37.2529 33.7411L35.1219 34.324C34.9582 34.3687 34.8164 34.4717 34.7232 34.6136L33.5103 36.4601C33.375 36.6661 33.1411 36.7854 32.8949 36.7738L30.6881 36.6697C30.5185 36.6617 30.3519 36.7159 30.2194 36.822L28.4952 38.2033C28.3029 38.3574 28.0435 38.3985 27.813 38.3114L25.7464 37.5304C25.5876 37.4704 25.4124 37.4704 25.2536 37.5304L23.1871 38.3114C22.9565 38.3985 22.6971 38.3574 22.5048 38.2033L20.7807 36.822C20.6482 36.7158 20.4815 36.6617 20.312 36.6697L18.1052 36.7738C17.859 36.7854 17.625 36.6662 17.4897 36.4601L16.2768 34.6136C16.1836 34.4717 16.0419 34.3687 15.8781 34.324L13.7472 33.7411C13.5095 33.6761 13.3238 33.4904 13.2588 33.2527L12.6759 31.1217C12.6311 30.958 12.5282 30.8162 12.3863 30.7231L10.5398 29.51C10.3339 29.3747 10.2146 29.1408 10.2262 28.8946L10.3303 26.6877C10.3383 26.5181 10.2841 26.3516 10.178 26.2191L8.79666 24.4949C8.64257 24.3026 8.60149 24.0432 8.68858 23.8127L9.46952 21.7461C9.52954 21.5873 9.52954 21.4121 9.46952 21.2533L8.68858 19.1866C8.60149 18.9561 8.64257 18.6967 8.79666 18.5044L10.178 16.7802C10.2842 16.6477 10.3383 16.4811 10.3303 16.3115L10.2262 14.1047C10.2146 13.8585 10.3338 13.6245 10.5398 13.4893L12.3863 12.2764C12.5283 12.1832 12.6312 12.0415 12.676 11.8777L13.2589 9.74672C13.3239 9.50904 13.5096 9.32337 13.7472 9.25836L15.8782 8.67546C16.0419 8.63069 16.1837 8.52774 16.2769 8.38582L17.4898 6.5393C17.6251 6.33333 17.8591 6.21405 18.1052 6.22567L20.3121 6.32978C20.4816 6.33785 20.6483 6.28357 20.7807 6.17748L22.5049 4.79614C22.6972 4.64206 22.9566 4.60097 23.1871 4.68806L25.2537 5.469C25.4124 5.52922 25.5876 5.52922 25.7464 5.46927Z" fill="#FFC850"/>
<path d="M30.761 33.7757C21.0759 33.7757 13.2245 25.9243 13.2245 16.2391C13.2245 13.6452 13.7922 11.1854 14.8028 8.97021L13.7473 9.25896C13.5096 9.32397 13.324 9.50964 13.259 9.74732L12.676 11.8783C12.6312 12.042 12.5283 12.1838 12.3863 12.277L10.5398 13.4899C10.3339 13.6253 10.2146 13.8592 10.2262 14.1053L10.3303 16.3122C10.3383 16.4817 10.2841 16.6483 10.178 16.7808L8.79666 18.505C8.64257 18.6973 8.60149 18.9567 8.68858 19.1871L9.46952 21.2537C9.52954 21.4125 9.52954 21.5877 9.46952 21.7465L8.68858 23.8131C8.60149 24.0436 8.64257 24.303 8.79666 24.4953L10.178 26.2195C10.2842 26.352 10.3383 26.5186 10.3303 26.6882L10.2262 28.895C10.2146 29.1412 10.3338 29.3752 10.5398 29.5104L12.3863 30.7233C12.5282 30.8165 12.6312 30.9582 12.676 31.122L13.259 33.253C13.324 33.4907 13.5096 33.6763 13.7473 33.7415L15.8783 34.3244C16.042 34.3692 16.1838 34.4722 16.2769 34.6141L17.4898 36.4606C17.6252 36.6666 17.8591 36.7858 18.1053 36.7742L20.3121 36.6701C20.4817 36.6621 20.6483 36.7163 20.7808 36.8224L22.505 38.2038C22.6973 38.3578 22.9567 38.3989 23.1871 38.3118L25.2537 37.5309C25.4125 37.4709 25.5877 37.4709 25.7465 37.5309L27.8131 38.3118C28.0436 38.3989 28.303 38.3579 28.4952 38.2038L30.2194 36.8224C30.3519 36.7163 30.5185 36.6622 30.6881 36.6701L32.8949 36.7742C33.1411 36.7859 33.3751 36.6666 33.5103 36.4606L34.7232 34.6141C34.8164 34.4722 34.9581 34.3692 35.1219 34.3244L37.2529 33.7415C37.4906 33.6765 37.6762 33.4908 37.7412 33.253L38.03 32.1974C35.8147 33.2081 33.3548 33.7757 30.761 33.7757Z" fill="#E1A546"/>
<path d="M25.4999 34.9445C32.9252 34.9445 38.9446 28.9251 38.9446 21.4998C38.9446 14.0746 32.9252 8.05518 25.4999 8.05518C18.0746 8.05518 12.0553 14.0746 12.0553 21.4998C12.0553 28.9251 18.0746 34.9445 25.4999 34.9445Z" fill="#FFDC64"/>
<path d="M31.0055 31.0652C30.9073 30.9016 30.7368 30.7973 30.547 30.7779C23.7719 30.0851 18.4854 24.3657 18.4854 17.4078C18.4854 15.6449 18.8265 13.9624 19.4441 12.4202C19.6017 12.0267 19.1615 11.6705 18.8139 11.9133C15.4449 14.2662 13.3719 18.3458 13.8873 22.8716C14.4866 28.1337 18.6934 32.3926 23.9439 33.0875C26.4271 33.4161 28.7648 32.9425 30.7747 31.9143C31.0831 31.7566 31.1837 31.3623 31.0055 31.0652Z" fill="#FFC850"/>
<path d="M34.2712 19.4542C34.2712 18.6471 33.6169 17.9928 32.8098 17.9928H27.7506C29.1114 16.8911 30.0354 15.4132 30.169 14.1978C30.268 13.2965 29.6449 12.4406 28.7383 12.4322C27.9253 12.4247 27.2635 13.0748 27.2635 13.8861C27.2635 14.4124 26.1212 15.9742 23.9806 16.6692C23.6373 16.7805 23.3381 16.9925 23.0911 17.2556C22.9092 17.4492 22.4244 18.0391 21.949 18.3607C21.8627 18.1455 21.6542 17.9927 21.4081 17.9927H17.9008C17.578 17.9927 17.3163 18.2545 17.3163 18.5773V27.9301C17.3163 28.2529 17.578 28.5146 17.9008 28.5146H21.4081C21.7309 28.5146 21.9927 28.2529 21.9927 27.9301H31.3484C31.9941 27.9301 32.5175 27.4066 32.5175 26.761C32.5175 26.1153 31.9941 25.5919 31.3484 25.5919H31.933C32.5787 25.5919 33.102 25.0684 33.102 24.4228C33.102 23.7771 32.5787 23.2538 31.933 23.2538H32.5175C33.1632 23.2538 33.6866 22.7303 33.6866 22.0847C33.6866 21.4389 33.1632 20.9156 32.5175 20.9156H32.8098C33.6169 20.9155 34.2712 20.2613 34.2712 19.4542Z" fill="white"/>
<path d="M30.761 24.4229C30.4382 24.4229 30.1765 24.6846 30.1765 25.0074C30.1765 25.3302 30.4382 25.5919 30.761 25.5919H31.3485H31.8705C32.4529 25.5919 32.9927 25.1939 33.0862 24.6191C33.097 24.5523 33.0964 24.4876 33.0962 24.4229H30.761Z" fill="#FFFAB4"/>
<path d="M30.761 22.0845C30.4382 22.0845 30.1765 22.3462 30.1765 22.669C30.1765 22.9918 30.4382 23.2536 30.761 23.2536H31.933H32.4551C33.0374 23.2536 33.5772 22.8556 33.6707 22.2807C33.6815 22.2139 33.6809 22.1492 33.6808 22.0845H30.761Z" fill="#FFFAB4"/>
<path d="M30.761 19.7466C30.4382 19.7466 30.1765 20.0083 30.1765 20.3311C30.1765 20.6539 30.4382 20.9157 30.761 20.9157H32.5176H32.8099C33.516 20.9157 34.0975 20.4122 34.234 19.7466H30.761Z" fill="#FFFAB4"/>
<path d="M23.7464 26.1764V19.0162C23.7464 18.7618 23.9101 18.5392 24.1518 18.4601C25.3298 18.0738 28.6867 16.6326 28.9746 12.686C28.8771 12.5859 28.8247 12.5321 28.7272 12.4321C27.9192 12.4306 27.2635 13.0785 27.2635 13.8861C27.2635 14.4124 26.1212 15.9742 23.9805 16.6692C23.6373 16.7805 23.3381 16.9925 23.0911 17.2556C22.9147 17.4433 22.4536 18.0013 21.9926 18.3285V26.7609H20.239C19.5933 26.7609 19.0699 26.2376 19.0699 25.5919V17.9927H17.9008C17.578 17.9927 17.3163 18.2544 17.3163 18.5772V27.93C17.3163 28.2528 17.578 28.5146 17.9008 28.5146H21.4081C21.7309 28.5146 21.9927 28.2528 21.9927 27.93H31.3484C31.9941 27.93 32.5175 27.4065 32.5175 26.7609H24.3308C24.0081 26.7609 23.7464 26.4993 23.7464 26.1764Z" fill="#FFFAB4"/>
<path d="M34.8192 19.4543C34.8192 18.3463 33.9178 17.4449 32.8098 17.4449H29.1169C30.0141 16.4364 30.6005 15.288 30.7138 14.2578C30.7829 13.6285 30.5885 13.0039 30.1802 12.5441C29.8071 12.1237 29.2967 11.8895 28.7433 11.8843C28.7369 11.8843 28.7305 11.8843 28.7241 11.8843C28.1888 11.8843 27.6863 12.0904 27.3071 12.4662C26.9279 12.8419 26.718 13.3425 26.7156 13.8767C26.6961 13.9937 26.4903 14.397 25.9869 14.8758C25.5746 15.2679 24.8626 15.8069 23.8113 16.1482C23.3991 16.282 23.0224 16.5285 22.6917 16.8807C22.5181 17.0654 22.2582 17.3205 21.9364 17.5766C21.7785 17.4929 21.5989 17.445 21.4081 17.445H17.9008C17.2763 17.445 16.7682 17.9531 16.7682 18.5776V27.9304C16.7682 28.5549 17.2763 29.063 17.9008 29.063H21.4081C21.8339 29.063 22.2051 28.8266 22.3986 28.4784H31.3484C32.2953 28.4784 33.0655 27.7082 33.0655 26.7613C33.0655 26.443 32.9785 26.1447 32.8269 25.8887C33.3202 25.5867 33.6501 25.0427 33.6501 24.4231C33.6501 24.1047 33.5631 23.8064 33.4114 23.5505C33.9048 23.2485 34.2346 22.7045 34.2346 22.0849C34.2346 21.7265 34.1243 21.3935 33.9358 21.1179C34.4685 20.7561 34.8192 20.1454 34.8192 19.4543ZM32.8098 20.3677H32.5175C32.2149 20.3677 31.9695 20.613 31.9695 20.9157C31.9695 21.2183 32.2148 21.4637 32.5175 21.4637C32.86 21.4637 33.1386 21.7424 33.1386 22.0849C33.1386 22.4273 32.86 22.706 32.5175 22.706H31.933C31.6303 22.706 31.3849 22.9513 31.3849 23.254C31.3849 23.5567 31.6303 23.8021 31.933 23.8021C32.2754 23.8021 32.5541 24.0807 32.5541 24.4232C32.5541 24.7656 32.2754 25.0443 31.933 25.0443H31.3484C31.0458 25.0443 30.8004 25.2896 30.8004 25.5923C30.8004 25.895 31.0457 26.1404 31.3484 26.1404C31.6909 26.1404 31.9695 26.419 31.9695 26.7615C31.9695 27.1039 31.6909 27.3826 31.3484 27.3826H22.5407V22.0851C22.5407 21.7824 22.2954 21.537 21.9927 21.537C21.6901 21.537 21.4446 21.7824 21.4446 22.0851V27.9305C21.4446 27.9507 21.4283 27.9671 21.4081 27.9671H17.9008C17.8807 27.9671 17.8643 27.9507 17.8643 27.9305V18.5775C17.8643 18.5573 17.8807 18.541 17.9008 18.541H21.4081C21.4283 18.541 21.4446 18.5573 21.4446 18.5775V19.7466C21.4446 20.0493 21.69 20.2947 21.9927 20.2947C22.2953 20.2947 22.5407 20.0493 22.5407 19.7466V18.5775C22.5407 18.5509 22.5385 18.5248 22.5367 18.4987C22.9476 18.1807 23.2762 17.8591 23.4906 17.6309C23.6934 17.4148 23.9152 17.2668 24.1497 17.1907C25.4396 16.7719 26.3077 16.0976 26.8087 15.6057C27.4367 14.9892 27.8115 14.3464 27.8115 13.8863C27.8115 13.6432 27.9063 13.4154 28.0785 13.2448C28.2528 13.072 28.4837 12.9808 28.7331 12.9804C29.0403 12.9833 29.2438 13.1404 29.3605 13.2718C29.5605 13.4971 29.6589 13.821 29.6241 14.1381C29.5044 15.227 28.6336 16.573 27.4056 17.5671C27.2252 17.7131 27.1563 17.9571 27.2338 18.1759C27.3113 18.3947 27.5182 18.541 27.7504 18.541H32.8097C33.3133 18.541 33.723 18.9507 33.723 19.4543C33.723 19.958 33.3134 20.3677 32.8098 20.3677Z" fill="black"/>
<path d="M19.6545 25.6226C19.3519 25.6226 19.1036 25.8708 19.1036 26.1735C19.1036 26.4761 19.3519 26.7244 19.6545 26.7244C19.9571 26.7244 20.2054 26.4761 20.2054 26.1735C20.2054 25.8708 19.9572 25.6226 19.6545 25.6226Z" fill="black"/>
<path d="M42.0229 21.5005L42.9643 19.0092C43.0329 18.828 43.0005 18.6241 42.8793 18.4728L41.2142 16.3944L41.3397 13.7342C41.3488 13.5408 41.2551 13.3567 41.0932 13.2504L38.8673 11.7882L38.1647 9.21943C38.1135 9.03253 37.9675 8.88652 37.7807 8.83545L35.2119 8.13286L33.7497 5.90701C33.6434 5.74506 33.4593 5.65168 33.2659 5.6605L30.6057 5.78601L28.5273 4.12084C28.3761 3.99971 28.1722 3.96738 27.9909 4.03587L25.4996 4.97732L23.0086 4.03594C22.8272 3.96738 22.6234 3.99971 22.4721 4.12091L20.3938 5.78608L17.7335 5.66057C17.5391 5.65141 17.356 5.7452 17.2497 5.90707L15.7876 8.13299L13.2188 8.83559C13.0319 8.88672 12.8859 9.03274 12.8348 9.21956L12.1322 11.7884L9.90633 13.2505C9.74438 13.3569 9.65066 13.5409 9.65982 13.7344L9.78533 16.3946L8.12016 18.4729C7.99903 18.6241 7.9667 18.828 8.03519 19.0093L8.97657 21.5005L8.03513 23.9916C7.96656 24.1728 7.9989 24.3768 8.1201 24.528L9.78526 26.6064L9.65975 29.2666C9.65059 29.4601 9.74438 29.6442 9.90626 29.7505L12.1322 31.2126L12.8348 33.7814C12.8859 33.9683 13.0319 34.1143 13.2187 34.1654L15.7876 34.868L17.2497 37.0939C17.3561 37.2559 17.5404 37.349 17.7335 37.3404L20.3938 37.2149L22.4721 38.8801C22.6234 39.0013 22.8273 39.0336 23.0086 38.9651L25.4998 38.0236L27.991 38.9651C28.0539 38.9888 28.1195 39.0004 28.1847 39.0004C28.3074 39.0004 28.4286 38.9592 28.5274 38.8801L30.6058 37.2149L33.266 37.3404C33.46 37.349 33.6434 37.2558 33.7498 37.0939L35.2119 34.868L37.7808 34.1654C37.9676 34.1143 38.1137 33.9683 38.1647 33.7814L38.8673 31.2126L41.0932 29.7505C41.2552 29.6441 41.3489 29.4601 41.3397 29.2666L41.2142 26.6064L42.8794 24.528C43.0005 24.3768 43.0329 24.1729 42.9644 23.9916L42.0229 21.5005ZM40.9244 21.6942L41.8285 24.0867L40.2293 26.0827C40.1459 26.1868 40.1033 26.3179 40.1096 26.4512L40.2301 29.006L38.0924 30.4102C37.9809 30.4834 37.8998 30.5949 37.8646 30.7236L37.1899 33.1907L34.7228 33.8654C34.5941 33.9006 34.4827 33.9817 34.4093 34.0932L33.0052 36.2309L30.4504 36.1104C30.317 36.1042 30.186 36.1467 30.0819 36.2301L28.0859 37.8293L25.6934 36.9252C25.631 36.9016 25.5653 36.8899 25.4996 36.8899C25.434 36.8899 25.3683 36.9017 25.3059 36.9252L22.9134 37.8293L20.9174 36.2301C20.8133 36.1467 20.682 36.1042 20.5489 36.1104L17.9941 36.2309L16.59 34.0932C16.5167 33.9817 16.4053 33.9006 16.2765 33.8654L13.8094 33.1907L13.1347 30.7236C13.0995 30.5949 13.0185 30.4835 12.9069 30.4102L10.7692 29.006L10.8898 26.4512C10.8961 26.3178 10.8535 26.1868 10.77 26.0827L9.17085 24.0867L10.075 21.6942C10.1222 21.5694 10.1222 21.4316 10.075 21.3067L9.17085 18.9142L10.77 16.9182C10.8535 16.8141 10.8961 16.683 10.8898 16.5497L10.7692 13.9949L12.9069 12.5908C13.0184 12.5176 13.0995 12.4061 13.1347 12.2773L13.8094 9.81026L16.2765 9.13548C16.4052 9.10028 16.5166 9.01927 16.59 8.90771L17.9941 6.77004L20.5489 6.89063C20.6821 6.89685 20.8133 6.85433 20.9174 6.77086L22.9134 5.17166L25.3059 6.07578C25.4308 6.12302 25.5686 6.12302 25.6934 6.07578L28.0859 5.17166L30.0819 6.77086C30.186 6.8544 30.3171 6.89692 30.4504 6.89063L33.0052 6.77004L34.4093 8.90771C34.4825 9.0192 34.594 9.10028 34.7228 9.13548L37.1899 9.81026L37.8646 12.2773C37.8998 12.406 37.9808 12.5174 38.0924 12.5908L40.2301 13.9949L40.1095 16.5497C40.1032 16.6831 40.1458 16.8141 40.2292 16.9182L41.8284 18.9142L40.9243 21.3067C40.8772 21.4316 40.8772 21.5694 40.9244 21.6942Z" fill="black"/>
<path d="M34.6016 12.3736C34.7334 12.5054 34.864 12.6417 34.9899 12.7787C35.0979 12.8964 35.2456 12.9561 35.3937 12.9561C35.5261 12.9561 35.659 12.9084 35.7642 12.8118C35.9871 12.6071 36.0019 12.2604 35.7973 12.0375C35.6609 11.889 35.5194 11.7414 35.3766 11.5986C35.2338 11.4559 35.0862 11.3144 34.9378 11.178C34.7149 10.9734 34.3682 10.9881 34.1635 11.2111C33.9588 11.434 33.9736 11.7807 34.1965 11.9854C34.3335 12.1112 34.4698 12.2418 34.6016 12.3736Z" fill="black"/>
<path d="M16.363 12.3735C18.4507 10.2857 21.2146 8.96879 24.1454 8.66521C27.0353 8.36579 29.9676 9.05547 32.4027 10.6068C32.658 10.7694 32.9966 10.6944 33.1593 10.4391C33.3219 10.1839 33.2468 9.84516 32.9916 9.68253C30.3488 7.99884 27.167 7.25058 24.0325 7.57508C20.8521 7.90457 17.8531 9.33342 15.588 11.5985C13.0951 14.0914 11.6437 17.403 11.5011 20.9233C11.3595 24.4228 12.5186 27.8205 14.7651 30.4904C14.8734 30.6192 15.0284 30.6855 15.1847 30.6855C15.3093 30.6855 15.4344 30.6433 15.5372 30.5569C15.7688 30.362 15.7986 30.0163 15.6038 29.7848C13.5338 27.3246 12.4657 24.1933 12.5964 20.9676C12.7277 17.7232 14.0654 14.6711 16.363 12.3735Z" fill="black"/>
<path d="M36.5361 13.8154C36.2807 13.9781 36.2058 14.3168 36.3684 14.572C37.9197 17.0071 38.6093 19.9396 38.31 22.8293C38.0064 25.7601 36.6895 28.524 34.6018 30.6118C32.3041 32.9094 29.252 34.2471 26.0076 34.3785C22.7825 34.5096 19.6506 33.4411 17.1905 31.3711C16.959 31.1763 16.6133 31.2061 16.4184 31.4377C16.2235 31.6692 16.2533 32.0149 16.4849 32.2098C19.0088 34.3334 22.1827 35.4854 25.4787 35.4853C25.6693 35.4853 25.8607 35.4814 26.0521 35.4737C29.5724 35.3311 32.884 33.8797 35.3769 31.3869C37.6421 29.1217 39.071 26.1227 39.4003 22.9423C39.725 19.8077 38.9766 16.626 37.2929 13.9832C37.1301 13.7279 36.7912 13.6527 36.5361 13.8154Z" fill="black"/>
<defs>
<filter id="filter0_d" x="0" y="0" width="51" height="51" filterUnits="userSpaceOnUse" color-interpolation-filters="sRGB">
<feFlood flood-opacity="0" result="BackgroundImageFix"/>
<feColorMatrix in="SourceAlpha" type="matrix" values="0 0 0 0 0 0 0 0 0 0 0 0 0 0 0 0 0 0 127 0"/>
<feOffset dy="4"/>
<feGaussianBlur stdDeviation="2"/>
<feColorMatrix type="matrix" values="0 0 0 0 0 0 0 0 0 0 0 0 0 0 0 0 0 0 0.25 0"/>
<feBlend mode="normal" in2="BackgroundImageFix" result="effect1_dropShadow"/>
<feBlend mode="normal" in="SourceGraphic" in2="effect1_dropShadow" result="shape"/>
</filter>
</defs>
</svg>
