<svg width="25" height="25" viewBox="0 0 25 25" fill="none" xmlns="http://www.w3.org/2000/svg">
<path d="M19.9153 16.5254C18.7835 16.5254 17.7195 16.9661 16.9191 17.7665C16.697 17.9886 16.5059 18.2326 16.3407 18.4907L9.01864 14.0462C9.21229 13.5614 9.32203 13.0343 9.32203 12.4814C9.32203 11.9284 9.21229 11.4013 9.01907 10.9165L16.3428 6.50593C17.0953 7.68729 18.4136 8.47458 19.9153 8.47458C22.2517 8.47458 24.1525 6.57373 24.1525 4.23729C24.1525 1.90085 22.2517 0 19.9153 0C17.5788 0 15.678 1.90085 15.678 4.23729C15.678 4.76949 15.7809 5.27712 15.9606 5.74661L8.62754 10.1631C7.86992 9.0089 6.56568 8.24407 5.08475 8.24407C2.74831 8.24407 0.847458 10.1449 0.847458 12.4814C0.847458 14.8178 2.74831 16.7186 5.08475 16.7186C6.56568 16.7186 7.86949 15.9538 8.62712 14.7996L15.9593 19.25C15.7771 19.7271 15.678 20.2369 15.678 20.7627C15.678 21.8945 16.1186 22.9589 16.9191 23.7589C17.7195 24.5593 18.7835 25 19.9153 25C21.047 25 22.111 24.5593 22.9114 23.7589C23.7119 22.9589 24.1525 21.8945 24.1525 20.7627C24.1525 19.6309 23.7119 18.5665 22.9114 17.7665C22.111 16.9661 21.047 16.5254 19.9153 16.5254Z" fill="white"/>
</svg>
