<svg width="28" height="27" viewBox="0 0 28 27" fill="none" xmlns="http://www.w3.org/2000/svg">
<path fill-rule="evenodd" clip-rule="evenodd" d="M11.3859 4.25565L0.733141 14.839C-0.155687 15.7221 -0.151302 17.1548 0.743166 18.0325L9.21252 26.3431C9.64441 26.7668 10.2171 27 10.8256 27H10.8329C11.4444 26.9982 12.0183 26.7613 12.4494 26.3332L23.1022 15.7499C23.4722 15.3824 23.7044 14.896 23.7558 14.3804C23.7585 14.3545 23.7598 14.3285 23.7598 14.3024L23.7542 5.84839C23.7539 5.53301 23.688 5.22773 23.5639 4.94696L27.2069 1.35011C27.5198 1.04112 27.5196 0.540141 27.2063 0.231357C26.8928 -0.0774277 26.3851 -0.0770157 26.0721 0.231975L22.4489 3.80926C22.1457 3.66651 21.8115 3.59132 21.4657 3.59132H21.4642L13.16 3.59667L12.8547 3.59688C12.8274 3.59688 12.8 3.59832 12.7726 3.60121C12.2495 3.65476 11.757 3.88713 11.3859 4.25565ZM17.1811 6.55186C17.6629 6.07663 18.3032 5.81502 18.9844 5.81502C20.3906 5.81502 21.5344 6.94345 21.5344 8.33082C21.5344 9.71798 20.3906 10.8466 18.9844 10.8466C17.5783 10.8466 16.4343 9.71798 16.4343 8.33082C16.4343 7.65887 16.6995 7.02709 17.1811 6.55186ZM11.5605 9.8766L17.3018 15.5451C17.6148 15.8543 17.6146 16.3551 17.3012 16.6639C17.1447 16.8182 16.9397 16.8952 16.7344 16.8952C16.5291 16.8952 16.3238 16.818 16.1672 16.6633L10.4257 10.9947C10.1126 10.6857 10.113 10.1848 10.4263 9.87598C10.7396 9.56719 11.2475 9.5674 11.5605 9.8766ZM9.31214 12.0964L15.0534 17.7651C15.3665 18.0741 15.3662 18.5751 15.0528 18.8839C14.8964 19.0382 14.6913 19.1152 14.486 19.1152C14.2807 19.1152 14.0754 19.038 13.9188 18.8833L8.1773 13.2145C7.86445 12.9055 7.86466 12.4046 8.17792 12.0958C8.49118 11.7872 8.99909 11.7874 9.31214 12.0964ZM18.9854 9.26521C19.5071 9.26521 19.9317 8.84642 19.9317 8.33144C19.9317 7.81645 19.5071 7.39767 18.9854 7.39746C18.7327 7.39746 18.4952 7.49469 18.3165 7.67102C18.1377 7.84735 18.0393 8.08198 18.0393 8.33144C18.0393 8.84642 18.4637 9.26521 18.9854 9.26521Z" fill="#FFE165"/>
</svg>
