<svg width="26" height="30" viewBox="0 0 26 30" fill="none" xmlns="http://www.w3.org/2000/svg">
<path d="M24.5264 15.5602L14.6264 5.66024C13.7974 4.83024 12.4564 4.36024 11.2914 4.48924L7.57944 4.90224L8.12744 1.14424C8.20644 0.598238 7.82844 0.0902377 7.28144 0.0102377C6.73544 -0.0677623 6.22744 0.308238 6.14744 0.855238L5.52444 5.13024L3.73044 5.32924C2.34444 5.48424 1.01644 6.81024 0.86044 8.20124L0.0214405 15.7592C-0.108559 16.9252 0.361441 18.2662 1.19144 19.0962L11.0904 28.9952C12.2604 30.1642 14.1624 30.1642 15.3324 28.9952L24.5244 19.8042C25.6954 18.6332 25.6954 16.7292 24.5264 15.5602ZM5.64344 11.2452C5.96744 11.2922 6.27944 11.1792 6.49544 10.9622C6.64244 10.8162 6.74544 10.6222 6.77744 10.4002L7.02544 8.69724C7.08544 8.74424 7.14744 8.78624 7.20244 8.84224C7.98344 9.62324 7.98244 10.8892 7.20244 11.6702C6.42144 12.4512 5.15544 12.4522 4.37344 11.6702C3.59344 10.8902 3.59344 9.62324 4.37344 8.84224C4.57244 8.64324 4.80344 8.49524 5.04844 8.39924L4.79844 10.1122C4.71944 10.6582 5.09744 11.1652 5.64344 11.2452ZM14.0804 21.4072L13.0684 22.4182L10.9894 12.6152L12.0084 11.5952L14.0804 21.4072ZM13.7394 16.5962C13.7234 16.0312 13.9454 15.5192 14.4044 15.0612C14.8454 14.6192 15.3194 14.4052 15.8254 14.4182C16.3304 14.4332 16.8204 14.6772 17.2974 15.1512C17.7854 15.6402 18.0374 16.1662 18.0554 16.7292C18.0724 17.2912 17.8524 17.8022 17.3974 18.2582C16.9744 18.6802 16.5004 18.8872 15.9734 18.8762C15.4484 18.8662 14.9564 18.6362 14.5034 18.1832C14.0094 17.6892 13.7534 17.1602 13.7394 16.5962ZM11.3464 17.4222C11.3614 17.9842 11.1394 18.4912 10.6844 18.9462C10.2614 19.3692 9.78744 19.5752 9.26044 19.5662C8.73444 19.5562 8.24444 19.3252 7.79144 18.8722C7.29744 18.3782 7.04244 17.8492 7.02644 17.2832C7.01144 16.7192 7.23344 16.2072 7.69144 15.7482C8.13044 15.3102 8.60544 15.0982 9.11544 15.1122C9.62544 15.1272 10.1174 15.3722 10.5924 15.8472C11.0814 16.3362 11.3324 16.8612 11.3464 17.4222ZM23.8194 19.0952L14.6274 28.2862C13.8484 29.0662 12.5794 29.0662 11.7994 28.2862L1.90044 18.3882C1.29444 17.7812 0.921441 16.7222 1.01744 15.8682L1.85544 8.31224C1.90944 7.84124 2.14744 7.37324 2.52744 6.99324C2.90744 6.61324 3.37644 6.37524 3.84344 6.32324L5.37644 6.15324L5.22744 7.17624L3.95444 7.31624C3.40744 7.37724 2.91044 7.87424 2.85044 8.42124L2.01144 15.9802C1.94944 16.5272 2.21844 17.2922 2.60744 17.6812L12.5064 27.5792C12.8954 27.9692 13.5304 27.9692 13.9194 27.5792L23.1114 18.3882C23.5014 17.9982 23.5014 17.3632 23.1114 16.9742L13.2134 7.07524C12.8244 6.68624 12.0594 6.41724 11.5124 6.47924L7.28344 6.94724L7.43144 5.92624L11.4034 5.48524C12.2554 5.39024 13.3144 5.76124 13.9214 6.36824L23.8204 16.2672C24.5984 17.0462 24.5984 18.3152 23.8194 19.0952Z" fill="#FFE165"/>
<path d="M16.7164 17.4791C17.1094 17.0861 17.0284 16.6151 16.4764 16.0621C16.2194 15.8051 15.9674 15.6591 15.7224 15.6231C15.4764 15.5871 15.2674 15.6551 15.0964 15.8261C14.6964 16.2261 14.7764 16.7071 15.3354 17.2681C15.8664 17.8001 16.3264 17.8691 16.7164 17.4791Z" fill="#FFE165"/>
<path d="M8.39646 16.5023C7.99346 16.9053 8.07146 17.3883 8.63246 17.9483C9.16246 18.4783 9.61946 18.5523 10.0035 18.1683C10.3955 17.7763 10.3155 17.3043 9.76346 16.7513C9.22446 16.2123 8.76946 16.1293 8.39646 16.5023Z" fill="#FFE165"/>
</svg>
