<svg width="27" height="27" viewBox="0 0 27 27" fill="none" xmlns="http://www.w3.org/2000/svg">
<path d="M26.5123 6.00998L24.1433 3.64099C23.8184 3.31592 23.4234 3.15332 22.959 3.15332C22.4942 3.15332 22.0992 3.31592 21.7744 3.64099L10.3471 15.0855L5.22577 9.94674C4.90058 9.62155 4.50577 9.45913 4.0414 9.45913C3.57673 9.45913 3.18192 9.62155 2.85672 9.94674L0.487733 12.3158C0.162537 12.6409 0 13.0359 0 13.5005C0 13.9647 0.162537 14.36 0.487733 14.6851L6.79343 20.9907L9.1626 23.3596C9.48761 23.685 9.88254 23.8474 10.3471 23.8474C10.8115 23.8474 11.2064 23.6845 11.5316 23.3596L13.9007 20.9907L26.5123 8.37915C26.8372 8.05396 27 7.65909 27 7.19448C27.0002 6.73011 26.8372 6.33518 26.5123 6.00998Z" fill="#FFE165"/>
</svg>
