<svg width="29" height="28" viewBox="0 0 29 28" fill="none" xmlns="http://www.w3.org/2000/svg">
<path d="M4.54663 7.37126L14.5 10.5382L24.4534 7.37126L15.0323 4.37354V8.96806C15.0323 9.10922 14.9762 9.24461 14.8764 9.34443C14.7766 9.44425 14.6412 9.50032 14.5 9.50032C14.3588 9.50032 14.2235 9.44425 14.1236 9.34443C14.0238 9.24461 13.9677 9.10922 13.9677 8.96806V4.37354L4.54663 7.37126Z" fill="#FFE165"/>
<path d="M25.6776 23.4987V13.5453L18.3856 15.8623C18.334 15.8788 18.2801 15.8873 18.2259 15.8873C18.1501 15.8873 18.0752 15.8711 18.0062 15.8398C17.9371 15.8085 17.8756 15.7628 17.8256 15.7058L15.0323 12.5122V17.4841C15.0323 17.6253 14.9762 17.7607 14.8764 17.8605C14.7766 17.9603 14.6412 18.0164 14.5 18.0164C14.3589 18.0164 14.2235 17.9603 14.1237 17.8605C14.0239 17.7607 13.9678 17.6253 13.9678 17.4841V12.5133L11.1744 15.7069C11.1244 15.7637 11.0628 15.8092 10.9938 15.8403C10.9248 15.8714 10.8499 15.8874 10.7742 15.8873C10.72 15.8873 10.6661 15.8789 10.6145 15.8623L3.32245 13.5453V23.4987L13.9678 27.3694V22.8068C13.9678 22.6656 14.0239 22.5302 14.1237 22.4304C14.2235 22.3306 14.3589 22.2745 14.5 22.2745C14.6412 22.2745 14.7766 22.3306 14.8764 22.4304C14.9762 22.5302 15.0323 22.6656 15.0323 22.8068V27.3694L25.6776 23.4987ZM14.5 21.21C14.3589 21.21 14.2235 21.1539 14.1237 21.0541C14.0239 20.9543 13.9678 20.8189 13.9678 20.6777V19.6132C13.9678 19.472 14.0239 19.3366 14.1237 19.2368C14.2235 19.137 14.3589 19.0809 14.5 19.0809C14.6412 19.0809 14.7766 19.137 14.8764 19.2368C14.9762 19.3366 15.0323 19.472 15.0323 19.6132V20.6777C15.0323 20.8189 14.9762 20.9543 14.8764 21.0541C14.7766 21.1539 14.6412 21.21 14.5 21.21Z" fill="#FFE165"/>
<path d="M29 3.37403L18.3967 0L15.4357 3.38468L26.039 6.75871L29 3.37403Z" fill="#FFE165"/>
<path d="M26.039 7.98389L15.4357 11.3579L18.3967 14.7426L29 11.3686L26.039 7.98389Z" fill="#FFE165"/>
<path d="M13.5643 11.3579L2.961 7.98389L0 11.3686L10.6033 14.7426L13.5643 11.3579Z" fill="#FFE165"/>
<path d="M0 3.37403L2.961 6.75871L13.5643 3.38468L10.6033 0L0 3.37403Z" fill="#FFE165"/>
</svg>
