<svg width="38" height="20" viewBox="0 0 38 20" fill="none" xmlns="http://www.w3.org/2000/svg">
<path fill-rule="evenodd" clip-rule="evenodd" d="M27.5714 0C27.9516 0 28.205 0.249939 28.205 0.625V10H6.66126V0.625C6.66126 0.249939 6.91466 0 7.2949 0H27.5714ZM19.2072 8.75C20.348 8.75 21.235 7.87506 21.235 6.74988V5.625H19.9677V6.74988C19.9677 7.1875 19.6509 7.5 19.2072 7.5H15.6591C15.2154 7.5 14.8986 7.1875 14.8986 6.74988V3.25012C14.8986 2.8125 15.2154 2.5 15.6591 2.5H17.4332V1.25H15.6591C14.5183 1.25 13.6313 2.12494 13.6313 3.25012V6.74988C13.6313 7.87506 14.5183 8.75 15.6591 8.75H19.2072ZM15.7222 4.81262L17.4332 6.49994L21.6787 2.31262L20.7913 1.43738L17.4332 4.75006L16.6095 3.93738L15.7222 4.81262ZM33.591 4.375L37.7096 8.99994V10H29.4723V4.375H33.591ZM13.9481 14.375C12.364 14.375 11.0967 15.625 11.0967 17.1875C11.0967 18.75 12.364 20 13.9481 20C15.5322 20 16.7995 18.75 16.7995 17.1875C16.7995 15.625 15.5322 14.375 13.9481 14.375ZM13.4413 18.5626L12.554 17.6874L14.4549 15.8124L15.3423 16.6876L13.4413 18.5626ZM27.5714 17.1875C27.5714 15.625 28.8387 14.375 30.4228 14.375C32.0069 14.375 33.2742 15.625 33.2742 17.1875C33.2742 18.75 32.0069 20 30.4228 20C28.8387 20 27.5714 18.75 27.5714 17.1875ZM30.9296 15.8124L29.0286 17.6874L29.916 18.5626L31.8169 16.6876L30.9296 15.8124ZM37.7096 11.25H6.66126V15.625C6.66126 16.0001 6.91466 16.25 7.2949 16.25H9.95632C10.4631 14.0625 12.6808 12.6874 14.8986 13.2501C16.4193 13.6249 17.6231 14.7501 17.9399 16.25H26.431C26.9378 14.0625 29.1555 12.6874 31.3732 13.2501C32.8939 13.6249 34.0978 14.7501 34.4146 16.25H37.076C37.4563 16.25 37.7096 16.0001 37.7096 15.625V11.25ZM4.1267 3.125H2.22578V4.375H4.1267V3.125ZM1.59214 5H4.1267V6.25H1.59214V5ZM4.1267 6.875H0.958496V8.125H4.1267V6.875Z" fill="#FFE165"/>
</svg>
