<svg width="23" height="28" viewBox="0 0 23 28" fill="none" xmlns="http://www.w3.org/2000/svg">
<path fill-rule="evenodd" clip-rule="evenodd" d="M11.3104 0.0616981L22.0756 5.66923C22.2503 5.76016 22.3594 5.93821 22.3594 6.13175V13.3113C22.3588 19.4059 18.6192 24.9059 12.871 27.2658L11.2338 27.957C11.0978 28.0146 10.9431 28.0143 10.8074 27.9564L9.35445 27.3375C3.7109 24.9252 0.0615785 19.4779 0.0552979 13.4566V6.13175C0.0552979 5.94025 0.161769 5.76425 0.333438 5.67216L10.8008 0.0646217C10.9593 -0.0204562 11.1507 -0.0216255 11.3104 0.0616981ZM15.8405 8.37732C16.3436 7.87423 17.206 7.87423 17.7091 8.37732L18.7512 9.41943C19.2543 9.92251 19.2543 10.785 18.7512 11.288L12.0002 18.0084C11.9569 18.0718 11.9074 18.1319 11.8518 18.1875L10.8097 19.2296C10.3066 19.7327 9.44413 19.7327 8.94104 19.2296L4.37732 14.6299C3.87423 14.1269 3.87423 13.2644 4.37732 12.7613L5.41943 11.7192C5.92252 11.2161 6.78495 11.2161 7.28804 11.7192L9.86959 14.3211L15.8405 8.37732Z" fill="#FFE165"/>
</svg>
