<svg width="27" height="27" viewBox="0 0 27 27" fill="none" xmlns="http://www.w3.org/2000/svg">
<path d="M17.7188 1.6875H15.8861C15.5385 0.705375 14.6003 0 13.5 0C12.3997 0 11.4615 0.705375 11.1122 1.6875H9.28125C8.8155 1.6875 8.4375 2.0655 8.4375 2.53125V5.90625C8.4375 6.372 8.8155 6.75 9.28125 6.75H17.7188C18.1845 6.75 18.5625 6.372 18.5625 5.90625V2.53125C18.5625 2.0655 18.1845 1.6875 17.7188 1.6875Z" fill="#FFE165"/>
<path d="M21.9375 3.375H20.25V5.90625C20.25 7.30181 19.1143 8.4375 17.7188 8.4375H9.28125C7.88569 8.4375 6.75 7.30181 6.75 5.90625V3.375H5.0625C4.13269 3.375 3.375 4.13269 3.375 5.0625V25.3125C3.375 26.2592 4.11581 27 5.0625 27H21.9375C22.8842 27 23.625 26.2592 23.625 25.3125V5.0625C23.625 4.11581 22.8842 3.375 21.9375 3.375ZM13.2536 18.3161L9.87862 21.6911C9.71325 21.8548 9.49725 21.9375 9.28125 21.9375C9.06525 21.9375 8.84925 21.8548 8.68388 21.6911L6.99637 20.0036C6.66731 19.6746 6.66731 19.1396 6.99637 18.8106C7.32544 18.4815 7.86038 18.4815 8.18944 18.8106L9.28125 19.9007L12.0589 17.1231C12.3879 16.794 12.9229 16.794 13.2519 17.1231C13.581 17.4521 13.5827 17.9854 13.2536 18.3161ZM13.2536 11.5661L9.87862 14.9411C9.71325 15.1048 9.49725 15.1875 9.28125 15.1875C9.06525 15.1875 8.84925 15.1048 8.68388 14.9411L6.99637 13.2536C6.66731 12.9246 6.66731 12.3896 6.99637 12.0606C7.32544 11.7315 7.86038 11.7315 8.18944 12.0606L9.28125 13.1507L12.0589 10.3731C12.3879 10.044 12.9229 10.044 13.2519 10.3731C13.581 10.7021 13.5827 11.2354 13.2536 11.5661ZM19.4062 20.25H16.0312C15.5655 20.25 15.1875 19.872 15.1875 19.4062C15.1875 18.9405 15.5655 18.5625 16.0312 18.5625H19.4062C19.872 18.5625 20.25 18.9405 20.25 19.4062C20.25 19.872 19.872 20.25 19.4062 20.25ZM19.4062 13.5H16.0312C15.5655 13.5 15.1875 13.122 15.1875 12.6562C15.1875 12.1905 15.5655 11.8125 16.0312 11.8125H19.4062C19.872 11.8125 20.25 12.1905 20.25 12.6562C20.25 13.122 19.872 13.5 19.4062 13.5Z" fill="#FFE165"/>
</svg>
