<svg width="41" height="41" viewBox="0 0 41 41" fill="none" xmlns="http://www.w3.org/2000/svg">
<path fill-rule="evenodd" clip-rule="evenodd" d="M19.9498 5.6783C19.709 5.74284 19.566 5.99044 19.6306 6.23131L21.2068 12.1138C21.3804 12.0086 21.6097 12.031 21.7597 12.181L24.9525 15.3738L28.4017 11.9246L26.3908 4.4199C26.3263 4.17902 26.0787 4.03607 25.8378 4.10062L19.9498 5.6783ZM18.1677 17.0501C17.9914 16.8737 17.9914 16.5879 18.1677 16.4115L21.2807 13.2985C21.457 13.1222 21.7429 13.1222 21.9193 13.2985L25.0323 16.4115L33.174 8.26984C33.3503 8.0935 33.6362 8.09351 33.8126 8.26984L36.9256 11.3828C37.1019 11.5592 37.1019 11.8451 36.9256 12.0214L28.7839 20.1631L31.8969 23.2761C32.0732 23.4524 32.0732 23.7383 31.8969 23.9147L28.7839 27.0277C28.6075 27.204 28.3216 27.204 28.1453 27.0277L27.0649 25.9473C27.0451 26.0214 27.0061 26.0915 26.948 26.1496L21.2009 31.8967C21.0246 32.0731 20.7387 32.0731 20.5623 31.8967L13.2987 24.6331C13.1223 24.4567 13.1223 24.1708 13.2987 23.9945L19.0457 18.2474C19.1039 18.1892 19.174 18.1503 19.2481 18.1305L18.1677 17.0501ZM10.026 29.6618C9.84968 29.8381 9.84968 30.124 10.026 30.3003L11.0637 31.338L8.8287 33.573C8.60828 33.7934 8.60828 34.1508 8.8287 34.3712L10.904 36.4465C11.1245 36.6669 11.4818 36.6669 11.7022 36.4465L13.9372 34.2115L14.9749 35.2492C15.1512 35.4255 15.4371 35.4255 15.6135 35.2492L19.1256 31.7371L13.5381 26.1496L10.026 29.6618Z" fill="#FFE165"/>
</svg>
