<svg width="29" height="28" viewBox="0 0 29 28" fill="none" xmlns="http://www.w3.org/2000/svg">
<path d="M14.2212 0C22.0472 0 28.4147 6.28073 28.4147 14C28.4147 21.7193 22.0472 28 14.2212 28C6.3952 28 0.0276375 21.7193 0.0276375 14C0.0276375 6.28073 6.3952 0 14.2212 0ZM4.75875 14.5834V13.4166H3.60613C3.74409 10.9621 4.73579 8.73376 6.29947 7.01111L7.1125 7.81326L7.94892 6.98825L7.13567 6.18631C8.6006 4.8924 10.4257 3.99475 12.447 3.65808V4.6666H13.6297V3.52969C13.8268 3.51859 14.0213 3.5 14.2212 3.5C14.4211 3.5 14.6156 3.51859 14.8127 3.52969V4.6666H15.9954V3.65808C18.0167 3.99475 19.8418 4.8924 21.3067 6.18631L20.4935 6.98825L21.3299 7.81326L22.1429 7.01111C23.7066 8.73376 24.6983 10.9621 24.8362 13.4166H23.6836V14.5834H24.8362C24.6983 17.0379 23.7066 19.2662 22.1429 20.9889L21.3299 20.1867L20.4935 21.0117L21.3067 21.8137C19.8418 23.1076 18.0163 24.0052 15.9954 24.3419V23.3334H14.8127V24.4703C14.6156 24.4814 14.4211 24.5 14.2212 24.5C14.023 24.5 13.8262 24.4895 13.6297 24.4791V23.3334H12.447V24.3453C10.4593 24.0106 8.61771 23.1245 7.13156 21.8173L7.94892 21.0117L7.1125 20.1867L6.29103 20.9966C5.60513 20.2433 5.02254 19.3889 4.57553 18.4468L3.5039 18.9413C5.44313 23.0271 9.65034 25.6666 14.2212 25.6666C20.7432 25.6666 26.0491 20.433 26.0491 14C26.0491 7.56696 20.7432 2.3334 14.2212 2.3334C7.69921 2.3334 2.3933 7.56696 2.3933 14C2.3933 15.2495 2.59255 16.4791 2.9852 17.6551L4.10837 17.2894C3.81621 16.4156 3.64988 15.5073 3.59855 14.5834H4.75875ZM12.6203 14.7543L13.4565 15.5791L14.2212 14.8248L14.9859 15.5791L15.8221 14.7543L15.0574 14L19.3705 9.7457L18.5343 8.9209L14.2212 13.1752L8.72534 7.7543L7.88914 8.5791L13.385 14L12.6203 14.7543Z" fill="#FFE165"/>
</svg>
