<svg width="18" height="18" viewBox="0 0 18 18" fill="none" xmlns="http://www.w3.org/2000/svg">
<g clip-path="url(#clip0)">
<path d="M17.9614 13.9467C17.9105 13.7933 17.5866 13.5673 16.9899 13.2693C16.8282 13.1754 16.5979 13.0477 16.2999 12.8857C16.0016 12.7238 15.7308 12.5745 15.4881 12.4382C15.2448 12.3018 15.017 12.1697 14.8041 12.0421C14.77 12.0165 14.6635 11.942 14.4845 11.8182C14.3054 11.6947 14.1543 11.603 14.0305 11.5433C13.907 11.4838 13.7854 11.4539 13.6661 11.4539C13.4957 11.4539 13.2828 11.5754 13.0272 11.8182C12.7717 12.0612 12.5372 12.3252 12.3243 12.611C12.1113 12.8966 11.8854 13.1606 11.647 13.4035C11.4082 13.6465 11.2121 13.7679 11.0588 13.7679C10.9819 13.7679 10.886 13.7465 10.7711 13.7042C10.6562 13.6616 10.5688 13.6251 10.5088 13.5957C10.4493 13.5656 10.3472 13.5062 10.2023 13.4164C10.057 13.3269 9.97623 13.2778 9.95922 13.2693C8.79167 12.6214 7.79034 11.8799 6.95504 11.045C6.12 10.2095 5.37842 9.2083 4.73073 8.04062C4.72222 8.02356 4.6731 7.94256 4.58368 7.79776C4.49413 7.65281 4.43444 7.55068 4.40462 7.49086C4.3748 7.43126 4.33857 7.34386 4.29604 7.22883C4.2535 7.1138 4.23214 7.01798 4.23214 6.94118C4.23214 6.78787 4.35362 6.59175 4.59653 6.35309C4.8394 6.11457 5.10367 5.88863 5.38907 5.67572C5.6747 5.4628 5.9387 5.22835 6.18166 4.97277C6.42453 4.71705 6.54596 4.5041 6.54596 4.33368C6.54596 4.21444 6.51614 4.09287 6.45654 3.96933C6.3969 3.84553 6.30529 3.69445 6.18166 3.51539C6.05799 3.33642 5.98343 3.22999 5.95782 3.19573C5.83012 2.98282 5.69816 2.75486 5.56164 2.51195C5.42512 2.26909 5.2761 1.99837 5.1141 1.70011C4.95223 1.40199 4.82449 1.1718 4.73064 1.00989C4.43252 0.41342 4.20671 0.0894184 4.05326 0.0384629C3.99357 0.0128956 3.90402 0 3.78483 0C3.55459 0 3.25423 0.0425375 2.88352 0.127881C2.51269 0.213091 2.22088 0.302464 2.00779 0.39636C1.58165 0.575242 1.12999 1.0951 0.652676 1.95574C0.218032 2.7567 0.000732422 3.54947 0.000732422 4.33345C0.000732422 4.56338 0.0156429 4.78708 0.045464 5.00461C0.075285 5.22191 0.128569 5.46697 0.20536 5.73975C0.282017 6.01243 0.343854 6.215 0.3906 6.34691C0.437391 6.47891 0.52475 6.71538 0.652631 7.05639C0.780333 7.39732 0.857125 7.60602 0.882692 7.68273C1.18095 8.51798 1.53464 9.26364 1.94367 9.91993C2.61666 11.0108 3.53506 12.1381 4.69835 13.3015C5.86169 14.4648 6.9888 15.3831 8.07973 16.0564C8.73593 16.4654 9.48185 16.819 10.317 17.1175C10.3937 17.1429 10.6024 17.2195 10.9432 17.3477C11.2841 17.4755 11.5207 17.5629 11.6527 17.6097C11.7847 17.6567 11.9874 17.7185 12.2598 17.7953C12.5329 17.8721 12.7777 17.9254 12.995 17.9554C13.2124 17.9849 13.4362 18 13.6662 18C14.4501 18 15.2429 17.7826 16.044 17.348C16.9046 16.8709 17.4243 16.4191 17.6033 15.9927C17.6974 15.7798 17.7865 15.4879 17.8717 15.1171C17.9572 14.7464 17.9997 14.4461 17.9997 14.2159C17.9999 14.0962 17.9871 14.0069 17.9614 13.9467Z" fill="#333333"/>
</g>
<defs>
<clipPath id="clip0">
<rect width="18" height="18" fill="white"/>
</clipPath>
</defs>
</svg>
