<svg width="130" height="35" xmlns="http://www.w3.org/2000/svg"><defs><linearGradient x1="0%" y1="0%" x2="100%" y2="100%" id="a"><stop stop-color="#FFF" offset="0%"/><stop stop-color="#FFF" stop-opacity=".7" offset="100%"/></linearGradient></defs><g fill="none" fill-rule="evenodd"><path d="M56.244 26.315c1.182-1.138 1.774-2.503 1.774-4.097 0-1.59-.592-2.956-1.774-4.05-1.138-1.137-2.549-1.681-4.232-1.681-1.638 0-3.003.544-4.14 1.682-1.138 1.093-1.684 2.458-1.684 4.05 0 1.593.546 2.958 1.684 4.096 1.137 1.092 2.502 1.638 4.14 1.638 1.683 0 3.094-.546 4.232-1.638zm1.365-12.558V1.97h6.78v31.714h-6.78v-3.003c-.683 2.003-3.367 3.412-6.825 3.412-3.23 0-5.96-1.137-8.146-3.412-2.138-2.32-3.23-5.14-3.23-8.464 0-3.321 1.092-6.14 3.23-8.417 2.185-2.32 4.915-3.457 8.146-3.457 3.458 0 6.142 1.41 6.825 3.413zm26.858 5.869c0-2.049-2.093-3.778-4.777-3.778-1.41 0-2.64.365-3.686 1.093-1.046.727-1.592 1.638-1.64 2.685h10.103zM67.54 22.174c0-3.595 1.137-6.462 3.412-8.645 2.322-2.23 5.234-3.322 8.738-3.322 3.412 0 6.233 1.138 8.373 3.366 2.137 2.23 3.23 4.96 3.23 8.236 0 .775-.045 1.548-.136 2.23H74.32c.136 2.73 2.457 4.46 6.05 4.46 3.277 0 6.007-.728 8.146-2.23v5.915c-2.184 1.41-5.005 2.094-8.509 2.094-3.73 0-6.734-1.093-9.056-3.232-2.275-2.184-3.412-5.05-3.412-8.644v-.228zm42.558 4.141c1.182-1.138 1.774-2.503 1.774-4.097 0-1.59-.592-2.956-1.774-4.05-1.138-1.137-2.55-1.681-4.232-1.681-1.638 0-3.003.544-4.14 1.682-1.138 1.093-1.684 2.458-1.684 4.05 0 1.593.546 2.958 1.683 4.096 1.138 1.092 2.503 1.638 4.14 1.638 1.684 0 3.095-.546 4.233-1.638m1.365-12.558v-3.003h6.78v22.93h-6.78v-3.002c-.683 2.003-3.367 3.412-6.826 3.412-3.23 0-5.96-1.137-8.145-3.412-2.138-2.32-3.23-5.14-3.23-8.464 0-3.321 1.092-6.14 3.23-8.417 2.185-2.32 4.915-3.457 8.145-3.457 3.459 0 6.143 1.41 6.826 3.413m11.283 19.929h6.78V1.971h-6.78z" fill="#FFF"/><path d="M0 34.3h33.6V.7H0v33.6zm7.7-7.7h18.2V8.4H7.7v18.2z" fill="url(#a)" transform="translate(0 -.264)"/></g></svg>